<svg id="date_range-24px" xmlns="http://www.w3.org/2000/svg" width="25" height="25" viewBox="0 0 25 25">
  <path id="Path_15" data-name="Path 15" d="M0,0H25V25H0Z" fill="none"/>
  <path id="Path_16" data-name="Path 16" d="M9.326,11.444H7.217v2.1H9.326Zm4.217,0H11.435v2.1h2.109Zm4.217,0H15.652v2.1h2.109ZM19.87,4.1H18.816V2H16.707V4.1H8.272V2H6.163V4.1H5.109a2.094,2.094,0,0,0-2.1,2.1L3,20.887a2.1,2.1,0,0,0,2.109,2.1H19.87a2.11,2.11,0,0,0,2.109-2.1V6.2A2.11,2.11,0,0,0,19.87,4.1Zm0,16.789H5.109V9.345H19.87Z" transform="translate(0.011 0.007)" fill="#95989a"/>
</svg>
