<svg id="local_activity-24px" xmlns="http://www.w3.org/2000/svg" width="26" height="26" viewBox="0 0 26 26">
  <path id="Path_741" data-name="Path 741" d="M0,0H26V26H0Z" fill="none"/>
  <path id="Path_742" data-name="Path 742" d="M21.8,13A2.232,2.232,0,0,1,24,10.75V6.25A2.232,2.232,0,0,0,21.8,4H4.2A2.223,2.223,0,0,0,2.011,6.25v4.5A2.251,2.251,0,0,1,2,15.25v4.5A2.232,2.232,0,0,0,4.2,22H21.8A2.232,2.232,0,0,0,24,19.75v-4.5A2.232,2.232,0,0,1,21.8,13Zm-4.862,5.4L13,15.813,9.062,18.4l1.188-4.635L6.631,10.739l4.664-.281L13,6.025l1.694,4.444,4.664.281-3.619,3.026,1.2,4.624Z" transform="translate(0)" fill="#95989a"/>
</svg>
