<svg id="puzzle1" xmlns="http://www.w3.org/2000/svg" xmlns:xlink="http://www.w3.org/1999/xlink" width="64.288" height="69.667" viewBox="0 0 64.288 69.667">
  <defs>
    <clipPath id="clip-path">
      <path id="Path_598" data-name="Path 598" d="M367.6,602.246A6.862,6.862,0,0,0,363,604.5a1.035,1.035,0,0,1-1.54-.086,1.227,1.227,0,0,1-.278-.7l-.647-12.538a4.616,4.616,0,0,0-4.715-4.556h-.012L344,587.346a1.129,1.129,0,0,1-1.131-1.133,1.247,1.247,0,0,1,.24-.785,8.11,8.11,0,0,0,1.735-5.421,8.49,8.49,0,0,0-9.213-7.8,8.688,8.688,0,0,0-8.362,8.863,7.956,7.956,0,0,0,2.29,5.172,1.247,1.247,0,0,1,.006,1.667,1.055,1.055,0,0,1-.693.345l-11.816.739a4.709,4.709,0,0,0-4.211,5.094v.016l2.181,41.89a4.611,4.611,0,0,0,4.712,4.552h.015l38.749-2.358a4.708,4.708,0,0,0,4.215-5.09v-.02l-.651-12.538a1.146,1.146,0,0,1,1.044-1.227,1.03,1.03,0,0,1,.7.233,6.757,6.757,0,0,0,4.8,1.687c4.254-.259,7.486-4.716,7.213-9.959S371.854,601.987,367.6,602.246Z" transform="translate(-312.84 -572.188)" fill="none"/>
    </clipPath>
  </defs>
  <path id="Path_231" data-name="Path 231" d="M319.306,640.74a4.911,4.911,0,0,1-4.735-4.842l-2.185-41.929a5.015,5.015,0,0,1,4.476-5.413l11.836-.715a.815.815,0,0,0,.729-.575.891.891,0,0,0-.2-.928,8.32,8.32,0,0,1-2.375-5.382,8.977,8.977,0,0,1,8.621-9.186h.583a8.748,8.748,0,0,1,8.934,8.1,8.48,8.48,0,0,1-1.8,5.637.89.89,0,0,0-.113.925.8.8,0,0,0,.728.511h.051l11.833-.715h.271a4.929,4.929,0,0,1,4.734,4.842l.649,12.549a.849.849,0,0,0,.817.832.753.753,0,0,0,.554-.248,7.1,7.1,0,0,1,4.785-2.36h.4c4.272,0,7.83,4.094,8.1,9.324a11.052,11.052,0,0,1-1.97,7.053,7.374,7.374,0,0,1-5.514,3.226h-.4a7.059,7.059,0,0,1-4.589-1.762.751.751,0,0,0-.488-.185.812.812,0,0,0-.6.279.922.922,0,0,0-.215.65l.652,12.553a4.99,4.99,0,0,1-4.447,5.407h-.029l-38.816,2.36A1.715,1.715,0,0,0,319.306,640.74Z" transform="translate(-312.078 -571.398)" fill="#87aad9"/>
  <path id="Path_232" data-name="Path 232" d="M335.932,571.871a8.483,8.483,0,0,1,8.676,7.837,8.118,8.118,0,0,1-1.74,5.432,1.247,1.247,0,0,0,.161,1.662,1.046,1.046,0,0,0,.668.264h.073l11.845-.716h.255a4.652,4.652,0,0,1,4.476,4.572l.65,12.562a1.133,1.133,0,0,0,1.094,1.11,1,1,0,0,0,.73-.334,6.893,6.893,0,0,1,4.61-2.257h.387c4.1,0,7.577,3.961,7.84,9.057.274,5.253-2.969,9.719-7.238,9.979h-.384a6.833,6.833,0,0,1-4.429-1.7,1,1,0,0,0-.657-.248,1.139,1.139,0,0,0-1.1,1.179c0,.022,0,.044,0,.065l.653,12.562a4.722,4.722,0,0,1-4.21,5.118h-.018L319.4,640.377h-.255a4.648,4.648,0,0,1-4.473-4.568l-2.19-41.973a4.724,4.724,0,0,1,4.21-5.119h.015L328.559,588a1.155,1.155,0,0,0,1.01-1.266,1.222,1.222,0,0,0-.321-.751,7.981,7.981,0,0,1-2.262-5.214,8.691,8.691,0,0,1,8.391-8.88h.569m0-.591h-.6a9.633,9.633,0,0,0-6.451,2.988,8.68,8.68,0,0,0-.434,11.607q.22.257.459.494a.6.6,0,0,1,.131.614.54.54,0,0,1-.478.394l-11.853.715a5.3,5.3,0,0,0-4.743,5.725l2.189,41.971a5.218,5.218,0,0,0,5.02,5.119h.288l38.881-2.363a5.3,5.3,0,0,0,4.743-5.73l-.653-12.562a.589.589,0,0,1,.142-.429.55.55,0,0,1,.4-.189.473.473,0,0,1,.318.122,7.347,7.347,0,0,0,4.768,1.827h.416a7.671,7.671,0,0,0,5.7-3.363,11.35,11.35,0,0,0,2.049-7.249c-.281-5.387-3.965-9.609-8.391-9.609h-.419a7.388,7.388,0,0,0-4.962,2.426.483.483,0,0,1-.365.165.559.559,0,0,1-.547-.555l-.653-12.562a5.216,5.216,0,0,0-5.02-5.12H355.6l-11.857.715h-.033a.525.525,0,0,1-.485-.338.594.594,0,0,1,.073-.614,8.8,8.8,0,0,0,1.871-5.848,9.04,9.04,0,0,0-9.222-8.392Z" transform="translate(-311.968 -571.262)" fill="#fff"/>
  <g id="Group_476" data-name="Group 476" transform="translate(0.639 0.679)">
    <g id="Group_475" data-name="Group 475" clip-path="url(#clip-path)">
      <g id="Group_341" data-name="Group 341" transform="translate(-21.933 33.634)">
        <g id="Group_340" data-name="Group 340" opacity="0.35">
          <path id="Path_233" data-name="Path 233" d="M278.106,649.073a1.044,1.044,0,0,1-1.271-.82,1.142,1.142,0,0,1,.759-1.374,1.044,1.044,0,0,1,1.272.82v0A1.141,1.141,0,0,1,278.106,649.073Z" transform="translate(-276.803 -631.357)" fill="#fff"/>
          <path id="Path_234" data-name="Path 234" d="M293.831,645.148a1.045,1.045,0,0,1-1.27-.824,1.14,1.14,0,0,1,.763-1.372,1.044,1.044,0,0,1,1.269.824v0A1.14,1.14,0,0,1,293.831,645.148Z" transform="translate(-282.958 -630.015)" fill="#fff"/>
          <path id="Path_235" data-name="Path 235" d="M309.56,641.232a1.042,1.042,0,0,1-1.262-.827,1.136,1.136,0,0,1,.766-1.364,1.041,1.041,0,0,1,1.262.827,1.207,1.207,0,0,1-.119.85A1.057,1.057,0,0,1,309.56,641.232Z" transform="translate(-289.118 -628.677)" fill="#fff"/>
          <path id="Path_236" data-name="Path 236" d="M325.287,637.312a1.038,1.038,0,0,1-1.255-.828,1.132,1.132,0,0,1,.766-1.357,1.038,1.038,0,0,1,1.255.828,1.2,1.2,0,0,1-.121.845A1.057,1.057,0,0,1,325.287,637.312Z" transform="translate(-295.276 -627.339)" fill="#fff"/>
          <path id="Path_237" data-name="Path 237" d="M341,633.385a1.044,1.044,0,0,1-1.268-.826,1.141,1.141,0,0,1,.763-1.372,1.045,1.045,0,0,1,1.269.826h0A1.141,1.141,0,0,1,341,633.385Z" transform="translate(-301.42 -625.991)" fill="#fff"/>
          <path id="Path_238" data-name="Path 238" d="M356.731,629.464a1.041,1.041,0,0,1-1.264-.823,1.136,1.136,0,0,1,.761-1.367,1.041,1.041,0,0,1,1.265.822,1.209,1.209,0,0,1-.117.852A1.058,1.058,0,0,1,356.731,629.464Z" transform="translate(-307.579 -624.652)" fill="#fff"/>
          <path id="Path_239" data-name="Path 239" d="M372.448,625.536a1.043,1.043,0,0,1-1.272-.819,1.141,1.141,0,0,1,.758-1.375,1.044,1.044,0,0,1,1.272.819l0,.008A1.141,1.141,0,0,1,372.448,625.536Z" transform="translate(-313.727 -623.307)" fill="#fff"/>
          <path id="Path_240" data-name="Path 240" d="M281.32,661.983a1.043,1.043,0,0,1-1.279-.808,1.143,1.143,0,0,1,.747-1.382,1.042,1.042,0,0,1,1.279.807v.007A1.142,1.142,0,0,1,281.32,661.983Z" transform="translate(-278.057 -635.774)" fill="#fff"/>
          <path id="Path_241" data-name="Path 241" d="M297.05,658.057a1.045,1.045,0,0,1-1.27-.824,1.141,1.141,0,0,1,.763-1.372,1.045,1.045,0,0,1,1.27.824v0A1.142,1.142,0,0,1,297.05,658.057Z" transform="translate(-284.218 -634.43)" fill="#fff"/>
          <path id="Path_242" data-name="Path 242" d="M312.779,654.141a1.041,1.041,0,0,1-1.262-.827,1.136,1.136,0,0,1,.766-1.364,1.042,1.042,0,0,1,1.262.828,1.206,1.206,0,0,1-.12.849A1.057,1.057,0,0,1,312.779,654.141Z" transform="translate(-290.378 -633.093)" fill="#fff"/>
          <path id="Path_243" data-name="Path 243" d="M328.507,650.223a1.039,1.039,0,0,1-1.256-.828,1.132,1.132,0,0,1,.766-1.357,1.038,1.038,0,0,1,1.255.828,1.205,1.205,0,0,1-.12.846A1.058,1.058,0,0,1,328.507,650.223Z" transform="translate(-296.536 -631.755)" fill="#fff"/>
          <path id="Path_244" data-name="Path 244" d="M344.223,646.3a1.044,1.044,0,0,1-1.272-.82,1.142,1.142,0,0,1,.76-1.375,1.044,1.044,0,0,1,1.271.82v0A1.141,1.141,0,0,1,344.223,646.3Z" transform="translate(-302.68 -630.407)" fill="#fff"/>
          <path id="Path_245" data-name="Path 245" d="M359.946,642.37a1.044,1.044,0,0,1-1.271-.82,1.141,1.141,0,0,1,.759-1.375A1.043,1.043,0,0,1,360.7,641v0A1.141,1.141,0,0,1,359.946,642.37Z" transform="translate(-308.834 -629.065)" fill="#fff"/>
          <path id="Path_246" data-name="Path 246" d="M375.668,638.448a1.044,1.044,0,0,1-1.272-.819,1.142,1.142,0,0,1,.758-1.376,1.045,1.045,0,0,1,1.273.82l0,.007A1.142,1.142,0,0,1,375.668,638.448Z" transform="translate(-314.987 -627.723)" fill="#fff"/>
          <path id="Path_247" data-name="Path 247" d="M284.548,674.89a1.044,1.044,0,0,1-1.268-.826,1.14,1.14,0,0,1,.764-1.371,1.044,1.044,0,0,1,1.268.825,1.141,1.141,0,0,1-.763,1.372Z" transform="translate(-279.326 -640.188)" fill="#fff"/>
          <path id="Path_248" data-name="Path 248" d="M300.309,670.958a1.055,1.055,0,0,1-1.223-.9,1.131,1.131,0,0,1,.834-1.322,1.055,1.055,0,0,1,1.223.9,1.223,1.223,0,0,1-.028.543A1.079,1.079,0,0,1,300.309,670.958Z" transform="translate(-285.517 -638.838)" fill="#fff"/>
          <path id="Path_249" data-name="Path 249" d="M316.012,667.061a1.045,1.045,0,0,1-1.269-.826,1.141,1.141,0,0,1,.764-1.372,1.044,1.044,0,0,1,1.268.826h0a1.14,1.14,0,0,1-.763,1.371Z" transform="translate(-291.64 -637.51)" fill="#fff"/>
          <path id="Path_250" data-name="Path 250" d="M331.725,663.126a1.041,1.041,0,0,1-1.264-.823,1.136,1.136,0,0,1,.761-1.367,1.041,1.041,0,0,1,1.265.822,1.21,1.21,0,0,1-.117.852A1.058,1.058,0,0,1,331.725,663.126Z" transform="translate(-297.792 -636.167)" fill="#fff"/>
          <path id="Path_251" data-name="Path 251" d="M347.443,659.2a1.045,1.045,0,0,1-1.272-.82,1.142,1.142,0,0,1,.759-1.375,1.045,1.045,0,0,1,1.272.821v0A1.142,1.142,0,0,1,347.443,659.2Z" transform="translate(-303.94 -634.823)" fill="#fff"/>
          <path id="Path_252" data-name="Path 252" d="M363.168,655.28a1.045,1.045,0,0,1-1.272-.821,1.142,1.142,0,0,1,.76-1.374,1.044,1.044,0,0,1,1.271.821v0A1.141,1.141,0,0,1,363.168,655.28Z" transform="translate(-310.095 -633.48)" fill="#fff"/>
          <ellipse id="Ellipse_23" data-name="Ellipse 23" cx="1.047" cy="1.132" rx="1.047" ry="1.132" transform="translate(61.338 16.981)" fill="#fff"/>
          <path id="Path_253" data-name="Path 253" d="M287.773,687.8a1.042,1.042,0,0,1-1.262-.827,1.136,1.136,0,0,1,.766-1.364,1.042,1.042,0,0,1,1.262.827,1.208,1.208,0,0,1-.119.85A1.057,1.057,0,0,1,287.773,687.8Z" transform="translate(-280.59 -644.608)" fill="#fff"/>
          <path id="Path_254" data-name="Path 254" d="M303.5,683.868a1.055,1.055,0,0,1-1.223-.9,1.13,1.13,0,0,1,.835-1.323,1.055,1.055,0,0,1,1.223.9,1.211,1.211,0,0,1-.029.543A1.081,1.081,0,0,1,303.5,683.868Z" transform="translate(-286.768 -643.254)" fill="#fff"/>
          <path id="Path_255" data-name="Path 255" d="M319.213,679.956a1.045,1.045,0,0,1-1.269-.825,1.141,1.141,0,0,1,.764-1.372,1.044,1.044,0,0,1,1.269.825,1.141,1.141,0,0,1-.763,1.372Z" transform="translate(-292.893 -641.921)" fill="#fff"/>
          <path id="Path_256" data-name="Path 256" d="M334.945,676.026a1.041,1.041,0,0,1-1.264-.823,1.136,1.136,0,0,1,.761-1.367,1.041,1.041,0,0,1,1.265.823,1.209,1.209,0,0,1-.117.852A1.061,1.061,0,0,1,334.945,676.026Z" transform="translate(-299.052 -640.579)" fill="#fff"/>
          <path id="Path_257" data-name="Path 257" d="M350.657,672.114a1.044,1.044,0,0,1-1.271-.822,1.142,1.142,0,0,1,.76-1.374,1.044,1.044,0,0,1,1.271.822l0,.014A1.14,1.14,0,0,1,350.657,672.114Z" transform="translate(-305.199 -639.239)" fill="#fff"/>
          <path id="Path_258" data-name="Path 258" d="M366.386,668.189a1.044,1.044,0,0,1-1.271-.82,1.141,1.141,0,0,1,.759-1.374,1.043,1.043,0,0,1,1.271.82v0A1.141,1.141,0,0,1,366.386,668.189Z" transform="translate(-311.354 -637.896)" fill="#fff"/>
          <ellipse id="Ellipse_24" data-name="Ellipse 24" cx="1.047" cy="1.132" rx="1.047" ry="1.132" transform="translate(63.299 25.472)" fill="#fff"/>
          <path id="Path_259" data-name="Path 259" d="M290.993,700.713a1.042,1.042,0,0,1-1.262-.828,1.136,1.136,0,0,1,.765-1.364,1.042,1.042,0,0,1,1.262.828,1.208,1.208,0,0,1-.119.85A1.057,1.057,0,0,1,290.993,700.713Z" transform="translate(-281.851 -649.023)" fill="#fff"/>
          <path id="Path_260" data-name="Path 260" d="M306.749,696.777a1.055,1.055,0,0,1-1.223-.9,1.13,1.13,0,0,1,.834-1.323,1.055,1.055,0,0,1,1.223.9,1.215,1.215,0,0,1-.029.543A1.079,1.079,0,0,1,306.749,696.777Z" transform="translate(-288.037 -647.67)" fill="#fff"/>
          <path id="Path_261" data-name="Path 261" d="M322.437,692.868a1.044,1.044,0,0,1-1.271-.82,1.142,1.142,0,0,1,.759-1.374,1.043,1.043,0,0,1,1.271.82v0A1.141,1.141,0,0,1,322.437,692.868Z" transform="translate(-294.153 -646.338)" fill="#fff"/>
          <path id="Path_262" data-name="Path 262" d="M338.166,688.945a1.042,1.042,0,0,1-1.265-.823,1.137,1.137,0,0,1,.761-1.367,1.04,1.04,0,0,1,1.264.822,1.209,1.209,0,0,1-.117.852A1.061,1.061,0,0,1,338.166,688.945Z" transform="translate(-300.312 -644.998)" fill="#fff"/>
          <path id="Path_263" data-name="Path 263" d="M353.883,685.023a1.044,1.044,0,0,1-1.271-.821,1.142,1.142,0,0,1,.759-1.375,1.044,1.044,0,0,1,1.271.82v0A1.142,1.142,0,0,1,353.883,685.023Z" transform="translate(-306.461 -643.654)" fill="#fff"/>
          <ellipse id="Ellipse_25" data-name="Ellipse 25" cx="1.047" cy="1.132" rx="1.047" ry="1.132" transform="translate(55.691 36.564)" fill="#fff"/>
          <path id="Path_264" data-name="Path 264" d="M385.306,677.173a1.045,1.045,0,0,1-1.27-.824,1.14,1.14,0,0,1,.763-1.372,1.045,1.045,0,0,1,1.27.824v0A1.141,1.141,0,0,1,385.306,677.173Z" transform="translate(-318.761 -640.969)" fill="#fff"/>
          <path id="Path_265" data-name="Path 265" d="M294.212,713.622a1.042,1.042,0,0,1-1.262-.827,1.137,1.137,0,0,1,.766-1.365,1.042,1.042,0,0,1,1.262.828,1.205,1.205,0,0,1-.119.849A1.057,1.057,0,0,1,294.212,713.622Z" transform="translate(-283.111 -653.438)" fill="#fff"/>
          <path id="Path_266" data-name="Path 266" d="M309.933,709.694a1.044,1.044,0,0,1-1.272-.819,1.142,1.142,0,0,1,.758-1.376,1.044,1.044,0,0,1,1.272.82l0,.007A1.141,1.141,0,0,1,309.933,709.694Z" transform="translate(-289.259 -652.093)" fill="#fff"/>
          <path id="Path_267" data-name="Path 267" d="M325.657,705.775a1.044,1.044,0,0,1-1.271-.82,1.142,1.142,0,0,1,.759-1.374,1.044,1.044,0,0,1,1.271.82v0A1.141,1.141,0,0,1,325.657,705.775Z" transform="translate(-295.414 -650.753)" fill="#fff"/>
          <path id="Path_268" data-name="Path 268" d="M341.38,701.85a1.044,1.044,0,0,1-1.272-.82,1.142,1.142,0,0,1,.76-1.375,1.045,1.045,0,0,1,1.271.82v0A1.141,1.141,0,0,1,341.38,701.85Z" transform="translate(-301.567 -649.41)" fill="#fff"/>
          <path id="Path_269" data-name="Path 269" d="M357.1,697.931a1.043,1.043,0,0,1-1.271-.82,1.141,1.141,0,0,1,.759-1.374,1.044,1.044,0,0,1,1.271.82v0A1.141,1.141,0,0,1,357.1,697.931Z" transform="translate(-307.721 -648.07)" fill="#fff"/>
          <path id="Path_270" data-name="Path 270" d="M372.825,694.007a1.044,1.044,0,0,1-1.271-.821,1.142,1.142,0,0,1,.759-1.374,1.044,1.044,0,0,1,1.271.821v0A1.141,1.141,0,0,1,372.825,694.007Z" transform="translate(-313.875 -646.727)" fill="#fff"/>
          <path id="Path_271" data-name="Path 271" d="M388.55,690.082a1.045,1.045,0,0,1-1.27-.825,1.141,1.141,0,0,1,.763-1.372,1.045,1.045,0,0,1,1.27.824v0A1.141,1.141,0,0,1,388.55,690.082Z" transform="translate(-320.03 -645.384)" fill="#fff"/>
          <path id="Path_272" data-name="Path 272" d="M297.436,726.531a1.04,1.04,0,0,1-1.264-.822,1.137,1.137,0,0,1,.761-1.367,1.042,1.042,0,0,1,1.265.823,1.208,1.208,0,0,1-.117.851A1.056,1.056,0,0,1,297.436,726.531Z" transform="translate(-284.371 -657.855)" fill="#fff"/>
          <path id="Path_273" data-name="Path 273" d="M313.153,722.618a1.044,1.044,0,0,1-1.272-.82,1.141,1.141,0,0,1,.758-1.375,1.044,1.044,0,0,1,1.272.819l0,.008A1.142,1.142,0,0,1,313.153,722.618Z" transform="translate(-290.519 -656.514)" fill="#fff"/>
          <path id="Path_274" data-name="Path 274" d="M328.879,718.685a1.044,1.044,0,0,1-1.271-.82,1.142,1.142,0,0,1,.759-1.375,1.045,1.045,0,0,1,1.272.82v0A1.142,1.142,0,0,1,328.879,718.685Z" transform="translate(-296.675 -655.168)" fill="#fff"/>
          <path id="Path_275" data-name="Path 275" d="M344.6,714.76a1.044,1.044,0,0,1-1.271-.821,1.142,1.142,0,0,1,.759-1.375,1.044,1.044,0,0,1,1.271.821v0A1.141,1.141,0,0,1,344.6,714.76Z" transform="translate(-302.827 -653.826)" fill="#fff"/>
          <path id="Path_276" data-name="Path 276" d="M360.322,710.835a1.044,1.044,0,0,1-1.272-.82,1.142,1.142,0,0,1,.758-1.375,1.044,1.044,0,0,1,1.272.82l0,.007A1.141,1.141,0,0,1,360.322,710.835Z" transform="translate(-308.981 -652.483)" fill="#fff"/>
          <ellipse id="Ellipse_26" data-name="Ellipse 26" cx="1.047" cy="1.132" rx="1.047" ry="1.132" transform="translate(59.611 53.535)" fill="#fff"/>
          <path id="Path_277" data-name="Path 277" d="M391.78,703a1.038,1.038,0,0,1-1.255-.828,1.132,1.132,0,0,1,.766-1.357,1.039,1.039,0,0,1,1.256.828,1.2,1.2,0,0,1-.12.846A1.057,1.057,0,0,1,391.78,703Z" transform="translate(-321.301 -649.807)" fill="#fff"/>
          <path id="Path_278" data-name="Path 278" d="M300.656,739.441a1.04,1.04,0,0,1-1.264-.823,1.136,1.136,0,0,1,.761-1.367,1.041,1.041,0,0,1,1.265.823,1.208,1.208,0,0,1-.117.851A1.058,1.058,0,0,1,300.656,739.441Z" transform="translate(-285.632 -662.27)" fill="#fff"/>
          <path id="Path_279" data-name="Path 279" d="M316.373,735.512a1.043,1.043,0,0,1-1.272-.819,1.142,1.142,0,0,1,.758-1.375,1.044,1.044,0,0,1,1.273.819l0,.008A1.141,1.141,0,0,1,316.373,735.512Z" transform="translate(-291.78 -660.924)" fill="#fff"/>
          <ellipse id="Ellipse_27" data-name="Ellipse 27" cx="1.047" cy="1.132" rx="1.047" ry="1.132" transform="translate(32.861 69.781)" fill="#fff"/>
          <path id="Path_280" data-name="Path 280" d="M347.82,727.669a1.044,1.044,0,0,1-1.271-.82,1.141,1.141,0,0,1,.759-1.374,1.044,1.044,0,0,1,1.271.82v0A1.141,1.141,0,0,1,347.82,727.669Z" transform="translate(-304.088 -658.241)" fill="#fff"/>
          <ellipse id="Ellipse_28" data-name="Ellipse 28" cx="1.047" cy="1.132" rx="1.047" ry="1.132" transform="translate(52.001 64.609)" fill="#fff"/>
          <path id="Path_281" data-name="Path 281" d="M379.268,719.824A1.044,1.044,0,0,1,378,719a1.141,1.141,0,0,1,.764-1.372,1.044,1.044,0,0,1,1.268.825,1.14,1.14,0,0,1-.763,1.372Z" transform="translate(-316.398 -655.558)" fill="#fff"/>
          <path id="Path_282" data-name="Path 282" d="M395,715.908a1.038,1.038,0,0,1-1.255-.828,1.131,1.131,0,0,1,.766-1.357,1.038,1.038,0,0,1,1.256.828,1.2,1.2,0,0,1-.121.845A1.058,1.058,0,0,1,395,715.908Z" transform="translate(-322.561 -654.223)" fill="#fff"/>
        </g>
      </g>
    </g>
  </g>
</svg>
