<svg xmlns="http://www.w3.org/2000/svg" viewBox="0 0 85.74 89.81"><defs><style>.cls-1{fill:#121213;}</style></defs><g id="圖層_2" data-name="圖層 2"><g id="圖層_1-2" data-name="圖層 1"><path id="Fill_171" data-name="Fill 171" class="cls-1" d="M48.54,89.81H37.2a5.84,5.84,0,0,1-5.67-6V78.75a33.78,33.78,0,0,1-10.65-6.6l-6.71,4.08a5.45,5.45,0,0,1-2.83.82,5.63,5.63,0,0,1-4.89-3L.76,63.69a6.19,6.19,0,0,1,2.07-8.17l6.64-4.08a35.26,35.26,0,0,1,0-13.06L2.83,34.32A6.18,6.18,0,0,1,.76,26.16L6.43,15.79a5.63,5.63,0,0,1,4.9-3,5.45,5.45,0,0,1,2.83.82l6.7,4.08a33.64,33.64,0,0,1,10.67-6.62V6A5.85,5.85,0,0,1,37.2,0H48.54a5.85,5.85,0,0,1,5.67,6v5.08a33.76,33.76,0,0,1,10.65,6.59l6.71-4.08a5.29,5.29,0,0,1,2.82-.81,5.62,5.62,0,0,1,4.9,3L85,26.13a6.18,6.18,0,0,1-2.08,8.16l-6.64,4.09a34.7,34.7,0,0,1,0,13.06l6.64,4.05A6.17,6.17,0,0,1,85,63.65L79.31,74a5.63,5.63,0,0,1-4.9,3,5.45,5.45,0,0,1-2.83-.82l-6.71-4.08a33.38,33.38,0,0,1-10.65,6.6V83.8a5.83,5.83,0,0,1-5.66,6ZM42.87,29.94a14.6,14.6,0,0,0-14.17,15,14.6,14.6,0,0,0,14.17,15A14.6,14.6,0,0,0,57,44.91,14.6,14.6,0,0,0,42.87,29.94Zm0,24a9,9,0,1,1,9-9A9,9,0,0,1,42.87,53.89Z"/></g></g></svg>