<svg xmlns="http://www.w3.org/2000/svg" viewBox="0 0 85.55 76.41"><defs><style>.cls-1{fill:#121213;}</style></defs><g id="圖層_2" data-name="圖層 2"><g id="圖層_1-2" data-name="圖層 1"><path id="Fill_216" data-name="Fill 216" class="cls-1" d="M74.85,76.4H10.7A10.18,10.18,0,0,1,0,66.85V9.56A10.18,10.18,0,0,1,10.7,0H74.85a10.18,10.18,0,0,1,10.7,9.55V66.85A10.18,10.18,0,0,1,74.85,76.4Zm-10.69-42h0l-22.82,21L61,73.69H74.85a5.15,5.15,0,0,0,5.35-4.91V49.13l-16-14.73ZM26.59,49h0L5.35,66.47v2.31a5.15,5.15,0,0,0,5.35,4.91H53.47ZM21.38,9.84A10.29,10.29,0,0,0,10.7,19.66a10.29,10.29,0,0,0,10.68,9.83,10.31,10.31,0,0,0,10.7-9.83A10.3,10.3,0,0,0,21.38,9.84Zm0,14.73A5.15,5.15,0,0,1,16,19.66a5.15,5.15,0,0,1,5.34-4.91,5.15,5.15,0,0,1,5.34,4.91,5.14,5.14,0,0,1-5.34,4.91Z"/></g></g></svg>