<svg xmlns="http://www.w3.org/2000/svg" viewBox="0 0 88.82 91.49"><defs><style>.cls-1{fill:#121213;}</style></defs><g id="圖層_2" data-name="圖層 2"><g id="圖層_1-2" data-name="圖層 1"><path id="Fill_213" data-name="Fill 213" class="cls-1" d="M70,91.49H7.78a7.9,7.9,0,0,1-7.78-8v-64a7.9,7.9,0,0,1,7.78-8H60.13L26.72,45.87a5.53,5.53,0,0,0-1.42,2.94L13.36,73.69a3.51,3.51,0,0,0,.29,3.21,2.56,2.56,0,0,0,2.16,1.16,3.48,3.48,0,0,0,1.45-.35l24.16-12.3A5.32,5.32,0,0,0,44.28,64L77.77,29.46v54A7.91,7.91,0,0,1,70,91.49ZM19.89,72.43a1.39,1.39,0,0,1-1.2-.68,1.55,1.55,0,0,1-.05-1.49l9-15.36L35.52,63,20.59,72.26A1.57,1.57,0,0,1,19.89,72.43ZM40.38,59.94h0l-7.11-7.32-.1-.1-2.55-2.61L61.77,17.83l9.82,10L40.37,60ZM77.77,29.46v-8L75.5,23.77,65.88,13.58l2.06-2.12H60.13l9.51-9.79a5.4,5.4,0,0,1,7.64-.17l.17.17,9.75,10a5.79,5.79,0,0,1,0,8l-9.43,9.72Zm-9.83-18h2a7.91,7.91,0,0,1,7.78,8v2l3.58-3.69a2.92,2.92,0,0,0,0-4l-5.85-6a2.71,2.71,0,0,0-3.83-.09l-.08.09Z"/></g></g></svg>