<svg xmlns="http://www.w3.org/2000/svg" viewBox="0 0 61.69 84.82"><defs><style>.cls-1{fill:#231815;}</style></defs><g id="圖層_2" data-name="圖層 2"><g id="圖層_1-2" data-name="圖層 1"><path id="Fill_176" data-name="Fill 176" class="cls-1" d="M42.42,84.82h-27A14.92,14.92,0,0,1,0,70.42c0-.34,0-.68,0-1V57.83A15.45,15.45,0,0,1,7.72,46.26,27.35,27.35,0,0,0,30.85,57.83,27.35,27.35,0,0,0,54,46.26a15.45,15.45,0,0,1,7.71,11.57V69.39C61.69,78.22,51.52,84.82,42.42,84.82ZM30.85,54a27.19,27.19,0,0,1-18.64-8A27,27,0,0,1,3.86,27,26.94,26.94,0,0,1,12.21,8,27.16,27.16,0,0,1,30.85,0,21.4,21.4,0,0,1,47.56,8,29.68,29.68,0,0,1,54,27a29.73,29.73,0,0,1-6.42,19A21.4,21.4,0,0,1,30.85,54Z"/></g></g></svg>