<svg xmlns="http://www.w3.org/2000/svg" viewBox="0 0 98.42 102.89"><defs><style>.cls-1{fill:#121213;}</style></defs><g id="圖層_2" data-name="圖層 2"><g id="圖層_1-2" data-name="圖層 1"><path id="Fill_190" data-name="Fill 190" class="cls-1" d="M18.45,102.89h0V80.12A43.48,43.48,0,0,1,0,45,42.89,42.89,0,0,1,14.41,13.19,51.31,51.31,0,0,1,49.21,0,51.27,51.27,0,0,1,84,13.19,42.87,42.87,0,0,1,98.42,45,42.88,42.88,0,0,1,84,76.85,51.28,51.28,0,0,1,49.21,90a54.53,54.53,0,0,1-9.2-.81L18.46,102.89ZM33.83,54.66a3.22,3.22,0,0,0,0,6.43H64.58a3.22,3.22,0,0,0,0-6.43ZM27.68,35.37a3.22,3.22,0,0,0,0,6.43H70.74a3.22,3.22,0,0,0,0-6.43Z"/></g></g></svg>