<svg xmlns="http://www.w3.org/2000/svg" viewBox="0 0 70.96 68.28"><defs><style>.cls-1{fill:#040000;}</style></defs><g id="圖層_2" data-name="圖層 2"><g id="圖層_1-2" data-name="圖層 1"><path id="Fill_94" data-name="Fill 94" class="cls-1" d="M48.38,68.28c-2.9,0-9.68-.63-9.68-6.46a10.33,10.33,0,0,1,9.68-9.67,10.31,10.31,0,0,1,9.67,9.67C58.05,67.65,51.29,68.28,48.38,68.28Zm0-12.91c-2.37,0-3.23,3.87-3.23,6.45s.79,3.23,3.23,3.23,3.22-.78,3.22-3.23S50.75,55.37,48.38,55.37ZM22.58,68.28c-2.91,0-9.68-.63-9.68-6.46a10.33,10.33,0,0,1,9.68-9.67H19.35a10.31,10.31,0,0,1-9.67-9.68V3.77H3.23A4.39,4.39,0,0,1,0,.55C0,.17.18,0,.56,0A5.19,5.19,0,0,1,1.79.26,6.34,6.34,0,0,0,3.23.55h12.9a5.78,5.78,0,0,0,1.43-.3A5.17,5.17,0,0,1,18.79,0c.38,0,.56.17.56.55a4.38,4.38,0,0,1-3.22,3.22H12.9V7H67.73a3.81,3.81,0,0,1,2.35,1.4A2.66,2.66,0,0,1,71,10.22c0,.5-5.3,24.72-6.45,29h-.14c-2.85,0-51,3.2-51.47,3.22a6.92,6.92,0,0,0,2.32,4.13,6.87,6.87,0,0,0,4.13,2.32H67.73c0,1,0,1.68,0,2.21a5.79,5.79,0,0,1,0,1H22.6a10.31,10.31,0,0,1,9.68,9.67C32.25,67.65,25.49,68.28,22.58,68.28Zm0-12.91c-2.37,0-3.23,3.87-3.23,6.45s.79,3.23,3.23,3.23,3.22-.78,3.22-3.23S24.94,55.37,22.58,55.37Z"/></g></g></svg>