<svg id="blue_woman" data-name="blue woman" xmlns="http://www.w3.org/2000/svg" width="77.531" height="145.865" viewBox="0 0 77.531 145.865">
  <path id="Path_284" data-name="Path 284" d="M57.459,229.3s-.493,21.737-1.822,29.206c-1.494,8.365-13.94,25.233-13.94,25.233l2.883,2.853,4.271,2.036s10.9-10.4,17.023-23.43c5.322-11.3,5.557-34.752,5.557-34.752" transform="translate(-38.192 -153.555)" fill="#e7b6df"/>
  <path id="Path_285" data-name="Path 285" d="M53.663,306.342a2.143,2.143,0,0,0,0-1.429l-4.441-6.533c-4.246-.781-7.966-4.61-7.966-4.61l-3.714,4.112a.328.328,0,0,0,.1.452l14.936,9.417C52.926,307.941,53.658,306.357,53.663,306.342Z" transform="translate(-37.491 -164.292)" fill="#0a244b"/>
  <path id="Path_286" data-name="Path 286" d="M52.6,300.628a8.5,8.5,0,0,0-1.793.9" transform="translate(-39.71 -165.434)" fill="none" stroke="#002b6e" stroke-linejoin="round" stroke-width="0.75"/>
  <path id="Path_287" data-name="Path 287" d="M53.238,301.77a7.86,7.86,0,0,0-1.494.781" transform="translate(-39.865 -165.624)" fill="none" stroke="#002b6e" stroke-linejoin="round" stroke-width="0.75"/>
  <path id="Path_288" data-name="Path 288" d="M53.786,302.672a10.241,10.241,0,0,0-1.384.707" transform="translate(-39.975 -165.775)" fill="none" stroke="#002b6e" stroke-linejoin="round" stroke-width="0.75"/>
  <line id="Line_4" data-name="Line 4" x2="15.315" y2="9.644" transform="translate(0.617 132.924)" fill="none" stroke="#002b6e" stroke-linejoin="round" stroke-width="0.75"/>
  <path id="Path_289" data-name="Path 289" d="M40.466,295.521s3.536,2.359,2.49,4.715" transform="translate(-37.987 -164.584)" fill="none" stroke="#002b6e" stroke-linejoin="round" stroke-width="0.75"/>
  <path id="Path_290" data-name="Path 290" d="M55.315,305.563a13.866,13.866,0,0,0-2.49,1.3" transform="translate(-40.045 -166.256)" fill="none" stroke="#002b6e" stroke-linejoin="round" stroke-width="0.75"/>
  <path id="Path_291" data-name="Path 291" d="M79.785,238.329s.836,12.716,1.414,22.44,1.718,31.924,1.718,31.924l4.207,1,4.67-.777S93,273.743,93,261.047c0-13.134-.5-31.747-.5-31.747" transform="translate(-44.535 -153.555)" fill="#e7b6df"/>
  <path id="Path_298" data-name="Path 298" d="M76.164,153.811a5.489,5.489,0,0,0-5.477,2.594c-.319.5-.568,1.05-.927,1.529-2.275,2.987-11.451,2.076-9.629,8a10.116,10.116,0,0,1,.667,2.022,7.447,7.447,0,0,1-.637,2.579,5.521,5.521,0,0,0,3.983,6.642c1.269.269,2.679.09,3.778.782,1,.647,1.494,1.872,2.211,2.837,1.991,2.649,5.914,3.171,9.021,2.041a4.707,4.707,0,0,0,2.853-2.275,14.554,14.554,0,0,1,.707-1.991c.717-1.175,2.31-1.369,3.485-2.051a4.284,4.284,0,0,0,1.942-5.123c-.782-1.852-2.49-3.639-2.878-5.675-.215-1.13.094-2.315-.135-3.445a3.678,3.678,0,0,0-1.319-2.146c-.458-.37-1-.617-1.459-1-.961-.782-1.085-2.191-2.071-2.988s-2.3-1.069-3.36-1.757" transform="translate(-41.222 -140.967)" fill="#fdd499"/>
  <path id="Path_299" data-name="Path 299" d="M84.415,166.646c5.785-1.619,14.275-1.28,21.051-7.966a61.522,61.522,0,0,0,9.694-11.815l5.222,4.117s-6.856,13.149-12.945,17.57A38.288,38.288,0,0,1,89.329,176.1" transform="translate(-45.306 -139.826)" fill="#e7b6df"/>
  <path id="Path_300" data-name="Path 300" d="M119.57,147.645c1.429-2.186,4.879-8.464,5.362-8.38s-.623,2.261-.219,2.24,2.34-3.276,2.8-3.077c.628.264-1.529,3.486-1.529,3.486s.563-.576,1.04-.189c.338.278-.069,1.254-.069,1.254s.652-.648,1-.353-.12,1.454-.12,1.454a.842.842,0,0,1,.817,0c.329.259-1.364,4.157-4.521,9.216" transform="translate(-51.161 -138.419)" fill="#e7b6df"/>
  <path id="Path_301" data-name="Path 301" d="M125.145,143.144a12.461,12.461,0,0,0,0,1.916,3.21,3.21,0,0,1-.229,1.887" transform="translate(-52.051 -139.206)" fill="none" stroke="#aa1f6f" stroke-linejoin="round" stroke-width="0.75"/>
  <path id="Path_302" data-name="Path 302" d="M126.893,142.941c-.134.363-.264.737-.373,1.11a5.418,5.418,0,0,0-.134.563,1.315,1.315,0,0,0-.035.534c.03.085.03.09.094.09a.386.386,0,0,0,.206-.07,2.325,2.325,0,0,0,.423-.353,9.548,9.548,0,0,0,.732-.877.165.165,0,0,1,.284.167l-.005.007h0c-.18.334-.348.683-.5,1.031a5.572,5.572,0,0,0-.184.528,1.192,1.192,0,0,0-.07.5c.025.055,0,.03.041.042a.29.29,0,0,0,.18-.042,1.384,1.384,0,0,0,.4-.318,5.425,5.425,0,0,0,.667-.9h0a.162.162,0,0,1,.283.154c-.149.313-.3.633-.433.956a3.967,3.967,0,0,0-.3,1,.407.407,0,0,0,0,.205c0,.042.049.055.123.045a1.113,1.113,0,0,0,.411-.264,6.177,6.177,0,0,0,.692-.791,5.021,5.021,0,0,1-.607.876,1.184,1.184,0,0,1-.453.343.362.362,0,0,1-.179,0,.239.239,0,0,1-.159-.123.617.617,0,0,1-.055-.314,4.155,4.155,0,0,1,.254-1.065,9.983,9.983,0,0,1,.4-1l.283.149a5.3,5.3,0,0,1-.7,1,1.766,1.766,0,0,1-.5.4.657.657,0,0,1-.378.079.379.379,0,0,1-.234-.1.421.421,0,0,1-.119-.219,1.356,1.356,0,0,1,.074-.667,5.062,5.062,0,0,1,.215-.558,11.33,11.33,0,0,1,.528-1.056l.278.179a6.724,6.724,0,0,1-.8.9,2.538,2.538,0,0,1-.5.37.646.646,0,0,1-.349.08.288.288,0,0,1-.209-.094.363.363,0,0,1-.084-.184,2.661,2.661,0,0,1,.263-1.19A11.536,11.536,0,0,1,126.893,142.941Z" transform="translate(-52.251 -139.173)" fill="#aa1f6f"/>
  <path id="Path_303" data-name="Path 303" d="M77.554,153.9c-.274-.149-.638-.1-.872-.309a1.281,1.281,0,0,1-.229-1.387,1.779,1.779,0,0,1,1.912-.941c1.7.253,1.439,1.891.4,2.49" transform="translate(-43.962 -140.555)" fill="#fdd499"/>
  <path id="Path_304" data-name="Path 304" d="M64.816,204.087s-6.109,6.518-7.274,15.395-1.18,23.326-1.18,23.326,17.6,3.226,33.607-.343c-.613-7.384,0-28.041-5.587-38.376" transform="translate(-40.634 -149.356)" fill="#0c3d59"/>
  <path id="Path_305" data-name="Path 305" d="M60.211,242.837s-.553-22.295,2.036-29.824a47.228,47.228,0,0,1,6.473-11.62" transform="translate(-41.267 -148.907)" fill="none" stroke="#354e90" stroke-miterlimit="10" stroke-width="0.75"/>
  <path id="Path_306" data-name="Path 306" d="M94.807,168.633l2.086,9.958a29.8,29.8,0,0,1-8.3,1.892c-2.275-.042-5.72-8.9-4.421-10.6C87.972,168.743,94.807,168.633,94.807,168.633Z" transform="translate(-45.218 -143.451)" fill="#175fab"/>
  <path id="Path_307" data-name="Path 307" d="M65.986,179.974s-.273,11.651.423,18.387a50.866,50.866,0,0,0,19.567,0l.677-10.585c4.91-5.039.608-11.566.608-11.566l-6.079-6.165-6.079-.338Z" transform="translate(-42.228 -143.63)" fill="#175fab"/>
  <path id="Path_308" data-name="Path 308" d="M74.041,169.7a14.435,14.435,0,0,0-10.625,3.44,17.692,17.692,0,0,0-3.858,5.432l8.425,5.546,4.978-5.546" transform="translate(-41.166 -143.617)" fill="#175fab"/>
  <path id="Path_309" data-name="Path 309" d="M93.081,181.224c-.411-1.559-1.563-4.012-1.563-5.51" transform="translate(-46.489 -144.631)" fill="none" stroke="#002b6e" stroke-linejoin="round" stroke-width="0.75"/>
  <line id="Line_6" data-name="Line 6" x2="2.38" y2="10.351" transform="translate(48.001 25.237)" fill="none" stroke="#002b6e" stroke-linejoin="round" stroke-width="0.75"/>
  <line id="Line_7" data-name="Line 7" x2="6.104" y2="3.794" transform="translate(19.128 33.576)" fill="none" stroke="#002b6e" stroke-linejoin="round" stroke-width="0.75"/>
  <path id="Path_310" data-name="Path 310" d="M83.56,156.7s2.235,5.805.558,7.573c-.867.921-3.889.408-5.023-.458-.847-.648-1.962-4.482-1.494-5.237C79.328,155.778,83.56,156.7,83.56,156.7Z" transform="translate(-44.153 -141.44)" fill="#e7b6df"/>
  <path id="Path_311" data-name="Path 311" d="M77.164,162.857l-.229,5.712c.453,1.439,5.307,2.808,6.079.338l-.5-4.286Z" transform="translate(-44.06 -142.489)" fill="#e7b6df"/>
  <path id="Path_312" data-name="Path 312" d="M74.059,160.648a4.658,4.658,0,0,1-.239-1.7,6.572,6.572,0,0,1,.329-2.151,4.757,4.757,0,0,1,2.435-2.683,5.575,5.575,0,0,1,5.008,0,3.24,3.24,0,0,1,2.49.761,2.49,2.49,0,0,1,.752,2.435l-4.977-.567a4.758,4.758,0,0,1-1.743,2.22c-.767.5-1.609,1.175-1.289,2.245.129.443-.349.528-.349,1.389a4.265,4.265,0,0,1-2.415-1.887A.171.171,0,0,1,74.059,160.648Z" transform="translate(-43.541 -140.933)" fill="#fdd499"/>
  <path id="Path_313" data-name="Path 313" d="M77.826,161.625c-.528-.817-1-.741-1.324-.349-.408.523.189,1.743.5,1.992.628.463,1.174.468,1.274-.07" transform="translate(-43.965 -142.179)" fill="#e7b6df"/>
  <path id="Path_314" data-name="Path 314" d="M83.079,166.37a6,6,0,0,1-3.664-1.106" transform="translate(-44.473 -142.89)" fill="none" stroke="#aa1f6f" stroke-linejoin="round" stroke-width="0.75"/>
  <path id="Path_315" data-name="Path 315" d="M83.3,160.253s1.424,1.234,1.389,1.623-.921.553-.921.553" transform="translate(-45.121 -142.056)" fill="none" stroke="#aa1f6f" stroke-linejoin="round" stroke-width="0.5"/>
  <path id="Path_316" data-name="Path 316" d="M84.634,163.263l-2.4.663a1.589,1.589,0,0,0,1.927.747C85.082,164.364,84.634,163.263,84.634,163.263Z" transform="translate(-44.943 -142.557)" fill="#fff"/>
  <path id="Path_317" data-name="Path 317" d="M84.505,159.678a.629.629,0,0,0,0,.079.322.322,0,0,1,0,.08.575.575,0,0,0,.08.2.175.175,0,0,0,.05.055.173.173,0,0,0,.064.035h.1a.227.227,0,0,0,.075,0h.044a.262.262,0,0,0,.05-.055.191.191,0,0,0,0-.154,1.069,1.069,0,0,0-.05-.12l-.041-.074-.041-.075-.045-.07a.174.174,0,0,0-.1-.08.221.221,0,0,0-.114,0,.145.145,0,0,0-.088.186l.009.02Z" transform="translate(-45.317 -141.929)" fill="#0a244b"/>
  <path id="Path_318" data-name="Path 318" d="M83.835,158.951a.642.642,0,0,1,.875-.244l.026.015" transform="translate(-45.21 -141.784)" fill="none" stroke="#0a244b" stroke-linecap="round" stroke-linejoin="round" stroke-width="0.5"/>
  <path id="Path_319" data-name="Path 319" d="M81.268,160.885a.481.481,0,0,0,0,.085.374.374,0,0,0,0,.075,1.531,1.531,0,0,0,.05.159.131.131,0,0,0,.035.069.183.183,0,0,0,.054.05.236.236,0,0,0,.269-.09.206.206,0,0,0,0-.154c0-.064-.054-.129-.08-.194a.55.55,0,0,1-.035-.074.465.465,0,0,0-.041-.075.186.186,0,0,0-.1-.08.138.138,0,0,0-.109,0,.122.122,0,0,0-.08.07v.041a.139.139,0,0,0,0,.09Z" transform="translate(-44.774 -142.121)" fill="#0a244b"/>
  <path id="Path_320" data-name="Path 320" d="M81.4,159.655a1.2,1.2,0,0,0-1.151.662" transform="translate(-44.611 -141.956)" fill="none" stroke="#0a244b" stroke-linecap="round" stroke-linejoin="round" stroke-width="0.5"/>
  <path id="Path_321" data-name="Path 321" d="M59.075,179.406c-2.624,5.3-4.252,13.014,1.284,15.365,5.776,2.455,20.911-16.077,20.911-16.077L76.6,174.673l-12.5,8.019" transform="translate(-40.683 -144.457)" fill="#e7b6df"/>
  <line id="Line_8" data-name="Line 8" x1="3.739" y2="2.913" transform="translate(19.676 38.257)" fill="none" stroke="#aa1f6f" stroke-linejoin="round" stroke-width="0.75"/>
  <path id="Path_322" data-name="Path 322" d="M86,175.134h0a1.4,1.4,0,0,1-1.11-1.624l1-5.367,2.734.5-1,5.367A1.394,1.394,0,0,1,86,175.135Z" transform="translate(-45.381 -143.37)" fill="#132051"/>
  <path id="Path_323" data-name="Path 323" d="M88.994,168.9l-2.186-.538a2.908,2.908,0,0,1-2.14-3.511h0a2.908,2.908,0,0,1,3.514-2.136h0l2.2.535a.239.239,0,0,1,.182.285l0,.008-1.26,5.193a.243.243,0,0,1-.3.164h0Z" transform="translate(-45.334 -142.453)" fill="#205ea9"/>
  <path id="Path_324" data-name="Path 324" d="M91.431,166.438c-.378,1.559-1.115,2.718-1.645,2.59s-.653-1.494-.274-3.057,1.12-2.719,1.649-2.59S91.809,164.88,91.431,166.438Z" transform="translate(-46.118 -142.575)" fill="#86bee8"/>
  <path id="Path_325" data-name="Path 325" d="M96.7,173.756a65.948,65.948,0,0,0-6.413-4.884c-.747-.608-.5-2.041-.288-2.828.534-2.022,1.234-2.285,1.234-2.285,3.236.229,8.32-1.316,8.32-1.316" transform="translate(-46.2 -142.42)" fill="#132051"/>
  <path id="Path_326" data-name="Path 326" d="M98.277,167.435c-.891,3.52-.792,6.582.214,6.835s2.545-2.395,3.431-5.922.792-6.582-.214-6.835S99.163,163.91,98.277,167.435Z" transform="translate(-47.513 -142.263)" fill="#86bee8"/>
  <path id="Path_327" data-name="Path 327" d="M99,167.8c-.747,2.987-.741,5.551,0,5.74s1.991-2.065,2.733-5.043.747-5.552,0-5.741S99.749,164.825,99,167.8Z" transform="translate(-47.642 -142.471)" fill="#205ea9"/>
  <path id="Path_328" data-name="Path 328" d="M100.375,170.19a3.786,3.786,0,0,0-1.683-.035q.134-.8.348-1.668a15.231,15.231,0,0,1,.5-1.629,3.787,3.787,0,0,0,1.494.767Z" transform="translate(-47.684 -143.156)" fill="#132051"/>
  <path id="Path_330" data-name="Path 330" d="M77.867,175.676a62.189,62.189,0,0,1,5.687-3.391,4.739,4.739,0,0,1,3.584.075,2.051,2.051,0,0,1,.872.6,1.847,1.847,0,0,1,.358,1.224.264.264,0,0,1-.084.219c-.154.1-.3-.134-.4-.3a1.232,1.232,0,0,0-1.124-.572c.238,0,.348.238.448.458a.4.4,0,0,1-.179.534.332.332,0,0,1-.074.028.528.528,0,0,1,.123,1,.358.358,0,0,1,.2.393.943.943,0,0,1-.209.423,10.08,10.08,0,0,1-1.494,1.494c-1.678,1.439-5.148,5.377-5.148,5.377" transform="translate(-44.216 -144.007)" fill="#e7b6df"/>
  <path id="Path_285-2" data-name="Path 285" d="M99.742,310.292a2.139,2.139,0,0,0-.678-1.258l-7.009-3.644c-4.11,1.327-9.2-.279-9.2-.279l-1.319,5.382a.329.329,0,0,0,.307.348l17.616,1.205C99.851,312.049,99.745,310.308,99.742,310.292Z" transform="translate(-44.827 -166.181)" fill="#0a244b"/>
  <path id="Path_286-2" data-name="Path 286" d="M95.788,305.951a8.487,8.487,0,0,0-1.151,1.643" transform="translate(-47.009 -166.321)" fill="none" stroke="#002b6e" stroke-linejoin="round" stroke-width="0.75"/>
  <path id="Path_287-2" data-name="Path 287" d="M96.875,306.683a7.874,7.874,0,0,0-.944,1.4" transform="translate(-47.224 -166.443)" fill="none" stroke="#002b6e" stroke-linejoin="round" stroke-width="0.75"/>
  <path id="Path_288-2" data-name="Path 288" d="M97.778,307.228a10.258,10.258,0,0,0-.883,1.279" transform="translate(-47.385 -166.533)" fill="none" stroke="#002b6e" stroke-linejoin="round" stroke-width="0.75"/>
  <line id="Line_4-2" data-name="Line 4" x2="18.057" y2="1.225" transform="translate(36.894 143.455)" fill="none" stroke="#002b6e" stroke-linejoin="round" stroke-width="0.75"/>
  <path id="Path_289-2" data-name="Path 289" d="M82.593,307.382s4.233.4,4.428,2.97" transform="translate(-45.003 -166.559)" fill="none" stroke="#002b6e" stroke-linejoin="round" stroke-width="0.75"/>
  <path id="Path_290-2" data-name="Path 290" d="M100.552,308.943a13.852,13.852,0,0,0-1.575,2.325" transform="translate(-47.731 -166.819)" fill="none" stroke="#002b6e" stroke-linejoin="round" stroke-width="0.75"/>
</svg>
