<svg xmlns="http://www.w3.org/2000/svg" width="24.913" height="24.913" viewBox="0 0 24.913 24.913">
  <path id="Fill_9" data-name="Fill 9" d="M12.457,24.913A12.46,12.46,0,0,1,7.608.979a12.46,12.46,0,0,1,9.7,22.955A12.378,12.378,0,0,1,12.457,24.913ZM6.081,17.607h0a8.2,8.2,0,0,0,4.428,1.3A7.975,7.975,0,0,0,16.4,16.46a8.519,8.519,0,0,0,2.324-6.15,5.824,5.824,0,0,0,1.441-1.5A5.783,5.783,0,0,1,18.5,9.27a2.892,2.892,0,0,0,1.27-1.6,5.766,5.766,0,0,1-1.835.7,2.891,2.891,0,0,0-4.923,2.636A8.229,8.229,0,0,1,7.061,7.989a2.894,2.894,0,0,0,.894,3.857,2.894,2.894,0,0,1-1.309-.361,2.848,2.848,0,0,0,.626,1.832,2.894,2.894,0,0,0,1.691,1.038,2.885,2.885,0,0,1-.757.1,2.93,2.93,0,0,1-.547-.052,2.888,2.888,0,0,0,2.7,2.006,5.838,5.838,0,0,1-3.586,1.237A5.929,5.929,0,0,1,6.081,17.607Z" fill="#95989a"/>
</svg>
