<svg id="location_on-24px" xmlns="http://www.w3.org/2000/svg" width="14.943" height="16.596" viewBox="0 0 14.943 16.596">
  <path id="Path_13" data-name="Path 13" d="M0,0H14.943V16.6H0Z" transform="translate(0 0)" fill="none"/>
  <path id="Path_14" data-name="Path 14" d="M11.035,2C7.7,2,5,4.417,5,7.406c0,4.055,6.035,10.041,6.035,10.041S17.07,11.461,17.07,7.406C17.07,4.417,14.371,2,11.035,2Zm0,7.337A2.053,2.053,0,0,1,8.88,7.406a2.053,2.053,0,0,1,2.155-1.931A2.053,2.053,0,0,1,13.19,7.406,2.053,2.053,0,0,1,11.035,9.337Z" transform="translate(-3.563 -1.425)" fill="#4b4b4b"/>
</svg>
