<svg id="b0074683-3e5c-4001-9f65-c8ae0ce0ca34" data-name="圖層 2" xmlns="http://www.w3.org/2000/svg" viewBox="0 0 283.96 38.39"><defs><style>.fdc6e8c7-aaf0-4f59-b81b-1f81d565661b{fill:#231815;}</style></defs><path class="fdc6e8c7-aaf0-4f59-b81b-1f81d565661b" d="M173.2,292.24a50.42,50.42,0,0,0,2.55,4.66c.85,1,1.48.33,1.71-.19.39-1.69-.58-2.53-1.17-3.33a21.22,21.22,0,0,0-3.09-2.53v-3.73h2.53a4.11,4.11,0,0,0,.67-.06,1.93,1.93,0,0,0,.8-.39.85.85,0,0,0,.25-.76,2.24,2.24,0,0,0-.78-1.14l-.62-.61a.53.53,0,0,0-.12.14,3.61,3.61,0,0,1-.33.35,2.11,2.11,0,0,1-.92.64,1.19,1.19,0,0,1-.26,0H173.2V278a12.45,12.45,0,0,0,3.85-1.58.3.3,0,0,0,0-.45c-.31-.35-.8-.87-1.09-1.18a.41.41,0,0,0-.53-.06c-1.58,1.07-7.59,3.32-8.47,3.61s.27.72.27.72c1.32-.14,2.47-.32,3.48-.51v6.81H167.6l-.33,0-.67-.05a.66.66,0,0,0-.2,0c-.24.08-.2.46-.17.65a1.75,1.75,0,0,0,.34.82.82.82,0,0,0,.68.4l.11,0h2.54c-.68,3.09-3,13.23-4.46,15.14,0,0-.26.75.3.48s3.56-4.72,5-9.67v16.3c0,.55,0,1.08-.06,1.63a.88.88,0,0,0,0,.28c.1.33.61.28.86.23a2.35,2.35,0,0,0,1.1-.47,1.16,1.16,0,0,0,.53-.94Z" transform="translate(-156.48 -273.33)"/><path class="fdc6e8c7-aaf0-4f59-b81b-1f81d565661b" d="M165.42,290.9l.9-.88c.23-.24.58-.49.68-.82a.25.25,0,0,0,0-.19c-.05-.13-.3-.11-.38,0a23.15,23.15,0,0,1-2.68,1.68v-6.88h2.33a4.32,4.32,0,0,0,.64-.07,1.72,1.72,0,0,0,.8-.39.82.82,0,0,0,.25-.75,2.05,2.05,0,0,0-.78-1.14l-.62-.61a.55.55,0,0,0-.12.14c-.1.12-.21.23-.32.35a2.32,2.32,0,0,1-.93.64.75.75,0,0,1-.26,0h-1v-2.87c0-1.41,0-2.82,0-4.23a1.41,1.41,0,0,0-.08-.76c-.07-.12-.36-.48-.52-.48a2.35,2.35,0,0,0-1.1-.33c-.25,0-.76,0-.82.32a6.45,6.45,0,0,0,.1,1.23c0,.48,0,1,0,1.44V282h-3.39l-.67,0a.44.44,0,0,0-.2,0c-.24.07-.2.45-.17.63a1.68,1.68,0,0,0,.34.8.92.92,0,0,0,.61.4h3.48v8.26c-1.53.85-2.86,1.57-3.05,1.67-.64.34-1.28.67-1.93,1l0,0a.08.08,0,0,0,0,0c0,.8.69,1.14,1.25,1.56a1.39,1.39,0,0,0,1.22.22,2.8,2.8,0,0,0,.78-.56l.84-.7.93-.81v12.05a1.69,1.69,0,0,1-.14,1,.9.9,0,0,1-.69.36c-.8.05-1.61-.05-2.42,0a1.09,1.09,0,0,0-.44.06c-.27.15,0,.35.17.45s.48.31.72.46a10.74,10.74,0,0,1,2.31,1.77,3.44,3.44,0,0,0,.63.58c1,.63,2.08-.64,2.3-1.53V292.29Z" transform="translate(-156.48 -273.33)"/><path class="fdc6e8c7-aaf0-4f59-b81b-1f81d565661b" d="M176.44,291.08c-.24,1.3.69,1.35,1.23,1.2l.07,0a2.88,2.88,0,0,0,1.09-1,4.15,4.15,0,0,0,.53-1.45,12.84,12.84,0,0,0,.29-2.23c0-.85.1-1.71.08-2.56,0-.29,0-.59,0-.88a1.41,1.41,0,0,1,0-.2.44.44,0,0,0-.31-.47c-.23,0-.27.17-.3.31-.15.55-.25,1.11-.42,1.65a26.89,26.89,0,0,1-1.06,2.61c-.25.58-.5,1.15-.73,1.74A6.39,6.39,0,0,0,176.44,291.08Z" transform="translate(-156.48 -273.33)"/><path class="fdc6e8c7-aaf0-4f59-b81b-1f81d565661b" d="M190.85,309.8l0,0c-.39-.56-.76-1.13-1.11-1.72-.48-.8-.92-1.62-1.34-2.46-.55-1.1-1.06-2.22-1.51-3.37a42.76,42.76,0,0,1-2.48-9.19l-.06-.43c1.22-1.4,5.3-6.17,6.18-8.55a1.19,1.19,0,0,0-.2-1.09,2.41,2.41,0,0,0-.89-.82c-.23-.12-.7-.34-.9,0a.86.86,0,0,0-.11.28l-.24.93-.12.46s-2.24,5.95-3.93,7c-.1-1-.17-2-.19-3.12-.06-2.93.08-10.86.2-12.37a1.94,1.94,0,0,0,0-.24,1.18,1.18,0,0,0-.68-.91,2.52,2.52,0,0,0-1.23-.36c-.27,0-.83,0-.9.34a.76.76,0,0,0,0,.3s0,16.47-.41,19.29c-.06.4-.07.81-.12,1.21-.09.84-.22,1.68-.39,2.51a29.79,29.79,0,0,1-.93,3.45,27.37,27.37,0,0,1-1.71,4,26.83,26.83,0,0,1-2.75,4.25c-.22.28-.49.54-.71.82s-.57.67-.36,1,.41.13.59.05c0,0,6.65-3.12,8.73-15.88.91,4.38,2.82,12.69,4.67,15.51a1.13,1.13,0,0,0,1.15.26,2.38,2.38,0,0,0,.55-.28c.17-.08.33-.18.5-.27l.6-.32s.1-.06.11-.12A.29.29,0,0,0,190.85,309.8Z" transform="translate(-156.48 -273.33)"/><path class="fdc6e8c7-aaf0-4f59-b81b-1f81d565661b" d="M196.91,290.19l.21,0H213l2.35.05a3.7,3.7,0,0,0,.72-.06h0a1.2,1.2,0,0,0,.55-2l-.3-.3-.63-.61s-.08.11-.12.14-.21.24-.32.35a2.55,2.55,0,0,1-.84.62h-6a.27.27,0,0,1-.27-.3,6.87,6.87,0,0,0,0-.93,2.27,2.27,0,0,0-1.28-1.68.28.28,0,0,1,.15-.51h3.53a.29.29,0,0,1,.21.09,3.42,3.42,0,0,1,.61.88c.21.52,1.42.23,1.58.19h0a1.67,1.67,0,0,0,1-1.47h0v-7.73a1.21,1.21,0,0,1,.06-.38,2.23,2.23,0,0,0,.19-.61c-.08-.16-.57-.83-1.05-.86s-.52-.16-1.08-.47a.91.91,0,0,0-1.08,0,1.89,1.89,0,0,1-.92.61l-.1,0h-8.46a1.77,1.77,0,0,0-.56-.53,2.58,2.58,0,0,0-1.23-.36c-.28,0-.84,0-.91.34a1,1,0,0,0,0,.3l0,.14v10h0v.83a.7.7,0,0,0,0,.29c.13.34.68.24.95.18a2.46,2.46,0,0,0,1.14-.57,1.63,1.63,0,0,0,.49-.68.28.28,0,0,1,.26-.2h2.23a.31.31,0,0,1,.2.07,8,8,0,0,1,1.32,2.3,5.52,5.52,0,0,0,.26.66.27.27,0,0,1-.25.39h-8.73l-.82,0a.7.7,0,0,0-.25,0c-.29.07-.24.46-.21.65a1.68,1.68,0,0,0,.43.82A1.07,1.07,0,0,0,196.91,290.19ZM211.16,279H202a.28.28,0,0,1-.27-.28v-1.47A.28.28,0,0,1,202,277h9.15a.28.28,0,0,1,.28.28v1.47A.28.28,0,0,1,211.16,279ZM202,280.78h9.15a.28.28,0,0,1,.28.28v1.8a.27.27,0,0,1-.28.28H202a.27.27,0,0,1-.27-.28v-1.8A.28.28,0,0,1,202,280.78Z" transform="translate(-156.48 -273.33)"/><path class="fdc6e8c7-aaf0-4f59-b81b-1f81d565661b" d="M203.64,302.2a14.08,14.08,0,0,0-1.55-1.37.21.21,0,0,0-.32.08,6.48,6.48,0,0,1-.39.67c-.37.58-.77,1.14-1.17,1.69l-1.5,2-1.47,1.9-.72.91c-.15.19-1.25,1.46-.56,1.51a1.07,1.07,0,0,0,.52-.14c2.75-1.46,6.46-5.72,7.19-6.8A.38.38,0,0,0,203.64,302.2Z" transform="translate(-156.48 -273.33)"/><path class="fdc6e8c7-aaf0-4f59-b81b-1f81d565661b" d="M214.52,307.84a1.52,1.52,0,0,0,.49-1.17,2.74,2.74,0,0,0-.61-2.08,12.33,12.33,0,0,0-4.55-3.13.31.31,0,0,0-.14.47c.78.82,3.2,5.38,3.46,5.63S214.08,308.13,214.52,307.84Z" transform="translate(-156.48 -273.33)"/><path class="fdc6e8c7-aaf0-4f59-b81b-1f81d565661b" d="M208.07,307.66v-8.58h2.76a2.72,2.72,0,0,1,.44.69c.22.56,1.57.19,1.57.19a1.68,1.68,0,0,0,1-1.54v-4.17a.08.08,0,0,0,0-.05,9.3,9.3,0,0,1,.37-1.29,1.6,1.6,0,0,0-1.18-.87c-.55,0-.58-.15-1.22-.47a1.13,1.13,0,0,0-1.21,0,3,3,0,0,1-1.61.78h-6.5a2.21,2.21,0,0,0-.43-.37,3.62,3.62,0,0,0-1.35-.52c-.32,0-1-.14-1.1.17a.58.58,0,0,0,0,.18v7.27h0v.6a.7.7,0,0,0,0,.29c.13.34.71.24,1,.18a2.75,2.75,0,0,0,1.2-.58,2.23,2.23,0,0,0,.43-.49h3.13v8.6a.59.59,0,0,1-.05.23c-.14.27-.33.54-.58.57-.54.07-1.81,0-2.14.13s.09.5.26.58a10.51,10.51,0,0,1,1.86,1c.31.21.57.54.89.72a2,2,0,0,0,1,.16,1.5,1.5,0,0,0,1.4-1.6v-1.83Zm-5.74-10.37v-3.16h8.81v3.16Z" transform="translate(-156.48 -273.33)"/><path class="fdc6e8c7-aaf0-4f59-b81b-1f81d565661b" d="M216.22,285.21c.78-.25,5.55-3.48,9.59-8.75a.54.54,0,0,0-.06-.71l-1.23-1.18a.42.42,0,0,0-.64.07c-.27.41-.55.81-.83,1.22-.44.63-.89,1.25-1.35,1.87-.59.79-1.2,1.57-1.82,2.35s-1.48,1.8-2.25,2.68l-.92,1-.47.51a3.72,3.72,0,0,0-.42.47c-.07.11-.16.34,0,.45S216.1,285.24,216.22,285.21Z" transform="translate(-156.48 -273.33)"/><path class="fdc6e8c7-aaf0-4f59-b81b-1f81d565661b" d="M225.31,285a15.16,15.16,0,0,1-.84,1.53,34.79,34.79,0,0,1-2.14,3c-2,2.57-4.29,4.91-6.52,7.31-.16.17-.32.49-.11.62a.34.34,0,0,0,.28,0,7.26,7.26,0,0,0,2.34-1.39c.85-.59,1.68-1.21,2.47-1.87a33.22,33.22,0,0,0,4.28-4.19,24.65,24.65,0,0,0,2.19-3,.56.56,0,0,0,0-.61,4.93,4.93,0,0,0-1.54-1.58A.29.29,0,0,0,225.31,285Z" transform="translate(-156.48 -273.33)"/><path class="fdc6e8c7-aaf0-4f59-b81b-1f81d565661b" d="M228.64,297.23a4.14,4.14,0,0,0-1.13-1.27c-.3-.28-.7-.38-1,0-.56.88-1.18,1.73-1.8,2.56a62.27,62.27,0,0,1-4.78,5.73,43.4,43.4,0,0,1-6.76,5.94c-.21.14-.43.26-.64.41s-.67.47-.52.77a.24.24,0,0,0,.19.11.78.78,0,0,0,.22,0,18.82,18.82,0,0,0,3.36-1.6,37.94,37.94,0,0,0,5.84-4,33.92,33.92,0,0,0,6.26-6.79c.2-.28.39-.57.58-.85a1.78,1.78,0,0,0,.17-.3A.91.91,0,0,0,228.64,297.23Z" transform="translate(-156.48 -273.33)"/><path d="M244.85,286.65a4,4,0,0,1-3.67-2l0-.06,1.64-1.22a2.08,2.08,0,0,0,1.78,1.25,1.39,1.39,0,0,0,1.49-1.1,5.08,5.08,0,0,0,.11-1.11v-7.92h2.4v8.11a4,4,0,0,1-1.44,3.41A3.7,3.7,0,0,1,244.85,286.65Z" transform="translate(-156.48 -273.33)"/><path d="M256.16,286.65a4.15,4.15,0,0,1-3.1-1.31,4.82,4.82,0,0,1-1.26-3.43,4.69,4.69,0,0,1,1.59-3.76,4.19,4.19,0,0,1,2.77-1,4,4,0,0,1,3.08,1.33,4.81,4.81,0,0,1,1.26,3.44,4.68,4.68,0,0,1-1.59,3.75A4.17,4.17,0,0,1,256.16,286.65Zm0-1.94a1.76,1.76,0,0,0,1.74-1.47,4.88,4.88,0,0,0,.17-1.33q0-2-1.11-2.64a1.78,1.78,0,0,0-.8-.19,1.76,1.76,0,0,0-1.74,1.42,4.72,4.72,0,0,0-.19,1.41c0,1.33.36,2.19,1.09,2.59A1.69,1.69,0,0,0,256.16,284.71Z" transform="translate(-156.48 -273.33)"/><path d="M264.83,275.91a1.33,1.33,0,0,1-1.27-.7,1.27,1.27,0,0,1-.15-.6,1.14,1.14,0,0,1,.77-1.15,1.57,1.57,0,0,1,.65-.13,1.31,1.31,0,0,1,1.28.7,1.4,1.4,0,0,1,.12.58,1.18,1.18,0,0,1-.72,1.14A1.58,1.58,0,0,1,264.83,275.91Zm-1.2,10.52v-9.05H266v9.05Z" transform="translate(-156.48 -273.33)"/><path d="M269.67,286.43v-9.05h1.95l.16,1.18h.06a4.37,4.37,0,0,1,2.94-1.42q2.79,0,2.81,3.65v5.64H275.2v-5.36c0-1-.26-1.65-.79-1.83a1.83,1.83,0,0,0-.49-.06,2.3,2.3,0,0,0-1.54.71l-.35.31v6.23Z" transform="translate(-156.48 -273.33)"/><path d="M287.17,275.91a1.31,1.31,0,0,1-1.26-.7,1.17,1.17,0,0,1-.16-.6,1.15,1.15,0,0,1,.77-1.15,1.57,1.57,0,0,1,.65-.13,1.31,1.31,0,0,1,1.28.7,1.27,1.27,0,0,1,.13.58,1.17,1.17,0,0,1-.73,1.14A1.58,1.58,0,0,1,287.17,275.91ZM286,286.43v-9.05h2.36v9.05Z" transform="translate(-156.48 -273.33)"/><path d="M292,286.43v-9.05H294l.16,1.18h.06a4.37,4.37,0,0,1,2.94-1.42c1.87,0,2.8,1.24,2.81,3.65v5.64h-2.38v-5.36c0-1-.27-1.65-.79-1.83a1.88,1.88,0,0,0-.49-.06,2.32,2.32,0,0,0-1.55.71l-.35.31v6.23Z" transform="translate(-156.48 -273.33)"/><path d="M304.86,286.65a1.35,1.35,0,0,1-1.27-.76,1.63,1.63,0,0,1-.2-.79,1.47,1.47,0,0,1,.71-1.34,1.45,1.45,0,0,1,.76-.21,1.37,1.37,0,0,1,1.28.76,1.57,1.57,0,0,1,.2.79,1.48,1.48,0,0,1-.71,1.35A1.61,1.61,0,0,1,304.86,286.65Z" transform="translate(-156.48 -273.33)"/><path d="M242.64,307.78v-12h3.94c3.11,0,4.68,1.28,4.69,3.77a3.52,3.52,0,0,1-2.09,3.46,6.06,6.06,0,0,1-2.54.5H245v4.25Zm2.4-6.14h1.44q2.42,0,2.43-2.07a1.62,1.62,0,0,0-1.37-1.76,5.37,5.37,0,0,0-1.14-.11H245Z" transform="translate(-156.48 -273.33)"/><path d="M254.38,307.78V294.87h2.35v3.26l-.09,1.69a4.5,4.5,0,0,1,2.84-1.33c1.87,0,2.8,1.24,2.81,3.65v5.64h-2.38v-5.35c0-1.05-.27-1.66-.79-1.84a1.88,1.88,0,0,0-.49-.06,2.37,2.37,0,0,0-1.55.71c-.11.09-.22.2-.35.32v6.22Z" transform="translate(-156.48 -273.33)"/><path d="M269.65,308a4.13,4.13,0,0,1-3.1-1.31,4.81,4.81,0,0,1-1.26-3.43,4.66,4.66,0,0,1,1.6-3.76,4.18,4.18,0,0,1,2.76-1,4,4,0,0,1,3.08,1.33,4.78,4.78,0,0,1,1.27,3.44,4.66,4.66,0,0,1-1.6,3.75A4.17,4.17,0,0,1,269.65,308Zm0-1.94a1.75,1.75,0,0,0,1.74-1.47,4.52,4.52,0,0,0,.17-1.33c0-1.36-.36-2.24-1.1-2.64a1.79,1.79,0,0,0-.81-.19,1.77,1.77,0,0,0-1.74,1.43,5,5,0,0,0-.19,1.4c0,1.33.37,2.19,1.09,2.59A1.74,1.74,0,0,0,269.65,306.06Z" transform="translate(-156.48 -273.33)"/><path d="M280.44,308q-3,0-3-3.39v-4h-1.26v-1.75l1.39-.11.27-2.44h2v2.44h2.23v1.86h-2.23v4q0,1.51,1.23,1.53a2.41,2.41,0,0,0,.89-.21l.39,1.74A6.34,6.34,0,0,1,280.44,308Z" transform="translate(-156.48 -273.33)"/><path d="M288.84,308a4.13,4.13,0,0,1-3.1-1.31,4.81,4.81,0,0,1-1.26-3.43,4.66,4.66,0,0,1,1.6-3.76,4.18,4.18,0,0,1,2.76-1,4,4,0,0,1,3.08,1.33,4.82,4.82,0,0,1,1.27,3.44,4.69,4.69,0,0,1-1.6,3.75A4.17,4.17,0,0,1,288.84,308Zm0-1.94a1.76,1.76,0,0,0,1.74-1.47,4.88,4.88,0,0,0,.17-1.33c0-1.36-.37-2.24-1.1-2.64a1.82,1.82,0,0,0-.81-.19,1.77,1.77,0,0,0-1.74,1.43,5,5,0,0,0-.19,1.4c0,1.33.37,2.19,1.09,2.59A1.72,1.72,0,0,0,288.84,306.06Z" transform="translate(-156.48 -273.33)"/><path d="M299.5,311.72c-1.66,0-2.8-.39-3.4-1.16a1.9,1.9,0,0,1-.39-1.18,2.21,2.21,0,0,1,1.29-1.87v-.09a1.7,1.7,0,0,1-.82-1.52,2.21,2.21,0,0,1,1-1.69v-.06a2.9,2.9,0,0,1-1.17-1.91,3.67,3.67,0,0,1,0-.46,3,3,0,0,1,1.5-2.72,4.1,4.1,0,0,1,2.16-.57,4.2,4.2,0,0,1,1.36.24h3.27v1.74h-1.56a2.18,2.18,0,0,1,.43,1.37,2.79,2.79,0,0,1-1.57,2.67,4.25,4.25,0,0,1-1.93.41,3.87,3.87,0,0,1-1.17-.22,1,1,0,0,0-.37.79c0,.39.26.63.8.71a5.72,5.72,0,0,0,.62,0h1.53c2.23,0,3.36.77,3.37,2.26a2.77,2.77,0,0,1-1.54,2.44A6.68,6.68,0,0,1,299.5,311.72Zm.35-1.5a2.66,2.66,0,0,0,2-.7,1,1,0,0,0,.26-.62c0-.45-.32-.71-1-.79a4.91,4.91,0,0,0-.57,0h-1.09a5.64,5.64,0,0,1-1.27-.12,1.38,1.38,0,0,0-.6,1.05c0,.55.39.92,1.16,1.09A3.94,3.94,0,0,0,299.85,310.22Zm-.21-6.77a1.25,1.25,0,0,0,1.25-.84,2,2,0,0,0,.16-.83,1.5,1.5,0,0,0-.87-1.57,1.61,1.61,0,0,0-.54-.09,1.28,1.28,0,0,0-1.28.85,2.29,2.29,0,0,0-.14.81,1.53,1.53,0,0,0,.84,1.55A1.47,1.47,0,0,0,299.64,303.45Z" transform="translate(-156.48 -273.33)"/><path d="M307.1,307.78v-9H309l.16,1.59h.06a3.32,3.32,0,0,1,2.07-1.77,2.35,2.35,0,0,1,.51-.06,2.65,2.65,0,0,1,1.07.21l-.42,2.05a3.43,3.43,0,0,0-.95-.16,2.07,2.07,0,0,0-1.8,1.2,4.62,4.62,0,0,0-.29.59v5.4Z" transform="translate(-156.48 -273.33)"/><path d="M317.51,308a2.52,2.52,0,0,1-2.25-1.13,2.82,2.82,0,0,1,1.72-4.26,12.7,12.7,0,0,1,3-.64c-.06-1-.57-1.56-1.53-1.57a5.43,5.43,0,0,0-2.5.86l-.85-1.57a7.27,7.27,0,0,1,3.78-1.2,3.14,3.14,0,0,1,3.43,3.1,8.52,8.52,0,0,1,0,.9v5.29h-1.92l-.19-1h-.05A4.26,4.26,0,0,1,317.51,308Zm.77-1.85a2.6,2.6,0,0,0,1.75-.9v-1.81c-1.89.3-2.87.87-2.94,1.69a.94.94,0,0,0,1,1Z" transform="translate(-156.48 -273.33)"/><path d="M326,311.26V298.73h1.94l.16.93h.06a4.31,4.31,0,0,1,2.67-1.17,3.12,3.12,0,0,1,2.94,1.79,6,6,0,0,1,.62,2.82,5.17,5.17,0,0,1-1.49,4,3.25,3.25,0,0,1-4.61,0l.06,1.49v2.75Zm4-5.22a1.75,1.75,0,0,0,1.71-1.32,4.69,4.69,0,0,0,.24-1.58c0-1.78-.61-2.68-1.8-2.69a2.76,2.76,0,0,0-1.81.95v4A2.49,2.49,0,0,0,330,306Z" transform="translate(-156.48 -273.33)"/><path d="M337.52,307.78V294.87h2.35v3.26l-.09,1.69a4.5,4.5,0,0,1,2.84-1.33q2.79,0,2.81,3.65v5.64h-2.38v-5.35c0-1.05-.27-1.66-.79-1.84a1.88,1.88,0,0,0-.49-.06,2.35,2.35,0,0,0-1.55.71c-.11.09-.22.2-.35.32v6.22Z" transform="translate(-156.48 -273.33)"/><path d="M349.79,311.42a4.15,4.15,0,0,1-1.25-.18l.44-1.83a2.89,2.89,0,0,0,.63.13,1.71,1.71,0,0,0,1.69-1.38l.18-.54-3.54-8.89h2.4l1.44,4.2c.07.24.33,1.1.76,2.56h.08c.06-.28.16-.71.31-1.28s.27-1,.33-1.28l1.25-4.2h2.28l-3.21,9.32a5.44,5.44,0,0,1-2,2.94A3.49,3.49,0,0,1,349.79,311.42Z" transform="translate(-156.48 -273.33)"/><path d="M367.52,308q-3,0-3-3.39v-4h-1.27v-1.75l1.39-.11.27-2.44h2v2.44h2.23v1.86h-2.23v4q0,1.51,1.23,1.53a2.37,2.37,0,0,0,.89-.21l.39,1.74A6.34,6.34,0,0,1,367.52,308Z" transform="translate(-156.48 -273.33)"/><path d="M375.92,308a4.1,4.1,0,0,1-3.09-1.31,4.77,4.77,0,0,1-1.27-3.43,4.66,4.66,0,0,1,1.6-3.76,4.18,4.18,0,0,1,2.76-1,4.06,4.06,0,0,1,3.09,1.33,4.81,4.81,0,0,1,1.26,3.44,4.66,4.66,0,0,1-1.6,3.75A4.15,4.15,0,0,1,375.92,308Zm0-1.94a1.75,1.75,0,0,0,1.74-1.47,4.51,4.51,0,0,0,.18-1.33q0-2-1.11-2.64a1.79,1.79,0,0,0-.81-.19,1.75,1.75,0,0,0-1.73,1.43,4.65,4.65,0,0,0-.19,1.4c0,1.33.36,2.19,1.09,2.59A1.68,1.68,0,0,0,375.92,306.06Z" transform="translate(-156.48 -273.33)"/><path d="M386.59,311.72c-1.67,0-2.8-.39-3.4-1.16a1.85,1.85,0,0,1-.4-1.18,2.22,2.22,0,0,1,1.3-1.87v-.09a1.68,1.68,0,0,1-.82-1.52,2.2,2.2,0,0,1,1-1.69v-.06a2.9,2.9,0,0,1-1.17-1.91,3.67,3.67,0,0,1,0-.46,3,3,0,0,1,1.5-2.72,4.14,4.14,0,0,1,2.17-.57,4.29,4.29,0,0,1,1.36.24h3.27v1.74h-1.57a2.12,2.12,0,0,1,.43,1.37,2.78,2.78,0,0,1-1.56,2.67,4.28,4.28,0,0,1-1.93.41,3.76,3.76,0,0,1-1.17-.22,1,1,0,0,0-.38.79c0,.39.27.63.8.71a5.72,5.72,0,0,0,.62,0h1.53c2.24,0,3.36.77,3.37,2.26a2.76,2.76,0,0,1-1.53,2.44A6.73,6.73,0,0,1,386.59,311.72Zm.34-1.5a2.68,2.68,0,0,0,2.06-.7,1,1,0,0,0,.25-.62c0-.45-.32-.71-.95-.79a4.91,4.91,0,0,0-.57,0h-1.09a5.6,5.6,0,0,1-1.26-.12,1.38,1.38,0,0,0-.6,1.05c0,.55.38.92,1.15,1.09A4,4,0,0,0,386.93,310.22Zm-.2-6.77a1.26,1.26,0,0,0,1.25-.84,2.23,2.23,0,0,0,.15-.83,1.39,1.39,0,0,0-1.4-1.66,1.27,1.27,0,0,0-1.28.85,2.09,2.09,0,0,0-.14.81,1.42,1.42,0,0,0,1.42,1.67Z" transform="translate(-156.48 -273.33)"/><path d="M398.12,308a4.24,4.24,0,0,1-3.4-1.47,5.33,5.33,0,0,1,.41-7,3.92,3.92,0,0,1,2.7-1.06,3.38,3.38,0,0,1,3.24,1.85,5.33,5.33,0,0,1,.55,2.5,3.67,3.67,0,0,1-.11,1.07h-5.59A2.33,2.33,0,0,0,397.5,306a2.75,2.75,0,0,0,.93.15,3.94,3.94,0,0,0,2-.64l.81,1.46A5.47,5.47,0,0,1,398.12,308Zm-2.23-5.65h3.69q0-1.75-1.35-2a2.22,2.22,0,0,0-.37,0,1.82,1.82,0,0,0-1.66,1A3.2,3.2,0,0,0,395.89,302.35Z" transform="translate(-156.48 -273.33)"/><path d="M408,308q-3,0-3-3.39v-4h-1.26v-1.75l1.39-.11.27-2.44h2v2.44h2.22v1.86h-2.22v4q0,1.51,1.23,1.53a2.32,2.32,0,0,0,.88-.21l.4,1.74A6.39,6.39,0,0,1,408,308Z" transform="translate(-156.48 -273.33)"/><path d="M412.63,307.78V294.87H415v3.26l-.09,1.69a4.5,4.5,0,0,1,2.84-1.33q2.79,0,2.81,3.65v5.64h-2.38v-5.35c0-1.05-.27-1.66-.79-1.84a1.88,1.88,0,0,0-.49-.06,2.37,2.37,0,0,0-1.55.71c-.11.09-.22.2-.35.32v6.22Z" transform="translate(-156.48 -273.33)"/><path d="M428,308a4.24,4.24,0,0,1-3.39-1.47,5.33,5.33,0,0,1,.41-7,3.92,3.92,0,0,1,2.7-1.06,3.38,3.38,0,0,1,3.24,1.85,5.33,5.33,0,0,1,.55,2.5,4.06,4.06,0,0,1-.11,1.07h-5.59a2.31,2.31,0,0,0,1.58,2.13,2.75,2.75,0,0,0,.93.15,4,4,0,0,0,2-.64l.8,1.46A5.43,5.43,0,0,1,428,308Zm-2.22-5.65h3.69c0-1.17-.45-1.83-1.36-2a2,2,0,0,0-.36,0,1.81,1.81,0,0,0-1.66,1A3,3,0,0,0,425.82,302.35Z" transform="translate(-156.48 -273.33)"/><path d="M434.63,307.78v-9h1.94l.16,1.59h.06a3.32,3.32,0,0,1,2.07-1.77,2.35,2.35,0,0,1,.51-.06,2.65,2.65,0,0,1,1.07.21l-.42,2.05a3.43,3.43,0,0,0-.95-.16,2.07,2.07,0,0,0-1.8,1.2,4.62,4.62,0,0,0-.29.59v5.4Z" transform="translate(-156.48 -273.33)"/></svg>