<svg xmlns="http://www.w3.org/2000/svg" width="21.671" height="25" viewBox="0 0 21.671 25">
  <path id="Path_18" data-name="Path 18" d="M20.62,13.757a6.77,6.77,0,0,0-.961-.447,6.77,6.77,0,0,0,.961-.447,6.716,6.716,0,0,0,3.351-5.8,6.71,6.71,0,0,0-6.7,0,7.074,7.074,0,0,0-.871.6A6.647,6.647,0,0,0,13.136.81,6.647,6.647,0,0,0,9.874,7.669,6.1,6.1,0,0,0,9,7.054a6.711,6.711,0,0,0-6.7,0,6.669,6.669,0,0,0,3.351,5.8,6.77,6.77,0,0,0,.961.447A6.611,6.611,0,0,0,2.3,19.543a6.71,6.71,0,0,0,6.7,0,7.074,7.074,0,0,0,.871-.6,6.945,6.945,0,0,0-.089,1.072,6.7,6.7,0,0,0,3.351,5.8A6.647,6.647,0,0,0,16.4,18.951a6.033,6.033,0,0,0,.871.6,6.711,6.711,0,0,0,6.7,0,6.716,6.716,0,0,0-3.351-5.8Zm-7.484,4.021A4.468,4.468,0,1,1,17.6,13.31,4.467,4.467,0,0,1,13.136,17.778Z" transform="translate(-2.3 -0.81)" fill="#95989a"/>
</svg>
