<svg xmlns="http://www.w3.org/2000/svg" xmlns:xlink="http://www.w3.org/1999/xlink" width="81.37" height="81.699" viewBox="0 0 81.37 81.699">
  <defs>
    <clipPath id="clip-path">
      <path id="Path_599" data-name="Path 599" d="M59.906.412,19.531,0a4.653,4.653,0,0,0-4.7,4.6l-.125,11.949a1.135,1.135,0,0,1-1.85.847A7.355,7.355,0,0,0,8.13,15.566C3.693,15.521.054,19.579,0,24.644s3.5,9.185,7.944,9.233A7.379,7.379,0,0,0,12.7,32.152a1.134,1.134,0,0,1,1.834.889l-.125,11.949a4.649,4.649,0,0,0,4.6,4.7h0l12.354.129a1.134,1.134,0,0,1,.8,1.891,7.444,7.444,0,0,0-2.187,5.133c-.045,4.433,4.014,8.072,9.079,8.125s9.188-3.5,9.233-7.944a7.438,7.438,0,0,0-2.076-5.175,1.135,1.135,0,0,1,.836-1.893l12.354.129a4.653,4.653,0,0,0,4.7-4.6L64.49,5.11A4.645,4.645,0,0,0,59.906.412Z" transform="translate(0 0)" fill="none"/>
    </clipPath>
  </defs>
  <g id="puzzle2" transform="translate(19.163) rotate(17)">
    <path id="Path_173" data-name="Path 173" d="M39.331,65.544c-5.2-.053-9.392-3.828-9.347-8.413a7.761,7.761,0,0,1,2.269-5.326.84.84,0,0,0-.6-1.426l-12.35-.129A4.917,4.917,0,0,1,14.423,45.3v-.034l.125-11.949a.833.833,0,0,0-.243-.6.86.86,0,0,0-.609-.257.806.806,0,0,0-.519.193,7.644,7.644,0,0,1-4.883,1.8H8.22C3.631,34.4-.053,30.129,0,24.927s3.782-9.347,8.322-9.347H8.4a7.615,7.615,0,0,1,4.917,1.891.814.814,0,0,0,.533.2.854.854,0,0,0,.851-.84l.125-11.949A4.948,4.948,0,0,1,19.742,0L60.169.42a4.917,4.917,0,0,1,4.88,4.955v.03l-.416,40.375a4.951,4.951,0,0,1-4.917,4.883l-12.407-.129a.836.836,0,0,0-.783.507.821.821,0,0,0,.156.908,7.749,7.749,0,0,1,2.156,5.371c-.046,4.539-4.267,8.217-9.408,8.217Z" transform="translate(0 0)" fill="#9fb7df"/>
    <g id="Group_486" data-name="Group 486" transform="translate(0.29 0.298)">
      <g id="Group_485" data-name="Group 485" transform="translate(0 0)" clip-path="url(#clip-path)">
        <g id="Group_339" data-name="Group 339" transform="translate(-0.038 -4.965)">
          <path id="Path_175" data-name="Path 175" d="M1.272,2.164A1.09,1.09,0,1,1,2.164.908v0A1.089,1.089,0,0,1,1.272,2.164Z" transform="translate(0 10.238)" fill="#fff"/>
          <path id="Path_176" data-name="Path 176" d="M1.272,2.163A1.089,1.089,0,1,1,2.163.907v0A1.089,1.089,0,0,1,1.272,2.163Z" transform="translate(10.119 8.532)" fill="#fff"/>
          <path id="Path_177" data-name="Path 177" d="M1.271,2.164A1.089,1.089,0,1,1,2.164.908a1.089,1.089,0,0,1-.893,1.256Z" transform="translate(20.238 6.826)" fill="#fff"/>
          <path id="Path_178" data-name="Path 178" d="M1.271,2.164A1.089,1.089,0,1,1,2.164.908a1.089,1.089,0,0,1-.893,1.256Z" transform="translate(30.349 5.12)" fill="#fff"/>
          <path id="Path_179" data-name="Path 179" d="M1.271,2.164A1.09,1.09,0,1,1,2.163.908v0A1.09,1.09,0,0,1,1.271,2.164Z" transform="translate(40.474 3.41)" fill="#fff"/>
          <path id="Path_180" data-name="Path 180" d="M1.272,2.163A1.089,1.089,0,1,1,2.164.907v0A1.089,1.089,0,0,1,1.272,2.163Z" transform="translate(50.592 1.704)" fill="#fff"/>
          <path id="Path_181" data-name="Path 181" d="M1.271,2.164A1.089,1.089,0,1,1,2.163.908a1.089,1.089,0,0,1-.892,1.256Z" transform="translate(60.712 0)" fill="#fff"/>
          <path id="Path_182" data-name="Path 182" d="M1.263,2.157a1.087,1.087,0,1,1,.706-.441A1.085,1.085,0,0,1,1.263,2.157Z" transform="translate(1.408 18.552)" fill="#fff"/>
          <circle id="Ellipse_22" data-name="Ellipse 22" cx="1.089" cy="1.089" r="1.089" transform="translate(11.527 16.833)" fill="#fff"/>
          <path id="Path_183" data-name="Path 183" d="M1.263,2.157a1.086,1.086,0,1,1,.707-.441A1.086,1.086,0,0,1,1.263,2.157Z" transform="translate(21.655 15.139)" fill="#fff"/>
          <path id="Path_184" data-name="Path 184" d="M1.263,2.157a1.087,1.087,0,1,1,.708-.443A1.086,1.086,0,0,1,1.263,2.157Z" transform="translate(31.764 13.434)" fill="#fff"/>
          <path id="Path_185" data-name="Path 185" d="M1.271,2.164A1.09,1.09,0,1,1,2.164.908a1.089,1.089,0,0,1-.893,1.256Z" transform="translate(41.874 11.72)" fill="#fff"/>
          <path id="Path_186" data-name="Path 186" d="M1.264,2.157a1.085,1.085,0,1,1,.706-.441A1.085,1.085,0,0,1,1.264,2.157Z" transform="translate(52.001 10.018)" fill="#fff"/>
          <path id="Path_187" data-name="Path 187" d="M1.264,2.157a1.085,1.085,0,1,1,.706-.441A1.086,1.086,0,0,1,1.264,2.157Z" transform="translate(62.128 8.312)" fill="#fff"/>
          <path id="Path_188" data-name="Path 188" d="M1.271,2.164A1.089,1.089,0,1,1,2.164.908a1.089,1.089,0,0,1-.893,1.256Z" transform="translate(2.804 26.856)" fill="#fff"/>
          <path id="Path_189" data-name="Path 189" d="M1.272,2.163A1.089,1.089,0,1,1,2.163.907v0A1.089,1.089,0,0,1,1.272,2.163Z" transform="translate(12.922 25.145)" fill="#fff"/>
          <path id="Path_190" data-name="Path 190" d="M1.272,2.163A1.089,1.089,0,1,1,2.164.908v0A1.089,1.089,0,0,1,1.272,2.163Z" transform="translate(23.04 23.439)" fill="#fff"/>
          <path id="Path_191" data-name="Path 191" d="M1.27,2.164A1.089,1.089,0,1,1,2.164.909v0A1.089,1.089,0,0,1,1.27,2.164Z" transform="translate(33.16 21.733)" fill="#fff"/>
          <path id="Path_192" data-name="Path 192" d="M1.271,2.164A1.089,1.089,0,1,1,2.163.908a1.089,1.089,0,0,1-.892,1.256Z" transform="translate(43.278 20.027)" fill="#fff"/>
          <path id="Path_193" data-name="Path 193" d="M1.271,2.164A1.089,1.089,0,1,1,2.163.908a1.089,1.089,0,0,1-.892,1.256Z" transform="translate(53.396 18.31)" fill="#fff"/>
          <path id="Path_194" data-name="Path 194" d="M1.286,2.161A1.089,1.089,0,1,1,2.161.893l0,.016A1.089,1.089,0,0,1,1.286,2.161Z" transform="translate(63.5 16.614)" fill="#fff"/>
          <path id="Path_195" data-name="Path 195" d="M1.263,2.157a1.085,1.085,0,1,1,.707-.442A1.085,1.085,0,0,1,1.263,2.157Z" transform="translate(4.212 35.168)" fill="#fff"/>
          <path id="Path_196" data-name="Path 196" d="M1.271,2.164A1.089,1.089,0,1,1,2.164.908a1.089,1.089,0,0,1-.893,1.256Z" transform="translate(14.322 33.44)" fill="#fff"/>
          <path id="Path_197" data-name="Path 197" d="M1.264,2.157a1.085,1.085,0,1,1,.706-.441A1.086,1.086,0,0,1,1.264,2.157Z" transform="translate(24.447 31.753)" fill="#fff"/>
          <path id="Path_198" data-name="Path 198" d="M1.263,2.157a1.085,1.085,0,1,1,.707-.441A1.085,1.085,0,0,1,1.263,2.157Z" transform="translate(34.566 30.042)" fill="#fff"/>
          <path id="Path_199" data-name="Path 199" d="M1.263,2.157a1.086,1.086,0,1,1,.707-.443A1.086,1.086,0,0,1,1.263,2.157Z" transform="translate(44.685 28.34)" fill="#fff"/>
          <path id="Path_200" data-name="Path 200" d="M1.263,2.157a1.085,1.085,0,1,1,.708-.442A1.086,1.086,0,0,1,1.263,2.157Z" transform="translate(54.804 26.638)" fill="#fff"/>
          <path id="Path_201" data-name="Path 201" d="M1.271,2.164A1.089,1.089,0,1,1,2.164.908a1.09,1.09,0,0,1-.893,1.256Z" transform="translate(64.914 24.922)" fill="#fff"/>
          <path id="Path_202" data-name="Path 202" d="M1.252,2.167a1.088,1.088,0,1,1,.719-.436A1.089,1.089,0,0,1,1.252,2.167Z" transform="translate(5.626 43.464)" fill="#fff"/>
          <path id="Path_203" data-name="Path 203" d="M1.272,2.164A1.089,1.089,0,1,1,2.164.908a1.09,1.09,0,0,1-.892,1.256Z" transform="translate(15.725 41.762)" fill="#fff"/>
          <path id="Path_204" data-name="Path 204" d="M1.271,2.164A1.089,1.089,0,1,1,2.164.908a1.089,1.089,0,0,1-.893,1.256Z" transform="translate(25.844 40.057)" fill="#fff"/>
          <path id="Path_205" data-name="Path 205" d="M1.272,2.164A1.09,1.09,0,1,1,2.163.908v0A1.09,1.09,0,0,1,1.272,2.164Z" transform="translate(35.961 38.357)" fill="#fff"/>
          <path id="Path_206" data-name="Path 206" d="M1.271,2.163A1.089,1.089,0,1,1,2.163.907v0A1.089,1.089,0,0,1,1.271,2.163Z" transform="translate(46.081 36.64)" fill="#fff"/>
          <path id="Path_207" data-name="Path 207" d="M1.271,2.164A1.089,1.089,0,1,1,2.164.908a1.089,1.089,0,0,1-.893,1.256Z" transform="translate(56.199 34.953)" fill="#fff"/>
          <path id="Path_208" data-name="Path 208" d="M1.271,2.164A1.089,1.089,0,1,1,2.163.908a1.089,1.089,0,0,1-.892,1.256Z" transform="translate(66.318 33.229)" fill="#fff"/>
          <path id="Path_209" data-name="Path 209" d="M1.263,2.157a1.085,1.085,0,1,1,.707-.441A1.086,1.086,0,0,1,1.263,2.157Z" transform="translate(7.014 51.782)" fill="#fff"/>
          <path id="Path_210" data-name="Path 210" d="M1.263,2.157a1.086,1.086,0,1,1,.706-.441A1.086,1.086,0,0,1,1.263,2.157Z" transform="translate(17.116 50.09)" fill="#fff"/>
          <path id="Path_211" data-name="Path 211" d="M1.263,2.156a1.085,1.085,0,1,1,.708-.442A1.086,1.086,0,0,1,1.263,2.156Z" transform="translate(27.253 48.37)" fill="#fff"/>
          <path id="Path_212" data-name="Path 212" d="M1.271,2.164A1.089,1.089,0,1,1,2.164.908a1.089,1.089,0,0,1-.893,1.256Z" transform="translate(37.362 46.656)" fill="#fff"/>
          <path id="Path_213" data-name="Path 213" d="M1.264,2.157a1.085,1.085,0,1,1,.706-.441A1.086,1.086,0,0,1,1.264,2.157Z" transform="translate(47.487 44.954)" fill="#fff"/>
          <path id="Path_214" data-name="Path 214" d="M1.264,2.157a1.085,1.085,0,1,1,.706-.441A1.086,1.086,0,0,1,1.264,2.157Z" transform="translate(57.589 43.248)" fill="#fff"/>
          <path id="Path_215" data-name="Path 215" d="M1.263,2.157a1.085,1.085,0,1,1,.708-.442A1.085,1.085,0,0,1,1.263,2.157Z" transform="translate(67.725 41.541)" fill="#fff"/>
          <path id="Path_216" data-name="Path 216" d="M1.276,2.163A1.089,1.089,0,1,1,2.163.9V.911A1.089,1.089,0,0,1,1.276,2.163Z" transform="translate(8.405 60.082)" fill="#fff"/>
          <path id="Path_217" data-name="Path 217" d="M1.276,2.163A1.09,1.09,0,1,1,2.163.9V.911A1.09,1.09,0,0,1,1.276,2.163Z" transform="translate(18.524 58.376)" fill="#fff"/>
          <path id="Path_218" data-name="Path 218" d="M1.274,2.163A1.089,1.089,0,1,1,2.163.9v0A1.09,1.09,0,0,1,1.274,2.163Z" transform="translate(28.643 56.67)" fill="#fff"/>
          <path id="Path_219" data-name="Path 219" d="M1.275,2.163A1.089,1.089,0,1,1,2.163.9v0A1.089,1.089,0,0,1,1.275,2.163Z" transform="translate(38.761 54.964)" fill="#fff"/>
          <path id="Path_220" data-name="Path 220" d="M1.275,2.163A1.089,1.089,0,1,1,2.163.9v0A1.09,1.09,0,0,1,1.275,2.163Z" transform="translate(48.879 53.259)" fill="#fff"/>
          <path id="Path_221" data-name="Path 221" d="M1.275,2.163A1.089,1.089,0,1,1,2.163.9V.911A1.089,1.089,0,0,1,1.275,2.163Z" transform="translate(58.997 51.548)" fill="#fff"/>
          <path id="Path_222" data-name="Path 222" d="M1.276,2.163A1.09,1.09,0,1,1,2.163.9V.911A1.09,1.09,0,0,1,1.276,2.163Z" transform="translate(69.115 49.842)" fill="#fff"/>
          <path id="Path_223" data-name="Path 223" d="M1.272,2.164A1.09,1.09,0,1,1,2.164.908a1.09,1.09,0,0,1-.892,1.256Z" transform="translate(9.809 68.391)" fill="#fff"/>
          <path id="Path_224" data-name="Path 224" d="M1.255,2.15a1.082,1.082,0,1,1,.708-.44A1.082,1.082,0,0,1,1.255,2.15Z" transform="translate(19.943 66.695)" fill="#fff"/>
          <path id="Path_225" data-name="Path 225" d="M1.255,2.151a1.083,1.083,0,1,1,.707-.44A1.082,1.082,0,0,1,1.255,2.151Z" transform="translate(30.062 64.989)" fill="#fff"/>
          <path id="Path_226" data-name="Path 226" d="M1.263,2.157a1.086,1.086,0,1,1,.708-.443A1.085,1.085,0,0,1,1.263,2.157Z" transform="translate(40.192 63.276)" fill="#fff"/>
          <path id="Path_227" data-name="Path 227" d="M1.263,2.157a1.085,1.085,0,1,1,.708-.442A1.086,1.086,0,0,1,1.263,2.157Z" transform="translate(50.291 61.571)" fill="#fff"/>
          <path id="Path_228" data-name="Path 228" d="M1.255,2.15a1.082,1.082,0,1,1,.707-.439A1.081,1.081,0,0,1,1.255,2.15Z" transform="translate(60.417 59.868)" fill="#fff"/>
          <path id="Path_229" data-name="Path 229" d="M1.255,2.15a1.081,1.081,0,1,1,.708-.439A1.081,1.081,0,0,1,1.255,2.15Z" transform="translate(70.535 58.162)" fill="#fff"/>
        </g>
      </g>
    </g>
  </g>
</svg>
