<svg id="shopping_basket-24px" xmlns="http://www.w3.org/2000/svg" width="24" height="24" viewBox="0 0 24 24">
  <path id="Path_708" data-name="Path 708" d="M0,0H24V24H0Z" fill="none"/>
  <path id="Path_709" data-name="Path 709" d="M17.21,9,12.83,2.44A.993.993,0,0,0,12,2.02a.977.977,0,0,0-.83.43L6.79,9H2a1,1,0,0,0-1,1,.842.842,0,0,0,.04.27l2.54,9.27A1.989,1.989,0,0,0,5.5,21h13a2.01,2.01,0,0,0,1.93-1.46l2.54-9.27L23,10a1,1,0,0,0-1-1ZM9,9l3-4.4L15,9Zm3,8a2,2,0,1,1,2-2A2.006,2.006,0,0,1,12,17Z" fill="#95989a"/>
</svg>
