<?xml version="1.0" encoding="utf-8"?>
<!-- Generator: Adobe Illustrator 25.0.1, SVG Export Plug-In . SVG Version: 6.00 Build 0)  -->
<svg version="1.1" id="圖層_1" xmlns="http://www.w3.org/2000/svg" xmlns:xlink="http://www.w3.org/1999/xlink" x="0px" y="0px"
	 viewBox="0 0 1440 291" style="enable-background:new 0 0 1440 291;" xml:space="preserve">
<style type="text/css">
	.st0{clip-path:url(#SVGID_2_);}
	.st1{fill:#F886BC;}
	.st2{fill:#212237;}
	.st3{fill:#28364C;}
	.st4{fill:none;stroke:#28364C;stroke-width:0.75;stroke-miterlimit:10;}
	.st5{fill:#FFFFFF;}
	.st6{fill:#103BB2;}
	.st7{fill:#22252D;}
	.st8{fill:#F2B18F;}
	.st9{fill:#0070E4;}
	.st10{fill:none;stroke:#0B2E6B;stroke-width:0.75;stroke-miterlimit:10;}
	.st11{fill:#D8CAC0;}
	.st12{fill:none;stroke:#846A6A;stroke-width:0.75;stroke-miterlimit:10;}
	.st13{fill:#FFCBC2;}
	.st14{fill:#011E3B;}
	.st15{fill:#0F43AA;}
	.st16{fill:none;stroke:#0F1D49;stroke-width:0.75;stroke-miterlimit:10;}
	.st17{fill:#2C79E8;}
	.st18{fill:none;stroke:#E88872;stroke-width:0.5;stroke-linejoin:round;}
	.st19{clip-path:url(#SVGID_4_);}
	.st20{fill:#ADCBDD;}
</style>
<g>
	<g>
		<defs>
			<rect id="SVGID_1_" y="-2.3" width="267.2" height="291"/>
		</defs>
		<clipPath id="SVGID_2_">
			<use xlink:href="#SVGID_1_"  style="overflow:visible;"/>
		</clipPath>
		<g id="Group_786" transform="translate(-46.375 -2533.869)" class="st0">
			<g id="Group_542" transform="translate(170.392 2798.497) rotate(180)">
				<g id="Group_542-2" transform="translate(97.02 129.742)">
					<path id="Path_621" class="st1" d="M-26.6-43.8c-0.5-4.1-3.8-15.9-3.1-16.4s1.9,3.6,2.4,3.1s-1-7-0.1-7.3
						c1.1-0.4,2.3,6.3,2.3,6.3s-0.9-7.4,0.2-7.5c0.8-0.1,1.7,5.6,2.3,7.7c-0.4-2.4-0.6-6.3,0.2-6.3c0.8,0,1.5,3.8,2.2,6.7
						c-0.3-1.9-0.6-5.2,0.2-5.3s3.1,9.1,5,17.8"/>
					<path id="Path_622" class="st1" d="M-13.1,13.1c0,0,6.7-11.9,7.7-19.2C-3.1-24.2-18-54.7-18-54.7s-10.9,3-10.9,4.3
						c0,1.4,7.6,33.5,7.6,33.5L-32.2,8.2"/>
				</g>
				<g id="Group_545" transform="translate(66.155 231.393)">
					<path id="Path_623" class="st1" d="M-14.9-49.4l1.5-13.4c0,0-8.1-6.8-15.2,0.8l0.9,8.9L-14.9-49.4z"/>
					<path id="Path_624" class="st1" d="M-26.2-35.9c0,0-8.7-12-5.2-16.5c2.6-3.3,9.5-3.7,11.7-2.4c0.5,2.5,6.1,10.6,5.2,12.4
						C-17.9-35.5-26.2-35.9-26.2-35.9z"/>
					<path id="Path_625" class="st2" d="M-12.6-38c-0.3,4.5-4.8,5.9-13.4,5.4c-1.2-0.1-3.2,0.7-3.7-0.3c-0.7-1.3-0.8-4.1,0.5-5.3
						c0.7-0.7,1.7-1.1,2.7-1.3c1.6-0.4,3.1-1.8,2.3-3.5c-0.2-0.4-0.7-1.2-0.4-1.5c0.3-0.2,0.6-0.4,0.9-0.5c0.6-0.3,0.6-1.3,0.2-1.9
						c-0.4-0.6-0.2-1.2-0.6-1.8c-0.9-1.4,0.2-3.9,1.6-4.8c1.3-0.8,5.4-2,8.5-0.4c2.6,1.4,4.2,5.1,4.2,11.8
						C-9.7-39.5-11.6-37.8-12.6-38z"/>
					<path id="Path_626" class="st1" d="M-25.2-44.8c1.4,1.8,2.6,1.5,3.2,0.5c0.8-1.3-0.8-4-1.6-4.5c-1.6-0.9-2.9-0.8-3,0.4"/>
					<g id="Group_544" transform="translate(2.846 21.961)">
						<g id="Group_543" transform="translate(0 0)">
							<path id="Path_627" class="st3" d="M-31.6-64c-0.4-0.3-0.8-1-0.6-1.4c0.1-0.1,0.2-0.2,0.3-0.2C-30.9-65.5-30.7-63.3-31.6-64z
								"/>
						</g>
					</g>
					<path id="Path_628" class="st4" d="M-28.6-40.4c0.8-0.2,1.4-0.8,1.8-1.4"/>
					<path id="Path_629" class="st5" d="M-28.6-48.5l-2,1.1c0,0-1.3-2.5-0.4-3C-30-51-28.6-48.5-28.6-48.5z"/>
				</g>
				<g id="Group_548" transform="translate(39.656 0)">
					<g id="Group_546" transform="translate(0 0)">
						<rect id="Rectangle_2141" x="-32.2" y="-65.6" class="st6" width="31.5" height="1.4"/>
						<path id="Path_630" class="st7" d="M-5.2-52.6l2.7-0.6c0,0,1-3.6,1.4-6c0.2-1.6,0.4-3.3,0.3-4.9l-31.5,0c0,0,0.8,2.7,8.3,7.1
							c1.7,1,3.2,2.2,4.5,3.7L-5.2-52.6z"/>
						<path id="Path_631" class="st8" d="M-1.9-41.2l-0.5-12c0,0-1.3-1.6-6.7-1.6c-3.5,0-6.9,0.5-10.3,1.4l-1.1,16.2"/>
					</g>
					<g id="Group_547" transform="translate(44.853 0)">
						<rect id="Rectangle_2142" x="-32.2" y="-65.6" class="st6" width="31.5" height="1.4"/>
						<path id="Path_632" class="st7" d="M-5.2-52.6l2.7-0.6c0,0,1-3.6,1.4-6c0.2-1.6,0.4-3.3,0.3-4.9l-31.5,0c0,0,0.8,2.7,8.3,7.1
							c1.7,1,3.2,2.2,4.5,3.7L-5.2-52.6z"/>
						<path id="Path_633" class="st8" d="M-3.5-40.7l1.1-12.5c0,0-1.3-1.6-6.7-1.6c-3.5,0-6.9,0.5-10.3,1.4l-2.4,16.2"/>
					</g>
					<path id="Path_634" class="st9" d="M36.3,83.2c0,0,4.9-10.2,1-29.8c2-43.7,7.2-102.4,7.2-102.4l-30,0.1c0,0-6.1,63.1-9.8,94.6
						c-4.1,35.1-6.6,78-6.6,78"/>
					<path id="Path_635" class="st10" d="M19.3-49c0,0-6.1,63.1-9.8,94.6"/>
					<path id="Path_636" class="st9" d="M-21,81.2c0,0-3.2-46.1-3.2-68.2s-1.4-62.1-1.4-62.1H4.7L16,55.5
						c9.2,11.1,8.6,35.1,6.3,44.4l-30.1,8.2L-21,81.2z"/>
					<path id="Path_637" class="st10" d="M9.8-1.9L16,55.5c4.7,5.5,7.4,12.3,7.8,19.6"/>
					<line id="Line_26" class="st10" x1="-14.7" y1="85.8" x2="-21.9" y2="-49.1"/>
					<line id="Line_27" class="st10" x1="5.2" y1="73.7" x2="19.9" y2="73.4"/>
					<line id="Line_28" class="st10" x1="30.4" y1="74.1" x2="36" y2="74.3"/>
				</g>
				<g id="Group_549" transform="translate(0 145.004)">
					<path id="Path_638" class="st1" d="M-7,6.4c-4.1,4.7-15.1,22.3-16.4,22.1s2.1-5.8,1-5.8s-6.8,8-7.9,7.4
						c-1.6-0.8,4.7-8.8,4.7-8.8s-2.5,3.4-3.6,2.3c-0.8-0.8-0.4-2.4,1.3-5.2c-1.1,1.4-2.2,1.7-3.1,0.8c-0.8-0.8,0-2.4,1-3.9
						c-0.8,1-2,1.5-2.3,0.5c-0.4-1.4,2.9-8.5,10.8-20.2"/>
					<path id="Path_639" class="st11" d="M52.5,25c0,0,17.4-0.7,22.6-20.5C77.5-4.5,79-65.6,79-65.6l-63.5,0.4
						c0,0,0.8,55.3,2.3,67.2c2.6,21.9,19.8,23.2,19.8,23.2s0.8-1.9,7.5-1.9S52.5,25,52.5,25z"/>
					<path id="Path_640" class="st11" d="M52.5,25C73.2,25,85.9-3.4,85.9-3.4l-13-6.5"/>
					<path id="Path_641" class="st1" d="M25.3-15.2c0,0-11-15.8-19.9-16.7C-6.5-33.1-27.8,6.7-27.8,6.7l13.4,9.1L4-7.4L10.2,2"/>
					<path id="Path_642" class="st11" d="M37.6,25.3C19.8,24.3,6.8-2.1,6.8-2.1l20.8-14.9L39.4-1.7"/>
					<line id="Line_29" class="st12" x1="26.9" y1="-16.5" x2="36.9" y2="-3.5"/>
					<path id="Path_643" class="st12" d="M76.9-7.9c-0.8,5.3-2.1,10.4-4,15.4"/>
				</g>
				<path id="Path_644" class="st1" d="M36.7,188.3c0,0-2.9-1.4-2.7-1.9c0.3-0.6,0.6-1.2,1-1.8"/>
				<line id="Line_30" class="st10" x1="14" y1="-42.5" x2="44.9" y2="-42.5"/>
				<line id="Line_31" class="st10" x1="53.5" y1="-42.8" x2="83.5" y2="-42.8"/>
			</g>
			<g id="Group_543-2" transform="translate(139.236 2563.211)">
				<g id="Group_551" transform="translate(0.65 49.129)">
					<path id="Path_645" class="st13" d="M38,65.6c0,0-4.5,10.3-5.7,18c-1.2,7.7,9.5,29.4,9.5,29.4l9.2-5.4c0,0-2.8-16.2-2.8-22
						s5.2-13.8,5.2-13.8"/>
					<path id="Path_646" class="st13" d="M50.5,106.4c1.2,3.6,6.3,13.3,5.8,13.9s-2.4-2.8-2.7-2.3s2.1,6,1.5,6.4
						c-0.9,0.6-3.1-5.1-3.1-5.1s2.1,6.4,1.2,6.6c-0.7,0.2-2.5-4.6-3.5-6.3c0.8,2,1.6,5.4,1,5.6s-2-3-3.2-5.5
						c0.6,1.6,1.5,4.5,0.8,4.7s-4.4-7.4-7.7-14.8"/>
				</g>
				<g id="Group_554" transform="translate(0 80.598)">
					<g id="Group_552" transform="translate(1.345 41.665)">
						<path id="Path_647" class="st13" d="M55.9,79.1c1.1,25.8-6,90.2-6,90.2l8,5.1c0,0-24.5,1.1-25.2,0.4s0.9-5.6,0.9-5.6
							S32.9,93,32.2,81.7C31.5,70.5,54.8,53.3,55.9,79.1z"/>
						<path id="Path_648" class="st14" d="M38.8,174.7l-5.9-3.2l0.5-1.7l7.6,4.9l2.4,0l8.5-4.2l9.2,5.8c0.6,0.4,0.8,1.1,0.4,1.7
							c-0.2,0.4-0.6,0.6-1.1,0.6l-12.4,0l-4-2.8H43l0,2.7l-10.7,0l0-3.8L38.8,174.7z"/>
					</g>
					<g id="Group_553" transform="translate(33.134 36.568)">
						<path id="Path_649" class="st13" d="M56.8,88.6c1.8,36.2,1.1,85.8,1.1,85.8l7.9,5.1c0,0-24.5,1.1-25.2,0.3s0.9-5.6,0.9-5.6
							s-6.8-62.8-9.2-86.3S55.1,52.4,56.8,88.6z"/>
						<path id="Path_650" class="st14" d="M46.8,179.7l-5.9-3.2l0.5-1.7l7.6,4.9l2.4,0l8.5-4.2l9.2,5.8c0.6,0.4,0.8,1.1,0.4,1.7
							c-0.2,0.4-0.6,0.6-1.1,0.6L56,183.6l-3.9-2.8l-1.1,0l0,2.7l-10.7-0.1l0-3.8L46.8,179.7z"/>
					</g>
					<path id="Path_651" class="st15" d="M45.6,66c-2.1,1.5-6.8,8.1-8.8,14.7c-4.6,15.5-4.7,49.7-4.7,49.7h59c0,0-0.3-32.9-2.6-47.2
						c-1-6.1-3.3-12-6.6-17.2"/>
					<path id="Path_652" class="st16" d="M78.6,65.6c1.8,1.5,4.7,7,5.6,13.3c2.8,21.2,2.2,51.5,2.2,51.5"/>
				</g>
				<g id="Group_555" transform="translate(4.332 22.26)">
					<path id="Path_653" class="st17" d="M55.7,70.9C38,72,32.2,94,32.2,94l12.5,8.6"/>
					<line id="Line_32" class="st16" x1="39.3" y1="95.3" x2="33.1" y2="91.2"/>
					<path id="Path_654" class="st13" d="M87.9,81.4c0,0,13.2,10.2,15.3,10.2c2.2,0.1,19.2-15.8,19.2-15.8l8.9,10.4
						c0,0-17.9,24.5-27.6,24.5c-12.8,0-26.4-14-26.4-14"/>
					<path id="Path_655" class="st17" d="M68.7,70.9c0,0-2,1.6-6,1.1c-2.4-0.3-4.8-0.7-7.1-1.3c0,0.1-15.9,7.4-16.4,16.6
						c-0.6,10.3-0.5,16.4,2.1,37.2h36.4c0,0,5.7-25.5,5.7-35.3S68.7,70.9,68.7,70.9z"/>
					<path id="Path_656" class="st17" d="M68.7,70.9c3.5,0,6.9,0.8,10,2.4c5.4,3.2,10.3,7.1,14.7,11.6l-10.6,18.7l-11.1-7.9"/>
					<path id="Path_657" class="st16" d="M38.8,98.6c-0.2-4.9,0.2-9.7,1-14.5"/>
					<line id="Line_33" class="st16" x1="90.7" y1="82.3" x2="79.9" y2="102"/>
					<line id="Line_34" class="st16" x1="81.7" y1="103.3" x2="72.4" y2="96.7"/>
					<path id="Path_658" class="st13" d="M115.8,81.7c0,0,15-13.9,16-13.6s-1.7,3-0.9,3.1s6.8-6.2,7.6-5.6c1.1,0.8-4,6-4,6
						s1.4-0.9,2.2,0c0.6,0.7-1,2.8-1,2.8s1.6-1,2.1-0.3s-0.8,2.8-0.8,2.8s1.1-0.8,1.5-0.1c0.6,1.2-6.8,9.9-13.8,17.6"/>
				</g>
				<g id="Group_558" transform="translate(20.304 0)">
					<path id="Path_659" class="st13" d="M40.5,83.8l-1.4,10.1c0,0,6.6,6.8,13.6-0.7l0.4-5.7L40.5,83.8z"/>
					<path id="Path_660" class="st13" d="M51.5,70.5c0,0,9.5,10.8,6,15.2c-1.8,2.3-9.6,5.1-12.4,3.4c-2.1-1.3-6-10.4-5.1-12.2
						C43.4,70.1,51.5,70.5,51.5,70.5z"/>
					<path id="Path_661" class="st14" d="M51.1,72.5c0.6,6.3-1.3,9.5-1.3,9.5S54,95,53.1,96.3s-14.3,3.2-20.8,0.4c0,0-1-19.8,5-24.8
						c5.7-4.8,13.1-4.4,17.1-1.9c-0.3,0.8-1,1.5-1.8,1.8c-0.7,0.3-1.5,0.7-1.5,0.7"/>
					<path id="Path_662" class="st13" d="M51.1,80.3c-1.2-1.5-2.1-1.2-2.6-0.4c-0.7,1.1,0.7,3.3,1.3,3.7c1.3,0.8,2.3,0.7,2.4-0.4"/>
					<path id="Path_663" class="st18" d="M53.1,88.4c-0.8,0-1.5-0.4-1.8-1.1"/>
					<g id="Group_557" transform="translate(21.314 10.861)">
						<g id="Group_556" transform="translate(0)">
							<path id="Path_664" class="st3" d="M32.7,65.8c0.4,0.3,0.8,0.9,0.6,1.4c-0.1,0.1-0.2,0.2-0.3,0.2
								C32.1,67.2,31.9,65.1,32.7,65.8z"/>
						</g>
					</g>
					<path id="Path_665" class="st4" d="M53.9,75c-0.7,0.2-1.4,0.7-1.8,1.4"/>
					<path id="Path_666" class="st5" d="M55.1,81.5l2-1c0,0,1.3,2.4,0.4,2.9C56.4,83.9,55.1,81.5,55.1,81.5z"/>
					<path id="Path_667" class="st14" d="M40.6,70c0.9-0.3,1.4-1.1,1.4-2c-0.1-0.9-0.6-1.7-1.4-2.1c-0.8-0.4-1.7-0.5-2.5-0.2
						c-1.3,0.3-2.1,1.6-1.8,2.9c0.1,0.4,0.3,0.8,0.6,1.2c0.3,0.5,0.8,0.8,1.3,1c0.5,0.1,1.1-0.1,1.4-0.6"/>
				</g>
			</g>
		</g>
	</g>
	<g id="圖層_2_1_">
		<g id="圖層_1-2">
			<g>
				<g>
					<defs>
						<rect id="SVGID_3_" y="0" width="1440" height="291"/>
					</defs>
					<clipPath id="SVGID_4_">
						<use xlink:href="#SVGID_3_"  style="overflow:visible;"/>
					</clipPath>
					<g class="st19">
						<g id="Mask_Group_20">
							<path id="Path_620" class="st20" d="M1518.2,1009.4H-101.4l-25.7-706.8l0,0c33.7-6,47.6-17.5,60.8-28.7
								c13.4-11.3,27.2-23,61.5-29.1s55.3-0.6,75.6,4.7c20,5.2,40.7,10.6,74.5,4.6s47.4-17.5,60.6-28.7c13.4-11.3,27.2-23,61.5-29.1
								s55.3-0.6,75.6,4.7c20,5.2,40.7,10.6,74.4,4.6s47.4-17.5,60.6-28.7c13.4-11.3,27.2-23,61.5-29.1s55.3-0.6,75.6,4.7
								c20,5.2,40.7,10.6,74.4,4.6s47.4-17.5,60.6-28.7c13.4-11.3,27.2-23,61.5-29.1s55.3-0.6,75.6,4.7c20,5.2,40.7,10.6,74.4,4.6
								s47.4-17.5,60.6-28.7c13.4-11.3,27.2-23,61.5-29.1s55.3-0.6,75.6,4.7c20,5.2,40.7,10.6,74.4,4.6s47.4-17.5,60.6-28.7
								c13.4-11.3,27.2-23,61.5-29.1s55.3-0.6,75.6,4.7c20,5.2,40.7,10.6,74.4,4.6"/>
						</g>
					</g>
				</g>
			</g>
		</g>
	</g>
</g>
</svg>
