<svg xmlns="http://www.w3.org/2000/svg" xmlns:xlink="http://www.w3.org/1999/xlink" width="1440" height="291" viewBox="0 0 1440 291">
  <defs>
    <clipPath id="clip-path">
      <rect id="Rectangle_2219" data-name="Rectangle 2219" width="1440" height="291" fill="#88adc2" stroke="#707070" stroke-width="1"/>
    </clipPath>
  </defs>
  <g id="Mask_Group_20" data-name="Mask Group 20" clip-path="url(#clip-path)">
    <path id="Path_620" data-name="Path 620" d="M1645.285,0H25.716L0,706.841H0c33.725,6,47.547,17.536,60.744,28.675,13.378,11.29,27.209,22.964,61.506,29.07s55.28.629,75.569-4.668c20.018-5.225,40.718-10.631,74.446-4.627s47.37,17.522,60.569,28.661c13.376,11.29,27.207,22.965,61.5,29.069s55.275.628,75.562-4.668c20.019-5.226,40.716-10.627,74.442-4.627s47.37,17.521,60.567,28.66c13.376,11.291,27.207,22.964,61.5,29.069s55.275.628,75.562-4.668c20.018-5.226,40.717-10.63,74.442-4.627s47.37,17.521,60.567,28.66c13.376,11.29,27.207,22.964,61.5,29.069s55.275.629,75.562-4.668c20.018-5.226,40.717-10.63,74.439-4.628s47.37,17.521,60.565,28.661c13.376,11.29,27.205,22.964,61.5,29.069s55.273.628,75.564-4.669c20.018-5.226,40.717-10.629,74.439-4.627s47.366,17.521,60.561,28.66c13.376,11.29,27.205,22.963,61.5,29.068s55.273.626,75.558-4.671c20.014-5.225,40.714-10.631,74.433-4.628" transform="translate(-127.136 -718.443)" fill="#88adc2"/>
  </g>
</svg>
