<?xml version="1.0" encoding="utf-8"?>
<!-- Generator: Adobe Illustrator 25.0.1, SVG Export Plug-In . SVG Version: 6.00 Build 0)  -->
<svg version="1.1" id="圖層_1" xmlns="http://www.w3.org/2000/svg" xmlns:xlink="http://www.w3.org/1999/xlink" x="0px" y="0px"
	 viewBox="0 0 1440 291" style="enable-background:new 0 0 1440 291;" xml:space="preserve">
<style type="text/css">
	.st0{clip-path:url(#SVGID_2_);}
	.st1{fill:#FFFFFF;}
</style>
<g id="圖層_2_1_">
	<g id="圖層_1-2">
		<g>
			<defs>
				<rect id="SVGID_1_" y="0" width="1440" height="291"/>
			</defs>
			<clipPath id="SVGID_2_">
				<use xlink:href="#SVGID_1_"  style="overflow:visible;"/>
			</clipPath>
			<g class="st0">
				<g id="Mask_Group_20">
					<path id="Path_620" class="st1" d="M1518.2,1009.4H-101.4l-25.7-706.8l0,0c33.7-6,47.6-17.5,60.8-28.7
						c13.4-11.3,27.2-23,61.5-29.1s55.3-0.6,75.6,4.7c20,5.2,40.7,10.6,74.5,4.6s47.4-17.5,60.6-28.7c13.4-11.3,27.2-23,61.5-29.1
						s55.3-0.6,75.6,4.7c20,5.2,40.7,10.6,74.4,4.6s47.4-17.5,60.6-28.7c13.4-11.3,27.2-23,61.5-29.1s55.3-0.6,75.6,4.7
						c20,5.2,40.7,10.6,74.4,4.6s47.4-17.5,60.6-28.7c13.4-11.3,27.2-23,61.5-29.1s55.3-0.6,75.6,4.7c20,5.2,40.7,10.6,74.4,4.6
						s47.4-17.5,60.6-28.7c13.4-11.3,27.2-23,61.5-29.1s55.3-0.6,75.6,4.7c20,5.2,40.7,10.6,74.4,4.6s47.4-17.5,60.6-28.7
						c13.4-11.3,27.2-23,61.5-29.1s55.3-0.6,75.6,4.7c20,5.2,40.7,10.6,74.4,4.6"/>
				</g>
			</g>
		</g>
	</g>
</g>
</svg>
