<svg id="yellow_man" data-name="yellow man" xmlns="http://www.w3.org/2000/svg" width="108.109" height="153.474" viewBox="0 0 108.109 153.474">
  <path id="Path_331" data-name="Path 331" d="M222.383,682.167l-16.432-1.224-5.391.58.1,20.431a.933.933,0,0,0,.939.882h0a.929.929,0,0,0,.873-.581l4.189-9.115,17.128,2.06" transform="translate(-198.444 -550.418)" fill="#e7b6df"/>
  <path id="Path_332" data-name="Path 332" d="M200.828,703.769a2.885,2.885,0,0,0,1.613-1.015l4.158-9.661c-2.156-5.332-.5-12.226-.5-12.226l-7.283-.527a.431.431,0,0,0-.431.431v0l.119,22.832C198.507,704.077,200.81,703.775,200.828,703.769Z" transform="translate(-198.381 -550.401)" fill="#175fab"/>
  <path id="Path_333" data-name="Path 333" d="M206.346,695.58a11.483,11.483,0,0,0-2.286-1.364" transform="translate(-198.544 -550.799)" fill="none" stroke="#002b6e" stroke-linejoin="round" stroke-width="0.75"/>
  <path id="Path_334" data-name="Path 334" d="M205.61,696.842a10.013,10.013,0,0,0-1.944-1.126" transform="translate(-198.533 -550.842)" fill="none" stroke="#002b6e" stroke-linejoin="round" stroke-width="0.75"/>
  <path id="Path_335" data-name="Path 335" d="M205.071,697.9a14.635,14.635,0,0,0-1.787-1.05" transform="translate(-198.522 -550.875)" fill="none" stroke="#002b6e" stroke-linejoin="round" stroke-width="0.75"/>
  <line id="Line_9" data-name="Line 9" x2="0.127" y2="23.407" transform="translate(1.571 130.06)" fill="none" stroke="#002b6e" stroke-linejoin="round" stroke-width="0.75"/>
  <path id="Path_336" data-name="Path 336" d="M203.5,680.686s-.057,5.419-3.481,5.895" transform="translate(-198.428 -550.411)" fill="none" stroke="#002b6e" stroke-linejoin="round" stroke-width="0.75"/>
  <path id="Path_337" data-name="Path 337" d="M203.344,701.324a18.443,18.443,0,0,0-3.243-1.869" transform="translate(-198.43 -550.949)" fill="none" stroke="#002b6e" stroke-linejoin="round" stroke-width="0.75"/>
  <path id="Path_338" data-name="Path 338" d="M251.428,647.442c.244.505,3.3,22.189,5.489,37.315,1.375,9.463,1.543,15.44-12.237,14.308-18.979-1.555-32.2-2.414-32.2-2.414l-.441-17.018,26.047,1.241-3.4-16.826s-6.308-8.414-1.659-18.04" transform="translate(-198.773 -549.416)" fill="#88adc2"/>
  <line id="Line_10" data-name="Line 10" x2="0.691" y2="16.885" transform="translate(16.059 130.351)" fill="none" stroke="#2e2e70" stroke-miterlimit="10" stroke-width="0.75"/>
  <path id="Path_339" data-name="Path 339" d="M246.846,659.055l4.584,26.639a1.16,1.16,0,0,1-.991,1.308,1.221,1.221,0,0,1-.239.009l-38.052-2.321" transform="translate(-198.776 -549.79)" fill="none" stroke="#2e2e70" stroke-miterlimit="10" stroke-width="0.75"/>
  <path id="Path_340" data-name="Path 340" d="M272.724,679.879l-3.481,16.433-.144,5.4,21.139-.111a.94.94,0,0,0,.928-.939h0a.932.932,0,0,0-.58-.87l-9.116-4.19,4.306-17.128" transform="translate(-200.41 -550.347)" fill="#e7b6df"/>
  <path id="Path_341" data-name="Path 341" d="M292.063,701.879a2.87,2.87,0,0,0-1.01-1.612l-9.667-4.161c-5.326,2.157-12.225.511-12.225.511l-1.23,7.276a.441.441,0,0,0,.44.435L291.9,704.2C292.377,704.2,292.069,701.9,292.063,701.879Z" transform="translate(-200.376 -550.853)" fill="#175fab"/>
  <path id="Path_342" data-name="Path 342" d="M283.9,696.534a10.98,10.98,0,0,0-1.364,2.287" transform="translate(-200.795 -550.865)" fill="none" stroke="#002b6e" stroke-linejoin="round" stroke-width="0.75"/>
  <path id="Path_343" data-name="Path 343" d="M285.157,697.281a10.339,10.339,0,0,0-1.121,1.944" transform="translate(-200.838 -550.887)" fill="none" stroke="#002b6e" stroke-linejoin="round" stroke-width="0.75"/>
  <path id="Path_344" data-name="Path 344" d="M286.222,697.83a13.4,13.4,0,0,0-1.05,1.781" transform="translate(-200.871 -550.902)" fill="none" stroke="#002b6e" stroke-linejoin="round" stroke-width="0.75"/>
  <line id="Line_11" data-name="Line 11" y1="0.122" x2="24.103" transform="translate(67.683 151.779)" fill="none" stroke="#002b6e" stroke-linejoin="round" stroke-width="0.75"/>
  <path id="Path_345" data-name="Path 345" d="M268.75,699.3s5.664.117,6.15,3.528" transform="translate(-200.4 -550.945)" fill="none" stroke="#002b6e" stroke-linejoin="round" stroke-width="0.75"/>
  <path id="Path_346" data-name="Path 346" d="M289.639,699.509a18.433,18.433,0,0,0-1.869,3.244" transform="translate(-200.945 -550.951)" fill="none" stroke="#002b6e" stroke-linejoin="round" stroke-width="0.75"/>
  <path id="Path_347" data-name="Path 347" d="M261.056,642.382l1.206,4.735a1.535,1.535,0,0,0,1.479,1.161h16.386c4,0,8.228.1,10.513,3.574,1.875,2.843,1.213,7.577-.348,13.026-1.341,4.642-6.08,25.959-6.08,25.959h-16.85l4.753-25.414H252.69s-12.6.1-10.856-12.5" transform="translate(-199.623 -549.312)" fill="#88adc2"/>
  <path id="Path_348" data-name="Path 348" d="M254.958,665.729h-2.32s-12.04,0-12.185-12.5" transform="translate(-199.588 -549.623)" fill="none" stroke="#2e2e70" stroke-miterlimit="10" stroke-width="0.75"/>
  <path id="Path_349" data-name="Path 349" d="M254.013,646.558s.308,14.1,12.184,14.1h8.93a1.74,1.74,0,0,1,1.777,1.7,1.762,1.762,0,0,1-.037.4l-5.889,28.153" transform="translate(-199.977 -549.432)" fill="none" stroke="#2e2e70" stroke-miterlimit="10" stroke-width="0.75"/>
  <path id="Path_350" data-name="Path 350" d="M255.207,652.406c.093.25,4.985-1.12,4.892-5.846" transform="translate(-200.011 -549.432)" fill="none" stroke="#2e2e70" stroke-miterlimit="10" stroke-width="0.75"/>
  <path id="Path_351" data-name="Path 351" d="M244.628,654.615a20.281,20.281,0,0,0,4.9-.671" transform="translate(-199.708 -549.644)" fill="none" stroke="#2e2e70" stroke-miterlimit="10" stroke-width="0.75"/>
  <path id="Path_352" data-name="Path 352" d="M231.94,654.634s2.367.07,4.16,0" transform="translate(-199.344 -549.663)" fill="none" stroke="#2e2e70" stroke-miterlimit="10" stroke-width="0.75"/>
  <path id="Path_353" data-name="Path 353" d="M246.431,592.881s5.8-18.074,16.669-32.621l-7.415-4.526c-11.732,12.73-19.461,34.019-19.461,34.019" transform="translate(-199.467 -546.826)" fill="#e7b6df"/>
  <path id="Path_354" data-name="Path 354" d="M231.536,624.361s-2.425-22.293,6.757-40.993l10.845,3.54-2.855,14.3" transform="translate(-199.324 -547.619)" fill="#fdd499"/>
  <line id="Line_13" data-name="Line 13" x2="10.682" y2="3.696" transform="translate(38.161 37.85)" fill="none" stroke="#c38437" stroke-miterlimit="10" stroke-width="0.75"/>
  <path id="Path_355" data-name="Path 355" d="M262.022,562.082c1.741-2.675,8.089-9.585,7.781-10.166s-2.571,1.828-2.732,1.305,3.067-4.456,2.606-4.949c-.624-.671-3.72,3.533-3.72,3.533s3.164-4.775,2.449-5.224c-.5-.3-3.081,3.232-4.236,4.457,1.085-1.491,2.554-4.108,2.025-4.409s-2.321,2.065-3.812,3.806c.818-1.16,2.2-3.383,1.741-3.684s-6.492,6.086-11.239,12.574" transform="translate(-199.944 -546.563)" fill="#e7b6df"/>
  <path id="Path_356" data-name="Path 356" d="M254.114,619.41s11.094,4.248,19.235,4.781c10.665.691,23.071-3.284,23.071-3.284s1.642-8.768-2.628-8.349a81.5,81.5,0,0,1-21.208.8c-4.265-.517-13.346-5.384-13.346-5.384" transform="translate(-199.98 -548.325)" fill="#e7b6df"/>
  <path id="Path_357" data-name="Path 357" d="M292.472,613.1c3.167-.423,12.144-3.144,12.533-2.623s-2.757,1.534-2.356,1.9,5.338-.835,5.588-.209c.335.853-4.792,1.821-4.792,1.821s5.669-.777,5.744.048c.052.581-4.248,1.375-5.847,1.886,1.811-.331,4.805-.523,4.846.087s-2.872,1.206-5.083,1.786c1.415-.231,4.009-.522,4.061.041s-6.922,2.519-13.571,4.109" transform="translate(-201.08 -548.395)" fill="#e7b6df"/>
  <path id="Path_358" data-name="Path 358" d="M242.253,598.189l-1.514,7.624s4.271,4.323,8.744.3L249.431,601Z" transform="translate(-199.596 -548.044)" fill="#e7b6df"/>
  <path id="Path_359" data-name="Path 359" d="M250.382,590.793s3.642,7.288,1.387,9.7a3.193,3.193,0,0,1-4.439.58c-1.161-.863-5.553-6.092-4.936-7.085C244.754,590.183,250.382,590.793,250.382,590.793Z" transform="translate(-199.642 -547.831)" fill="#e7b6df"/>
  <path id="Path_360" data-name="Path 360" d="M252.113,595.023s1.346,1.335,1.346,2.222c0,.394-1.346.453-1.346.453" transform="translate(-199.922 -547.953)" fill="#e7b6df"/>
  <path id="Path_361" data-name="Path 361" d="M251.978,598.537l-2.368-.348C249.494,599.089,251.258,601.328,251.978,598.537Z" transform="translate(-199.85 -548.044)" fill="#fff"/>
  <path id="Path_362" data-name="Path 362" d="M250.267,594.893a.619.619,0,0,0,0,.18.39.39,0,0,0,.029.18,1.087,1.087,0,0,0,.041.139.47.47,0,0,0,.035.07.5.5,0,0,0,.048.064.218.218,0,0,0,.117.081.193.193,0,0,0,.226-.127.288.288,0,0,0,0-.122v-.048a1.39,1.39,0,0,0-.058-.127v.052a.891.891,0,0,1-.064-.245v-.048a.158.158,0,0,1,0-.052.173.173,0,0,0-.33,0Z" transform="translate(-199.869 -547.946)" fill="#0a244b"/>
  <path id="Path_363" data-name="Path 363" d="M249.1,594.423a1.535,1.535,0,0,1,1.126-.666.809.809,0,0,1,.581.133" transform="translate(-199.836 -547.917)" fill="none" stroke="#0a244b" stroke-linecap="round" stroke-linejoin="round" stroke-width="0.5"/>
  <path id="Path_364" data-name="Path 364" d="M241.46,591.276c.394-2.588,3.023-3.122,7.92-2.4.656.1,1.869-.243,2.123.366a2.847,2.847,0,0,1-.58,3.005c-.731.581-1.741.261-2.577.581-1.317.476-.667,1.741-1.364,2.674-1.16,1.55-.394,3.824-2.32,5.008a5.308,5.308,0,0,1-3.748.244.94.94,0,0,1-.435-.157c-.435-.335-.261-1.52-.389-2.031a15.669,15.669,0,0,1-.488-5.06C239.742,592.013,240.92,591.1,241.46,591.276Z" transform="translate(-199.563 -547.769)" fill="#091429"/>
  <path id="Path_366" data-name="Path 366" d="M249.525,602.111a8.906,8.906,0,0,1-2.687-1.335" transform="translate(-199.771 -548.118)" fill="none" stroke="#aa1f6f" stroke-linejoin="round" stroke-width="0.75"/>
  <path id="Path_367" data-name="Path 367" d="M240.439,603.637s-6.626,2.808-8.668,13.264c-.905,4.642.841,29.679.841,29.655,14.332,2.8,29.761-1.335,29.761-1.335s-1.741-16.31-2.57-22.455c-1.858-14.174-11.606-18.679-11.606-18.679Z" transform="translate(-199.331 -548.201)" fill="#fdd499"/>
  <path id="Path_368" data-name="Path 368" d="M248.666,604.1a39.856,39.856,0,0,1,9.052,2.536c3.54,1.688,11.512,5.565,11.512,5.565l-4.1,11.326-14.459-4.567" transform="translate(-199.823 -548.214)" fill="#fdd499"/>
  <line id="Line_14" data-name="Line 14" x1="8.123" y1="2.379" transform="translate(52.197 71.172)" fill="none" stroke="#c38437" stroke-miterlimit="10" stroke-width="0.75"/>
  <line id="Line_15" data-name="Line 15" x1="3.882" y2="11.645" transform="translate(63.041 62.782)" fill="none" stroke="#c38437" stroke-miterlimit="10" stroke-width="0.75"/>
  <path id="Path_369" data-name="Path 369" d="M232.5,645.97a94.606,94.606,0,0,0,29.627-1.085" transform="translate(-199.36 -549.384)" fill="none" stroke="#c38437" stroke-miterlimit="10" stroke-width="0.75"/>
</svg>
