<svg xmlns="http://www.w3.org/2000/svg" width="203.693" height="264.627" viewBox="0 0 203.693 264.627">
  <g id="Group_780" data-name="Group 780" transform="translate(-46.375 -2224.869)">
    <g id="Group_542" data-name="Group 542" transform="translate(170.392 2489.497) rotate(180)">
      <g id="Group_542-2" data-name="Group 542" transform="translate(97.02 129.742)">
        <path id="Path_621" data-name="Path 621" d="M3.2,21.819C2.73,17.67-.6,5.872.1,5.379S2.021,9.02,2.518,8.507s-.96-7-.13-7.309c1.124-.416,2.26,6.311,2.26,6.311S3.771.08,4.85,0c.764-.056,1.694,5.584,2.321,7.694-.387-2.373-.56-6.293.236-6.335s1.5,3.785,2.208,6.686c-.27-1.851-.582-5.247.151-5.321s3.119,9.109,5.027,17.841" transform="translate(2.348 0)" fill="#f886bc"/>
        <path id="Path_622" data-name="Path 622" d="M19.055,67.831S25.769,55.9,26.738,48.582C29.127,30.548,14.164,0,14.164,0S3.29,2.966,3.29,4.331s7.579,33.463,7.579,33.463L0,62.883" transform="translate(0 10.911)" fill="#f886bc"/>
      </g>
      <g id="Group_545" data-name="Group 545" transform="translate(66.155 231.393)">
        <path id="Path_623" data-name="Path 623" d="M13.739,16.258,15.2,2.809S7.136-4.028,0,3.632l.873,8.852Z" transform="translate(3.53 0)" fill="#f886bc"/>
        <path id="Path_624" data-name="Path 624" d="M6.02,19.621S-2.71,7.6.856,3.094C3.486-.23,10.39-.608,12.522.7c.459,2.461,6.117,10.6,5.209,12.408C14.265,20.026,6.02,19.621,6.02,19.621Z" transform="translate(0 10.11)" fill="#f886bc"/>
        <path id="Path_625" data-name="Path 625" d="M17.609,16.638C17.328,21.183,12.846,22.514,4.245,22c-1.151-.068-3.2.713-3.731-.31-.7-1.345-.825-4.068.526-5.292a4.958,4.958,0,0,1,2.692-1.271c1.558-.364,3.146-1.849,2.317-3.481-.218-.427-.731-1.152-.407-1.505a4.748,4.748,0,0,1,.935-.49c.619-.331.58-1.271.194-1.858s-.214-1.237-.6-1.822c-.92-1.385.171-3.94,1.6-4.786,1.266-.751,5.416-2,8.456-.427,2.634,1.367,4.217,5.085,4.239,11.771C20.474,15.093,18.567,16.813,17.609,16.638Z" transform="translate(1.997 11.013)" fill="#212237"/>
        <path id="Path_626" data-name="Path 626" d="M1.412,4.624c1.417,1.8,2.564,1.511,3.191.524C5.438,3.832,3.763,1.1,2.984.63,1.4-.317.122-.216,0,1.068" transform="translate(5.559 16.163)" fill="#f886bc"/>
        <g id="Group_544" data-name="Group 544" transform="translate(2.846 21.961)">
          <g id="Group_543" data-name="Group 543" transform="translate(0 0)">
            <path id="Path_627" data-name="Path 627" d="M.628,1.577C.223,1.239-.157.626.066.176A.313.313,0,0,1,.39,0C1.3.092,1.474,2.283.628,1.577Z" fill="#28364c"/>
          </g>
        </g>
        <path id="Path_628" data-name="Path 628" d="M0,1.433A3.366,3.366,0,0,0,1.824,0" transform="translate(3.587 23.77)" fill="none" stroke="#28364c" stroke-miterlimit="10" stroke-width="0.75"/>
        <path id="Path_629" data-name="Path 629" d="M2.707,1.985.714,3.051S-.6.6.332.086C1.358-.485,2.707,1.985,2.707,1.985Z" transform="translate(0.864 15.142)" fill="#fff"/>
      </g>
      <g id="Group_548" data-name="Group 548" transform="translate(39.656 0)">
        <g id="Group_546" data-name="Group 546" transform="translate(0 0)">
          <rect id="Rectangle_2141" data-name="Rectangle 2141" width="31.491" height="1.41" transform="translate(31.491 1.435) rotate(-179.956)" fill="#103bb2"/>
          <path id="Path_630" data-name="Path 630" d="M27.01,11.648l2.724-.641s1.043-3.56,1.442-6.038A29.026,29.026,0,0,0,31.49.023L0,0S.823,2.728,8.337,7.131A16.4,16.4,0,0,1,12.8,10.849Z" transform="translate(0.001 1.411)" fill="#22252d"/>
          <path id="Path_631" data-name="Path 631" d="M18.5,13.577,17.985,1.6S16.663.005,11.315,0A40.9,40.9,0,0,0,1.055,1.446L0,17.6" transform="translate(11.75 10.814)" fill="#f2b18f"/>
        </g>
        <g id="Group_547" data-name="Group 547" transform="translate(44.853 0)">
          <rect id="Rectangle_2142" data-name="Rectangle 2142" width="31.491" height="1.41" transform="translate(31.491 1.435) rotate(-179.956)" fill="#103bb2"/>
          <path id="Path_632" data-name="Path 632" d="M27.01,11.648l2.724-.641s1.043-3.56,1.442-6.038A28.92,28.92,0,0,0,31.492.023L0,0S.823,2.728,8.337,7.131A16.363,16.363,0,0,1,12.8,10.849Z" transform="translate(0 1.411)" fill="#22252d"/>
          <path id="Path_633" data-name="Path 633" d="M18.293,14.065,19.355,1.6S18.034.005,12.686,0A40.9,40.9,0,0,0,2.426,1.446L0,17.6" transform="translate(10.379 10.814)" fill="#f2b18f"/>
        </g>
        <path id="Path_634" data-name="Path 634" d="M38.143,132.235s4.912-10.228.965-29.8C41.116,58.741,46.342,0,46.342,0l-30,.1S10.22,63.248,6.585,94.716C2.534,129.768,0,172.692,0,172.692" transform="translate(30.304 16.542)" fill="#0070e4"/>
        <path id="Path_635" data-name="Path 635" d="M9.754,0S3.635,63.144,0,94.612" transform="translate(41.733 16.647)" fill="none" stroke="#0b2e6b" stroke-miterlimit="10" stroke-width="0.75"/>
        <path id="Path_636" data-name="Path 636" d="M4.606,130.278S1.419,84.213,1.419,62.106,0,0,0,0H30.327L41.61,104.559c9.241,11.07,8.568,35.089,6.34,44.44l-30.071,8.213Z" transform="translate(6.548 16.542)" fill="#0070e4"/>
        <path id="Path_637" data-name="Path 637" d="M0,0,6.2,57.414a32.153,32.153,0,0,1,7.752,19.551" transform="translate(41.961 63.687)" fill="none" stroke="#0b2e6b" stroke-miterlimit="10" stroke-width="0.75"/>
        <line id="Line_26" data-name="Line 26" x1="7.177" y1="134.905" transform="translate(10.308 16.541)" fill="none" stroke="#0b2e6b" stroke-miterlimit="10" stroke-width="0.75"/>
        <line id="Line_27" data-name="Line 27" y1="0.295" x2="14.73" transform="translate(37.403 138.996)" fill="none" stroke="#0b2e6b" stroke-miterlimit="10" stroke-width="0.75"/>
        <line id="Line_28" data-name="Line 28" x2="5.6" y2="0.117" transform="translate(62.633 139.755)" fill="none" stroke="#0b2e6b" stroke-miterlimit="10" stroke-width="0.75"/>
      </g>
      <g id="Group_549" data-name="Group 549" transform="translate(0 145.004)">
        <path id="Path_638" data-name="Path 638" d="M25.244,10.8C21.133,15.45,10.1,33.137,8.858,32.858s2.1-5.753,1.039-5.791S3.127,35.1,1.962,34.493C.383,33.667,6.674,25.71,6.674,25.71s-2.463,3.382-3.625,2.269c-.823-.789-.389-2.444,1.316-5.236-1.143,1.43-2.224,1.682-3.061.846S1.3,21.235,2.32,19.694C1.512,20.7.334,21.21.031,20.158-.365,18.783,2.974,11.643,10.87,0" transform="translate(0 61.186)" fill="#f886bc"/>
        <path id="Path_639" data-name="Path 639" d="M37.045,90.566s17.376-.727,22.587-20.5C61.982,61.145,63.495,0,63.495,0L0,.425S.846,55.7,2.265,67.67c2.6,21.874,19.818,23.237,19.818,23.237s.785-1.934,7.514-1.934S37.045,90.566,37.045,90.566Z" transform="translate(47.689 0)" fill="#d8cac0"/>
        <path id="Path_640" data-name="Path 640" d="M0,34.841c20.625,0,33.323-28.33,33.323-28.33L20.355,0" transform="translate(84.734 55.725)" fill="#d8cac0"/>
        <path id="Path_641" data-name="Path 641" d="M53.083,16.722S42.078.884,33.192.025C21.248-1.131,0,38.633,0,38.633l13.4,9.054L31.76,24.6l6.261,9.358" transform="translate(4.407 33.649)" fill="#f886bc"/>
        <path id="Path_642" data-name="Path 642" d="M30.753,42.353C13,41.377,0,14.924,0,14.924L20.792,0l11.8,15.394" transform="translate(39.019 48.555)" fill="#d8cac0"/>
        <line id="Line_29" data-name="Line 29" x2="10.058" y2="13.082" transform="translate(59.078 49.08)" fill="none" stroke="#846a6a" stroke-miterlimit="10" stroke-width="0.75"/>
        <path id="Path_643" data-name="Path 643" d="M3.979,0A74.494,74.494,0,0,1,0,15.424" transform="translate(105.089 57.722)" fill="none" stroke="#846a6a" stroke-miterlimit="10" stroke-width="0.75"/>
      </g>
      <path id="Path_644" data-name="Path 644" d="M2.722,3.691S-.137,2.317.005,1.792A10.435,10.435,0,0,1,1.006,0" transform="translate(66.155 250.229)" fill="#f886bc"/>
      <line id="Line_30" data-name="Line 30" x2="30.856" transform="translate(46.203 23.116)" fill="none" stroke="#0b2e6b" stroke-miterlimit="10" stroke-width="0.75"/>
      <line id="Line_31" data-name="Line 31" x2="30.011" transform="translate(85.668 22.855)" fill="none" stroke="#0b2e6b" stroke-miterlimit="10" stroke-width="0.75"/>
    </g>
    <g id="Group_543-2" data-name="Group 543" transform="translate(139.236 2254.211)">
      <g id="Group_551" data-name="Group 551" transform="translate(0.65 49.129)">
        <path id="Path_645" data-name="Path 645" d="M543.485,241.21s-4.519,10.267-5.684,17.961,9.523,29.414,9.523,29.414l9.152-5.375s-2.787-16.19-2.787-21.952,5.248-13.78,5.248-13.78" transform="translate(-537.712 -241.21)" fill="#ffcbc2"/>
        <path id="Path_646" data-name="Path 646" d="M544.359,288.1c1.177,3.56,6.277,13.314,5.754,13.877s-2.362-2.846-2.705-2.3,2.132,5.977,1.46,6.4c-.912.572-3.148-5.129-3.148-5.129s2.138,6.367,1.2,6.635c-.662.189-2.517-4.6-3.456-6.335.778,2.014,1.649,5.428.958,5.61s-2.018-3.049-3.17-5.469c.578,1.578,1.476,4.506.845,4.7s-4.417-7.431-7.7-14.754" transform="translate(-526.046 -247.315)" fill="#ffcbc2"/>
      </g>
      <g id="Group_554" data-name="Group 554" transform="translate(0 80.598)">
        <g id="Group_552" data-name="Group 552" transform="translate(1.345 41.665)">
          <path id="Path_647" data-name="Path 647" d="M555.486,338.747c1.108,25.76-5.98,90.217-5.98,90.217l7.958,5.067s-24.481,1.138-25.191.422.9-5.622.9-5.622-.712-76.141-1.422-87.418S554.378,312.987,555.486,338.747Z" transform="translate(-531.731 -325.291)" fill="#ffcbc2"/>
          <path id="Path_648" data-name="Path 648" d="M533.839,449.989l-5.866-3.2.46-1.682L536.048,450l2.409.009,8.488-4.191,9.216,5.769a1.249,1.249,0,0,1-.667,2.307l-12.387-.044-3.953-2.75-1.123,0-.01,2.736-10.676-.029.014-3.824Z" transform="translate(-527.205 -340.89)" fill="#011e3b"/>
        </g>
        <g id="Group_553" data-name="Group 553" transform="translate(33.134 36.568)">
          <path id="Path_649" data-name="Path 649" d="M510.668,342.382c1.767,36.2,1.115,85.783,1.115,85.783l7.941,5.094s-24.485,1.061-25.193.344.917-5.62.917-5.62-6.805-62.84-9.25-86.341S508.9,306.182,510.668,342.382Z" transform="translate(-486.03 -319.43)" fill="#ffcbc2"/>
          <path id="Path_650" data-name="Path 650" d="M488.164,449.9l-5.855-3.214.466-1.68,7.6,4.91,2.409.017,8.5-4.161,9.2,5.8a1.248,1.248,0,0,1-.675,2.3l-12.387-.088-3.943-2.763-1.123-.009-.019,2.736-10.676-.057.027-3.823Z" transform="translate(-473.57 -335.779)" fill="#011e3b"/>
        </g>
        <path id="Path_651" data-name="Path 651" d="M508.415,277.879c-2.1,1.455-6.823,8.146-8.776,14.728-4.591,15.47-4.66,49.663-4.66,49.663h59.044s-.346-32.856-2.642-47.171a44.71,44.71,0,0,0-6.636-17.16" transform="translate(-494.979 -277.453)" fill="#0f43aa"/>
        <path id="Path_652" data-name="Path 652" d="M500.38,277.389c1.771,1.492,4.748,7.032,5.591,13.312,2.848,21.212,2.247,51.506,2.247,51.506" transform="translate(-453.925 -277.389)" fill="none" stroke="#0f1d49" stroke-miterlimit="10" stroke-width="0.75"/>
      </g>
      <g id="Group_555" data-name="Group 555" transform="translate(4.332 22.26)">
        <path id="Path_653" data-name="Path 653" d="M554.361,216.341C536.7,217.464,530.85,239.53,530.85,239.53l12.478,8.615" transform="translate(-530.85 -211.103)" fill="#2c79e8"/>
        <line id="Line_32" data-name="Line 32" x1="6.197" y1="4.143" transform="translate(0.947 25.592)" fill="none" stroke="#0f1d49" stroke-miterlimit="10" stroke-width="0.75"/>
        <path id="Path_654" data-name="Path 654" d="M454.432,227.67s13.18,10.16,15.292,10.208c2.183.05,19.189-15.81,19.189-15.81l8.944,10.435s-17.936,24.453-27.553,24.453c-12.766,0-26.352-14.009-26.352-14.009" transform="translate(-398.763 -211.848)" fill="#ffcbc2"/>
        <path id="Path_655" data-name="Path 655" d="M529.03,216.351s-2.043,1.554-6,1.089a56.743,56.743,0,0,1-7.147-1.313c-.038.1-15.933,7.384-16.442,16.581-.567,10.262-.532,16.361,2.144,37.191h36.361s5.652-25.494,5.652-35.257S529.03,216.351,529.03,216.351Z" transform="translate(-492.51 -211.075)" fill="#2c79e8"/>
        <path id="Path_656" data-name="Path 656" d="M487.5,216.384a21.217,21.217,0,0,1,10.041,2.385A70.648,70.648,0,0,1,512.2,230.406l-10.586,18.7-11.12-7.865" transform="translate(-450.977 -211.108)" fill="#2c79e8"/>
        <path id="Path_657" data-name="Path 657" d="M549.083,246.1a64.215,64.215,0,0,1,1.046-14.48" transform="translate(-542.447 -213.092)" fill="none" stroke="#0f1d49" stroke-miterlimit="10" stroke-width="0.75"/>
        <line id="Line_33" data-name="Line 33" x1="10.829" y2="19.716" transform="translate(47.714 16.668)" fill="none" stroke="#0f1d49" stroke-miterlimit="10" stroke-width="0.75"/>
        <line id="Line_34" data-name="Line 34" x1="9.301" y1="6.6" transform="translate(40.22 31.066)" fill="none" stroke="#0f1d49" stroke-miterlimit="10" stroke-width="0.75"/>
        <path id="Path_658" data-name="Path 658" d="M435.441,226.434s15.038-13.9,15.97-13.578-1.734,3-.92,3.121,6.786-6.194,7.63-5.622c1.144.775-4.007,6.01-4.007,6.01s1.361-.92,2.159.039c.564.679-1.039,2.794-1.039,2.794s1.567-1.039,2.137-.321-.829,2.849-.829,2.849,1.114-.825,1.484-.061c.588,1.217-6.848,9.905-13.76,17.551" transform="translate(-351.787 -210.319)" fill="#ffcbc2"/>
      </g>
      <g id="Group_558" data-name="Group 558" transform="translate(20.304 0)">
        <path id="Path_659" data-name="Path 659" d="M516.794,205.6l-1.351,10.12s6.591,6.791,13.6-.736l.392-5.675Z" transform="translate(-508.497 -187.444)" fill="#ffcbc2"/>
        <path id="Path_660" data-name="Path 660" d="M521.089,190.374s9.515,10.762,6.036,15.208c-1.809,2.311-9.613,5.143-12.426,3.386-2.087-1.3-6.009-10.415-5.118-12.194C512.987,189.976,521.089,190.374,521.089,190.374Z" transform="translate(-501.738 -185.462)" fill="#ffcbc2"/>
        <path id="Path_661" data-name="Path 661" d="M533.031,191.975c.591,6.267-1.261,9.457-1.261,9.457s4.143,13.109,3.238,14.358-14.307,3.191-20.831.4c0,0-1.036-19.8,4.951-24.831,5.695-4.782,13.061-4.352,17.081-1.854a3.243,3.243,0,0,1-1.808,1.825c-.711.313-1.51.668-1.51.668" transform="translate(-514.109 -185.112)" fill="#011e3b"/>
        <path id="Path_662" data-name="Path 662" d="M519.2,201.5c-1.162-1.473-2.1-1.239-2.616-.43-.684,1.079.689,3.321,1.328,3.7,1.3.776,2.345.694,2.445-.358" transform="translate(-500.256 -186.771)" fill="#ffcbc2"/>
        <path id="Path_663" data-name="Path 663" d="M517.3,210.808a1.931,1.931,0,0,1-1.81-1.15" transform="translate(-496.401 -187.973)" fill="none" stroke="#e88872" stroke-linejoin="round" stroke-width="0.5"/>
        <g id="Group_557" data-name="Group 557" transform="translate(21.314 10.861)">
          <g id="Group_556" data-name="Group 556" transform="translate(0)">
            <path id="Path_664" data-name="Path 664" d="M514.224,197.351c.4.331.772.933.552,1.376a.308.308,0,0,1-.319.171C513.562,198.811,513.391,196.658,514.224,197.351Z" transform="translate(-513.684 -197.214)" fill="#28364c"/>
          </g>
        </g>
        <path id="Path_665" data-name="Path 665" d="M516.315,195.489a3.309,3.309,0,0,0-1.793,1.408" transform="translate(-494.573 -186.129)" fill="none" stroke="#28364c" stroke-miterlimit="10" stroke-width="0.75"/>
        <path id="Path_666" data-name="Path 666" d="M510.111,202.815l1.959-1.048s1.286,2.406.374,2.914C511.437,205.243,510.111,202.815,510.111,202.815Z" transform="translate(-487.193 -186.946)" fill="#fff"/>
        <path id="Path_667" data-name="Path 667" d="M532.52,189.117a1.989,1.989,0,0,0,1.4-1.957,2.517,2.517,0,0,0-1.358-2.076,3.459,3.459,0,0,0-2.529-.214,2.422,2.422,0,0,0-1.184,4.056,2.281,2.281,0,0,0,1.288.976,1.271,1.271,0,0,0,1.418-.578" transform="translate(-524.164 -184.727)" fill="#011e3b"/>
      </g>
    </g>
  </g>
</svg>
