<svg xmlns="http://www.w3.org/2000/svg" xmlns:xlink="http://www.w3.org/1999/xlink" width="272.429" height="219.757" viewBox="0 0 272.429 219.757">
  <defs>
    <clipPath id="clip-path">
      <path id="Path_599" data-name="Path 599" d="M108.675.748,35.43,0a8.44,8.44,0,0,0-8.522,8.351l-.226,21.677a2.059,2.059,0,0,1-3.356,1.537,13.343,13.343,0,0,0-8.577-3.328C6.7,28.156.1,35.518,0,44.706s6.355,16.663,14.41,16.75a13.387,13.387,0,0,0,8.632-3.129,2.058,2.058,0,0,1,3.328,1.613l-.226,21.677a8.433,8.433,0,0,0,8.343,8.522h0l22.412.233A2.058,2.058,0,0,1,58.349,93.8a13.5,13.5,0,0,0-3.968,9.312c-.082,8.042,7.282,14.643,16.47,14.74s16.668-6.349,16.749-14.41a13.493,13.493,0,0,0-3.767-9.387,2.058,2.058,0,0,1,1.517-3.433l22.411.234a8.441,8.441,0,0,0,8.522-8.352l.706-73.237A8.426,8.426,0,0,0,108.675.748Z" fill="none"/>
    </clipPath>
  </defs>
  <g id="Group_528" data-name="Group 528" transform="translate(-1031.702 -2586.631)">
    <g id="Group_527" data-name="Group 527" transform="translate(1031.957 2586.631)">
      <g id="Group_515" data-name="Group 515">
        <g id="Group_514" data-name="Group 514" transform="translate(0 182.269) rotate(-78)">
          <path id="Path_90" data-name="Path 90" d="M0,87.366C25.629,92.23,52.544,88.518,76.72,78.6S138.9,38.411,155.037,3.787C82.777-13.091,25.023,30.018,1.453,62.666" transform="translate(2.925 0)" fill="#e1ecf8"/>
          <path id="Path_91" data-name="Path 91" d="M152.022,0S96.49,73.84,0,77.122" transform="translate(5.878 3.786)" fill="none" stroke="#fff" stroke-linejoin="round" stroke-width="1.5"/>
          <path id="Path_92" data-name="Path 92" d="M153.868,0S77.852,50.788,0,65.124" transform="translate(4.032 3.786)" fill="none" stroke="#fff" stroke-linejoin="round" stroke-width="1.5"/>
          <path id="Path_93" data-name="Path 93" d="M157.9,0S67.5,13.971,0,65.124" transform="translate(0 3.786)" fill="none" stroke="#fff" stroke-linejoin="round" stroke-width="1.5"/>
        </g>
        <g id="Group_512" data-name="Group 512" transform="translate(179.948 0) rotate(45)">
          <path id="Path_112" data-name="Path 112" d="M83.052,126.545C87.9,114.017,95.786,101.631,90.931,87.8c-2.675-7.641-10.857-10.864-17.112-14.987C63.1,65.754,58.323,55,59.112,42.3c.318-5.077-.565-10.721-4.434-14.04C48.932,23.335,39.518,25.8,33.293,21.5c-3.352-2.317-5.213-6.161-7.529-9.5C20.162,3.916,10.022,0,10.022,0A33.5,33.5,0,0,1,5.947,16.714C2.989,22.03.535,27.968.056,34.134A18.343,18.343,0,0,0,3.957,46.8c3.271,4.521,5.666,8.246,6.167,13.848.8,8.66-10.163,27.315.238,31.891,2.827,1.248,6.209,1.2,8.644,3.263,4.426,3.741.413,9.551.7,14.2.437,7.122,3.287,15.424,8.523,19.578,12.5,9.908,31.949,13.808,48.1,13.291" transform="translate(0 0)" fill="#e1ecf8"/>
          <path id="Path_113" data-name="Path 113" d="M0,0C17.151,26.638,17.906,61.474,35.711,87.691c5.34,7.863,12.057,14.691,17.8,22.284s10.625,16.237,11.4,25.707" transform="translate(10.022 0.851)" fill="none" stroke="#fff" stroke-linejoin="round" stroke-width="1.5"/>
          <path id="Path_114" data-name="Path 114" d="M26.94,14.006S7.132,5.252,0,0" transform="translate(9.385 56.675)" fill="none" stroke="#fff" stroke-linejoin="round" stroke-width="1.5"/>
          <path id="Path_115" data-name="Path 115" d="M9.026,0C7.012,12.734,3.908,23.081,0,37.6" transform="translate(32.935 24.115)" fill="none" stroke="#fff" stroke-linejoin="round" stroke-width="1.5"/>
          <path id="Path_116" data-name="Path 116" d="M5.57,0A155.687,155.687,0,0,1,0,20.152" transform="translate(26.219 20.001)" fill="none" stroke="#fff" stroke-linejoin="round" stroke-width="1.5"/>
          <path id="Path_117" data-name="Path 117" d="M2.133,0C2.261.1,1.871,3.535,0,11.183" transform="translate(18.649 6.582)" fill="none" stroke="#fff" stroke-linejoin="round" stroke-width="1.5"/>
          <path id="Path_118" data-name="Path 118" d="M21.05,14C21.05,14.089,7.521,5.8,0,0" transform="translate(3.716 21.312)" fill="none" stroke="#fff" stroke-linejoin="round" stroke-width="1.5"/>
          <path id="Path_119" data-name="Path 119" d="M30.856,17.143C30.856,17.056,8.643,7.012,0,0" transform="translate(0.949 41.211)" fill="none" stroke="#fff" stroke-linejoin="round" stroke-width="1.5"/>
          <path id="Path_120" data-name="Path 120" d="M16.674,0C14.747,7.354,11.038,26.4,0,45.366" transform="translate(41.961 35.313)" fill="none" stroke="#fff" stroke-linejoin="round" stroke-width="1.5"/>
          <path id="Path_121" data-name="Path 121" d="M36.4,13.841S11.955,6.219,0,0" transform="translate(8.08 72.774)" fill="none" stroke="#fff" stroke-linejoin="round" stroke-width="1.5"/>
          <path id="Path_122" data-name="Path 122" d="M52.345,12.656S17.581,6.113,0,0" transform="translate(20.082 113.356)" fill="none" stroke="#fff" stroke-linejoin="round" stroke-width="1.5"/>
          <path id="Path_123" data-name="Path 123" d="M12.526,0S10.377,22.937,0,40.414" transform="translate(67.684 76.341)" fill="none" stroke="#fff" stroke-linejoin="round" stroke-width="1.5"/>
        </g>
        <g id="Group_513" data-name="Group 513" transform="translate(124.86 103.003) rotate(-18)">
          <path id="Path_90-2" data-name="Path 90" d="M0,72.351c21.224,4.028,43.514.954,63.535-7.261s51.493-33.281,64.857-61.955C68.551-10.841,20.722,24.859,1.2,51.9" transform="translate(2.423 0)" fill="#c2d2ec"/>
          <path id="Path_91-2" data-name="Path 91" d="M125.9,0S79.907,61.149,0,63.868" transform="translate(4.868 3.135)" fill="none" stroke="#fff" stroke-linejoin="round" stroke-width="1.5"/>
          <path id="Path_92-2" data-name="Path 92" d="M127.424,0S64.472,42.059,0,53.932" transform="translate(3.339 3.135)" fill="none" stroke="#fff" stroke-linejoin="round" stroke-width="1.5"/>
          <path id="Path_93-2" data-name="Path 93" d="M130.764,0S55.9,11.57,0,53.932" transform="translate(0 3.135)" fill="none" stroke="#fff" stroke-linejoin="round" stroke-width="1.5"/>
        </g>
      </g>
      <g id="Group_510" data-name="Group 510" transform="translate(22.22 27.133)">
        <path id="Path_146" data-name="Path 146" d="M491.109,281.211l1.168,8.073s5.887,3.814,10.816,1.794c5.2-2.111,4.921-4.946,4.921-4.946l-6.238-14.811" transform="translate(-402.868 -254.569)" fill="#e7b6df"/>
        <path id="Path_147" data-name="Path 147" d="M487.234,271.359c-.089,10.412,1.766,18.573,8.645,18.039,7.245-.547,12.625-6.51,10.03-14.634C503.174,266.235,487.842,265.294,487.234,271.359Z" transform="translate(-407.244 -258.918)" fill="#e7b6df"/>
        <path id="Path_151" data-name="Path 151" d="M499.723,275.128c-5.887,1.551-10.056,1.273-13.985-.1.624-3.522,2.771-8.543,9.332-8.7a11.361,11.361,0,0,1,11.352-2.224,14.652,14.652,0,0,1,8.456,6.991c3.331,5.606,4.029,14.1,3.965,18.8a63.861,63.861,0,0,1-12.712,2.33C506.27,292.28,504.109,278.193,499.723,275.128Z" transform="translate(-408.928 -263.45)" fill="#161a29"/>
        <path id="Path_152" data-name="Path 152" d="M493.929,273.2a1.815,1.815,0,0,1,.928-1.654c1.449-.864,2.835.851,2.975,2.416a4.2,4.2,0,0,1-.585,2.694c-.662,1.183-1.766,1.641-2.656.572" transform="translate(-399.688 -254.572)" fill="#e7b6df"/>
        <path id="Path_153" data-name="Path 153" d="M490.223,271.906s-1.207,3.967-.734,4.844,2.72.343,2.72.343" transform="translate(-404.82 -253.909)" fill="none" stroke="#aa1f6f" stroke-linejoin="round" stroke-width="0.5"/>
        <path id="Path_154" data-name="Path 154" d="M489.7,275.66l6.359-.851a4.042,4.042,0,0,1-3.739,3.712C489.813,278.623,489.7,275.66,489.7,275.66Z" transform="translate(-404.46 -250.634)" fill="#fff"/>
        <path id="Path_155" data-name="Path 155" d="M488.455,271.867v.536a2.443,2.443,0,0,0,0,.432.548.548,0,0,0,.14.355.467.467,0,0,0,.355.14.46.46,0,0,0,.355-.14.6.6,0,0,0,.153-.355V272.4a1.691,1.691,0,0,0-.064-.536v-.1a.39.39,0,0,0-.115-.128.38.38,0,0,0-.253-.089.6.6,0,0,0-.23,0,.467.467,0,0,0-.2.255Z" transform="translate(-405.873 -254.328)" fill="#0a244b"/>
        <path id="Path_156" data-name="Path 156" d="M490.432,270.991a1.628,1.628,0,0,0-2.282.3c-.021.026-.04.051-.06.079" transform="translate(-406.273 -255.32)" fill="none" stroke="#0a244b" stroke-linecap="round" stroke-linejoin="round" stroke-width="0.5"/>
        <path id="Path_157" data-name="Path 157" d="M491.9,271.778v.419a2.443,2.443,0,0,0,0,.432.484.484,0,0,0,0,.192.467.467,0,0,0,.1.166.527.527,0,0,0,.713,0,.56.56,0,0,0,.151-.358,1.529,1.529,0,0,0-.062-.547v-.419a.474.474,0,0,0-.2-.266.517.517,0,0,0-.279,0,.4.4,0,0,0-.253.126v.089a.437.437,0,0,0-.064.217Z" transform="translate(-401.984 -254.505)" fill="#0a244b"/>
        <path id="Path_158" data-name="Path 158" d="M491.491,270.693a3.039,3.039,0,0,1,3.369.368" transform="translate(-402.437 -255.669)" fill="none" stroke="#0a244b" stroke-linecap="round" stroke-linejoin="round" stroke-width="0.5"/>
        <path id="Path_159" data-name="Path 159" d="M525.238,303.23c-19.987,27.766-60.783,52.715-60.783,52.715l-8.417-10.667s30.513-25.622,48.933-55.039" transform="translate(-442.439 -233.225)" fill="#e7b6df"/>
        <path id="Path_160" data-name="Path 160" d="M466.83,314.773c-3.737,3.256-16.286,10.986-16.017,11.952s4.725-1.681,4.793-.851-6.472,5.376-5.925,6.357c.736,1.271,7.17-3.814,7.17-3.814s-6.738,5.821-5.774,6.719c.685.649,6.051-3.558,8.313-4.918-2.25,1.779-5.529,5.084-4.806,5.721s4.437-2.137,7.426-4.133c-1.728,1.411-4.727,4.146-4.082,4.78s10.171-5.542,18.957-11.7" transform="translate(-449.648 -205.544)" fill="#e7b6df"/>
        <path id="Path_161" data-name="Path 161" d="M453.205,320.414s4.857.128,6.9-.89" transform="translate(-445.634 -200.183)" fill="none" stroke="#aa1f6f" stroke-linejoin="round" stroke-width="0.75"/>
        <path id="Path_162" data-name="Path 162" d="M506.748,279.934c-8.722-1.575-16.528,4.665-19.91,10.094a163.767,163.767,0,0,0-10.605,19.531l20.544,12.37,11.7-36.753" transform="translate(-419.652 -245.131)" fill="#f28d61"/>
        <path id="Path_163" data-name="Path 163" d="M499.387,281.393c4.067.751,5.084,2.2,7.945,1.273a40.027,40.027,0,0,0,9.141-4.271c-3.395.228,11.1,2.873,22.185,14.57,3.724,12.827,4.159,25.58,5.238,59.434a93.229,93.229,0,0,1-51.617,1.424s-3.126-14.762-6.721-25.695c-5-10.082-2.835-21.372,2.748-30.59C488.491,291.934,499.387,281.393,499.387,281.393Z" transform="translate(-412.291 -246.589)" fill="#f28d61"/>
        <path id="Path_164" data-name="Path 164" d="M503.408,276.757l-9.42,7.979,6.025,6.406,6.242-9.484Z" transform="translate(-399.62 -248.436)" fill="#fff"/>
        <path id="Path_165" data-name="Path 165" d="M497.843,282.725l-5.327-4.182-1.945,2.677,2.556,7.717Z" transform="translate(-403.475 -246.421)" fill="#fff"/>
        <path id="Path_414" data-name="Path 414" d="M507.642,326.291c-.787,6.751-5.8,22.4-4.818,23.036s3.344-5.378,4.044-4.716-1.945,9.765-.777,10.171c1.575.534,3.65-8.468,3.65-8.468s-1.7,9.918-.192,10.005c1.068.066,2.886-7.094,3.727-9.871-.509,3.1-1.273,8.011-.166,8.062s2.365-4.2,3.318-8c-.355,2.428-1.488,7.247-.458,7.323s4.755-10.858,7.132-24.5" transform="translate(-389.793 -192.548)" fill="#e7b6df"/>
        <path id="Path_415" data-name="Path 415" d="M525.554,294.057c4.87,35.674-5.785,78.546-5.785,78.546L505,369.411s5.529-38.688-.687-72.683" transform="translate(-387.974 -228.917)" fill="#e7b6df"/>
        <path id="Path_416" data-name="Path 416" d="M499.7,279.122a33.294,33.294,0,0,1,20.672,7.351c9.8,7.628,12.27,25.429,12.27,25.429l-23.241,4.64s-1.273-15-1.4-20.138" transform="translate(-393.176 -245.768)" fill="#f28d61"/>
        <path id="Path_417" data-name="Path 417" d="M505.372,303.644a66.95,66.95,0,0,0-2.848-13.07" transform="translate(-389.989 -232.847)" fill="none" stroke="#8b1e20" stroke-miterlimit="10" stroke-width="0.75"/>
      </g>
    </g>
    <g id="Group_511" data-name="Group 511" transform="translate(1066.466 2658.178) rotate(17)">
      <path id="Path_173" data-name="Path 173" d="M71.351,118.9c-9.435-.1-17.039-6.945-16.956-15.261a14.078,14.078,0,0,1,4.117-9.662,1.524,1.524,0,0,0-1.084-2.587l-22.4-.233a8.919,8.919,0,0,1-8.859-8.982v-.062l.227-21.677a1.511,1.511,0,0,0-.44-1.091,1.559,1.559,0,0,0-1.1-.466,1.461,1.461,0,0,0-.941.35,13.867,13.867,0,0,1-8.859,3.26h-.138C6.588,62.4-.1,54.656,0,45.221S6.862,28.265,15.1,28.265h.137A13.815,13.815,0,0,1,24.155,31.7a1.477,1.477,0,0,0,.967.364,1.55,1.55,0,0,0,1.544-1.523L26.893,8.86A8.975,8.975,0,0,1,35.814,0l73.338.763A8.92,8.92,0,0,1,118,9.751v.055l-.755,73.244a8.982,8.982,0,0,1-8.921,8.859l-22.507-.233a1.517,1.517,0,0,0-1.42.919,1.489,1.489,0,0,0,.283,1.647,14.058,14.058,0,0,1,3.911,9.743c-.083,8.235-7.74,14.907-17.066,14.907Z" transform="translate(0)" fill="#9fb7df"/>
      <g id="Group_486" data-name="Group 486" transform="translate(0.526 0.541)">
        <g id="Group_485" data-name="Group 485" clip-path="url(#clip-path)">
          <g id="Group_339" data-name="Group 339" transform="translate(-0.068 -9.007)">
            <path id="Path_175" data-name="Path 175" d="M2.307,3.925A1.977,1.977,0,1,1,3.925,1.646v.007A1.976,1.976,0,0,1,2.307,3.925Z" transform="translate(0 18.572)" fill="#fff"/>
            <path id="Path_176" data-name="Path 176" d="M2.307,3.925A1.976,1.976,0,1,1,3.925,1.646v.007A1.976,1.976,0,0,1,2.307,3.925Z" transform="translate(18.357 15.478)" fill="#fff"/>
            <path id="Path_177" data-name="Path 177" d="M2.306,3.926a1.976,1.976,0,1,1,1.62-2.279,1.976,1.976,0,0,1-1.62,2.279Z" transform="translate(36.713 12.383)" fill="#fff"/>
            <path id="Path_178" data-name="Path 178" d="M2.306,3.926a1.976,1.976,0,1,1,1.62-2.279,1.976,1.976,0,0,1-1.62,2.279Z" transform="translate(55.055 9.288)" fill="#fff"/>
            <path id="Path_179" data-name="Path 179" d="M2.306,3.926A1.977,1.977,0,1,1,3.925,1.647v.007A1.977,1.977,0,0,1,2.306,3.926Z" transform="translate(73.424 6.187)" fill="#fff"/>
            <path id="Path_180" data-name="Path 180" d="M2.307,3.925A1.976,1.976,0,1,1,3.926,1.646v.008A1.976,1.976,0,0,1,2.307,3.925Z" transform="translate(91.779 3.092)" fill="#fff"/>
            <path id="Path_181" data-name="Path 181" d="M2.306,3.925A1.976,1.976,0,1,1,3.925,1.646,1.976,1.976,0,0,1,2.306,3.925Z" transform="translate(110.136)" fill="#fff"/>
            <path id="Path_182" data-name="Path 182" d="M2.292,3.913a1.971,1.971,0,1,1,1.281-.8A1.969,1.969,0,0,1,2.292,3.913Z" transform="translate(2.555 33.654)" fill="#fff"/>
            <circle id="Ellipse_22" data-name="Ellipse 22" cx="1.976" cy="1.976" r="1.976" transform="translate(20.912 30.536)" fill="#fff"/>
            <path id="Path_183" data-name="Path 183" d="M2.292,3.913a1.97,1.97,0,1,1,1.282-.8A1.971,1.971,0,0,1,2.292,3.913Z" transform="translate(39.284 27.464)" fill="#fff"/>
            <path id="Path_184" data-name="Path 184" d="M2.291,3.914a1.972,1.972,0,1,1,1.284-.8A1.97,1.97,0,0,1,2.291,3.914Z" transform="translate(57.623 24.37)" fill="#fff"/>
            <path id="Path_185" data-name="Path 185" d="M2.306,3.926a1.976,1.976,0,1,1,1.62-2.279,1.976,1.976,0,0,1-1.62,2.279Z" transform="translate(75.964 21.262)" fill="#fff"/>
            <path id="Path_186" data-name="Path 186" d="M2.292,3.913a1.969,1.969,0,1,1,1.281-.8A1.968,1.968,0,0,1,2.292,3.913Z" transform="translate(94.334 18.173)" fill="#fff"/>
            <path id="Path_187" data-name="Path 187" d="M2.293,3.913a1.969,1.969,0,1,1,1.281-.8A1.971,1.971,0,0,1,2.293,3.913Z" transform="translate(112.706 15.079)" fill="#fff"/>
            <path id="Path_188" data-name="Path 188" d="M2.306,3.925a1.976,1.976,0,1,1,1.62-2.278,1.976,1.976,0,0,1-1.62,2.278Z" transform="translate(5.086 48.719)" fill="#fff"/>
            <path id="Path_189" data-name="Path 189" d="M2.307,3.925A1.976,1.976,0,1,1,3.924,1.646v.008A1.975,1.975,0,0,1,2.307,3.925Z" transform="translate(23.441 45.615)" fill="#fff"/>
            <path id="Path_190" data-name="Path 190" d="M2.307,3.925A1.976,1.976,0,1,1,3.925,1.647v.007A1.975,1.975,0,0,1,2.307,3.925Z" transform="translate(41.796 42.521)" fill="#fff"/>
            <path id="Path_191" data-name="Path 191" d="M2.3,3.925A1.976,1.976,0,1,1,3.925,1.649v.006A1.975,1.975,0,0,1,2.3,3.925Z" transform="translate(60.155 39.425)" fill="#fff"/>
            <path id="Path_192" data-name="Path 192" d="M2.306,3.926A1.976,1.976,0,1,1,3.924,1.647,1.976,1.976,0,0,1,2.306,3.926Z" transform="translate(78.509 36.332)" fill="#fff"/>
            <path id="Path_193" data-name="Path 193" d="M2.306,3.925A1.976,1.976,0,1,1,3.925,1.646,1.976,1.976,0,0,1,2.306,3.925Z" transform="translate(96.865 33.216)" fill="#fff"/>
            <path id="Path_194" data-name="Path 194" d="M2.334,3.92a1.976,1.976,0,1,1,1.586-2.3l.006.03A1.976,1.976,0,0,1,2.334,3.92Z" transform="translate(115.195 30.14)" fill="#fff"/>
            <path id="Path_195" data-name="Path 195" d="M2.292,3.913a1.969,1.969,0,1,1,1.283-.8A1.969,1.969,0,0,1,2.292,3.913Z" transform="translate(7.64 63.798)" fill="#fff"/>
            <path id="Path_196" data-name="Path 196" d="M2.306,3.925a1.976,1.976,0,1,1,1.62-2.278,1.976,1.976,0,0,1-1.62,2.278Z" transform="translate(25.981 60.664)" fill="#fff"/>
            <path id="Path_197" data-name="Path 197" d="M2.293,3.913a1.969,1.969,0,1,1,1.281-.8A1.971,1.971,0,0,1,2.293,3.913Z" transform="translate(44.35 57.602)" fill="#fff"/>
            <path id="Path_198" data-name="Path 198" d="M2.292,3.913a1.968,1.968,0,1,1,1.282-.8A1.969,1.969,0,0,1,2.292,3.913Z" transform="translate(62.706 54.499)" fill="#fff"/>
            <path id="Path_199" data-name="Path 199" d="M2.292,3.914a1.971,1.971,0,1,1,1.283-.8A1.971,1.971,0,0,1,2.292,3.914Z" transform="translate(81.063 51.411)" fill="#fff"/>
            <path id="Path_200" data-name="Path 200" d="M2.291,3.913a1.969,1.969,0,1,1,1.284-.8A1.97,1.97,0,0,1,2.291,3.913Z" transform="translate(99.419 48.324)" fill="#fff"/>
            <path id="Path_201" data-name="Path 201" d="M2.306,3.925a1.976,1.976,0,1,1,1.62-2.278,1.977,1.977,0,0,1-1.62,2.278Z" transform="translate(117.759 45.21)" fill="#fff"/>
            <path id="Path_202" data-name="Path 202" d="M2.27,3.931a1.974,1.974,0,1,1,1.3-.79A1.976,1.976,0,0,1,2.27,3.931Z" transform="translate(10.207 78.848)" fill="#fff"/>
            <path id="Path_203" data-name="Path 203" d="M2.307,3.925A1.976,1.976,0,1,1,3.925,1.648,1.977,1.977,0,0,1,2.307,3.925Z" transform="translate(28.527 75.76)" fill="#fff"/>
            <path id="Path_204" data-name="Path 204" d="M2.306,3.925a1.976,1.976,0,1,1,1.62-2.278,1.976,1.976,0,0,1-1.62,2.278Z" transform="translate(46.884 72.667)" fill="#fff"/>
            <path id="Path_205" data-name="Path 205" d="M2.307,3.926A1.977,1.977,0,1,1,3.925,1.647v.007A1.977,1.977,0,0,1,2.307,3.926Z" transform="translate(65.237 69.584)" fill="#fff"/>
            <path id="Path_206" data-name="Path 206" d="M2.306,3.925A1.976,1.976,0,1,1,3.925,1.646v.008A1.975,1.975,0,0,1,2.306,3.925Z" transform="translate(83.595 66.469)" fill="#fff"/>
            <path id="Path_207" data-name="Path 207" d="M2.306,3.925a1.976,1.976,0,1,1,1.62-2.278,1.976,1.976,0,0,1-1.62,2.278Z" transform="translate(101.95 63.408)" fill="#fff"/>
            <path id="Path_208" data-name="Path 208" d="M2.306,3.926A1.976,1.976,0,1,1,3.924,1.647,1.976,1.976,0,0,1,2.306,3.926Z" transform="translate(120.307 60.28)" fill="#fff"/>
            <path id="Path_209" data-name="Path 209" d="M2.292,3.913a1.968,1.968,0,1,1,1.282-.8A1.97,1.97,0,0,1,2.292,3.913Z" transform="translate(12.724 93.936)" fill="#fff"/>
            <path id="Path_210" data-name="Path 210" d="M2.292,3.913a1.971,1.971,0,1,1,1.281-.8A1.97,1.97,0,0,1,2.292,3.913Z" transform="translate(31.05 90.868)" fill="#fff"/>
            <path id="Path_211" data-name="Path 211" d="M2.291,3.911a1.968,1.968,0,1,1,1.284-.8A1.97,1.97,0,0,1,2.291,3.911Z" transform="translate(49.439 87.748)" fill="#fff"/>
            <path id="Path_212" data-name="Path 212" d="M2.306,3.925a1.976,1.976,0,1,1,1.62-2.279,1.976,1.976,0,0,1-1.62,2.279Z" transform="translate(67.777 84.639)" fill="#fff"/>
            <path id="Path_213" data-name="Path 213" d="M2.293,3.913a1.969,1.969,0,1,1,1.281-.8A1.971,1.971,0,0,1,2.293,3.913Z" transform="translate(86.146 81.55)" fill="#fff"/>
            <path id="Path_214" data-name="Path 214" d="M2.293,3.913a1.969,1.969,0,1,1,1.281-.8A1.971,1.971,0,0,1,2.293,3.913Z" transform="translate(104.472 78.455)" fill="#fff"/>
            <path id="Path_215" data-name="Path 215" d="M2.291,3.913a1.969,1.969,0,1,1,1.284-.8A1.968,1.968,0,0,1,2.291,3.913Z" transform="translate(122.859 75.36)" fill="#fff"/>
            <path id="Path_216" data-name="Path 216" d="M2.314,3.924A1.976,1.976,0,1,1,3.924,1.639l0,.014A1.976,1.976,0,0,1,2.314,3.924Z" transform="translate(15.247 108.994)" fill="#fff"/>
            <path id="Path_217" data-name="Path 217" d="M2.314,3.924A1.977,1.977,0,1,1,3.924,1.64l0,.013A1.977,1.977,0,0,1,2.314,3.924Z" transform="translate(33.604 105.899)" fill="#fff"/>
            <path id="Path_218" data-name="Path 218" d="M2.312,3.924A1.976,1.976,0,1,1,3.923,1.641v0A1.977,1.977,0,0,1,2.312,3.924Z" transform="translate(51.961 102.804)" fill="#fff"/>
            <path id="Path_219" data-name="Path 219" d="M2.313,3.924A1.976,1.976,0,1,1,3.924,1.641v.006A1.975,1.975,0,0,1,2.313,3.924Z" transform="translate(70.316 99.709)" fill="#fff"/>
            <path id="Path_220" data-name="Path 220" d="M2.313,3.924A1.976,1.976,0,1,1,3.924,1.641v0A1.977,1.977,0,0,1,2.313,3.924Z" transform="translate(88.672 96.617)" fill="#fff"/>
            <path id="Path_221" data-name="Path 221" d="M2.313,3.923A1.976,1.976,0,1,1,3.923,1.64l0,.013A1.976,1.976,0,0,1,2.313,3.923Z" transform="translate(107.027 93.514)" fill="#fff"/>
            <path id="Path_222" data-name="Path 222" d="M2.314,3.924A1.977,1.977,0,1,1,3.924,1.64l0,.013A1.978,1.978,0,0,1,2.314,3.924Z" transform="translate(125.382 90.418)" fill="#fff"/>
            <path id="Path_223" data-name="Path 223" d="M2.307,3.925A1.976,1.976,0,1,1,3.925,1.646,1.978,1.978,0,0,1,2.307,3.925Z" transform="translate(17.794 124.068)" fill="#fff"/>
            <path id="Path_224" data-name="Path 224" d="M2.277,3.9a1.962,1.962,0,1,1,1.284-.8A1.962,1.962,0,0,1,2.277,3.9Z" transform="translate(36.179 120.992)" fill="#fff"/>
            <path id="Path_225" data-name="Path 225" d="M2.277,3.9A1.965,1.965,0,1,1,3.56,3.1,1.963,1.963,0,0,1,2.277,3.9Z" transform="translate(54.535 117.896)" fill="#fff"/>
            <path id="Path_226" data-name="Path 226" d="M2.291,3.914a1.97,1.97,0,1,1,1.284-.8A1.969,1.969,0,0,1,2.291,3.914Z" transform="translate(72.912 114.789)" fill="#fff"/>
            <path id="Path_227" data-name="Path 227" d="M2.291,3.913a1.969,1.969,0,1,1,1.284-.8A1.97,1.97,0,0,1,2.291,3.913Z" transform="translate(91.232 111.695)" fill="#fff"/>
            <path id="Path_228" data-name="Path 228" d="M2.277,3.9A1.963,1.963,0,1,1,3.56,3.1,1.962,1.962,0,0,1,2.277,3.9Z" transform="translate(109.602 108.605)" fill="#fff"/>
            <path id="Path_229" data-name="Path 229" d="M2.277,3.9a1.961,1.961,0,1,1,1.284-.8A1.962,1.962,0,0,1,2.277,3.9Z" transform="translate(127.957 105.511)" fill="#fff"/>
          </g>
        </g>
      </g>
    </g>
  </g>
</svg>
