<svg xmlns="http://www.w3.org/2000/svg" xmlns:xlink="http://www.w3.org/1999/xlink" width="1675.601" height="1270.443" viewBox="0 0 1675.601 1270.443">
  <defs>
    <filter id="Path_596" x="13" y="0" width="1662.601" height="901.944" filterUnits="userSpaceOnUse">
      <feOffset dy="5" input="SourceAlpha"/>
      <feGaussianBlur stdDeviation="5" result="blur"/>
      <feFlood flood-opacity="0.349"/>
      <feComposite operator="in" in2="blur"/>
      <feComposite in="SourceGraphic"/>
    </filter>
    <filter id="Path_669" x="0" y="432.396" width="1662.601" height="838.047" filterUnits="userSpaceOnUse">
      <feOffset dy="5" input="SourceAlpha"/>
      <feGaussianBlur stdDeviation="5" result="blur-2"/>
      <feFlood flood-opacity="0.349"/>
      <feComposite operator="in" in2="blur-2"/>
      <feComposite in="SourceGraphic"/>
    </filter>
  </defs>
  <g id="Group_778" data-name="Group 778" transform="translate(145.136 -2288)">
    <g transform="matrix(1, 0, 0, 1, -145.14, 2288)" filter="url(#Path_596)">
      <path id="Path_596-2" data-name="Path 596" d="M260.4-151.8H1879.966V417.54h0c-33.725,6-47.547,17.536-60.744,28.675-13.378,11.29-27.209,22.964-61.506,29.07s-55.28.629-75.569-4.668c-20.018-5.225-40.718-10.631-74.446-4.627s-47.37,17.522-60.569,28.661c-13.376,11.29-27.207,22.965-61.5,29.069s-55.275.628-75.562-4.668c-20.019-5.226-40.716-10.627-74.442-4.627s-47.37,17.521-60.567,28.66c-13.376,11.291-27.207,22.964-61.5,29.069s-55.275.628-75.562-4.668c-20.018-5.226-40.717-10.63-74.442-4.627s-47.37,17.521-60.567,28.66c-13.376,11.29-27.207,22.964-61.5,29.069s-55.275.629-75.562-4.668c-20.018-5.226-40.717-10.63-74.439-4.628s-47.37,17.521-60.565,28.661c-13.376,11.29-27.205,22.964-61.5,29.069s-55.273.628-75.564-4.669c-20.018-5.226-40.717-10.629-74.439-4.627s-47.366,17.521-60.561,28.66c-13.376,11.29-27.205,22.963-61.5,29.068s-55.273.626-75.558-4.671c-20.014-5.225-40.714-10.631-74.433-4.628" transform="translate(1907.97 730.14) rotate(180)" fill="#88adc2"/>
    </g>
    <g transform="matrix(1, 0, 0, 1, -145.14, 2288)" filter="url(#Path_669)">
      <path id="Path_669-2" data-name="Path 669" d="M12.684,808.047H1632.253L1645.285,302.6h0c-33.725-6-47.547-17.536-60.744-28.675-13.378-11.29-27.209-22.964-61.506-29.07s-55.28-.629-75.569,4.668c-20.018,5.225-40.718,10.631-74.446,4.627s-47.37-17.522-60.569-28.661c-13.376-11.29-27.207-22.965-61.5-29.069s-55.275-.628-75.562,4.668c-20.019,5.226-40.716,10.627-74.442,4.627s-47.37-17.521-60.567-28.66c-13.376-11.291-27.207-22.964-61.5-29.069s-55.275-.628-75.562,4.668c-20.018,5.226-40.717,10.63-74.442,4.627s-47.37-17.521-60.567-28.66c-13.376-11.29-27.207-22.964-61.5-29.069s-55.275-.629-75.562,4.668c-20.018,5.226-40.718,10.63-74.439,4.628s-47.37-17.521-60.565-28.661c-13.376-11.29-27.205-22.964-61.5-29.069s-55.273-.628-75.564,4.669c-20.018,5.226-40.717,10.629-74.439,4.627S237.368,42.9,224.173,31.756c-13.376-11.29-27.205-22.963-61.5-29.068S107.4,2.062,87.117,7.359C67.1,12.584,46.4,17.99,12.684,11.987" transform="translate(1660.29 1250.44) rotate(180)" fill="#88adc2"/>
    </g>
  </g>
</svg>
