<svg xmlns="http://www.w3.org/2000/svg" xmlns:xlink="http://www.w3.org/1999/xlink" width="1662.602" height="901.944" viewBox="0 0 1662.602 901.944">
  <defs>
    <filter id="Path_675" x="0" y="0" width="1662.602" height="901.944" filterUnits="userSpaceOnUse">
      <feOffset dy="5" input="SourceAlpha"/>
      <feGaussianBlur stdDeviation="5" result="blur"/>
      <feFlood flood-opacity="0.349"/>
      <feComposite operator="in" in2="blur"/>
      <feComposite in="SourceGraphic"/>
    </filter>
  </defs>
  <g transform="matrix(1, 0, 0, 1, 0, 0)" filter="url(#Path_675)">
    <path id="Path_675-2" data-name="Path 675" d="M13.032,0H1632.6V569.342h0c-33.725,6-47.547,17.536-60.744,28.675-13.378,11.29-27.209,22.964-61.506,29.07s-55.28.629-75.569-4.668c-20.018-5.225-40.718-10.631-74.446-4.627s-47.37,17.522-60.569,28.661c-13.376,11.29-27.207,22.965-61.5,29.069s-55.275.628-75.562-4.668c-20.019-5.226-40.716-10.627-74.442-4.627s-47.37,17.521-60.567,28.66c-13.376,11.291-27.207,22.964-61.5,29.069s-55.275.628-75.562-4.668c-20.018-5.226-40.717-10.63-74.442-4.627s-47.37,17.521-60.567,28.66c-13.376,11.29-27.207,22.964-61.5,29.069s-55.275.629-75.562-4.668c-20.018-5.226-40.717-10.63-74.439-4.628s-47.37,17.521-60.565,28.661c-13.376,11.29-27.205,22.964-61.5,29.069s-55.273.628-75.564-4.669c-20.018-5.226-40.717-10.629-74.439-4.627s-47.366,17.521-60.561,28.66c-13.376,11.29-27.205,22.963-61.5,29.068s-55.273.626-75.558-4.671C54.419,859.36,33.719,853.954,0,859.957" transform="translate(15 10)" fill="#88adc2"/>
  </g>
</svg>
