<svg id="account_box-24px" xmlns="http://www.w3.org/2000/svg" width="26" height="26" viewBox="0 0 26 26">
  <path id="Path_743" data-name="Path 743" d="M0,0H26V26H0Z" fill="none"/>
  <path id="Path_744" data-name="Path 744" d="M3,5.222V20.778A2.222,2.222,0,0,0,5.222,23H20.778A2.229,2.229,0,0,0,23,20.778V5.222A2.229,2.229,0,0,0,20.778,3H5.222A2.222,2.222,0,0,0,3,5.222ZM16.333,9.667A3.333,3.333,0,1,1,13,6.333,3.329,3.329,0,0,1,16.333,9.667Zm-10,8.889c0-2.222,4.444-3.444,6.667-3.444s6.667,1.222,6.667,3.444v1.111H6.333Z" fill="#95989a"/>
</svg>
