<svg id="alternate_email-24px" xmlns="http://www.w3.org/2000/svg" width="24" height="24" viewBox="0 0 24 24">
  <path id="Path_618" data-name="Path 618" d="M0,0H24V24H0Z" fill="none"/>
  <path id="Path_619" data-name="Path 619" d="M12,2a10,10,0,0,0,0,20h5V20H12a8.1,8.1,0,0,1-8-8,8.1,8.1,0,0,1,8-8,8.1,8.1,0,0,1,8,8v1.43A1.616,1.616,0,0,1,18.5,15,1.616,1.616,0,0,1,17,13.43V12a5,5,0,1,0-1.46,3.53A3.7,3.7,0,0,0,18.5,17,3.513,3.513,0,0,0,22,13.43V12A10,10,0,0,0,12,2Zm0,13a3,3,0,1,1,3-3A3,3,0,0,1,12,15Z" fill="#95989a"/>
</svg>
