<svg id="cloud2" xmlns="http://www.w3.org/2000/svg" width="42.317" height="15.35" viewBox="0 0 42.317 15.35">
  <path id="Path_73" data-name="Path 73" d="M447.126,374.821a6.283,6.283,0,0,0-5.265-4.143,11.132,11.132,0,0,0-5.828,1.339s1.09-4.18-.391-7.468c-1-2.245-2.611-4.354-4.837-4.908-2.307-.573-4.754.55-6.472,2.348a21.047,21.047,0,0,0-3.814,6.49c-.512-1.671-1.188-3.541-2.7-4.161s-3.363.469-4.18,2.053a10.27,10.27,0,0,0-.747,5.321,5.813,5.813,0,0,0-5.927-.319,4.821,4.821,0,0,0-2.161,3.466Z" transform="translate(-404.809 -359.491)" fill="#c2d2ec"/>
</svg>
