<svg xmlns="http://www.w3.org/2000/svg" width="68.38" height="145.911" viewBox="0 0 68.38 145.911">
  <g id="couple_man" data-name="couple man" transform="translate(68.38 145.911) rotate(180)">
    <g id="Group_542" data-name="Group 542" transform="translate(53.495 71.537)">
      <path id="Path_621" data-name="Path 621" d="M1.765,12.031C1.505,9.743-.332,3.238.053,2.966S1.114,4.973,1.388,4.69.859.83,1.317.66c.62-.229,1.246,3.48,1.246,3.48S2.079.044,2.674,0c.421-.031.934,3.079,1.28,4.242C3.74,2.934,3.645.773,4.084.75S4.913,2.837,5.3,4.436C5.152,3.416,4.98,1.543,5.384,1.5S7.1,6.525,8.156,11.34" transform="translate(1.294 0)" fill="#f886bc"/>
      <path id="Path_622" data-name="Path 622" d="M10.506,37.4s3.7-6.577,4.236-10.614C16.06,16.844,7.81,0,7.81,0s-6,1.635-6,2.388S5.993,20.839,5.993,20.839L0,34.672" transform="translate(0 6.016)" fill="#f886bc"/>
    </g>
    <g id="Group_545" data-name="Group 545" transform="translate(36.477 127.586)">
      <path id="Path_623" data-name="Path 623" d="M7.575,8.964l.805-7.416S3.935-2.221,0,2L.482,6.883Z" transform="translate(1.946 0)" fill="#f886bc"/>
      <path id="Path_624" data-name="Path 624" d="M3.319,10.819S-1.494,4.19.472,1.706C1.922-.127,5.729-.335,6.9.386c.253,1.357,3.373,5.844,2.872,6.842C7.866,11.042,3.319,10.819,3.319,10.819Z" transform="translate(0 5.574)" fill="#f886bc"/>
      <path id="Path_625" data-name="Path 625" d="M9.709,9.174c-.155,2.506-2.626,3.24-7.369,2.957-.634-.038-1.764.393-2.057-.171a2.744,2.744,0,0,1,.29-2.918,2.734,2.734,0,0,1,1.484-.7c.859-.2,1.735-1.02,1.278-1.919-.12-.235-.4-.635-.224-.83a2.618,2.618,0,0,1,.515-.27c.342-.183.32-.7.107-1.025s-.118-.682-.332-1C2.894,2.529,3.5,1.12,4.284.653A5.6,5.6,0,0,1,8.947.418c1.453.754,2.325,2.8,2.337,6.49C11.289,8.322,10.238,9.27,9.709,9.174Z" transform="translate(1.101 6.072)" fill="#212237"/>
      <path id="Path_626" data-name="Path 626" d="M.778,2.55c.781.99,1.414.833,1.759.289C3,2.113,2.075.6,1.645.347.773-.175.068-.119,0,.589" transform="translate(3.065 8.912)" fill="#f886bc"/>
      <g id="Group_544" data-name="Group 544" transform="translate(1.569 12.109)">
        <g id="Group_543" data-name="Group 543" transform="translate(0 0)">
          <path id="Path_627" data-name="Path 627" d="M.346.87C.123.683-.087.345.037.1A.173.173,0,0,1,.215,0C.718.051.813,1.259.346.87Z" fill="#28364c"/>
        </g>
      </g>
      <path id="Path_628" data-name="Path 628" d="M0,.79A1.856,1.856,0,0,0,1.006,0" transform="translate(1.978 13.106)" fill="none" stroke="#28364c" stroke-miterlimit="10" stroke-width="0.75"/>
      <path id="Path_629" data-name="Path 629" d="M1.493,1.095l-1.1.588S-.328.332.183.047C.749-.268,1.493,1.095,1.493,1.095Z" transform="translate(0.476 8.349)" fill="#fff"/>
    </g>
    <g id="Group_548" data-name="Group 548" transform="translate(21.866 0)">
      <g id="Group_546" data-name="Group 546" transform="translate(0 0)">
        <rect id="Rectangle_2141" data-name="Rectangle 2141" width="17.364" height="0.778" transform="translate(17.364 0.791) rotate(-179.956)" fill="#103bb2"/>
        <path id="Path_630" data-name="Path 630" d="M14.893,6.423l1.5-.353s.575-1.963.8-3.329A16,16,0,0,0,17.363.013L0,0S.454,1.5,4.6,3.932A9.042,9.042,0,0,1,7.06,5.982Z" transform="translate(0 0.778)" fill="#22252d"/>
        <path id="Path_631" data-name="Path 631" d="M10.2,7.486,9.917.885S9.188,0,6.239,0A22.553,22.553,0,0,0,.582.8L0,9.7" transform="translate(6.479 5.963)" fill="#f2b18f"/>
      </g>
      <g id="Group_547" data-name="Group 547" transform="translate(24.731 0)">
        <rect id="Rectangle_2142" data-name="Rectangle 2142" width="17.364" height="0.778" transform="translate(17.364 0.791) rotate(-179.956)" fill="#103bb2"/>
        <path id="Path_632" data-name="Path 632" d="M14.893,6.423l1.5-.353s.575-1.963.8-3.329A15.946,15.946,0,0,0,17.364.013L0,0S.454,1.5,4.6,3.932A9.022,9.022,0,0,1,7.06,5.982Z" transform="translate(0 0.778)" fill="#22252d"/>
        <path id="Path_633" data-name="Path 633" d="M10.086,7.755,10.672.885S9.943,0,6.995,0A22.553,22.553,0,0,0,1.337.8L0,9.7" transform="translate(5.723 5.963)" fill="#f2b18f"/>
      </g>
      <path id="Path_634" data-name="Path 634" d="M21.032,72.912s2.709-5.639.532-16.43C22.671,32.389,25.552,0,25.552,0L9.009.058S5.635,34.874,3.631,52.225C1.4,71.552,0,95.219,0,95.219" transform="translate(16.709 9.121)" fill="#0070e4"/>
      <path id="Path_635" data-name="Path 635" d="M5.378,0S2,34.816,0,52.167" transform="translate(23.011 9.179)" fill="none" stroke="#0b2e6b" stroke-miterlimit="10" stroke-width="0.75"/>
      <path id="Path_636" data-name="Path 636" d="M2.54,71.833S.782,46.434.782,34.244,0,0,0,0H16.722l6.221,57.652c5.1,6.1,4.724,19.348,3.5,24.5L9.858,86.684Z" transform="translate(3.61 9.121)" fill="#0070e4"/>
      <path id="Path_637" data-name="Path 637" d="M0,0,3.416,31.657a17.729,17.729,0,0,1,4.274,10.78" transform="translate(23.137 35.116)" fill="none" stroke="#0b2e6b" stroke-miterlimit="10" stroke-width="0.75"/>
      <line id="Line_26" data-name="Line 26" x1="3.957" y1="74.384" transform="translate(5.684 9.121)" fill="none" stroke="#0b2e6b" stroke-miterlimit="10" stroke-width="0.75"/>
      <line id="Line_27" data-name="Line 27" y1="0.162" x2="8.122" transform="translate(20.623 76.64)" fill="none" stroke="#0b2e6b" stroke-miterlimit="10" stroke-width="0.75"/>
      <line id="Line_28" data-name="Line 28" x2="3.088" y2="0.064" transform="translate(34.535 77.058)" fill="none" stroke="#0b2e6b" stroke-miterlimit="10" stroke-width="0.75"/>
    </g>
    <g id="Group_549" data-name="Group 549" transform="translate(0 79.953)">
      <path id="Path_638" data-name="Path 638" d="M13.919,5.953C11.652,8.519,5.568,18.271,4.884,18.118s1.159-3.172.573-3.193-3.733,4.43-4.376,4.095c-.871-.456,2.6-4.843,2.6-4.843s-1.358,1.865-2,1.251c-.454-.435-.214-1.347.726-2.887-.63.788-1.226.927-1.688.467s0-1.3.56-2.148c-.446.557-1.1.836-1.262.256C-.2,10.356,1.64,6.42,5.993,0" transform="translate(0 33.737)" fill="#f886bc"/>
      <path id="Path_639" data-name="Path 639" d="M20.426,49.936s9.581-.4,12.454-11.306C34.176,33.714,35.01,0,35.01,0L0,.234s.467,30.48,1.249,37.078C2.681,49.373,12.176,50.125,12.176,50.125s.433-1.066,4.143-1.066S20.426,49.936,20.426,49.936Z" transform="translate(26.295 0)" fill="#d8cac0"/>
      <path id="Path_640" data-name="Path 640" d="M0,19.211c11.372,0,18.374-15.621,18.374-15.621L11.223,0" transform="translate(46.721 30.726)" fill="#d8cac0"/>
      <path id="Path_641" data-name="Path 641" d="M29.269,9.22S23.2.487,18.3.014C11.716-.624,0,21.3,0,21.3l7.39,4.992L17.512,13.562l3.452,5.16" transform="translate(2.43 18.554)" fill="#f886bc"/>
      <path id="Path_642" data-name="Path 642" d="M16.957,23.353C7.166,22.815,0,8.229,0,8.229L11.464,0l6.506,8.488" transform="translate(21.514 26.772)" fill="#d8cac0"/>
      <line id="Line_29" data-name="Line 29" x2="5.546" y2="7.213" transform="translate(32.575 27.062)" fill="none" stroke="#846a6a" stroke-miterlimit="10" stroke-width="0.75"/>
      <path id="Path_643" data-name="Path 643" d="M2.194,0A41.075,41.075,0,0,1,0,8.5" transform="translate(57.944 31.827)" fill="none" stroke="#846a6a" stroke-miterlimit="10" stroke-width="0.75"/>
    </g>
    <path id="Path_644" data-name="Path 644" d="M1.5,2.035S-.076,1.278,0,.988A5.754,5.754,0,0,1,.555,0" transform="translate(36.477 137.972)" fill="#f886bc"/>
    <line id="Line_30" data-name="Line 30" x2="17.013" transform="translate(25.476 12.746)" fill="none" stroke="#0b2e6b" stroke-miterlimit="10" stroke-width="0.75"/>
    <line id="Line_31" data-name="Line 31" x2="16.547" transform="translate(47.236 12.602)" fill="none" stroke="#0b2e6b" stroke-miterlimit="10" stroke-width="0.75"/>
  </g>
</svg>
