<svg xmlns="http://www.w3.org/2000/svg" width="61.11" height="129.721" viewBox="0 0 61.11 129.721">
  <g id="couple_woman" data-name="couple woman" transform="translate(0)">
    <g id="Group_551" data-name="Group 551" transform="translate(0.359 27.089)">
      <path id="Path_645" data-name="Path 645" d="M540.9,241.21a49,49,0,0,0-3.134,9.9c-.643,4.242,5.251,16.218,5.251,16.218l5.046-2.963s-1.537-8.927-1.537-12.1,2.893-7.6,2.893-7.6" transform="translate(-537.712 -241.21)" fill="#ffcbc2"/>
      <path id="Path_646" data-name="Path 646" d="M539.892,288.1c.649,1.963,3.461,7.341,3.173,7.651s-1.3-1.569-1.492-1.27,1.175,3.3.805,3.528c-.5.316-1.736-2.828-1.736-2.828s1.179,3.511.664,3.658c-.365.1-1.388-2.534-1.905-3.493.429,1.111.909,2.993.529,3.093s-1.113-1.681-1.748-3.016c.319.87.814,2.484.466,2.594s-2.435-4.1-4.246-8.135" transform="translate(-529.795 -265.613)" fill="#ffcbc2"/>
    </g>
    <g id="Group_554" data-name="Group 554" transform="translate(0 44.44)">
      <g id="Group_552" data-name="Group 552" transform="translate(0.741 22.973)">
        <path id="Path_647" data-name="Path 647" d="M544.829,332.71c.611,14.2-3.3,49.744-3.3,49.744l4.388,2.794s-13.5.627-13.89.233.494-3.1.494-3.1-.392-41.983-.784-48.2S544.218,318.506,544.829,332.71Z" transform="translate(-531.731 -325.291)" fill="#ffcbc2"/>
        <path id="Path_648" data-name="Path 648" d="M530.927,447.8l-3.234-1.765.254-.928,4.2,2.7,1.329,0,4.68-2.311,5.082,3.181a.688.688,0,0,1-.368,1.272l-6.83-.024-2.18-1.517-.619,0-.005,1.508-5.887-.016.008-2.108Z" transform="translate(-527.269 -387.642)" fill="#011e3b"/>
      </g>
      <g id="Group_553" data-name="Group 553" transform="translate(18.27 20.163)">
        <path id="Path_649" data-name="Path 649" d="M499.615,332.085c.975,19.959.615,47.3.615,47.3l4.378,2.809s-13.5.585-13.891.189.505-3.1.505-3.1-3.752-34.649-5.1-47.607S498.64,312.125,499.615,332.085Z" transform="translate(-486.03 -319.43)" fill="#ffcbc2"/>
        <path id="Path_650" data-name="Path 650" d="M485.245,447.706l-3.228-1.772.257-.927,4.189,2.707,1.329.01,4.688-2.294,5.07,3.2a.688.688,0,0,1-.372,1.27l-6.83-.048-2.174-1.524-.619,0-.011,1.508-5.887-.031.015-2.108Z" transform="translate(-477.199 -384.781)" fill="#011e3b"/>
      </g>
      <path id="Path_651" data-name="Path 651" d="M502.387,277.879c-1.16.8-3.762,4.491-4.839,8.12-2.531,8.53-2.569,27.384-2.569,27.384h32.556s-.191-18.116-1.456-26.009a24.654,24.654,0,0,0-3.659-9.461" transform="translate(-494.979 -277.644)" fill="#0f43aa"/>
      <path id="Path_652" data-name="Path 652" d="M500.38,277.389c.977.823,2.618,3.878,3.083,7.34,1.57,11.7,1.239,28.4,1.239,28.4" transform="translate(-474.765 -277.389)" fill="none" stroke="#0f1d49" stroke-miterlimit="10" stroke-width="0.75"/>
    </g>
    <g id="Group_555" data-name="Group 555" transform="translate(2.389 12.274)">
      <path id="Path_653" data-name="Path 653" d="M543.814,216.341c-9.74.619-12.964,12.786-12.964,12.786l6.88,4.75" transform="translate(-530.85 -213.453)" fill="#2c79e8"/>
      <line id="Line_32" data-name="Line 32" x1="3.417" y1="2.284" transform="translate(0.522 14.111)" fill="none" stroke="#0f1d49" stroke-miterlimit="10" stroke-width="0.75"/>
      <path id="Path_654" data-name="Path 654" d="M449.731,225.157s7.267,5.6,8.432,5.629c1.2.027,10.58-8.717,10.58-8.717l4.932,5.754s-9.89,13.483-15.192,13.483c-7.039,0-14.53-7.724-14.53-7.724" transform="translate(-419.036 -216.433)" fill="#ffcbc2"/>
      <path id="Path_655" data-name="Path 655" d="M515.624,216.251a4.767,4.767,0,0,1-3.309.6,31.29,31.29,0,0,1-3.941-.724c-.021.056-8.785,4.071-9.066,9.143-.313,5.658-.294,9.021,1.182,20.507h20.049s3.116-14.057,3.116-19.44S515.624,216.251,515.624,216.251Z" transform="translate(-495.488 -213.341)" fill="#2c79e8"/>
      <path id="Path_656" data-name="Path 656" d="M487.5,216.382a11.7,11.7,0,0,1,5.536,1.315,38.955,38.955,0,0,1,8.083,6.416l-5.837,10.309-6.131-4.337" transform="translate(-467.361 -213.473)" fill="#2c79e8"/>
      <path id="Path_657" data-name="Path 657" d="M549.068,239.6a35.4,35.4,0,0,1,.576-7.984" transform="translate(-545.408 -221.405)" fill="none" stroke="#0f1d49" stroke-miterlimit="10" stroke-width="0.75"/>
      <line id="Line_33" data-name="Line 33" x1="5.971" y2="10.871" transform="translate(26.309 9.191)" fill="none" stroke="#0f1d49" stroke-miterlimit="10" stroke-width="0.75"/>
      <line id="Line_34" data-name="Line 34" x1="5.128" y1="3.639" transform="translate(22.176 17.129)" fill="none" stroke="#0f1d49" stroke-miterlimit="10" stroke-width="0.75"/>
      <path id="Path_658" data-name="Path 658" d="M435.441,219.2s8.292-7.665,8.805-7.487-.956,1.653-.507,1.721,3.742-3.415,4.207-3.1c.631.427-2.209,3.314-2.209,3.314s.751-.507,1.19.022c.311.375-.573,1.54-.573,1.54s.864-.573,1.178-.177-.457,1.571-.457,1.571.614-.455.818-.034c.324.671-3.776,5.462-7.587,9.677" transform="translate(-389.315 -210.319)" fill="#ffcbc2"/>
    </g>
    <g id="Group_558" data-name="Group 558" transform="translate(11.195 0)">
      <path id="Path_659" data-name="Path 659" d="M516.188,205.6l-.745,5.58a4.964,4.964,0,0,0,7.5-.406l.216-3.129Z" transform="translate(-511.613 -195.588)" fill="#ffcbc2"/>
      <path id="Path_660" data-name="Path 660" d="M515.868,190.372s5.246,5.934,3.328,8.385c-1,1.274-5.3,2.836-6.852,1.867-1.15-.719-3.314-5.743-2.822-6.723C511.4,190.153,515.868,190.372,515.868,190.372Z" transform="translate(-505.199 -187.664)" fill="#ffcbc2"/>
      <path id="Path_661" data-name="Path 661" d="M524.543,190.048a9.316,9.316,0,0,1-.7,5.215s2.284,7.228,1.786,7.917-7.889,1.76-11.486.223c0,0-.571-10.919,2.73-13.692a8.344,8.344,0,0,1,9.418-1.022,1.788,1.788,0,0,1-1,1.006l-.833.368" transform="translate(-514.109 -186.264)" fill="#011e3b"/>
      <path id="Path_662" data-name="Path 662" d="M517.948,201.019c-.641-.812-1.159-.683-1.443-.237-.377.595.38,1.831.732,2.042.715.428,1.293.383,1.348-.2" transform="translate(-507.499 -192.898)" fill="#ffcbc2"/>
      <path id="Path_663" data-name="Path 663" d="M516.488,210.292a1.065,1.065,0,0,1-1-.634" transform="translate(-504.965 -197.701)" fill="none" stroke="#e88872" stroke-linejoin="round" stroke-width="0.5"/>
      <g id="Group_557" data-name="Group 557" transform="translate(11.752 5.989)">
        <g id="Group_556" data-name="Group 556" transform="translate(0)">
          <path id="Path_664" data-name="Path 664" d="M513.982,197.29c.22.183.425.515.3.759a.17.17,0,0,1-.176.094C513.617,198.095,513.523,196.908,513.982,197.29Z" transform="translate(-513.684 -197.214)" fill="#28364c"/>
        </g>
      </g>
      <path id="Path_665" data-name="Path 665" d="M515.511,195.489a1.824,1.824,0,0,0-.988.776" transform="translate(-503.523 -190.328)" fill="none" stroke="#28364c" stroke-miterlimit="10" stroke-width="0.75"/>
      <path id="Path_666" data-name="Path 666" d="M510.111,202.345l1.08-.578s.709,1.327.206,1.607C510.842,203.683,510.111,202.345,510.111,202.345Z" transform="translate(-497.474 -193.595)" fill="#fff"/>
      <path id="Path_667" data-name="Path 667" d="M530.626,187.148a1.1,1.1,0,0,0,.773-1.079,1.388,1.388,0,0,0-.749-1.145,1.908,1.908,0,0,0-1.394-.118,1.335,1.335,0,0,0-.653,2.236,1.258,1.258,0,0,0,.71.538.7.7,0,0,0,.782-.319" transform="translate(-526.019 -184.727)" fill="#011e3b"/>
    </g>
  </g>
</svg>
