<svg id="curve_leaf" data-name="curve leaf" xmlns="http://www.w3.org/2000/svg" width="49.892" height="77.122" viewBox="0 0 49.892 77.122">
  <path id="Path_112" data-name="Path 112" d="M126.69,695c2.616-6.761,6.872-13.445,4.252-20.908-1.444-4.123-5.859-5.862-9.234-8.088-5.782-3.81-8.362-9.614-7.937-16.467.172-2.74-.3-5.786-2.393-7.576-3.1-2.658-8.181-1.327-11.54-3.65-1.809-1.25-2.813-3.324-4.063-5.128-3.023-4.359-8.5-6.472-8.5-6.472a18.08,18.08,0,0,1-2.2,9.02,23.472,23.472,0,0,0-3.179,9.4,9.9,9.9,0,0,0,2.105,6.833c1.765,2.44,3.058,4.45,3.328,7.473.43,4.673-5.484,14.74.129,17.21,1.526.674,3.35.649,4.665,1.761,2.388,2.019.223,5.154.378,7.663.236,3.844,1.774,8.324,4.6,10.565,6.743,5.347,17.241,7.451,25.959,7.172" transform="translate(-81.872 -626.707)" fill="#e1ecf8"/>
  <path id="Path_113" data-name="Path 113" d="M89.394,627.346c9.255,14.375,9.663,33.174,19.271,47.322,2.882,4.243,6.507,7.928,9.608,12.026s5.734,8.762,6.154,13.872" transform="translate(-83.986 -626.887)" fill="none" stroke="#fff" stroke-linejoin="round" stroke-width="0.8"/>
  <path id="Path_114" data-name="Path 114" d="M103.454,676.8s-10.69-4.724-14.538-7.559" transform="translate(-83.851 -638.662)" fill="none" stroke="#fff" stroke-linejoin="round" stroke-width="0.8"/>
  <path id="Path_115" data-name="Path 115" d="M111.463,644.807c-1.087,6.872-2.762,12.455-4.871,20.289" transform="translate(-88.819 -631.794)" fill="none" stroke="#fff" stroke-linejoin="round" stroke-width="0.8"/>
  <path id="Path_116" data-name="Path 116" d="M104.557,641.719a84.015,84.015,0,0,1-3.006,10.875" transform="translate(-87.402 -630.926)" fill="none" stroke="#fff" stroke-linejoin="round" stroke-width="0.8"/>
  <path id="Path_117" data-name="Path 117" d="M97.02,631.647a31.364,31.364,0,0,1-1.151,6.035" transform="translate(-85.805 -628.095)" fill="none" stroke="#fff" stroke-linejoin="round" stroke-width="0.8"/>
  <path id="Path_118" data-name="Path 118" d="M96.021,650.259c0,.047-7.3-4.424-11.36-7.556" transform="translate(-82.656 -631.202)" fill="none" stroke="#fff" stroke-linejoin="round" stroke-width="0.8"/>
  <path id="Path_119" data-name="Path 119" d="M99.235,666.89c0-.047-11.987-5.467-16.651-9.251" transform="translate(-82.072 -635.4)" fill="none" stroke="#fff" stroke-linejoin="round" stroke-width="0.8"/>
  <path id="Path_120" data-name="Path 120" d="M122.365,653.212c-1.04,3.969-3.041,14.246-9,24.482" transform="translate(-90.723 -634.156)" fill="none" stroke="#fff" stroke-linejoin="round" stroke-width="0.8"/>
  <path id="Path_121" data-name="Path 121" d="M107.577,688.8s-13.19-4.113-19.641-7.469" transform="translate(-83.576 -642.058)" fill="none" stroke="#fff" stroke-linejoin="round" stroke-width="0.8"/>
  <path id="Path_122" data-name="Path 122" d="M125.193,718.62s-18.76-3.531-28.248-6.83" transform="translate(-86.108 -650.618)" fill="none" stroke="#fff" stroke-linejoin="round" stroke-width="1.5"/>
  <path id="Path_123" data-name="Path 123" d="M139.434,684.007s-1.16,12.378-6.76,21.809" transform="translate(-96.149 -642.81)" fill="none" stroke="#fff" stroke-linejoin="round" stroke-width="0.8"/>
</svg>
