<svg id="dark_man" data-name="dark man" xmlns="http://www.w3.org/2000/svg" width="73.918" height="154.816" viewBox="0 0 73.918 154.816">
  <path id="Path_370" data-name="Path 370" d="M522.083,524.711l3.446,16.266-.575,5.334-20.221-.11a.919.919,0,0,1-.919-.919v-.012h0a.919.919,0,0,1,.575-.853l9.02-4.151-4.261-16.948" transform="translate(-481.327 -393.606)" fill="#e7b6df"/>
  <path id="Path_371" data-name="Path 371" d="M502.866,546.669a2.847,2.847,0,0,1,1.005-1.591l9.565-4.122c5.271,2.134,12.093.506,12.093.506l.521,7.2a.431.431,0,0,1-.431.431h0l-22.592-.121C502.562,548.971,502.86,546.694,502.866,546.669Z" transform="translate(-481.286 -394.292)" fill="#0a3148"/>
  <line id="Line_16" data-name="Line 16" x1="23.161" y1="0.12" transform="translate(21.483 153.123)" fill="none" stroke="#354e90" stroke-miterlimit="10" stroke-width="0.75"/>
  <path id="Path_375" data-name="Path 375" d="M526.415,544.218s-5.363.04-5.846,3.414" transform="translate(-481.978 -394.419)" fill="none" stroke="#354e90" stroke-miterlimit="10" stroke-width="0.75"/>
  <path id="Path_377" data-name="Path 377" d="M514.787,463.3s-12.941,28.932-12.258,39.179c.637,9.543,7.872,33.708,7.872,33.708l15.5-2.842s-7.412-29.855-7.027-32.933,9.858-24.338,9.858-24.338,3.663-5.006,2.406-13.612" transform="translate(-481.276 -391.24)" fill="#175fab"/>
  <path id="Path_378" data-name="Path 378" d="M523.9,534.4s-7.234-30.131-6.849-33.22,9.354-23.942,9.354-23.942" transform="translate(-481.841 -391.815)" fill="none" stroke="#002b6e" stroke-linejoin="round" stroke-width="0.75"/>
  <line id="Line_17" data-name="Line 17" x1="15.559" y2="3.135" transform="translate(28.378 139.258)" fill="none" stroke="#002b6e" stroke-linejoin="round" stroke-width="0.75"/>
  <path id="Path_379" data-name="Path 379" d="M545.658,516.87,552.892,532l1.763,5.064-18.373,8.48a.925.925,0,0,1-1.228-.447h0a.929.929,0,0,1,.178-1.033l6.408-7.585-8.273-15.4" transform="translate(-482.475 -393.356)" fill="#e7b6df"/>
  <path id="Path_380" data-name="Path 380" d="M534.588,546.727a2.872,2.872,0,0,1,.23-1.866l6.89-7.785c5.678-.3,11.167-4.674,11.167-4.674l3.525,6.316a.437.437,0,0,1-.212.575l-20.508,9.473C535.283,548.943,534.594,546.75,534.588,546.727Z" transform="translate(-482.521 -393.96)" fill="#0a3148"/>
  <g id="Group_482" data-name="Group 482" transform="translate(56.03 144.368)">
    <path id="Path_381" data-name="Path 381" d="M540.26,538.567a11.243,11.243,0,0,1,2.182,1.475" transform="translate(-538.773 -538.567)" fill="none" stroke="#354e90" stroke-miterlimit="10" stroke-width="0.75"/>
    <path id="Path_382" data-name="Path 382" d="M539.441,539.773a10.186,10.186,0,0,1,1.82,1.275" transform="translate(-538.741 -538.614)" fill="none" stroke="#354e90" stroke-miterlimit="10" stroke-width="0.75"/>
    <path id="Path_383" data-name="Path 383" d="M538.713,540.717a14.848,14.848,0,0,1,1.693,1.149" transform="translate(-538.713 -538.651)" fill="none" stroke="#354e90" stroke-miterlimit="10" stroke-width="0.75"/>
  </g>
  <g id="Group_483" data-name="Group 483" transform="translate(27.76 146.814) rotate(21)">
    <path id="Path_381-2" data-name="Path 381" d="M0,0A11.244,11.244,0,0,1,2.182,1.475" transform="translate(1.487 0)" fill="none" stroke="#354e90" stroke-miterlimit="10" stroke-width="0.75"/>
    <path id="Path_382-2" data-name="Path 382" d="M0,0A10.191,10.191,0,0,1,1.82,1.275" transform="translate(0.7 1.159)" fill="none" stroke="#354e90" stroke-miterlimit="10" stroke-width="0.75"/>
    <path id="Path_383-2" data-name="Path 383" d="M0,0A14.844,14.844,0,0,1,1.693,1.149" transform="translate(0 2.066)" fill="none" stroke="#354e90" stroke-miterlimit="10" stroke-width="0.75"/>
  </g>
  <line id="Line_18" data-name="Line 18" x1="21.025" y2="9.709" transform="translate(52.297 143.776)" fill="none" stroke="#354e90" stroke-miterlimit="10" stroke-width="0.75"/>
  <path id="Path_385" data-name="Path 385" d="M536.305,543.7a18.211,18.211,0,0,1,3.038,2.118" transform="translate(-482.59 -394.399)" fill="none" stroke="#354e90" stroke-miterlimit="10" stroke-width="0.75"/>
  <path id="Path_385-2" data-name="Path 385" d="M0,0A18.208,18.208,0,0,1,3.038,2.118" transform="matrix(0.914, 0.407, -0.407, 0.914, 24.81, 149.778)" fill="none" stroke="#354e90" stroke-miterlimit="10" stroke-width="0.75"/>
  <path id="Path_386" data-name="Path 386" d="M525.791,464.1s-4.932,27.318-2.6,37.32c2.6,11.191,13.826,30.148,13.826,30.148l13.98-6.947s-12.056-23.047-12.056-28.026c0-3.111,2.761-22.283,2.761-22.283s2.761-5.558.062-13.831" transform="translate(-482.056 -391.164)" fill="#175fab"/>
  <path id="Path_387" data-name="Path 387" d="M548.308,526.257s-12.057-22.53-12.057-28.942c0-3.112,1.912-17.621,2.761-22.288s2.513-10.059.063-13.826" transform="translate(-482.588 -391.191)" fill="none" stroke="#002b6e" stroke-linejoin="round" stroke-width="0.75"/>
  <path id="Path_388" data-name="Path 388" d="M522.6,492.324c.735-7.676,1.6-17.982,2.774-27.163" transform="translate(-482.057 -391.345)" fill="none" stroke="#002b6e" stroke-linejoin="round" stroke-width="0.75"/>
  <path id="Path_389" data-name="Path 389" d="M534.023,465.161s.949,2.355,6.08,3.716" transform="translate(-482.501 -391.345)" fill="none" stroke="#002b6e" stroke-linejoin="round" stroke-width="0.75"/>
  <path id="Path_390" data-name="Path 390" d="M523.132,465.741s-.775,5.632-.322,6.373c.208.344,1.832.649,1.832.649" transform="translate(-482.06 -391.368)" fill="none" stroke="#002b6e" stroke-linejoin="round" stroke-width="0.75"/>
  <path id="Path_391" data-name="Path 391" d="M513.258,467.94a7.006,7.006,0,0,0,4.881-1.906" transform="translate(-481.694 -391.379)" fill="none" stroke="#002b6e" stroke-linejoin="round" stroke-width="0.75"/>
  <line id="Line_19" data-name="Line 19" x1="14.176" y2="6.861" transform="translate(53.514 131.036)" fill="none" stroke="#002b6e" stroke-linejoin="round" stroke-width="0.75"/>
  <path id="Path_392" data-name="Path 392" d="M519.484,420.663s-5.88,1.689-6.724,12.953c-.8,4.622,1.149,30.31,1.149,30.292,14.239,2.458,29.413-1.952,29.413-1.952s-2.659-16.076-3.669-22.146c-2.566-15.18-13.056-18.418-13.056-18.418Z" transform="translate(-481.667 -389.615)" fill="#0a3148"/>
  <path id="Path_393" data-name="Path 393" d="M521.062,419.7a77.859,77.859,0,0,0-8.853-12.1c-7.073-7.873-17.753-14.48-17.753-14.48s-7.223,5.074-3.91,7.729c4.387,2.962,10,8.847,14.268,14.164,2.664,3.32,8.038,13.487,8.038,13.487" transform="translate(-480.777 -388.544)" fill="#e7b6df"/>
  <path id="Path_394" data-name="Path 394" d="M492.225,402c-2.532-1.9-10.771-6.171-10.685-6.814s3.008.827,2.987.286-4.363-3.1-4.1-3.721c.35-.832,4.65,2.027,4.65,2.027s-4.552-3.371-4.018-4.019c.367-.454,3.962,1.959,5.449,2.71-1.51-1.022-3.761-2.956-3.371-3.445s2.871,1.149,4.834,2.251c-1.149-.815-3.2-2.406-2.871-2.871s6.666,2.756,12.631,6.889" transform="translate(-480.417 -388.359)" fill="#e7b6df"/>
  <path id="Path_395" data-name="Path 395" d="M532.16,440.073s-5.282,10.507-10.907,16.317c-7.343,7.619-19.068,12.975-19.068,12.975s-7.038-5.322-3.64-7.86a80.439,80.439,0,0,0,16.047-13.544c2.78-3.225,7.223-13.314,7.223-13.314" transform="translate(-481.086 -390.159)" fill="#e7b6df"/>
  <path id="Path_396" data-name="Path 396" d="M500.288,461.273c-2.6,1.8-10.977,5.793-10.907,6.436s3.035-.717,2.992-.178-4.462,2.946-4.226,3.572c.327.85,4.719-1.86,4.719-1.86s-4.667,3.2-4.173,3.858c.351.465,4.019-1.82,5.541-2.513-1.545.958-3.864,2.819-3.491,3.3s2.905-1.033,4.909-2.087c-1.189.775-3.278,2.3-2.952,2.744s6.741-2.767,12.667-6.04" transform="translate(-480.717 -391.194)" fill="#e7b6df"/>
  <path id="Path_397" data-name="Path 397" d="M522.372,431.823a123.422,123.422,0,0,1-5.362,13.131l10.553,5.58a43.085,43.085,0,0,0,7.464-14.606" transform="translate(-481.84 -390.049)" fill="#0a3148"/>
  <path id="Path_398" data-name="Path 398" d="M527.99,450.777s5.9-8.245,6.93-12.7" transform="translate(-482.267 -390.292)" fill="none" stroke="#354e90" stroke-miterlimit="10" stroke-width="0.75"/>
  <path id="Path_399" data-name="Path 399" d="M517.01,445.028s3.927-7.6,4.748-11.276" transform="translate(-481.84 -390.124)" fill="none" stroke="#354e90" stroke-miterlimit="10" stroke-width="0.75"/>
  <path id="Path_400" data-name="Path 400" d="M512.241,436.485c-.133-4.128-2.119-12.756-8.038-20.669l9.324-7.464s8.193,6.557,10.524,12.345" transform="translate(-481.342 -389.137)" fill="#0a3148"/>
  <path id="Path_401" data-name="Path 401" d="M517.806,408.271s-2.383,6.6-.263,8.743c1.1,1.114,4.351,1.31,5.741.2,1.027-.821,2.544-5.891,1.964-6.782C523.02,407.036,517.806,408.271,517.806,408.271Z" transform="translate(-481.826 -389.125)" fill="#e7b6df"/>
  <path id="Path_402" data-name="Path 402" d="M519.182,411.512s-1.274,1.556-1.224,2.039,1.149.654,1.149.654" transform="translate(-481.876 -389.26)" fill="none" stroke="#aa1f6f" stroke-linejoin="round" stroke-width="0.5"/>
  <path id="Path_403" data-name="Path 403" d="M517.823,414.773l2.988.759a1.958,1.958,0,0,1-2.36.97C517.3,416.122,517.823,414.773,517.823,414.773Z" transform="translate(-481.867 -389.386)" fill="#fff"/>
  <path id="Path_404" data-name="Path 404" d="M518,410.79a.439.439,0,0,0-.052.092l-.047.092c-.017.035-.075.155-.1.236a.168.168,0,0,0,0,.092.138.138,0,0,0,.029.081l.035.047a.214.214,0,0,0,.075.052.255.255,0,0,0,.142,0,.205.205,0,0,0,.137-.11.917.917,0,0,0,.058-.142l.035-.1a.571.571,0,0,1,0-.1v-.1a.2.2,0,0,0-.357-.162l-.006.012Z" transform="translate(-481.87 -389.226)" fill="#0a244b"/>
  <path id="Path_405" data-name="Path 405" d="M519.06,410.176a.8.8,0,0,0-1.09-.3c-.02.012-.039.024-.059.037" transform="translate(-481.875 -389.192)" fill="none" stroke="#0a244b" stroke-linecap="round" stroke-linejoin="round" stroke-width="0.5"/>
  <path id="Path_406" data-name="Path 406" d="M521.494,412.029a1.023,1.023,0,0,0-.062.137l-.04.092c0,.062-.058.132-.075.2a.247.247,0,0,0,0,.178.235.235,0,0,0,.138.1.231.231,0,0,0,.172,0l.047-.035a.227.227,0,0,0,.058-.1,1.164,1.164,0,0,0,.058-.2v-.2a.194.194,0,0,0,0-.15.2.2,0,0,0-.27-.075.205.205,0,0,0-.074.075Z" transform="translate(-482.006 -389.277)" fill="#0a244b"/>
  <path id="Path_407" data-name="Path 407" d="M521.49,410.819a1.482,1.482,0,0,1,1.442.792" transform="translate(-482.014 -389.232)" fill="none" stroke="#0a244b" stroke-linecap="round" stroke-linejoin="round" stroke-width="0.5"/>
  <path id="Path_408" data-name="Path 408" d="M525.532,414.552l1.315,6.6s-4.989,3.744-7.751-.241l-.086-4.324Z" transform="translate(-481.917 -389.378)" fill="#e7b6df"/>
  <path id="Path_409" data-name="Path 409" d="M527.785,413a5.441,5.441,0,0,1,.207-.706c.2-.575.505-1.051.724-1.6a2.869,2.869,0,0,0-.85-3.192,4.653,4.653,0,0,1-.493-.4,4.008,4.008,0,0,1-.631-1.251,1.727,1.727,0,0,0-.724-.873c-.781-.419-1.82.142-2.6-.27a4.454,4.454,0,0,1-.465-.338,3.615,3.615,0,0,0-3.6-.207,3.862,3.862,0,0,0-1.232.8c-.517.408-1.241.38-1.763.775a2.293,2.293,0,0,0-.689,1.866,1.72,1.72,0,0,0,.114.729,1.388,1.388,0,0,0,.7.626,4.508,4.508,0,0,0,2.229.142c.73-.058,1.567-.575,2.3-.3s.867,1.108,1.722,1.149c.339,0,.747-.035.949.236s.1.81.282,1.149a8.151,8.151,0,0,0,.683.935c.431.617,1.039,1.033.821,1.832-.15.574-.77,1.441-.511,2.027.166.39,1.016.379,1.66-.11a3.76,3.76,0,0,0,1.027-2.234Q527.691,413.383,527.785,413Z" transform="translate(-481.787 -388.959)" fill="#161a29"/>
  <path id="Path_410" data-name="Path 410" d="M525.083,413.474c.631-1.022,1.246-.942,1.631-.465.517.637-.189,2.164-.574,2.452-.77.574-1.442.616-1.585-.048" transform="translate(-482.133 -389.305)" fill="#e7b6df"/>
  <path id="Path_411" data-name="Path 411" d="M519.268,418.392a9.118,9.118,0,0,0,4.352-1.056" transform="translate(-481.927 -389.486)" fill="none" stroke="#aa1f6f" stroke-linejoin="round" stroke-width="0.75"/>
  <path id="Path_412" data-name="Path 412" d="M512.423,435.7s.161-6.449-.574-8.417" transform="translate(-481.639 -389.873)" fill="none" stroke="#354e90" stroke-miterlimit="10" stroke-width="0.75"/>
  <path id="Path_413" data-name="Path 413" d="M518.426,422.387a4.741,4.741,0,0,0,4.346,1.969,6.138,6.138,0,0,0,5.081-2.485" transform="translate(-481.895 -389.662)" fill="none" stroke="#354e90" stroke-miterlimit="10" stroke-width="0.75"/>
</svg>
