<svg id="date_range-24px" xmlns="http://www.w3.org/2000/svg" width="14.943" height="14.943" viewBox="0 0 14.943 14.943">
  <path id="Path_15" data-name="Path 15" d="M0,0H14.943V14.943H0Z" fill="none"/>
  <path id="Path_16" data-name="Path 16" d="M7.438,8.236H5.959V9.622H7.438Zm2.959,0H8.918V9.622H10.4Zm2.959,0H11.877V9.622h1.479Zm1.479-4.85H14.1V2H12.616V3.386H6.7V2H5.219V3.386h-.74A1.428,1.428,0,0,0,3.007,4.772L3,14.472a1.434,1.434,0,0,0,1.479,1.386H14.835a1.439,1.439,0,0,0,1.479-1.386v-9.7A1.439,1.439,0,0,0,14.835,3.386Zm0,11.086H4.479V6.85H14.835Z" transform="translate(-2.186 -1.457)" fill="#4b4b4b"/>
</svg>
