<svg xmlns="http://www.w3.org/2000/svg" width="24.913" height="24.913" viewBox="0 0 24.913 24.913">
  <path id="Fill_1" data-name="Fill 1" d="M12.457,24.913A12.46,12.46,0,0,1,7.608.979a12.46,12.46,0,0,1,9.7,22.955A12.378,12.378,0,0,1,12.457,24.913Zm-.406-16.2a1.542,1.542,0,0,0-1.231.666,2.775,2.775,0,0,0-.508,1.668,3.5,3.5,0,0,0,.288,1.427h0c0,.007-.993,4.208-1.159,4.912a9.764,9.764,0,0,0-.033,3.385v0l.005.037a.114.114,0,0,0,.116.1.122.122,0,0,0,.1-.048l.018-.023a9.375,9.375,0,0,0,1.609-2.927c.107-.388.613-2.392.634-2.477a2.57,2.57,0,0,0,2.2,1.123,4.308,4.308,0,0,0,1.983-.468,4.587,4.587,0,0,0,1.536-1.3,7.224,7.224,0,0,0,1.345-4.415,5.014,5.014,0,0,0-1.563-3.585,5.924,5.924,0,0,0-4.145-1.579A6.543,6.543,0,0,0,8.42,7.069,5.45,5.45,0,0,0,6.8,10.845a4.719,4.719,0,0,0,.451,2.111,2.685,2.685,0,0,0,1.4,1.333.407.407,0,0,0,.154.033.305.305,0,0,0,.3-.258c.019-.074.051-.2.084-.33.038-.15.077-.3.1-.394a.436.436,0,0,0-.13-.5,2.619,2.619,0,0,1-.595-1.768A4.3,4.3,0,0,1,9.756,8.057,4.388,4.388,0,0,1,13,6.752a3.894,3.894,0,0,1,2.784.986,3.343,3.343,0,0,1,.968,2.468,6.9,6.9,0,0,1-.789,3.371A2.453,2.453,0,0,1,13.893,15a1.483,1.483,0,0,1-1.178-.543,1.374,1.374,0,0,1-.246-1.193c.1-.413.23-.838.357-1.249a7.555,7.555,0,0,0,.44-1.95,1.484,1.484,0,0,0-.3-.954A1.136,1.136,0,0,0,12.051,8.711Z" fill="#95989a"/>
</svg>
