<svg xmlns="http://www.w3.org/2000/svg" width="21.698" height="21.977" viewBox="0 0 21.698 21.977">
  <path id="Fill_94" data-name="Fill 94" d="M14.915,21.977a2.747,2.747,0,1,1,2.712-2.747A2.733,2.733,0,0,1,14.915,21.977Zm0-4.121a1.374,1.374,0,1,0,1.356,1.373A1.366,1.366,0,0,0,14.915,17.856ZM6.78,21.977a2.747,2.747,0,0,1,0-5.494H5.424a2.733,2.733,0,0,1-2.712-2.747V1.373H.678A.683.683,0,0,1,0,.687.683.683,0,0,1,.678,0H4.746a.683.683,0,0,1,.678.687.683.683,0,0,1-.678.687H4.068V2.747H21.016a.714.714,0,0,1,.525.234.59.59,0,0,1,.154.453c-.013.136-1.685,7.609-2.053,8.994a.066.066,0,0,0-.025,0c-.678,0-15.4,1.3-15.549,1.309a1.375,1.375,0,0,0,.4.971,1.337,1.337,0,0,0,.958.4H21.016c0,.266,0,.525.006.753a5.626,5.626,0,0,1,0,.62H6.78a2.747,2.747,0,0,1,0,5.494Zm0-4.121A1.374,1.374,0,1,0,8.135,19.23,1.366,1.366,0,0,0,6.78,17.856Z" fill="#95989a"/>
</svg>
