<svg xmlns="http://www.w3.org/2000/svg" width="26.113" height="25" viewBox="0 0 26.113 25">
  <g id="follow_the_signs-24px" transform="translate(9.8 43.3)">
    <rect id="Rectangle_2183" data-name="Rectangle 2183" width="23.134" height="23" transform="translate(-6.821 -41.3)" fill="none"/>
    <path id="Path_691" data-name="Path 691" d="M10.683,5.827A2.25,2.25,0,0,0,13,3.663,2.25,2.25,0,0,0,10.683,1.5,2.25,2.25,0,0,0,8.367,3.663,2.25,2.25,0,0,0,10.683,5.827ZM6.341,9.5,3.158,24.757H5.589L7.615,16.1,10.1,18.266v6.49h2.315V16.59l-2.373-2.217.695-3.245a8.3,8.3,0,0,0,6.31,2.812V11.776a6.032,6.032,0,0,1-5.036-2.65L10.914,7.4A2.3,2.3,0,0,0,8.946,6.368a2.465,2.465,0,0,0-.868.162L2,8.856V13.94H4.315V10.316L6.341,9.5m8.393-7.464V9.613h4.341V24.757h1.737V9.613h4.341V2.041Zm5.8,6.49V6.638H16.471V5.016h4.064V3.123l2.883,2.7Z" transform="translate(-11.8 -44.8)" fill="#95989a"/>
  </g>
</svg>
