<svg xmlns="http://www.w3.org/2000/svg" viewBox="0 0 1637.53 365.64"><defs><style>.cls-1{fill:#adcbdd;}.cls-2{fill:#f886bc;}.cls-3{fill:#212237;}.cls-4{fill:#28364c;}.cls-11,.cls-13,.cls-17,.cls-19,.cls-5{fill:none;}.cls-5{stroke:#28364c;}.cls-11,.cls-13,.cls-17,.cls-5{stroke-miterlimit:10;stroke-width:0.75px;}.cls-6{fill:#fff;}.cls-7{fill:#103bb2;}.cls-8{fill:#22252d;}.cls-9{fill:#f2b18f;}.cls-10{fill:#0070e4;}.cls-11{stroke:#0b2e6b;}.cls-12{fill:#d8cac0;}.cls-13{stroke:#846a6a;}.cls-14{fill:#ffcbc2;}.cls-15{fill:#011e3b;}.cls-16{fill:#0f43aa;}.cls-17{stroke:#0f1d49;}.cls-18{fill:#2c79e8;}.cls-19{stroke:#e88872;stroke-linejoin:round;stroke-width:0.5px;}</style></defs><g id="圖層_2" data-name="圖層 2"><g id="圖層_1-2" data-name="圖層 1"><path class="cls-1" d="M1637.53,365.64,1632.6,11c-33.72,5.5-54.42.55-74.43-4.23-20.29-4.85-41.26-9.87-75.56-4.28s-48.12,16.27-61.5,26.61c-13.19,10.19-26.84,20.74-60.56,26.23s-54.42.55-74.44-4.23c-20.29-4.85-41.27-9.86-75.56-4.28s-48.13,16.28-61.5,26.61c-13.2,10.2-26.85,20.75-60.57,26.24s-54.42.55-74.44-4.24c-20.29-4.84-41.27-9.86-75.56-4.27S890.35,107.4,877,117.74c-13.2,10.19-26.85,20.74-60.57,26.23s-54.43.55-74.44-4.23c-20.29-4.85-41.27-9.86-75.56-4.28s-48.13,16.28-61.5,26.61c-13.2,10.2-26.85,20.74-60.57,26.24s-54.42.55-74.44-4.24c-20.29-4.85-41.27-9.86-75.57-4.27s-48.12,16.27-61.5,26.61c-13.19,10.19-26.84,20.74-60.56,26.23s-54.43.55-74.45-4.23c-20.29-4.85-41.27-9.87-75.57-4.28s-48.13,16.28-61.51,26.61C47.55,260.94,33.72,271.49,0,277l3.52,88.65Z"/><g id="Group_542" data-name="Group 542"><g id="Group_542-2" data-name="Group 542-2"><path id="Path_621" data-name="Path 621" class="cls-2" d="M1398,205.44c-.47,4.15-3.8,15.94-3.1,16.44s1.92-3.64,2.41-3.13-1,7-.13,7.31c1.13.41,2.26-6.31,2.26-6.31s-.87,7.43.2,7.51c.77.05,1.7-5.59,2.32-7.7-.38,2.37-.56,6.29.24,6.34s1.5-3.79,2.21-6.69c-.27,1.85-.58,5.25.15,5.32s3.12-9.11,5-17.84"/><path id="Path_622" data-name="Path 622" class="cls-2" d="M1411.54,148.51s6.72,11.93,7.69,19.25c2.39,18-12.58,48.59-12.58,48.59s-10.87-3-10.87-4.34,7.58-33.46,7.58-33.46l-10.87-25.09"/></g><g id="Group_545" data-name="Group 545"><path id="Path_623" data-name="Path 623" class="cls-2" d="M1378.89,109.35l1.46,13.45s-8.06,6.83-15.2-.83l.88-8.85Z"/><path id="Path_624" data-name="Path 624" class="cls-2" d="M1367.64,95.87s-8.73,12-5.16,16.53c2.63,3.33,9.53,3.7,11.66,2.4.46-2.46,6.12-10.6,5.21-12.41C1375.89,95.47,1367.64,95.87,1367.64,95.87Z"/><path id="Path_625" data-name="Path 625" class="cls-3" d="M1381.23,98c-.28-4.54-4.76-5.87-13.37-5.36-1.15.07-3.2-.71-3.73.31-.7,1.35-.82,4.07.53,5.29a4.94,4.94,0,0,0,2.69,1.28c1.56.36,3.15,1.84,2.32,3.48-.22.42-.73,1.15-.41,1.5a4.66,4.66,0,0,0,.94.49c.61.33.58,1.27.19,1.86s-.21,1.24-.6,1.82c-.92,1.39.17,3.94,1.6,4.79,1.27.75,5.42,2,8.46.42,2.63-1.36,4.21-5.08,4.23-11.77C1384.09,99.5,1382.19,97.78,1381.23,98Z"/><path id="Path_626" data-name="Path 626" class="cls-2" d="M1368.59,104.82c1.42-1.8,2.57-1.51,3.19-.53.84,1.32-.84,4.06-1.61,4.52-1.59,1-2.87.85-3-.44"/><g id="Group_544" data-name="Group 544"><g id="Group_543" data-name="Group 543"><path id="Path_627" data-name="Path 627" class="cls-4" d="M1365.1,102.07c-.41.34-.79,1-.57,1.4a.32.32,0,0,0,.33.17C1365.77,103.55,1365.94,101.36,1365.1,102.07Z"/></g></g><path id="Path_628" data-name="Path 628" class="cls-5" d="M1365.21,100.4a3.41,3.41,0,0,1,1.82,1.43"/><path id="Path_629" data-name="Path 629" class="cls-6" d="M1365.19,108.48l-2-1.07s-1.31,2.45-.38,3S1365.19,108.48,1365.19,108.48Z"/></g><g id="Group_548" data-name="Group 548"><g id="Group_546" data-name="Group 546"><rect id="Rectangle_2141" data-name="Rectangle 2141" class="cls-7" x="1335.12" y="355.58" width="31.49" height="1.41"/><path id="Path_630" data-name="Path 630" class="cls-8" d="M1362.13,343.94l2.73.64s1,3.56,1.44,6a28.15,28.15,0,0,1,.31,4.94l-31.49,0s.83-2.73,8.34-7.13a16.48,16.48,0,0,0,4.46-3.72Z"/><path id="Path_631" data-name="Path 631" class="cls-9" d="M1365.37,332.61l-.51,12s-1.33,1.6-6.67,1.6a40.85,40.85,0,0,1-10.26-1.45l-1.06-16.14"/></g><g id="Group_547" data-name="Group 547"><rect id="Rectangle_2142" data-name="Rectangle 2142" class="cls-7" x="1379.98" y="355.58" width="31.49" height="1.41"/><path id="Path_632" data-name="Path 632" class="cls-8" d="M1407,343.94l2.72.64s1,3.56,1.44,6a29.15,29.15,0,0,1,.32,4.94l-31.49,0s.82-2.73,8.33-7.13a16.68,16.68,0,0,0,4.47-3.72Z"/><path id="Path_633" data-name="Path 633" class="cls-9" d="M1408.65,332.12l1.06,12.46s-1.32,1.6-6.67,1.6a40.92,40.92,0,0,1-10.26-1.45l-2.42-16.14"/></g><path id="Path_634" data-name="Path 634" class="cls-10" d="M1403.57,208.22s4.91,10.23,1,29.8c2,43.7,7.23,102.44,7.23,102.44l-30-.1s-6.12-63.15-9.76-94.62c-4-35.05-6.58-78-6.58-78"/><path id="Path_635" data-name="Path 635" class="cls-11" d="M1386.61,340.35s-6.12-63.14-9.75-94.61"/><path id="Path_636" data-name="Path 636" class="cls-10" d="M1346.28,210.18s-3.19,46.06-3.19,68.17-1.42,62.11-1.42,62.11H1372l11.28-104.56c9.24-11.07,8.57-35.09,6.34-44.44l-30.07-8.22Z"/><path id="Path_637" data-name="Path 637" class="cls-11" d="M1377.08,293.31l6.2-57.41a32.13,32.13,0,0,0,7.75-19.55"/><line id="Line_26" data-name="Line 26" class="cls-11" x1="1352.61" y1="205.55" x2="1345.43" y2="340.46"/><line id="Line_27" data-name="Line 27" class="cls-11" x1="1372.53" y1="217.71" x2="1387.26" y2="218"/><line id="Line_28" data-name="Line 28" class="cls-11" x1="1397.76" y1="217.24" x2="1403.36" y2="217.13"/></g><g id="Group_549" data-name="Group 549"><path id="Path_638" data-name="Path 638" class="cls-2" d="M1320.71,140c-4.11-4.65-15.14-22.34-16.38-22.06s2.1,5.75,1,5.79-6.78-8-7.94-7.43c-1.58.83,4.71,8.79,4.71,8.79s-2.46-3.38-3.62-2.27c-.83.79-.39,2.44,1.31,5.24-1.14-1.43-2.22-1.69-3.06-.85s0,2.35,1,3.89c-.81-1-2-1.51-2.29-.46-.4,1.37,2.94,8.51,10.84,20.16"/><path id="Path_639" data-name="Path 639" class="cls-12" d="M1380.2,121.43s17.38.73,22.59,20.5c2.35,8.92,3.86,70.06,3.86,70.06l-63.49-.42s.84-55.28,2.26-67.25c2.6-21.87,19.82-23.23,19.82-23.23s.78,1.93,7.51,1.93S1380.2,121.43,1380.2,121.43Z"/><path id="Path_640" data-name="Path 640" class="cls-12" d="M1380.2,121.43c20.63,0,33.32,28.33,33.32,28.33l-13,6.51"/><path id="Path_641" data-name="Path 641" class="cls-2" d="M1353,161.62s-11,15.84-19.89,16.7c-12,1.16-33.2-38.61-33.2-38.61l13.4-9.05,18.36,23.09,6.27-9.36"/><path id="Path_642" data-name="Path 642" class="cls-12" d="M1365.24,121.09c-17.75,1-30.75,27.43-30.75,27.43l20.79,14.92,11.8-15.39"/><line id="Line_29" data-name="Line 29" class="cls-13" x1="1354.55" y1="162.91" x2="1364.6" y2="149.83"/><path id="Path_643" data-name="Path 643" class="cls-13" d="M1404.54,154.27a75.16,75.16,0,0,0-4-15.42"/></g><path id="Path_644" data-name="Path 644" class="cls-2" d="M1364.34,103.08s-2.85,1.37-2.71,1.9a10.12,10.12,0,0,0,1,1.79"/><line id="Line_30" data-name="Line 30" class="cls-11" x1="1341.67" y1="333.88" x2="1372.53" y2="333.88"/><line id="Line_31" data-name="Line 31" class="cls-11" x1="1381.14" y1="334.14" x2="1411.15" y2="334.14"/></g><g id="Group_543-2" data-name="Group 543-2"><g id="Group_551" data-name="Group 551"><path id="Path_645" data-name="Path 645" class="cls-14" d="M1320.2,170.84s4.52,10.27,5.68,18-9.52,29.42-9.52,29.42l-9.15-5.38s2.78-16.19,2.78-22-5.24-13.78-5.24-13.78"/><path id="Path_646" data-name="Path 646" class="cls-14" d="M1307.66,211.63c-1.18,3.56-6.28,13.31-5.75,13.87s2.36-2.84,2.7-2.3-2.13,6-1.46,6.4c.91.58,3.15-5.13,3.15-5.13s-2.14,6.37-1.2,6.64c.66.19,2.52-4.6,3.45-6.34-.77,2-1.64,5.43-1,5.61s2-3,3.17-5.46c-.58,1.57-1.48,4.5-.85,4.7s4.42-7.44,7.7-14.76"/></g><g id="Group_554" data-name="Group 554"><g id="Group_552" data-name="Group 552"><path id="Path_647" data-name="Path 647" class="cls-14" d="M1301.52,257.43c-1.1,25.76,6,90.22,6,90.22l-8,5.07s24.48,1.13,25.19.42-.9-5.62-.9-5.62.71-76.15,1.42-87.42S1302.63,231.67,1301.52,257.43Z"/><path id="Path_648" data-name="Path 648" class="cls-15" d="M1318.64,353.07l5.87-3.2-.46-1.68-7.62,4.9H1314l-8.49-4.19-9.22,5.77A1.25,1.25,0,0,0,1297,357l12.39,0,3.95-2.75h1.12v2.73l10.68,0,0-3.82Z"/></g><g id="Group_553" data-name="Group 553"><path id="Path_649" data-name="Path 649" class="cls-14" d="M1268.85,261.83c-1.77,36.2-1.11,85.78-1.11,85.78l-8,5.1s24.49,1.06,25.2.34-.92-5.62-.92-5.62,6.81-62.84,9.25-86.34S1270.62,225.63,1268.85,261.83Z"/><path id="Path_650" data-name="Path 650" class="cls-15" d="M1278.89,353l5.86-3.21-.47-1.68-7.6,4.91h-2.41l-8.5-4.16-9.2,5.8a1.25,1.25,0,0,0-.38,1.72,1.26,1.26,0,0,0,1.06.58l12.39-.09,3.94-2.76h1.12l0,2.74,10.68-.06,0-3.82Z"/></g><path id="Path_651" data-name="Path 651" class="cls-16" d="M1313.19,202.74c2.1,1.45,6.82,8.14,8.77,14.72,4.59,15.47,4.66,49.67,4.66,49.67h-59s.34-32.86,2.64-47.17a44.64,44.64,0,0,1,6.64-17.16"/><path id="Path_652" data-name="Path 652" class="cls-17" d="M1280.17,202.31c-1.77,1.49-4.75,7-5.59,13.31-2.85,21.21-2.25,51.51-2.25,51.51"/></g><g id="Group_555" data-name="Group 555"><path id="Path_653" data-name="Path 653" class="cls-18" d="M1298.78,149.21c17.66,1.12,23.51,23.19,23.51,23.19L1309.81,181"/><line id="Line_32" data-name="Line 32" class="cls-17" x1="1315.15" y1="173.71" x2="1321.34" y2="169.56"/><path id="Path_654" data-name="Path 654" class="cls-14" d="M1266.62,159.79S1253.44,170,1251.33,170s-19.19-15.81-19.19-15.81l-8.94,10.43s17.93,24.46,27.55,24.46c12.76,0,26.35-14,26.35-14"/><path id="Path_655" data-name="Path 655" class="cls-18" d="M1285.77,149.25s2,1.55,6,1.09a57.66,57.66,0,0,0,7.15-1.32c0,.1,15.93,7.39,16.44,16.59.57,10.26.53,16.36-2.14,37.19h-36.36s-5.66-25.5-5.66-35.26S1285.77,149.25,1285.77,149.25Z"/><path id="Path_656" data-name="Path 656" class="cls-18" d="M1285.77,149.25a21.13,21.13,0,0,0-10,2.38,70.73,70.73,0,0,0-14.66,11.64l10.59,18.7,11.12-7.86"/><path id="Path_657" data-name="Path 657" class="cls-17" d="M1315.65,177a64.48,64.48,0,0,0-1-14.48"/><line id="Line_33" data-name="Line 33" class="cls-17" x1="1263.75" y1="160.64" x2="1274.58" y2="180.36"/><line id="Line_34" data-name="Line 34" class="cls-17" x1="1272.77" y1="181.64" x2="1282.07" y2="175.04"/><path id="Path_658" data-name="Path 658" class="cls-14" d="M1238.64,160.09s-15-13.9-16-13.58,1.73,3,.92,3.12-6.79-6.19-7.63-5.62c-1.15.77,4,6,4,6s-1.36-.92-2.16,0c-.56.68,1,2.79,1,2.79s-1.56-1-2.13-.32.83,2.85.83,2.85-1.12-.83-1.49-.06c-.59,1.22,6.85,9.9,13.76,17.55"/></g><g id="Group_558" data-name="Group 558"><path id="Path_659" data-name="Path 659" class="cls-14" d="M1298,139.87l1.35,10.12s-6.59,6.79-13.6-.74l-.39-5.67Z"/><path id="Path_660" data-name="Path 660" class="cls-14" d="M1287,126.62s-9.52,10.77-6,15.21c1.81,2.31,9.61,5.15,12.43,3.39,2.08-1.3,6-10.42,5.12-12.2C1295.07,126.23,1287,126.62,1287,126.62Z"/><path id="Path_661" data-name="Path 661" class="cls-15" d="M1287.4,128.58c-.6,6.26,1.26,9.45,1.26,9.45s-4.15,13.11-3.24,14.36,14.31,3.19,20.83.4c0,0,1-19.8-5-24.83-5.7-4.78-13.06-4.35-17.08-1.85a3.21,3.21,0,0,0,1.81,1.82l1.51.67"/><path id="Path_662" data-name="Path 662" class="cls-14" d="M1287.37,136.44c1.16-1.47,2.1-1.24,2.62-.43.68,1.08-.69,3.32-1.33,3.7-1.3.78-2.35.7-2.45-.36"/><path id="Path_663" data-name="Path 663" class="cls-19" d="M1285.42,144.55a2,2,0,0,0,1.81-1.15"/><g id="Group_557" data-name="Group 557"><g id="Group_556" data-name="Group 556"><path id="Path_664" data-name="Path 664" class="cls-4" d="M1284.46,132.71c-.4.33-.77.93-.55,1.38a.31.31,0,0,0,.32.17C1285.13,134.17,1285.3,132,1284.46,132.71Z"/></g></g><path id="Path_665" data-name="Path 665" class="cls-5" d="M1284.58,131.07a3.29,3.29,0,0,1,1.79,1.41"/><path id="Path_666" data-name="Path 666" class="cls-6" d="M1283.4,137.58l-2-1.05s-1.28,2.41-.37,2.92S1283.4,137.58,1283.4,137.58Z"/><path id="Path_667" data-name="Path 667" class="cls-15" d="M1298,126.1a2,2,0,0,1-1.4-1.95,2.51,2.51,0,0,1,1.36-2.08,3.41,3.41,0,0,1,2.53-.21,2.42,2.42,0,0,1,1.81,2.9,2.46,2.46,0,0,1-.63,1.15,2.27,2.27,0,0,1-1.29,1,1.27,1.27,0,0,1-1.41-.58"/></g></g></g></g></svg>