<svg xmlns="http://www.w3.org/2000/svg" width="20.026" height="20.937" viewBox="0 0 20.026 20.937">
  <g id="Notifications" transform="translate(0.75 0.685)">
    <g id="alarm-bell" transform="translate(0 0.065)">
      <path id="Path_39" data-name="Path 39" d="M10,21.75a1.811,1.811,0,0,0,3.472,0" transform="translate(-3.932 -3.608)" fill="none" stroke="#95989a" stroke-linecap="round" stroke-linejoin="round" stroke-width="1.5"/>
      <path id="Path_40" data-name="Path 40" d="M12,2.694V.75" transform="translate(-4.198 -0.75)" fill="none" stroke="#95989a" stroke-linecap="round" stroke-linejoin="round" stroke-width="1.5"/>
      <path id="Path_41" data-name="Path 41" d="M10.8,3a6.491,6.491,0,0,1,6.5,6.479c0,6.087,1.3,7.127,1.3,7.127H3s1.3-1.655,1.3-7.127A6.491,6.491,0,0,1,10.8,3Z" transform="translate(-3 -1.056)" fill="none" stroke="#95989a" stroke-linecap="round" stroke-linejoin="round" stroke-width="1.5"/>
    </g>
    <g id="Badge" transform="translate(10.714)">
      <g id="Path_367" data-name="Path 367" transform="translate(0)" fill="#16697a">
        <path d="M 4.0306396484375 8.283535003662109 C 1.670289635658264 8.283535003662109 -0.2500003576278687 6.369465351104736 -0.2500003576278687 4.016765117645264 C -0.2500003576278687 1.66406512260437 1.670289635658264 -0.2499948889017105 4.0306396484375 -0.2499948889017105 C 6.390989780426025 -0.2499948889017105 8.311279296875 1.66406512260437 8.311279296875 4.016765117645264 C 8.311279296875 6.369465351104736 6.390989780426025 8.283535003662109 4.0306396484375 8.283535003662109 Z" stroke="none"/>
        <path d="M 4.0306396484375 -4.76837158203125e-06 C 1.804579734802246 -4.76837158203125e-06 0 1.798365116119385 0 4.016765117645264 C 0 6.235165119171143 1.804579734802246 8.033525466918945 4.0306396484375 8.033525466918945 C 6.256699562072754 8.033525466918945 8.061279296875 6.235165119171143 8.061279296875 4.016765117645264 C 8.061279296875 1.798365116119385 6.256699562072754 -4.76837158203125e-06 4.0306396484375 -4.76837158203125e-06 M 4.0306396484375 -0.500004768371582 C 6.528839588165283 -0.500004768371582 8.561279296875 1.526205062866211 8.561279296875 4.016765117645264 C 8.561279296875 6.507315158843994 6.528839588165283 8.533525466918945 4.0306396484375 8.533525466918945 C 1.532439708709717 8.533525466918945 -0.5 6.507315158843994 -0.5 4.016765117645264 C -0.5 1.526205062866211 1.532439708709717 -0.500004768371582 4.0306396484375 -0.500004768371582 Z" stroke="none" fill="#fff"/>
      </g>
      <text id="_2" data-name="2" transform="translate(2.286 5.986)" fill="#fff" font-size="5" font-family="Poppins-Bold, Poppins" font-weight="700" letter-spacing="0.04em"><tspan x="0" y="0">2</tspan></text>
    </g>
  </g>
</svg>
