<svg id="orange_woman" data-name="orange woman" xmlns="http://www.w3.org/2000/svg" width="90.801" height="106.626" viewBox="0 0 90.801 106.626">
  <path id="Path_146" data-name="Path 146" d="M491.109,277.76l.761,5.256s3.833,2.483,7.042,1.168c3.387-1.375,3.2-3.22,3.2-3.22l-4.061-9.643" transform="translate(-433.658 -260.415)" fill="#e7b6df"/>
  <path id="Path_147" data-name="Path 147" d="M487.233,270c-.058,6.779,1.15,12.093,5.629,11.745,4.717-.356,8.22-4.239,6.531-9.528C497.611,266.665,487.629,266.052,487.233,270Z" transform="translate(-435.154 -261.901)" fill="#e7b6df"/>
  <path id="Path_151" data-name="Path 151" d="M494.843,271.053a14.634,14.634,0,0,1-9.105-.068c.406-2.293,1.8-5.562,6.076-5.662a7.4,7.4,0,0,1,7.391-1.448,9.54,9.54,0,0,1,5.505,4.552c2.169,3.65,2.623,9.18,2.581,12.242a41.576,41.576,0,0,1-8.277,1.517C499.105,282.22,497.7,273.048,494.843,271.053Z" transform="translate(-435.73 -263.45)" fill="#161a29"/>
  <path id="Path_152" data-name="Path 152" d="M493.928,272.547a1.182,1.182,0,0,1,.6-1.077c.944-.563,1.846.554,1.937,1.573a2.734,2.734,0,0,1-.381,1.754c-.431.77-1.15,1.068-1.729.373" transform="translate(-432.571 -260.415)" fill="#e7b6df"/>
  <path id="Path_153" data-name="Path 153" d="M489.929,271.906s-.786,2.583-.478,3.154,1.771.223,1.771.223" transform="translate(-434.325 -260.189)" fill="none" stroke="#aa1f6f" stroke-linejoin="round" stroke-width="0.5"/>
  <path id="Path_154" data-name="Path 154" d="M489.7,275.363l4.14-.554a2.632,2.632,0,0,1-2.435,2.417C489.773,277.292,489.7,275.363,489.7,275.363Z" transform="translate(-434.202 -259.069)" fill="#fff"/>
  <path id="Path_155" data-name="Path 155" d="M488.452,271.751v.349a1.592,1.592,0,0,0,0,.281.357.357,0,0,0,.091.231.3.3,0,0,0,.231.091.3.3,0,0,0,.231-.091.389.389,0,0,0,.1-.231V272.1a1.1,1.1,0,0,0-.042-.349v-.068a.254.254,0,0,0-.075-.083.248.248,0,0,0-.165-.058.387.387,0,0,0-.15,0,.3.3,0,0,0-.133.166Z" transform="translate(-434.685 -260.332)" fill="#0a244b"/>
  <path id="Path_156" data-name="Path 156" d="M489.615,270.874a1.06,1.06,0,0,0-1.485.2c-.014.017-.026.033-.039.051" transform="translate(-434.822 -260.671)" fill="none" stroke="#0a244b" stroke-linecap="round" stroke-linejoin="round" stroke-width="0.5"/>
  <path id="Path_157" data-name="Path 157" d="M491.9,271.639v.273a1.591,1.591,0,0,0,0,.281.315.315,0,0,0,0,.125.3.3,0,0,0,.068.108.343.343,0,0,0,.464,0,.365.365,0,0,0,.1-.233,1,1,0,0,0-.04-.356v-.273a.309.309,0,0,0-.133-.173.337.337,0,0,0-.181,0,.258.258,0,0,0-.165.082v.058a.284.284,0,0,0-.042.141Z" transform="translate(-433.356 -260.393)" fill="#0a244b"/>
  <path id="Path_158" data-name="Path 158" d="M491.491,270.572a1.979,1.979,0,0,1,2.193.24" transform="translate(-433.511 -260.791)" fill="none" stroke="#0a244b" stroke-linecap="round" stroke-linejoin="round" stroke-width="0.5"/>
  <path id="Path_159" data-name="Path 159" d="M501.091,298.7c-13.013,18.077-39.574,34.321-39.574,34.321l-5.48-6.945S475.9,309.392,487.9,290.239" transform="translate(-447.184 -253.119)" fill="#e7b6df"/>
  <path id="Path_160" data-name="Path 160" d="M460.834,314.773c-2.433,2.12-10.6,7.153-10.428,7.782s3.076-1.095,3.12-.554-4.214,3.5-3.858,4.139c.479.827,4.668-2.483,4.668-2.483s-4.387,3.79-3.759,4.375c.446.423,3.939-2.317,5.412-3.2-1.465,1.158-3.6,3.31-3.129,3.725s2.889-1.391,4.835-2.691c-1.125.919-3.078,2.7-2.658,3.112s6.622-3.608,12.342-7.616" transform="translate(-449.648 -243.657)" fill="#e7b6df"/>
  <path id="Path_161" data-name="Path 161" d="M453.205,320.1s3.162.083,4.5-.579" transform="translate(-448.276 -241.825)" fill="none" stroke="#aa1f6f" stroke-linejoin="round" stroke-width="0.75"/>
  <path id="Path_162" data-name="Path 162" d="M496.1,279.848c-5.678-1.025-10.761,3.037-12.963,6.572a106.618,106.618,0,0,0-6.9,12.716l13.376,8.053,7.616-23.929" transform="translate(-439.395 -257.188)" fill="#f28d61"/>
  <path id="Path_163" data-name="Path 163" d="M493.585,280.346c2.648.489,3.31,1.433,5.173.829a26.062,26.062,0,0,0,5.951-2.781c-2.21.148,7.228,1.871,14.444,9.486,2.425,8.351,2.707,16.654,3.41,38.7a60.7,60.7,0,0,1-33.606.927s-2.036-9.611-4.376-16.729c-3.252-6.564-1.846-13.915,1.789-19.916C486.49,287.21,493.585,280.346,493.585,280.346Z" transform="translate(-436.879 -257.687)" fill="#f28d61"/>
  <path id="Path_164" data-name="Path 164" d="M500.121,276.757l-6.133,5.195,3.923,4.171,4.064-6.174Z" transform="translate(-432.548 -258.318)" fill="#fff"/>
  <path id="Path_165" data-name="Path 165" d="M495.306,281.266l-3.468-2.723-1.266,1.743,1.664,5.024Z" transform="translate(-433.866 -257.629)" fill="#fff"/>
  <path id="Path_414" data-name="Path 414" d="M505.917,326.291c-.513,4.4-3.775,14.584-3.137,15s2.177-3.5,2.633-3.071-1.266,6.357-.506,6.622c1.025.348,2.376-5.513,2.376-5.513s-1.11,6.457-.125,6.514c.7.043,1.879-4.618,2.426-6.427-.331,2.02-.829,5.216-.108,5.249s1.539-2.735,2.16-5.207c-.231,1.581-.969,4.718-.3,4.768s3.1-7.07,4.643-15.95" transform="translate(-429.189 -239.215)" fill="#e7b6df"/>
  <path id="Path_415" data-name="Path 415" d="M518.142,294.057c3.17,23.226-3.766,51.139-3.766,51.139l-9.618-2.078s3.6-25.188-.448-47.321" transform="translate(-428.567 -251.646)" fill="#e7b6df"/>
  <path id="Path_416" data-name="Path 416" d="M499.7,279.122a21.677,21.677,0,0,1,13.459,4.786c6.382,4.966,7.988,16.556,7.988,16.556l-15.131,3.021s-.829-9.768-.912-13.111" transform="translate(-430.345 -257.406)" fill="#f28d61"/>
  <path id="Path_417" data-name="Path 417" d="M504.378,299.083a43.588,43.588,0,0,0-1.854-8.509" transform="translate(-429.256 -252.99)" fill="none" stroke="#8b1e20" stroke-miterlimit="10" stroke-width="0.75"/>
</svg>
