<svg xmlns="http://www.w3.org/2000/svg" viewBox="0 0 57.86 57.86"><defs><style>.cls-1{fill:#3db9b7;}</style></defs><g id="圖層_2" data-name="圖層 2"><g id="圖層_1-2" data-name="圖層 1"><path id="Fill_1" data-name="Fill 1" class="cls-1" d="M29,57.86a28.88,28.88,0,1,1,20.5-8.47A29,29,0,0,1,29,57.86ZM27.65,19.68c-2.29,0-3.95,2.22-3.95,5.27V28.9c0,.08-2.24,8.84-2.63,10.53a20.21,20.21,0,0,0,0,7.75,1,1,0,0,0,0,.15c0,.1.22.16.55.16a1.27,1.27,0,0,0,.76-.16,1.35,1.35,0,0,1,.15-.17,17.33,17.33,0,0,0,3.8-6.41c.25-.93,1.3-5.23,1.31-5.27.78,1.48,3.09,2.63,5.27,2.63A9.14,9.14,0,0,0,40.71,34a18.18,18.18,0,0,0,2.74-10.33c0-5.74-4.62-11.85-13.17-11.85C20.77,11.78,15.8,18.41,15.8,25c0,4.17,1.33,6.83,3.95,7.9a.3.3,0,0,0,.13,0c.48,0,1.06-.88,1.18-1.34a1.72,1.72,0,0,0,0-.64,1.89,1.89,0,0,1,0-.67,2.64,2.64,0,0,1,.1-.3.89.89,0,0,0-.1-1A5.68,5.68,0,0,1,19.75,25a10.73,10.73,0,0,1,2.87-7.26,10.34,10.34,0,0,1,7.66-3.28,7.18,7.18,0,0,1,6.06,2.89,10.71,10.71,0,0,1,1.84,6.33,14.8,14.8,0,0,1-1.8,7.54,5.55,5.55,0,0,1-4.78,3,2.67,2.67,0,0,1-2.2-.93,3.52,3.52,0,0,1-.44-3,42.19,42.19,0,0,0,1.32-7.9C30.28,20.49,29.47,19.68,27.65,19.68Z"/></g></g></svg>