<svg xmlns="http://www.w3.org/2000/svg" width="58.688" height="58.706" viewBox="0 0 58.688 58.706">
  <path id="puzzle.4" d="M322.9,525.115h-.389l-44.618-3.155a5.469,5.469,0,0,1-5.067-5.838l.934-13.149a1.555,1.555,0,0,1,1.564-1.45,1.578,1.578,0,0,1,1.077.419,7.787,7.787,0,0,0,4.832,2.171c.18,0,.361.021.537.021,4.525,0,8.355-4.05,8.721-9.219.381-5.4-3.15-10.057-7.869-10.4h-.537a7.892,7.892,0,0,0-4.55,1.492,1.566,1.566,0,0,1-.91.293,1.587,1.587,0,0,1-1.152-.5,1.541,1.541,0,0,1-.419-1.169l.931-13.137a5.481,5.481,0,0,1,5.448-5.079h.394l13.567.96a1.563,1.563,0,0,1,.955,2.711,7.961,7.961,0,0,0-2.586,5.242c-.33,4.722,3.772,8.875,9.193,9.256.269,0,.537.029.805.029,5.07,0,9.285-3.47,9.6-7.9a7.956,7.956,0,0,0-1.822-5.556,1.563,1.563,0,0,1,1.194-2.539h.118l13.572.96a5.473,5.473,0,0,1,5.067,5.838l-3.157,44.622a5.481,5.481,0,0,1-5.448,5.079Z" transform="translate(-272.812 -466.409)" fill="#658bc7"/>
</svg>
