<svg id="puzzle3" xmlns="http://www.w3.org/2000/svg" xmlns:xlink="http://www.w3.org/1999/xlink" width="61.198" height="61.176" viewBox="0 0 61.198 61.176">
  <defs>
    <clipPath id="clip-path">
      <path id="Path_600" data-name="Path 600" d="M215.422,228.832c-4.853-.588-8.221-5.591-7.529-11.106s5.191-9.514,10.043-8.905a8.134,8.134,0,0,1,5.13,2.805,1.251,1.251,0,0,0,2.164-.671l1.667-13.27a5.128,5.128,0,0,0-4.446-5.712L178.3,186.413a5.125,5.125,0,0,0-5.732,4.434v.01l-5.54,44.158a5.123,5.123,0,0,0,4.429,5.735l.015,0,13.49,1.667a1.25,1.25,0,0,0,1.159-1.962,8.179,8.179,0,0,1-1.609-5.908c.609-4.852,5.582-8.221,11.11-7.529s9.51,5.19,8.9,10.043a8.216,8.216,0,0,1-3.023,5.357,1.251,1.251,0,0,0,.634,2.184l13.491,1.7a5.128,5.128,0,0,0,5.72-4.457l1.667-13.274a1.251,1.251,0,0,0-1.93-1.179,8.119,8.119,0,0,1-5.657,1.443Z" transform="translate(-166.982 -186.371)" fill="none"/>
    </clipPath>
  </defs>
  <path id="Path_170" data-name="Path 170" d="M216.138,246.506a6.217,6.217,0,0,1-.683-.042l-13.491-1.68a1.555,1.555,0,0,1-.8-2.739,7.771,7.771,0,0,0,1.308-10.911q-.224-.286-.474-.549a10.452,10.452,0,0,0-6.558-3.355,11.468,11.468,0,0,0-1.4-.092c-4.811,0-8.834,3.16-9.359,7.346a7.919,7.919,0,0,0,1.549,5.681,1.522,1.522,0,0,1,.137,1.614,1.542,1.542,0,0,1-1.38.859,1.662,1.662,0,0,1-.2,0l-13.491-1.7a5.42,5.42,0,0,1-4.705-6.05l.007-.053,5.549-44.154a5.445,5.445,0,0,1,5.39-4.761,6.216,6.216,0,0,1,.684.042l44.157,5.553a5.419,5.419,0,0,1,4.719,6.039l0,.036-1.668,13.27a1.546,1.546,0,0,1-1.549,1.363,1.509,1.509,0,0,1-1.155-.529,7.768,7.768,0,0,0-4.936-2.7,7.133,7.133,0,0,0-.946-.059c-4.365,0-8.127,3.753-8.755,8.688-.671,5.345,2.58,10.172,7.254,10.76A7.719,7.719,0,0,0,220.8,227a1.522,1.522,0,0,1,.867-.276,1.582,1.582,0,0,1,1.176.534,1.529,1.529,0,0,1,.371,1.221l-1.667,13.27A5.445,5.445,0,0,1,216.138,246.506Z" transform="translate(-166.228 -185.609)" fill="#f3b4ba"/>
  <path id="Path_171" data-name="Path 171" d="M177.381,186.1a4.886,4.886,0,0,1,.646.042l44.153,5.561a5.128,5.128,0,0,1,4.449,5.724l-1.668,13.27a1.251,1.251,0,0,1-1.251,1.092,1.211,1.211,0,0,1-.921-.417,8.139,8.139,0,0,0-5.131-2.806,7.849,7.849,0,0,0-.983-.058c-4.461,0-8.41,3.81-9.059,8.964-.684,5.5,2.685,10.5,7.537,11.089a7.737,7.737,0,0,0,.976.062,8.233,8.233,0,0,0,4.69-1.484,1.2,1.2,0,0,1,.692-.221,1.25,1.25,0,0,1,1.26,1.242,1.223,1.223,0,0,1-.009.159l-1.667,13.274a5.131,5.131,0,0,1-5.082,4.485,4.762,4.762,0,0,1-.646-.042l-13.491-1.7a1.251,1.251,0,0,1-.646-2.193,8.218,8.218,0,0,0,3.023-5.328c.609-4.853-3.377-9.347-8.9-10.043a12.015,12.015,0,0,0-1.443-.091c-4.928,0-9.114,3.193-9.668,7.62a8.179,8.179,0,0,0,1.609,5.908,1.251,1.251,0,0,1-.992,1.972h-.167L171.2,240.479a5.124,5.124,0,0,1-4.444-5.723h0l5.541-44.171a5.123,5.123,0,0,1,5.078-4.485m0-.625h0a5.757,5.757,0,0,0-5.7,5.036l-5.54,44.154a5.757,5.757,0,0,0,5,6.424h0l13.5,1.693a1.543,1.543,0,0,0,.241,0,1.868,1.868,0,0,0,1.5-2.968,7.613,7.613,0,0,1-1.5-5.462c.509-4.032,4.4-7.087,9.051-7.087a10.742,10.742,0,0,1,1.364.087,10.132,10.132,0,0,1,6.362,3.256,7.454,7.454,0,0,1-.255,10.539c-.174.165-.356.323-.545.471a1.818,1.818,0,0,0-.609,1.951,1.838,1.838,0,0,0,1.563,1.338l13.491,1.7a6.071,6.071,0,0,0,.722.045,5.753,5.753,0,0,0,5.681-5l1.667-13.27a1.813,1.813,0,0,0-.447-1.463,1.877,1.877,0,0,0-1.409-.642,1.831,1.831,0,0,0-1.047.329,7.618,7.618,0,0,1-4.335,1.4,7.191,7.191,0,0,1-.9-.054c-4.5-.567-7.633-5.236-6.983-10.422.605-4.8,4.232-8.413,8.438-8.413a7.261,7.261,0,0,1,.9.054,7.454,7.454,0,0,1,4.736,2.6,1.824,1.824,0,0,0,1.393.638,1.885,1.885,0,0,0,1.863-1.639l1.667-13.27a5.757,5.757,0,0,0-5-6.424h0l-44.137-5.55a6.151,6.151,0,0,0-.725-.045Z" transform="translate(-166.089 -185.473)" fill="#fff"/>
  <g id="Group_490" data-name="Group 490" transform="translate(0.623 0.627)">
    <g id="Group_489" data-name="Group 489" clip-path="url(#clip-path)">
      <g id="Group_338" data-name="Group 338" transform="translate(-19.948 -20.361)">
        <g id="Group_337" data-name="Group 337" opacity="0.25">
          <circle id="Ellipse_19" data-name="Ellipse 19" cx="25.372" cy="25.372" r="25.372" fill="none" stroke="#fff" stroke-miterlimit="10" stroke-width="3"/>
          <circle id="Ellipse_20" data-name="Ellipse 20" cx="17.289" cy="17.289" r="17.289" transform="translate(7.55 7.554)" fill="none" stroke="#fff" stroke-miterlimit="10" stroke-width="3"/>
          <circle id="Ellipse_21" data-name="Ellipse 21" cx="8.392" cy="8.392" r="8.392" transform="translate(16.98 16.98)" fill="none" stroke="#fff" stroke-miterlimit="10" stroke-width="3"/>
        </g>
      </g>
    </g>
  </g>
</svg>
