<svg xmlns="http://www.w3.org/2000/svg" width="20.167" height="22" viewBox="0 0 20.167 22">
  <g id="share" transform="translate(0 0)">
    <path id="Path_31" data-name="Path 31" d="M319.646,18.489A2.489,2.489,0,1,1,317.157,16,2.489,2.489,0,0,1,319.646,18.489Zm0,0" transform="translate(-300.054 -15.425)" fill="#95989a"/>
    <path id="Path_32" data-name="Path 32" d="M301.732,6.127A3.064,3.064,0,1,1,304.8,3.064,3.067,3.067,0,0,1,301.732,6.127Zm0-4.978a1.915,1.915,0,1,0,1.915,1.915,1.917,1.917,0,0,0-1.915-1.915Zm0,0" transform="translate(-284.628 0)" fill="#95989a"/>
    <path id="Path_33" data-name="Path 33" d="M319.646,359.821a2.489,2.489,0,1,1-2.489-2.489A2.489,2.489,0,0,1,319.646,359.821Zm0,0" transform="translate(-300.054 -340.885)" fill="#95989a"/>
    <path id="Path_34" data-name="Path 34" d="M301.732,347.459A3.064,3.064,0,1,1,304.8,344.4,3.067,3.067,0,0,1,301.732,347.459Zm0-4.978a1.915,1.915,0,1,0,1.915,1.915A1.917,1.917,0,0,0,301.732,342.481Zm0,0" transform="translate(-284.628 -325.459)" fill="#95989a"/>
    <path id="Path_35" data-name="Path 35" d="M20.978,189.157a2.489,2.489,0,1,1-2.489-2.489A2.489,2.489,0,0,1,20.978,189.157Zm0,0" transform="translate(-15.426 -178.157)" fill="#95989a"/>
    <path id="Path_36" data-name="Path 36" d="M3.064,176.8a3.064,3.064,0,1,1,3.064-3.064A3.067,3.067,0,0,1,3.064,176.8Zm0-4.978a1.915,1.915,0,1,0,1.915,1.915,1.917,1.917,0,0,0-1.915-1.915Zm0,0" transform="translate(0 -162.731)" fill="#95989a"/>
    <path id="Path_37" data-name="Path 37" d="M115.409,95.8a1.179,1.179,0,0,1-.922-.387c-.289-.367-.111-.835.4-1.045l9.835-4.052a1.3,1.3,0,0,1,1.446.286c.289.367.111.835-.4,1.045L115.933,95.7a1.379,1.379,0,0,1-.523.1Zm0,0" transform="translate(-110.243 -86.06)" fill="#95989a"/>
    <path id="Path_38" data-name="Path 38" d="M125.266,271.8a1.379,1.379,0,0,1-.524-.1l-9.836-4.052c-.508-.209-.686-.677-.4-1.045a1.3,1.3,0,0,1,1.446-.286l9.836,4.052c.508.209.686.677.4,1.045A1.182,1.182,0,0,1,125.266,271.8Zm0,0" transform="translate(-110.265 -253.958)" fill="#95989a"/>
  </g>
</svg>
