<svg xmlns="http://www.w3.org/2000/svg" width="20" height="17.5" viewBox="0 0 20 17.5">
  <path id="sort-amount-down-alt-solid" d="M9.374,34.5h2.5a.625.625,0,0,0,.625-.625v-1.25A.625.625,0,0,0,11.874,32h-2.5a.625.625,0,0,0-.625.625v1.25A.625.625,0,0,0,9.374,34.5Zm0,5h5A.625.625,0,0,0,15,38.875v-1.25A.625.625,0,0,0,14.374,37h-5a.625.625,0,0,0-.625.625v1.25A.625.625,0,0,0,9.374,39.5Zm10,7.5h-10a.625.625,0,0,0-.625.625v1.25a.625.625,0,0,0,.625.625h10A.625.625,0,0,0,20,48.875v-1.25A.625.625,0,0,0,19.374,47Zm-10-2.5h7.5a.625.625,0,0,0,.625-.625v-1.25A.625.625,0,0,0,16.874,42h-7.5a.625.625,0,0,0-.625.625v1.25A.625.625,0,0,0,9.374,44.5Zm-2.5,0H5V32.625A.625.625,0,0,0,4.374,32H3.124a.625.625,0,0,0-.625.625V44.5H.624a.625.625,0,0,0-.441,1.067l3.125,3.75a.625.625,0,0,0,.884,0l3.125-3.75A.626.626,0,0,0,6.874,44.5Z" transform="translate(0.001 -32)" fill="#95989a"/>
</svg>
