<svg xmlns="http://www.w3.org/2000/svg" viewBox="0 0 57.86 57.86"><defs><style>.cls-1{fill:#3db9b7;}</style></defs><g id="圖層_2" data-name="圖層 2"><g id="圖層_1-2" data-name="圖層 1"><path id="Fill_9" data-name="Fill 9" class="cls-1" d="M29,57.86a28.88,28.88,0,1,1,20.5-8.47A29,29,0,0,1,29,57.86ZM13.16,40.75h0A19.38,19.38,0,0,0,23.7,43.38a19.72,19.72,0,0,0,14.42-6,18.86,18.86,0,0,0,5.33-13.75,6.56,6.56,0,0,0,1.83-2.52,15.37,15.37,0,0,1,.8-1.43l-.07,0A14,14,0,0,1,42.13,21c.78-.47,3.36-2.12,3.95-3.95A13.19,13.19,0,0,1,42,18.16l-1.15.2c-1.23-1.31-2-1.31-4-1.31a6.8,6.8,0,0,0-5.41,2.52A6.2,6.2,0,0,0,30.28,25a23.35,23.35,0,0,1-8.1-1.87,16.82,16.82,0,0,1-6.38-4.72c-1.64,2.81-.68,5.69,2.63,7.9h-.11c-.4,0-.81,0-1.21.1H17a11.16,11.16,0,0,1-1.41.11,2.37,2.37,0,0,1-1.14-.21,6.56,6.56,0,0,0,5.27,6.58,4.46,4.46,0,0,1-1.2.17,7.65,7.65,0,0,1-1.43-.17c.81,2.54,3.5,5.21,6.58,5.27A14.27,14.27,0,0,1,15,40.85a15.73,15.73,0,0,1-1.82-.1Z"/></g></g></svg>