<svg xmlns="http://www.w3.org/2000/svg" xmlns:xlink="http://www.w3.org/1999/xlink" width="1440" height="578" viewBox="0 0 1440 578">
  <defs>
    <clipPath id="clip-path">
      <rect id="Rectangle_2218" data-name="Rectangle 2218" width="1440" height="578" transform="translate(12567 -1646)" fill="#fff" stroke="#707070" stroke-width="1"/>
    </clipPath>
  </defs>
  <g id="Mask_Group_20" data-name="Mask Group 20" transform="translate(-12567 1646)" clip-path="url(#clip-path)">
    <path id="Path_675" data-name="Path 675" d="M11.8,0H1477.653V377.385h0c-30.524,3.98-43.035,11.624-54.979,19.007-12.108,7.483-24.626,15.221-55.668,19.269s-50.034.417-68.4-3.094c-18.118-3.463-36.853-7.047-67.38-3.067s-42.874,11.614-54.82,19c-12.106,7.483-24.625,15.222-55.665,19.268s-50.029.416-68.391-3.094c-18.119-3.464-36.851-7.044-67.377-3.067s-42.874,11.614-54.819,19c-12.106,7.484-24.625,15.221-55.665,19.268s-50.029.416-68.391-3.094c-18.118-3.464-36.853-7.046-67.377-3.067s-42.874,11.614-54.819,19c-12.106,7.483-24.625,15.221-55.665,19.268s-50.029.417-68.391-3.094c-18.118-3.464-36.853-7.046-67.374-3.067s-42.874,11.614-54.817,19c-12.106,7.483-24.623,15.221-55.664,19.268s-50.027.416-68.392-3.1c-18.118-3.464-36.853-7.045-67.374-3.067s-42.871,11.614-54.814,19c-12.107,7.483-24.623,15.221-55.66,19.267s-50.027.415-68.387-3.1c-18.115-3.464-36.85-7.047-67.369-3.067" transform="translate(12541.113 -1646)" fill="#88adc2"/>
  </g>
</svg>
