<svg xmlns="http://www.w3.org/2000/svg" viewBox="0 0 623.8 176.53"><defs><style>.cls-1{fill:#abc7d8;}</style></defs><g id="圖層_2" data-name="圖層 2"><g id="圖層_1-2" data-name="圖層 1"><path id="Path_695-2" data-name="Path 695-2" class="cls-1" d="M623.8,176.53H0V105.84H0c12.89-2.11,18.17-6.14,23.21-10s10.4-8,23.5-10.17,21.12-.22,28.88,1.63S91.14,91,104,88.89s18.1-6.13,23.14-10,10.4-8,23.5-10.17,21.12-.22,28.87,1.63S195.1,74.05,208,72s18.1-6.13,23.14-10,10.4-8,23.5-10.17,21.12-.22,28.87,1.63,15.56,3.72,28.44,1.62,18.1-6.13,23.15-10,10.39-8,23.49-10.17,21.12-.22,28.88,1.63S403,40.17,415.9,38.07s18.1-6.13,23.14-10,10.4-8,23.5-10.17,21.12-.22,28.87,1.63,15.56,3.72,28.45,1.62S538,15,543,11.11s10.39-8,23.49-10.17,21.12-.22,28.87,1.63,15.56,3.72,28.44,1.62Z"/></g></g></svg>