<svg id="圖層_1" data-name="圖層 1" xmlns="http://www.w3.org/2000/svg" xmlns:xlink="http://www.w3.org/1999/xlink" viewBox="0 0 1440 291"><defs><style>.cls-1,.cls-11,.cls-14,.cls-17,.cls-6,.cls-9{fill:none;}.cls-2{clip-path:url(#clip-path);}.cls-3{fill:#f886bc;}.cls-4{fill:#212237;}.cls-5{fill:#28364c;}.cls-6{stroke:#28364c;}.cls-11,.cls-14,.cls-6,.cls-9{stroke-miterlimit:10;stroke-width:0.75px;}.cls-7{fill:#fff;}.cls-8{fill:#0070e4;}.cls-9{stroke:#0b2e6b;}.cls-10{fill:#d8cac0;}.cls-11{stroke:#846a6a;}.cls-12{fill:#ffcbc2;}.cls-13{fill:#0f43aa;}.cls-14{stroke:#0f1d49;}.cls-15{fill:#2c79e8;}.cls-16{fill:#011e3b;}.cls-17{stroke:#e88872;stroke-linejoin:round;stroke-width:0.5px;}.cls-18{clip-path:url(#clip-path-2);}.cls-19{fill:#adcbdd;}</style><clipPath id="clip-path"><rect class="cls-1" y="-2.3" width="267.23" height="291"/></clipPath><clipPath id="clip-path-2"><rect class="cls-1" width="1440" height="291"/></clipPath></defs><g class="cls-2"><g id="Group_786" data-name="Group 786"><g id="Group_542" data-name="Group 542"><g id="Group_542-2" data-name="Group 542-2"><path id="Path_621" data-name="Path 621" class="cls-3" d="M53.64,178.68c.47,4.15,3.8,15.95,3.1,16.44s-1.92-3.64-2.41-3.13,1,7,.13,7.31c-1.13.42-2.26-6.31-2.26-6.31s.87,7.43-.21,7.51c-.76.06-1.69-5.58-2.32-7.69.39,2.37.56,6.29-.23,6.33s-1.5-3.78-2.21-6.69c.27,1.86.58,5.25-.15,5.33s-3.12-9.11-5-17.85"/><path id="Path_622" data-name="Path 622" class="cls-3" d="M40.14,121.76S33.42,133.69,32.45,141C30.06,159,45,189.59,45,189.59s10.87-3,10.87-4.33-7.58-33.47-7.58-33.47l10.87-25.08"/></g><g id="Group_545" data-name="Group 545"><path id="Path_623" data-name="Path 623" class="cls-3" d="M72.79,82.59,71.33,96s8.06,6.84,15.2-.82l-.88-8.86Z"/><path id="Path_624" data-name="Path 624" class="cls-3" d="M84,69.12s8.73,12,5.16,16.52C86.57,89,79.67,89.35,77.53,88c-.45-2.46-6.11-10.6-5.2-12.41C75.79,68.71,84,69.12,84,69.12Z"/><path id="Path_625" data-name="Path 625" class="cls-4" d="M70.45,71.2c.28-4.55,4.76-5.88,13.36-5.36,1.16.06,3.2-.72,3.74.31.7,1.34.82,4.06-.53,5.29a5,5,0,0,1-2.69,1.27c-1.56.36-3.15,1.85-2.32,3.48.22.43.73,1.15.41,1.5a4.21,4.21,0,0,1-.94.49c-.62.34-.58,1.28-.19,1.86s.21,1.24.6,1.82c.92,1.39-.17,3.94-1.6,4.79-1.27.75-5.42,2-8.46.43C69.2,85.71,67.62,82,67.59,75.31,67.59,72.74,69.49,71,70.45,71.2Z"/><path id="Path_626" data-name="Path 626" class="cls-3" d="M83.09,78.06c-1.42-1.8-2.57-1.51-3.2-.52-.83,1.31.84,4,1.62,4.52,1.59.94,2.87.84,3-.44"/><g id="Group_544" data-name="Group 544"><g id="Group_543" data-name="Group 543"><path id="Path_627" data-name="Path 627" class="cls-5" d="M86.58,75.31c.41.34.79,1,.56,1.4a.3.3,0,0,1-.32.18C85.91,76.8,85.74,74.6,86.58,75.31Z"/></g></g><path id="Path_628" data-name="Path 628" class="cls-6" d="M86.47,73.65a3.28,3.28,0,0,0-1.82,1.43"/><path id="Path_629" data-name="Path 629" class="cls-7" d="M86.49,81.72l2-1.06s1.31,2.45.38,3S86.49,81.72,86.49,81.72Z"/></g><g id="Group_548" data-name="Group 548"><path id="Path_634" data-name="Path 634" class="cls-8" d="M48.11,181.46s-4.91,10.23-1,29.8c-2,43.7-7.23,102.44-7.23,102.44l30-.1S76,250.45,79.67,219c4-35,6.58-78,6.58-78"/><path id="Path_635" data-name="Path 635" class="cls-9" d="M65.07,313.59s6.12-63.14,9.75-94.61"/><path id="Path_636" data-name="Path 636" class="cls-8" d="M105.4,183.42s3.19,46.07,3.19,68.17S110,313.7,110,313.7H79.68L68.4,209.14c-9.24-11.07-8.57-35.09-6.34-44.44l30.07-8.21Z"/><path id="Path_637" data-name="Path 637" class="cls-9" d="M74.59,266.55l-6.2-57.41a32.16,32.16,0,0,1-7.75-19.55"/><line id="Line_26" data-name="Line 26" class="cls-9" x1="99.07" y1="178.8" x2="106.25" y2="313.7"/><line id="Line_27" data-name="Line 27" class="cls-9" x1="79.15" y1="190.95" x2="64.42" y2="191.25"/><line id="Line_28" data-name="Line 28" class="cls-9" x1="53.92" y1="190.49" x2="48.32" y2="190.37"/></g><g id="Group_549" data-name="Group 549"><path id="Path_638" data-name="Path 638" class="cls-3" d="M131,113.25c4.11-4.65,15.14-22.34,16.38-22.06s-2.1,5.76-1,5.79,6.77-8,7.94-7.42c1.58.82-4.71,8.78-4.71,8.78S152,95,153.16,96.07c.83.79.39,2.45-1.31,5.24,1.14-1.43,2.22-1.68,3.06-.85s0,2.36-1,3.9c.81-1,2-1.52,2.29-.47.4,1.38-2.94,8.52-10.84,20.16"/><path id="Path_639" data-name="Path 639" class="cls-10" d="M71.48,94.67s-17.38.73-22.59,20.5C46.54,124.09,45,185.24,45,185.24l63.49-.43s-.84-55.27-2.26-67.24c-2.6-21.88-19.82-23.24-19.82-23.24s-.79,1.93-7.51,1.93S71.48,94.67,71.48,94.67Z"/><path id="Path_640" data-name="Path 640" class="cls-10" d="M71.48,94.67C50.85,94.67,38.15,123,38.15,123l13,6.51"/><path id="Path_641" data-name="Path 641" class="cls-3" d="M98.72,134.87s11,15.83,19.89,16.69c12,1.16,33.19-38.6,33.19-38.6l-13.4-9.06L120,127l-6.26-9.36"/><path id="Path_642" data-name="Path 642" class="cls-10" d="M86.44,94.33c17.75,1,30.75,27.43,30.75,27.43L96.4,136.68,84.6,121.29"/><line id="Line_29" data-name="Line 29" class="cls-11" x1="97.13" y1="136.16" x2="87.08" y2="123.08"/><path id="Path_643" data-name="Path 643" class="cls-11" d="M47.14,127.52a75.42,75.42,0,0,1,4-15.43"/></g><path id="Path_644" data-name="Path 644" class="cls-3" d="M87.33,76.32s2.86,1.38,2.72,1.9a10.12,10.12,0,0,1-1,1.79"/></g><g id="Group_543-2" data-name="Group 543-2"><g id="Group_551" data-name="Group 551"><path id="Path_645" data-name="Path 645" class="cls-12" d="M131.48,144.08s-4.52,10.27-5.69,18,9.53,29.41,9.53,29.41l9.15-5.38s-2.79-16.19-2.79-22,5.25-13.78,5.25-13.78"/><path id="Path_646" data-name="Path 646" class="cls-12" d="M144,184.87c1.18,3.56,6.28,13.31,5.75,13.88s-2.36-2.85-2.7-2.3,2.13,6,1.46,6.4c-.91.57-3.15-5.13-3.15-5.13s2.14,6.36,1.2,6.63c-.66.19-2.52-4.6-3.46-6.33.78,2,1.65,5.43,1,5.61s-2-3-3.17-5.47c.58,1.58,1.48,4.5.85,4.7s-4.42-7.43-7.7-14.76"/></g><g id="Group_554" data-name="Group 554"><g id="Group_552" data-name="Group 552"><path id="Path_647" data-name="Path 647" class="cls-12" d="M150.16,230.67c1.1,25.76-6,90.22-6,90.22l7.95,5.07s-24.48,1.14-25.19.42.9-5.62.9-5.62-.71-76.14-1.42-87.42S149.05,204.91,150.16,230.67Z"/></g><g id="Group_553" data-name="Group 553"><path id="Path_649" data-name="Path 649" class="cls-12" d="M182.83,235.07c1.76,36.2,1.11,85.79,1.11,85.79l7.94,5.09s-24.48,1.06-25.19.34.92-5.62.92-5.62-6.81-62.84-9.25-86.34S181.06,198.87,182.83,235.07Z"/></g><path id="Path_651" data-name="Path 651" class="cls-13" d="M138.49,176c-2.1,1.45-6.82,8.15-8.77,14.73-4.6,15.47-4.66,49.66-4.66,49.66h59s-.35-32.86-2.64-47.17A44.71,44.71,0,0,0,174.82,176"/><path id="Path_652" data-name="Path 652" class="cls-14" d="M171.51,175.55c1.77,1.5,4.75,7,5.59,13.32,2.85,21.21,2.25,51.5,2.25,51.5"/></g><g id="Group_555" data-name="Group 555"><path id="Path_653" data-name="Path 653" class="cls-15" d="M152.9,122.45c-17.66,1.13-23.51,23.19-23.51,23.19l12.48,8.62"/><line id="Line_32" data-name="Line 32" class="cls-14" x1="136.53" y1="146.95" x2="130.33" y2="142.81"/><path id="Path_654" data-name="Path 654" class="cls-12" d="M185.06,133s13.18,10.16,15.29,10.21,19.19-15.81,19.19-15.81l8.94,10.43s-17.93,24.45-27.55,24.45c-12.77,0-26.35-14-26.35-14"/><path id="Path_655" data-name="Path 655" class="cls-15" d="M165.91,122.49s-2,1.56-6,1.09a55.84,55.84,0,0,1-7.15-1.31c0,.1-15.93,7.38-16.44,16.58-.57,10.26-.53,16.36,2.14,37.19h36.36s5.66-25.49,5.66-35.26S165.91,122.49,165.91,122.49Z"/><path id="Path_656" data-name="Path 656" class="cls-15" d="M165.91,122.49a21.26,21.26,0,0,1,10,2.39,70.69,70.69,0,0,1,14.66,11.63L180,155.21l-11.12-7.86"/><path id="Path_657" data-name="Path 657" class="cls-14" d="M136,150.22a64.49,64.49,0,0,1,1-14.48"/><line id="Line_33" data-name="Line 33" class="cls-14" x1="187.93" y1="133.88" x2="177.1" y2="153.6"/><line id="Line_34" data-name="Line 34" class="cls-14" x1="178.91" y1="154.88" x2="169.61" y2="148.28"/><path id="Path_658" data-name="Path 658" class="cls-12" d="M213,133.33s15-13.9,16-13.58-1.73,3-.92,3.12,6.79-6.19,7.63-5.62c1.15.78-4,6-4,6s1.37-.92,2.16,0c.57.68-1,2.79-1,2.79s1.57-1,2.14-.32-.83,2.85-.83,2.85,1.12-.82,1.49-.06c.58,1.22-6.85,9.91-13.76,17.55"/></g><g id="Group_558" data-name="Group 558"><path id="Path_659" data-name="Path 659" class="cls-12" d="M153.66,113.11l-1.35,10.12s6.59,6.79,13.6-.73l.39-5.68Z"/><path id="Path_660" data-name="Path 660" class="cls-12" d="M164.71,99.87s9.52,10.76,6,15.21c-1.81,2.31-9.62,5.14-12.43,3.38-2.09-1.3-6-10.41-5.12-12.19C156.61,99.47,164.71,99.87,164.71,99.87Z"/><path id="Path_661" data-name="Path 661" class="cls-16" d="M164.28,101.82c.59,6.27-1.26,9.46-1.26,9.46s4.14,13.1,3.24,14.35-14.31,3.19-20.83.4c0,0-1-19.8,4.95-24.83,5.69-4.78,13.06-4.35,17.08-1.85a3.24,3.24,0,0,1-1.81,1.82l-1.51.67"/><path id="Path_662" data-name="Path 662" class="cls-12" d="M164.3,109.68c-1.16-1.47-2.1-1.23-2.61-.43-.69,1.08.69,3.33,1.33,3.7,1.3.78,2.34.7,2.44-.35"/><path id="Path_663" data-name="Path 663" class="cls-17" d="M166.26,117.79a1.93,1.93,0,0,1-1.81-1.15"/><g id="Group_557" data-name="Group 557"><g id="Group_556" data-name="Group 556"><path id="Path_664" data-name="Path 664" class="cls-5" d="M167.21,106c.4.33.78.94.56,1.38a.31.31,0,0,1-.32.17C166.55,107.41,166.38,105.26,167.21,106Z"/></g></g><path id="Path_665" data-name="Path 665" class="cls-6" d="M167.1,104.32a3.32,3.32,0,0,0-1.79,1.4"/><path id="Path_666" data-name="Path 666" class="cls-7" d="M168.28,110.82l2-1s1.28,2.4.37,2.91S168.28,110.82,168.28,110.82Z"/><path id="Path_667" data-name="Path 667" class="cls-16" d="M153.72,99.35a2,2,0,0,0,1.4-2,2.56,2.56,0,0,0-1.36-2.08,3.47,3.47,0,0,0-2.53-.21,2.42,2.42,0,0,0-1.82,2.9,2.37,2.37,0,0,0,.63,1.15,2.29,2.29,0,0,0,1.29,1,1.26,1.26,0,0,0,1.42-.58"/></g></g></g></g><g id="圖層_2" data-name="圖層 2"><g id="圖層_1-2" data-name="圖層 1-2"><g class="cls-18"><g id="Mask_Group_20" data-name="Mask Group 20"><path id="Path_620" data-name="Path 620" class="cls-19" d="M1518.2,1009.4H-101.4l-25.7-706.8h0c33.7-6,47.6-17.5,60.8-28.7,13.4-11.3,27.2-23,61.5-29.1s55.3-.6,75.6,4.7c20,5.2,40.7,10.6,74.5,4.6s47.4-17.5,60.6-28.7c13.4-11.3,27.2-23,61.5-29.1s55.3-.6,75.6,4.7c20,5.2,40.7,10.6,74.4,4.6s47.4-17.5,60.6-28.7c13.4-11.3,27.2-23,61.5-29.1s55.3-.6,75.6,4.7c20,5.2,40.7,10.6,74.4,4.6s47.4-17.5,60.6-28.7c13.4-11.3,27.2-23,61.5-29.1s55.3-.6,75.6,4.7c20,5.2,40.7,10.6,74.4,4.6s47.4-17.5,60.6-28.7c13.4-11.3,27.2-23,61.5-29.1s55.3-.6,75.6,4.7c20,5.2,40.7,10.6,74.4,4.6s47.4-17.5,60.6-28.7c13.4-11.3,27.2-23,61.5-29.1s55.3-.6,75.6,4.7c20,5.2,40.7,10.6,74.4,4.6"/></g></g></g></g></svg>