<svg id="圖層_1" data-name="圖層 1" xmlns="http://www.w3.org/2000/svg" xmlns:xlink="http://www.w3.org/1999/xlink" viewBox="0 0 1440 291"><defs><style>.cls-1{fill:none;}.cls-2{clip-path:url(#clip-path);}.cls-3{fill:#88adc2;}</style><clipPath id="clip-path"><rect class="cls-1" width="1440" height="291"/></clipPath></defs><g id="圖層_2" data-name="圖層 2"><g id="圖層_1-2" data-name="圖層 1-2"><g class="cls-2"><g id="Mask_Group_20" data-name="Mask Group 20"><path id="Path_620" data-name="Path 620" class="cls-3" d="M1518.2,1009.4H-101.4l-25.7-706.8h0c33.7-6,47.6-17.5,60.8-28.7,13.4-11.3,27.2-23,61.5-29.1s55.3-.6,75.6,4.7c20,5.2,40.7,10.6,74.5,4.6s47.4-17.5,60.6-28.7c13.4-11.3,27.2-23,61.5-29.1s55.3-.6,75.6,4.7c20,5.2,40.7,10.6,74.4,4.6s47.4-17.5,60.6-28.7c13.4-11.3,27.2-23,61.5-29.1s55.3-.6,75.6,4.7c20,5.2,40.7,10.6,74.4,4.6s47.4-17.5,60.6-28.7c13.4-11.3,27.2-23,61.5-29.1s55.3-.6,75.6,4.7c20,5.2,40.7,10.6,74.4,4.6s47.4-17.5,60.6-28.7c13.4-11.3,27.2-23,61.5-29.1s55.3-.6,75.6,4.7c20,5.2,40.7,10.6,74.4,4.6s47.4-17.5,60.6-28.7c13.4-11.3,27.2-23,61.5-29.1s55.3-.6,75.6,4.7c20,5.2,40.7,10.6,74.4,4.6"/></g></g></g></g></svg>