<svg xmlns="http://www.w3.org/2000/svg" viewBox="0 0 58.06 57.93"><defs><style>.cls-1{fill:#3db9b7;}</style></defs><g id="圖層_2" data-name="圖層 2"><g id="圖層_1-2" data-name="圖層 1"><path class="cls-1" d="M44.77,25c0-1.65-.92-3.67-1.32-5.26a7.85,7.85,0,0,0-2.63-3.95,5.87,5.87,0,0,0-4-1.32c-2.46-.15-5.16,0-7.9,0s-5.45-.15-7.9,0a5.84,5.84,0,0,0-3.95,1.32,7.81,7.81,0,0,0-2.64,3.95c-.4,1.59,0,3.61,0,5.26,0,1.3,0,2.4,0,3.95s0,2.66,0,3.95c0,1.66-.4,3.68,0,5.27a7.81,7.81,0,0,0,2.64,4,5.84,5.84,0,0,0,3.95,1.32c2.45.15,5.16,0,7.9,0s5.44.15,7.9,0a5.87,5.87,0,0,0,4-1.32,7.85,7.85,0,0,0,2.63-4c.4-1.59,1.29-3.62,1.32-5.27,0-1.29,0-2.4,0-3.95S44.78,26.31,44.77,25ZM29,38.18h0c-4.8,0-7.9-4.42-7.9-9.21s3.1-9.22,7.9-9.22A9.61,9.61,0,0,1,38.18,29,9.6,9.6,0,0,1,29,38.18ZM39.5,21.07c-1.16,0-2.64-.17-2.64-1.32a3.14,3.14,0,0,1,2.64-2.63c1.15,0,1.31,1.47,1.31,2.63S40.65,21.07,39.5,21.07Z"/><path class="cls-1" d="M29,22.38c-3.27,0-5.27,3.32-5.27,6.58a4.87,4.87,0,0,0,4.44,5.27,5.75,5.75,0,0,0,.83,0c3.26,0,6.58-2,6.58-5.26A7.13,7.13,0,0,0,29,22.38Z"/><path class="cls-1" d="M29,0h-.11A28.92,28.92,0,0,0,0,29,28.5,28.5,0,0,0,9.22,50,29,29,0,1,0,29,0ZM47.4,32.92a35.2,35.2,0,0,1-1.32,6.58c-.56,2.19-1,4-2.63,5.26s-4.29,1.18-6.59,1.32-5.23,0-7.89,0-5.39.15-7.9,0c-2.3-.14-3.6.05-5.27-1.32s-3.39-3.07-4-5.26c-.49-1.91,0-4.77,0-6.59,0-1.3,0-2.38,0-3.95s0-2.64,0-3.95c0-1.81-.49-4.67,0-6.58.56-2.19,2.34-3.95,4-5.26s3-1.18,5.27-1.32c2.51-.15,5.1-1.32,7.9-1.32s5.38,1.17,7.89,1.32c2.3.14,4.91,0,6.59,1.32s2.07,3.07,2.63,5.26A35.14,35.14,0,0,1,47.4,25c0,1.3,0,2.38,0,3.95S47.41,31.61,47.4,32.92Z"/></g></g></svg>