<svg id="date_range-24px" xmlns="http://www.w3.org/2000/svg" width="13.016" height="13.016" viewBox="0 0 13.016 13.016">
  <path id="Path_15" data-name="Path 15" d="M0,0H13.016V13.016H0Z" fill="none"/>
  <path id="Path_16" data-name="Path 16" d="M6.866,7.432H5.577V8.639H6.866Zm2.577,0H8.155V8.639H9.443Zm2.577,0H10.732V8.639H12.02Zm1.289-4.225h-.644V2H11.376V3.207H6.222V2H4.933V3.207H4.289A1.244,1.244,0,0,0,3.006,4.414L3,12.863a1.249,1.249,0,0,0,1.289,1.207h9.02A1.254,1.254,0,0,0,14.6,12.863V4.414A1.254,1.254,0,0,0,13.309,3.207Zm0,9.656H4.289V6.225h9.02Z" transform="translate(-2.291 -1.527)" fill="#fff"/>
</svg>
