<svg xmlns="http://www.w3.org/2000/svg" xmlns:xlink="http://www.w3.org/1999/xlink" width="574.417" height="645.283" viewBox="0 0 574.417 645.283">
  <defs>
    <clipPath id="clip-path">
      <path id="Path_600" data-name="Path 600" d="M311.37,312.938c-14.466-1.752-24.505-16.665-22.444-33.1s15.473-28.358,29.937-26.544a24.246,24.246,0,0,1,15.292,8.363,3.729,3.729,0,0,0,6.451-2l4.97-39.555a15.285,15.285,0,0,0-13.253-17.025L200.71,186.5a15.275,15.275,0,0,0-17.085,13.218l0,.029L167.109,331.367a15.271,15.271,0,0,0,13.2,17.093l.046.006,40.211,4.97a3.727,3.727,0,0,0,3.455-5.85,24.379,24.379,0,0,1-4.795-17.609c1.814-14.464,16.638-24.505,33.115-22.441s28.347,15.471,26.531,29.937a24.491,24.491,0,0,1-9.01,15.968,3.728,3.728,0,0,0,1.889,6.511l40.213,5.059a15.287,15.287,0,0,0,17.05-13.284l4.97-39.568a3.728,3.728,0,0,0-5.754-3.516,24.2,24.2,0,0,1-16.862,4.3Z" transform="translate(-166.982 -186.371)" fill="none"/>
    </clipPath>
    <filter id="一同參與" x="351" y="295" width="221" height="66" filterUnits="userSpaceOnUse">
      <feOffset dy="3" input="SourceAlpha"/>
      <feGaussianBlur stdDeviation="3" result="blur"/>
      <feFlood flood-opacity="0.161"/>
      <feComposite operator="in" in2="blur"/>
      <feComposite in="SourceGraphic"/>
    </filter>
  </defs>
  <g id="Group_780" data-name="Group 780" transform="translate(-44 -2219)">
    <g id="Group_497" data-name="Group 497" transform="translate(918.244 3202.829) rotate(170)">
      <path id="Path_90" data-name="Path 90" d="M419.2,658.727c27.073,5.138,55.5,1.216,81.041-9.261s65.681-42.451,82.727-79.025c-76.329-17.829-137.336,27.708-162.233,62.195" transform="translate(1.131 0)" fill="#e1ecf8"/>
      <path id="Path_91" data-name="Path 91" d="M581.758,568.975s-58.66,78-160.583,81.465" transform="translate(2.273 1.464)" fill="none" stroke="#fff" stroke-linejoin="round" stroke-width="1.5"/>
      <path id="Path_92" data-name="Path 92" d="M582.472,568.975s-80.3,53.648-162.533,68.792" transform="translate(1.559 1.464)" fill="none" stroke="#fff" stroke-linejoin="round" stroke-width="1.5"/>
      <path id="Path_93" data-name="Path 93" d="M584.033,568.975s-95.487,14.757-166.794,68.792" transform="translate(0 1.464)" fill="none" stroke="#fff" stroke-linejoin="round" stroke-width="1.5"/>
    </g>
    <g id="Group_491" data-name="Group 491" transform="translate(269.911 2242.527)">
      <path id="Path_170" data-name="Path 170" d="M314.365,366.507a18.524,18.524,0,0,1-2.037-.125l-40.213-5.007a4.634,4.634,0,0,1-2.374-8.165,23.163,23.163,0,0,0,3.9-32.524q-.668-.852-1.413-1.637a31.153,31.153,0,0,0-19.548-10,34.182,34.182,0,0,0-4.175-.275c-14.341,0-26.331,9.419-27.9,21.9a23.6,23.6,0,0,0,4.618,16.935,4.537,4.537,0,0,1,.41,4.809,4.6,4.6,0,0,1-4.113,2.561,4.953,4.953,0,0,1-.609,0L180.7,349.918a16.155,16.155,0,0,1-14.025-18.034l.021-.158,16.54-131.612A16.229,16.229,0,0,1,199.3,185.923a18.526,18.526,0,0,1,2.039.125L332.964,202.6a16.153,16.153,0,0,1,14.066,18l-.013.106-4.972,39.553a4.609,4.609,0,0,1-4.618,4.063,4.5,4.5,0,0,1-3.443-1.577,23.155,23.155,0,0,0-14.713-8.04,21.26,21.26,0,0,0-2.819-.175c-13.012,0-24.224,11.187-26.1,25.9-2,15.932,7.691,30.321,21.622,32.073a23.009,23.009,0,0,0,16.267-4.15,4.537,4.537,0,0,1,2.584-.822,4.717,4.717,0,0,1,3.505,1.591,4.558,4.558,0,0,1,1.1,3.64l-4.97,39.555A16.231,16.231,0,0,1,314.365,366.507Z" transform="translate(0.496 0.486)" fill="#f3b4ba"/>
      <path id="Path_171" data-name="Path 171" d="M199.749,187.341a14.564,14.564,0,0,1,1.926.125l131.61,16.577a15.285,15.285,0,0,1,13.261,17.062l-4.972,39.553a3.728,3.728,0,0,1-3.728,3.256,3.61,3.61,0,0,1-2.746-1.242,24.259,24.259,0,0,0-15.294-8.365,23.393,23.393,0,0,0-2.931-.173c-13.3,0-25.067,11.358-27,26.718-2.039,16.39,8,31.3,22.466,33.055a23.062,23.062,0,0,0,2.908.185,24.542,24.542,0,0,0,13.981-4.423,3.59,3.59,0,0,1,2.061-.659,3.727,3.727,0,0,1,3.755,3.7,3.646,3.646,0,0,1-.027.474l-4.97,39.568a15.294,15.294,0,0,1-15.148,13.37,14.2,14.2,0,0,1-1.926-.125l-40.213-5.057a3.728,3.728,0,0,1-1.926-6.536,24.5,24.5,0,0,0,9.009-15.88c1.814-14.466-10.066-27.863-26.531-29.937a35.809,35.809,0,0,0-4.3-.272c-14.689,0-27.166,9.517-28.817,22.714a24.38,24.38,0,0,0,4.8,17.609,3.729,3.729,0,0,1-2.958,5.879h-.5l-40.217-5.086a15.274,15.274,0,0,1-13.247-17.06v0l16.515-131.662a15.271,15.271,0,0,1,15.136-13.37m0-1.864h0a17.161,17.161,0,0,0-16.989,15.011L166.222,332.1a17.159,17.159,0,0,0,14.909,19.148h0l40.225,5.047a4.6,4.6,0,0,0,.718,0,5.567,5.567,0,0,0,4.462-8.847,22.691,22.691,0,0,1-4.462-16.28c1.516-12.017,13.112-21.125,26.978-21.125a32.012,32.012,0,0,1,4.065.26,30.2,30.2,0,0,1,18.963,9.706,22.219,22.219,0,0,1-.761,31.414c-.518.493-1.061.963-1.625,1.4a5.42,5.42,0,0,0-1.816,5.816,5.48,5.48,0,0,0,4.66,3.988l40.213,5.059a18.089,18.089,0,0,0,2.151.135,17.149,17.149,0,0,0,16.935-14.911l4.97-39.555a5.4,5.4,0,0,0-1.333-4.362,5.594,5.594,0,0,0-4.2-1.914,5.456,5.456,0,0,0-3.12.982,22.707,22.707,0,0,1-12.922,4.163,21.431,21.431,0,0,1-2.686-.162C299.14,310.374,289.8,296.455,291.733,281c1.8-14.3,12.615-25.077,25.152-25.077a21.637,21.637,0,0,1,2.7.162,22.218,22.218,0,0,1,14.116,7.753,5.437,5.437,0,0,0,4.152,1.9,5.617,5.617,0,0,0,5.554-4.884l4.97-39.553a17.159,17.159,0,0,0-14.909-19.148h0L201.9,185.608a18.33,18.33,0,0,0-2.161-.135Z" transform="translate(0 0)" fill="#fff"/>
      <g id="Group_490" data-name="Group 490" transform="translate(167.947 187.341)">
        <g id="Group_489" data-name="Group 489" clip-path="url(#clip-path)">
          <g id="Group_338" data-name="Group 338" transform="translate(-59.459 -60.691)">
            <g id="Group_337" data-name="Group 337" opacity="0.25">
              <circle id="Ellipse_19" data-name="Ellipse 19" cx="75.629" cy="75.629" r="75.629" fill="none" stroke="#fff" stroke-miterlimit="10" stroke-width="11"/>
              <circle id="Ellipse_20" data-name="Ellipse 20" cx="51.533" cy="51.533" r="51.533" transform="translate(22.504 22.517)" fill="none" stroke="#fff" stroke-miterlimit="10" stroke-width="11"/>
              <circle id="Ellipse_21" data-name="Ellipse 21" cx="25.015" cy="25.015" r="25.015" transform="translate(50.614 50.614)" fill="none" stroke="#fff" stroke-miterlimit="10" stroke-width="11"/>
            </g>
          </g>
        </g>
      </g>
    </g>
    <g id="Group_498" data-name="Group 498" transform="translate(571.648 3369.568) rotate(-162)">
      <path id="Path_90-2" data-name="Path 90" d="M419.2,662.818c28.273,5.366,57.964,1.27,84.634-9.672s68.593-44.334,86.4-82.529C510.514,552,446.8,599.554,420.8,635.57" transform="translate(1.268 0)" fill="#c2d2ec"/>
      <path id="Path_91-2" data-name="Path 91" d="M588.878,568.975s-61.261,81.456-167.7,85.077" transform="translate(2.548 1.641)" fill="none" stroke="#fff" stroke-linejoin="round" stroke-width="1.5"/>
      <path id="Path_92-2" data-name="Path 92" d="M589.678,568.975S505.822,625,419.939,640.817" transform="translate(1.748 1.641)" fill="none" stroke="#fff" stroke-linejoin="round" stroke-width="1.5"/>
      <path id="Path_93-2" data-name="Path 93" d="M591.428,568.975s-99.721,15.412-174.189,71.842" transform="translate(0 1.641)" fill="none" stroke="#fff" stroke-linejoin="round" stroke-width="1.5"/>
    </g>
    <text id="_3" data-name="3" transform="translate(469.424 2494.32)" fill="#fff" font-size="210" font-family="TaipeiSansTCBeta-Bold, Taipei Sans TC Beta" font-weight="700" letter-spacing="0.08em"><tspan x="0" y="0">3</tspan></text>
    <g id="Group_493" data-name="Group 493" transform="translate(-276.583 2191.392)">
      <g id="Group_333" data-name="Group 333" transform="translate(320.583 27.609)">
        <path id="Path_72" data-name="Path 72" d="M468.23,360.825c-1.959-7.977-20.48-19.6-30.379-12.6-3.037-15.174-5.88-24.64-15.8-32.116s-26.487,2.325-29.079,22.779c-2.646-8.4-16.187-19.751-27.047-10.19-10.052,8.847-11.059,23.672-10.009,32.2Z" transform="translate(-355.583 -313.609)" fill="#c2d2ec"/>
      </g>
      <g id="Group_334" data-name="Group 334" transform="translate(681.946 412.137)">
        <path id="Path_73" data-name="Path 73" d="M530.946,405.185c-3.065-7.546-8.847-11.591-15.692-12.348-8.624-.965-17.373,3.991-17.373,3.991s3.248-12.458-1.165-22.259c-2.995-6.691-7.783-12.979-14.417-14.628-6.876-1.708-14.169,1.638-19.292,7s-8.4,12.334-11.369,19.346c-1.526-4.982-3.541-10.555-8.034-12.4s-10.026,1.4-12.461,6.119-2.564,10.443-2.226,15.861c-5.39-3.236-12.264-4.2-17.668-.952a14.371,14.371,0,0,0-6.44,10.333Z" transform="translate(-404.809 -359.491)" fill="#c2d2ec"/>
      </g>
    </g>
    <g id="Group_488" data-name="Group 488" transform="translate(319 2454.828)">
      <path id="Path_284" data-name="Path 284" d="M73.257,229.3s-.988,43.523-3.648,58.477C66.618,304.526,41.7,338.3,41.7,338.3l5.772,5.712,8.552,4.077S77.841,327.258,90.1,301.177C100.761,278.559,101.23,231.6,101.23,231.6" transform="translate(-34.679 -77.641)" fill="#e7b6df"/>
      <path id="Path_285" data-name="Path 285" d="M69.87,318.941a4.291,4.291,0,0,0,0-2.86L60.977,303c-8.5-1.564-15.95-9.23-15.95-9.23L37.591,302a.657.657,0,0,0,.209.9l29.906,18.855C68.395,322.142,69.86,318.971,69.87,318.941Z" transform="translate(-37.491 -34.526)" fill="#0a244b"/>
      <path id="Path_286" data-name="Path 286" d="M54.4,300.628a17.024,17.024,0,0,0-3.59,1.8" transform="translate(-28.583 -29.941)" fill="none" stroke="#002b6e" stroke-linejoin="round" stroke-width="0.75"/>
      <path id="Path_287" data-name="Path 287" d="M54.734,301.77a15.741,15.741,0,0,0-2.99,1.564" transform="translate(-27.96 -29.177)" fill="none" stroke="#002b6e" stroke-linejoin="round" stroke-width="0.75"/>
      <path id="Path_288" data-name="Path 288" d="M55.172,302.672a20.5,20.5,0,0,0-2.77,1.415" transform="translate(-27.52 -28.574)" fill="none" stroke="#002b6e" stroke-linejoin="round" stroke-width="0.75"/>
      <line id="Line_4" data-name="Line 4" x2="30.664" y2="19.309" transform="translate(1.236 266.142)" fill="none" stroke="#002b6e" stroke-linejoin="round" stroke-width="0.75"/>
      <path id="Path_289" data-name="Path 289" d="M40.466,295.521s7.081,4.724,4.985,9.44" transform="translate(-35.502 -33.356)" fill="none" stroke="#002b6e" stroke-linejoin="round" stroke-width="0.75"/>
      <path id="Path_290" data-name="Path 290" d="M57.81,305.563a27.763,27.763,0,0,0-4.985,2.6" transform="translate(-27.237 -26.64)" fill="none" stroke="#002b6e" stroke-linejoin="round" stroke-width="0.75"/>
      <path id="Path_291" data-name="Path 291" d="M79.785,247.378s1.674,25.46,2.83,44.93,3.439,63.918,3.439,63.918l8.424,1.994,9.35-1.555s2.423-38.38,2.423-63.8c0-26.3-1-63.565-1-63.565" transform="translate(-9.207 -77.642)" fill="#e7b6df"/>
      <path id="Path_298" data-name="Path 298" d="M92.47,153.909c-4.566-1-8.9,1.992-10.965,5.193-.639,1-1.136,2.1-1.856,3.061-4.556,5.981-22.927,4.157-19.279,16.018.419,1.367,1.217,2.635,1.335,4.048.15,1.784-.786,3.449-1.275,5.163a11.054,11.054,0,0,0,7.975,13.3c2.542.539,5.363.18,7.564,1.565,1.994,1.295,2.99,3.748,4.427,5.68,3.987,5.3,11.842,6.35,18.063,4.087,2.353-.856,4.706-2.261,5.712-4.556.576-1.3.668-2.81,1.415-3.987,1.435-2.353,4.626-2.742,6.977-4.107,3.439-1.994,5.454-6.55,3.888-10.258s-4.985-7.286-5.762-11.363c-.431-2.263.189-4.636-.27-6.9a7.365,7.365,0,0,0-2.642-4.3c-.916-.741-1.993-1.235-2.92-1.992-1.924-1.565-2.173-4.387-4.147-5.983s-4.606-2.139-6.728-3.518" transform="translate(-22.509 -128.191)" fill="#fdd499"/>
      <path id="Path_299" data-name="Path 299" d="M84.415,186.471C96,183.231,113,183.908,126.563,170.521s19.409-23.656,19.409-23.656l10.456,8.244S142.7,181.435,130.51,190.288c-16.089,11.635-27.016,13.439-36.256,15.1" transform="translate(-6.11 -132.771)" fill="#e7b6df"/>
      <path id="Path_300" data-name="Path 300" d="M119.57,156.89c2.86-4.377,9.769-16.946,10.737-16.778s-1.247,4.527-.439,4.486,4.684-6.56,5.612-6.161c1.257.529-3.061,6.979-3.061,6.979s1.126-1.153,2.083-.379c.677.557-.139,2.512-.139,2.512s1.3-1.3,1.994-.708-.24,2.91-.24,2.91a1.686,1.686,0,0,1,1.635,0c.659.519-2.732,8.324-9.051,18.451" transform="translate(17.4 -138.419)" fill="#e7b6df"/>
      <path id="Path_301" data-name="Path 301" d="M125.375,143.144a24.95,24.95,0,0,0,0,3.836,6.428,6.428,0,0,1-.459,3.778" transform="translate(20.975 -135.26)" fill="none" stroke="#aa1f6f" stroke-linejoin="round" stroke-width="0.75"/>
      <path id="Path_302" data-name="Path 302" d="M127.674,142.941c-.269.728-.529,1.475-.748,2.223a10.843,10.843,0,0,0-.269,1.126,2.632,2.632,0,0,0-.07,1.07c.06.17.06.18.189.18a.773.773,0,0,0,.412-.14,4.656,4.656,0,0,0,.848-.708,19.11,19.11,0,0,0,1.465-1.756.33.33,0,0,1,.569.334l-.01.015h0c-.36.669-.7,1.367-1,2.064a11.138,11.138,0,0,0-.369,1.056,2.386,2.386,0,0,0-.14,1c.05.11,0,.06.082.083a.582.582,0,0,0,.36-.083,2.771,2.771,0,0,0,.808-.637,10.863,10.863,0,0,0,1.335-1.794h0a.324.324,0,0,1,.567.309c-.3.627-.607,1.267-.866,1.914a7.941,7.941,0,0,0-.607,1.994.815.815,0,0,0,0,.411c0,.083.1.11.247.09a2.228,2.228,0,0,0,.823-.529,12.37,12.37,0,0,0,1.385-1.584,10.054,10.054,0,0,1-1.215,1.754,2.371,2.371,0,0,1-.906.688.726.726,0,0,1-.359,0,.478.478,0,0,1-.319-.247,1.235,1.235,0,0,1-.11-.629,8.318,8.318,0,0,1,.509-2.133,19.985,19.985,0,0,1,.808-1.992l.567.3a10.616,10.616,0,0,1-1.4,1.994,3.535,3.535,0,0,1-1,.808,1.316,1.316,0,0,1-.758.159.758.758,0,0,1-.469-.2.844.844,0,0,1-.239-.439,2.715,2.715,0,0,1,.149-1.335,10.143,10.143,0,0,1,.431-1.116,22.7,22.7,0,0,1,1.056-2.114l.557.359a13.461,13.461,0,0,1-1.6,1.794,5.083,5.083,0,0,1-1,.741,1.294,1.294,0,0,1-.7.16.577.577,0,0,1-.419-.189.727.727,0,0,1-.169-.369,5.328,5.328,0,0,1,.527-2.383A23.1,23.1,0,0,1,127.674,142.941Z" transform="translate(21.777 -135.396)" fill="#aa1f6f"/>
      <path id="Path_303" data-name="Path 303" d="M78.768,156.56c-.549-.3-1.277-.209-1.746-.619a2.565,2.565,0,0,1-.459-2.777c.529-1.457,2.4-2.094,3.828-1.884,3.409.507,2.882,3.786.8,4.985" transform="translate(-11.508 -129.845)" fill="#fdd499"/>
      <path id="Path_304" data-name="Path 304" d="M73.288,204.087s-12.232,13.05-14.563,30.824-2.363,46.7-2.363,46.7,35.241,6.46,67.289-.688c-1.227-14.784,0-56.144-11.186-76.838" transform="translate(-24.871 -94.504)" fill="#0c3d59"/>
      <path id="Path_305" data-name="Path 305" d="M60.261,284.372s-1.106-44.639,4.077-59.713C68.4,212.827,77.3,201.393,77.3,201.393" transform="translate(-22.33 -96.305)" fill="none" stroke="#354e90" stroke-miterlimit="10" stroke-width="0.75"/>
      <path id="Path_306" data-name="Path 306" d="M105.75,168.633l4.177,19.938a59.659,59.659,0,0,1-16.618,3.788c-4.556-.083-11.453-17.814-8.851-21.223C92.064,168.853,105.75,168.633,105.75,168.633Z" transform="translate(-6.462 -118.214)" fill="#175fab"/>
      <path id="Path_307" data-name="Path 307" d="M66.039,190.264s-.547,23.328.848,36.815c19.678,4.357,39.178,0,39.178,0l1.355-21.193c9.831-10.089,1.217-23.157,1.217-23.157L96.464,170.385l-12.172-.678Z" transform="translate(-18.47 -117.496)" fill="#175fab"/>
      <path id="Path_308" data-name="Path 308" d="M88.556,169.765s-10.815-1.716-21.273,6.887c-2.361,1.934-5.293,5.981-7.725,10.877l16.868,11.1,9.968-11.1" transform="translate(-22.734 -117.55)" fill="#175fab"/>
      <path id="Path_309" data-name="Path 309" d="M94.647,186.746c-.823-3.121-3.129-8.033-3.129-11.032" transform="translate(-1.36 -113.478)" fill="none" stroke="#002b6e" stroke-linejoin="round" stroke-width="0.75"/>
      <line id="Line_6" data-name="Line 6" x2="4.765" y2="20.725" transform="translate(96.108 50.529)" fill="none" stroke="#002b6e" stroke-linejoin="round" stroke-width="0.75"/>
      <line id="Line_7" data-name="Line 7" x2="12.222" y2="7.596" transform="translate(38.299 67.227)" fill="none" stroke="#002b6e" stroke-linejoin="round" stroke-width="0.75"/>
      <path id="Path_310" data-name="Path 310" d="M89.644,156.844s4.476,11.623,1.116,15.162c-1.736,1.844-7.786.818-10.058-.918-1.7-1.3-3.928-8.975-2.99-10.486C81.17,155,89.644,156.844,89.644,156.844Z" transform="translate(-10.742 -126.292)" fill="#e7b6df"/>
      <path id="Path_311" data-name="Path 311" d="M77.394,162.857l-.459,11.436c.906,2.882,10.627,5.622,12.172.678l-1-8.582Z" transform="translate(-11.113 -122.077)" fill="#e7b6df"/>
      <path id="Path_312" data-name="Path 312" d="M74.3,167.8a9.327,9.327,0,0,1-.479-3.4,13.159,13.159,0,0,1,.659-4.307,9.525,9.525,0,0,1,4.876-5.372c2.243-1.071,6.538-2.074,10.028,0a6.487,6.487,0,0,1,4.985,1.524,4.986,4.986,0,0,1,1.505,4.874l-9.964-1.135a9.526,9.526,0,0,1-3.489,4.446c-1.535,1-3.221,2.353-2.582,4.5.259.888-.7,1.056-.7,2.782-1.784-.19-4.426-2.742-4.834-3.778A.342.342,0,0,1,74.3,167.8Z" transform="translate(-13.199 -128.325)" fill="#fdd499"/>
      <path id="Path_313" data-name="Path 313" d="M79.291,162.26c-1.056-1.635-1.993-1.484-2.652-.7-.818,1.046.379,3.489,1,3.988,1.257.926,2.351.936,2.552-.14" transform="translate(-11.495 -123.324)" fill="#e7b6df"/>
      <path id="Path_314" data-name="Path 314" d="M86.751,167.478a12.021,12.021,0,0,1-7.336-2.214" transform="translate(-9.454 -120.467)" fill="none" stroke="#aa1f6f" stroke-linejoin="round" stroke-width="0.75"/>
      <path id="Path_315" data-name="Path 315" d="M83.3,160.253s2.85,2.47,2.78,3.249-1.844,1.106-1.844,1.106" transform="translate(-6.853 -123.818)" fill="none" stroke="#aa1f6f" stroke-linejoin="round" stroke-width="0.5"/>
      <path id="Path_316" data-name="Path 316" d="M87.038,163.263l-4.8,1.327a3.181,3.181,0,0,0,3.858,1.5C87.936,165.467,87.038,163.263,87.038,163.263Z" transform="translate(-7.569 -121.805)" fill="#fff"/>
      <path id="Path_317" data-name="Path 317" d="M84.529,159.865a1.255,1.255,0,0,0,0,.159.646.646,0,0,1,0,.16,1.152,1.152,0,0,0,.16.4.351.351,0,0,0,.1.11.346.346,0,0,0,.128.07h.2a.454.454,0,0,0,.15,0h.088a.524.524,0,0,0,.1-.11.382.382,0,0,0,0-.309,2.141,2.141,0,0,0-.1-.24l-.082-.149-.082-.15-.09-.14a.349.349,0,0,0-.2-.16.442.442,0,0,0-.229,0,.291.291,0,0,0-.177.372l.018.04Z" transform="translate(-6.066 -124.328)" fill="#0a244b"/>
      <path id="Path_318" data-name="Path 318" d="M83.835,159.278a1.286,1.286,0,0,1,1.752-.489l.052.03" transform="translate(-6.498 -124.908)" fill="none" stroke="#0a244b" stroke-linecap="round" stroke-linejoin="round" stroke-width="0.5"/>
      <path id="Path_319" data-name="Path 319" d="M81.317,161.126a.964.964,0,0,0,0,.17.75.75,0,0,0,0,.15,3.068,3.068,0,0,0,.1.319.262.262,0,0,0,.07.139.365.365,0,0,0,.108.1.472.472,0,0,0,.539-.18.412.412,0,0,0,0-.309c0-.128-.108-.259-.16-.389a1.1,1.1,0,0,1-.07-.149.93.93,0,0,0-.082-.15.372.372,0,0,0-.209-.16.276.276,0,0,0-.219,0,.245.245,0,0,0-.16.14v.082a.278.278,0,0,0,0,.18Z" transform="translate(-8.247 -123.556)" fill="#0a244b"/>
      <path id="Path_320" data-name="Path 320" d="M82.549,159.657a2.4,2.4,0,0,0-2.3,1.325" transform="translate(-8.9 -124.22)" fill="none" stroke="#0a244b" stroke-linecap="round" stroke-linejoin="round" stroke-width="0.5"/>
      <path id="Path_321" data-name="Path 321" d="M61.5,184.15c-5.253,10.607-8.514,26.058,2.572,30.764,11.565,4.914,41.869-32.189,41.869-32.189l-9.352-8.052-25.03,16.055" transform="translate(-24.675 -114.174)" fill="#e7b6df"/>
      <line id="Line_8" data-name="Line 8" x1="7.487" y2="5.832" transform="translate(39.396 76.598)" fill="none" stroke="#aa1f6f" stroke-linejoin="round" stroke-width="0.75"/>
      <path id="Path_322" data-name="Path 322" d="M87.134,182.141h0a2.8,2.8,0,0,1-2.223-3.251L86.9,168.143l5.474,1-1.994,10.747a2.791,2.791,0,0,1-3.239,2.254l-.01,0Z" transform="translate(-5.809 -118.541)" fill="#132051"/>
      <path id="Path_323" data-name="Path 323" d="M93.413,175.186l-4.377-1.076a5.822,5.822,0,0,1-4.285-7.029h0a5.822,5.822,0,0,1,7.036-4.277h0l4.4,1.071a.478.478,0,0,1,.364.571l0,.017-2.523,10.4a.487.487,0,0,1-.606.329h0Z" transform="translate(-5.997 -122.224)" fill="#205ea9"/>
      <path id="Path_324" data-name="Path 324" d="M93.574,169.512c-.758,3.121-2.233,5.442-3.294,5.187s-1.307-2.99-.549-6.121,2.243-5.443,3.3-5.187S94.332,166.391,93.574,169.512Z" transform="translate(-2.849 -121.733)" fill="#86bee8"/>
      <path id="Path_325" data-name="Path 325" d="M103.631,185.095s-8.065-6.915-12.839-9.779c-1.5-1.217-1-4.087-.576-5.662,1.07-4.048,2.47-4.576,2.47-4.576,6.48.459,16.658-2.635,16.658-2.635" transform="translate(-2.519 -122.353)" fill="#132051"/>
      <path id="Path_326" data-name="Path 326" d="M98.888,173.387c-1.784,7.047-1.585,13.178.429,13.686s5.095-4.794,6.869-11.857,1.585-13.178-.429-13.686S100.662,166.328,98.888,173.387Z" transform="translate(2.753 -122.986)" fill="#86bee8"/>
      <path id="Path_327" data-name="Path 327" d="M99.558,172.869c-1.5,5.981-1.484,11.114,0,11.493s3.987-4.135,5.472-10.1,1.5-11.116,0-11.494S101.061,166.907,99.558,172.869Z" transform="translate(3.269 -122.15)" fill="#205ea9"/>
      <path id="Path_328" data-name="Path 328" d="M102.061,173.529a7.58,7.58,0,0,0-3.369-.07q.268-1.607.7-3.339a30.492,30.492,0,0,1,1-3.261,7.582,7.582,0,0,0,2.99,1.535Z" transform="translate(3.437 -119.4)" fill="#132051"/>
      <path id="Path_330" data-name="Path 330" d="M77.867,179.391A124.517,124.517,0,0,1,89.253,172.6a9.489,9.489,0,0,1,7.176.15,4.107,4.107,0,0,1,1.746,1.207,3.7,3.7,0,0,1,.718,2.451.529.529,0,0,1-.169.439c-.309.209-.6-.269-.8-.6a2.468,2.468,0,0,0-2.251-1.145c.477,0,.7.477.9.916a.8.8,0,0,1-.359,1.07.664.664,0,0,1-.149.057,1.057,1.057,0,0,1,.247,1.994.717.717,0,0,1,.4.786,1.888,1.888,0,0,1-.419.848,20.184,20.184,0,0,1-2.99,2.99c-3.359,2.882-10.308,10.767-10.308,10.767" transform="translate(-10.49 -115.982)" fill="#e7b6df"/>
      <path id="Path_285-2" data-name="Path 285" d="M117.988,315.484a4.284,4.284,0,0,0-1.357-2.518l-14.033-7.3c-8.229,2.657-18.42-.559-18.42-.559l-2.642,10.775a.658.658,0,0,0,.614.7L117.423,319C118.207,319,117.993,315.516,117.988,315.484Z" transform="translate(-8.036 -26.943)" fill="#0a244b"/>
      <path id="Path_286-2" data-name="Path 286" d="M96.942,305.951a16.99,16.99,0,0,0-2.3,3.289" transform="translate(0.726 -26.381)" fill="none" stroke="#002b6e" stroke-linejoin="round" stroke-width="0.75"/>
      <path id="Path_287-2" data-name="Path 287" d="M97.822,306.683a15.767,15.767,0,0,0-1.891,2.8" transform="translate(1.591 -25.891)" fill="none" stroke="#002b6e" stroke-linejoin="round" stroke-width="0.75"/>
      <path id="Path_288-2" data-name="Path 288" d="M98.664,307.228a20.538,20.538,0,0,0-1.769,2.56" transform="translate(2.236 -25.527)" fill="none" stroke="#002b6e" stroke-linejoin="round" stroke-width="0.75"/>
      <line id="Line_4-2" data-name="Line 4" x2="36.154" y2="2.453" transform="translate(73.869 287.229)" fill="none" stroke="#002b6e" stroke-linejoin="round" stroke-width="0.75"/>
      <path id="Path_289-2" data-name="Path 289" d="M82.593,307.382s8.476.8,8.866,5.947" transform="translate(-7.329 -25.424)" fill="none" stroke="#002b6e" stroke-linejoin="round" stroke-width="0.75"/>
      <path id="Path_290-2" data-name="Path 290" d="M102.131,308.943a27.735,27.735,0,0,0-3.154,4.654" transform="translate(3.628 -24.38)" fill="none" stroke="#002b6e" stroke-linejoin="round" stroke-width="0.75"/>
    </g>
    <g transform="matrix(1, 0, 0, 1, 44, 2219)" filter="url(#一同參與)">
      <text id="一同參與-2" data-name="一同參與" transform="translate(360 343)" fill="#fff" font-size="48" font-family="TaipeiSansTCBeta-Bold, Taipei Sans TC Beta" font-weight="700" letter-spacing="0.075em"><tspan x="0" y="0">一同參與</tspan></text>
    </g>
    <g id="Group_334-2" data-name="Group 334" transform="translate(131.363 2818.529)">
      <path id="Path_73-2" data-name="Path 73" d="M530.946,405.185c-3.065-7.546-8.847-11.591-15.692-12.348-8.624-.965-17.373,3.991-17.373,3.991s3.248-12.458-1.165-22.259c-2.995-6.691-7.783-12.979-14.417-14.628-6.876-1.708-14.169,1.638-19.292,7s-8.4,12.334-11.369,19.346c-1.526-4.982-3.541-10.555-8.034-12.4s-10.026,1.4-12.461,6.119-2.564,10.443-2.226,15.861c-5.39-3.236-12.264-4.2-17.668-.952a14.371,14.371,0,0,0-6.44,10.333Z" transform="translate(-404.809 -359.491)" fill="#e1ecf8"/>
    </g>
  </g>
</svg>
