<svg xmlns="http://www.w3.org/2000/svg" xmlns:xlink="http://www.w3.org/1999/xlink" width="388.222" height="455.905" viewBox="0 0 388.222 455.905">
  <defs>
    <clipPath id="clip-path">
      <path id="Path_598" data-name="Path 598" d="M476.056,661.783a20.456,20.456,0,0,0-13.695,6.715,3.084,3.084,0,0,1-4.591-.257,3.658,3.658,0,0,1-.827-2.087l-1.928-37.372c-.414-7.947-6.707-14.026-14.056-13.581l-.035,0-35.2,2.167a3.364,3.364,0,0,1-3.373-3.377,3.718,3.718,0,0,1,.717-2.34,24.173,24.173,0,0,0,5.17-16.158c-.717-13.72-13.005-24.134-27.462-23.256s-25.6,12.7-24.924,26.417a23.716,23.716,0,0,0,6.827,15.417,3.718,3.718,0,0,1,.018,4.97,3.144,3.144,0,0,1-2.066,1.03l-35.219,2.2c-7.345.445-12.964,7.243-12.552,15.184l0,.047,6.5,124.863c.412,7.941,6.7,14.015,14.045,13.569l.044,0,115.5-7.029c7.345-.439,12.969-7.233,12.563-15.172l0-.059L459.575,716.3a3.416,3.416,0,0,1,3.113-3.657,3.069,3.069,0,0,1,2.079.694,20.14,20.14,0,0,0,14.3,5.029c12.681-.773,22.314-14.058,21.5-29.686S488.746,661.011,476.056,661.783Z" transform="translate(-312.84 -572.188)" fill="none"/>
    </clipPath>
    <filter id="發起活動" x="167.222" y="203.973" width="221" height="66" filterUnits="userSpaceOnUse">
      <feOffset dy="3" input="SourceAlpha"/>
      <feGaussianBlur stdDeviation="3" result="blur"/>
      <feFlood flood-opacity="0.161"/>
      <feComposite operator="in" in2="blur"/>
      <feComposite in="SourceGraphic"/>
    </filter>
  </defs>
  <g id="Group_780" data-name="Group 780" transform="translate(-167.778 -1689.027)">
    <g id="Group_477" data-name="Group 477" transform="translate(37.552 1193.021)">
      <path id="Path_231" data-name="Path 231" d="M333.026,777.351c-7.509.012-13.711-6.331-14.113-14.432L312.4,637.939c-.425-8.429,5.541-15.645,13.342-16.136l35.282-2.13a2.428,2.428,0,0,0,2.172-1.714,2.657,2.657,0,0,0-.6-2.766,24.8,24.8,0,0,1-7.078-16.042c-.738-14.2,10.791-26.479,25.7-27.382h1.737c14.231,0,25.923,10.557,26.63,24.157a25.278,25.278,0,0,1-5.374,16.8,2.653,2.653,0,0,0-.336,2.756,2.386,2.386,0,0,0,2.17,1.523h.153l35.271-2.13h.807c7.5.018,13.684,6.344,14.111,14.432l1.934,37.407a2.532,2.532,0,0,0,2.435,2.481,2.245,2.245,0,0,0,1.65-.74,21.149,21.149,0,0,1,14.264-7.035h1.194c12.733,0,23.341,12.2,24.144,27.792a32.944,32.944,0,0,1-5.873,21.024,21.978,21.978,0,0,1-16.435,9.617h-1.19a21.042,21.042,0,0,1-13.678-5.253,2.238,2.238,0,0,0-1.454-.552,2.419,2.419,0,0,0-1.794.832,2.75,2.75,0,0,0-.64,1.937l1.943,37.419c.46,8.4-5.473,15.622-13.255,16.118l-.087,0L333.84,777.4A5.135,5.135,0,0,0,333.026,777.351Z" transform="translate(0.487 0.602)" fill="#87aad9"/>
      <path id="Path_232" data-name="Path 232" d="M383.4,573.076c13.756,0,25.173,10.155,25.86,23.359a24.2,24.2,0,0,1-5.188,16.191,3.717,3.717,0,0,0,.479,4.954,3.118,3.118,0,0,0,1.99.786h.218l35.307-2.134h.761c7.092.008,12.946,5.987,13.343,13.629l1.937,37.444a3.378,3.378,0,0,0,3.262,3.309,2.991,2.991,0,0,0,2.175-1,20.545,20.545,0,0,1,13.742-6.726h1.152c12.233,0,22.585,11.808,23.368,27,.815,15.659-8.85,28.969-21.575,29.745h-1.145a20.369,20.369,0,0,1-13.2-5.072,2.979,2.979,0,0,0-1.957-.739,3.4,3.4,0,0,0-3.266,3.515c0,.065,0,.13,0,.193l1.946,37.444c.439,7.954-5.181,14.784-12.548,15.256l-.055,0-115.9,7.042h-.761c-7.085-.006-12.935-5.979-13.332-13.615l-6.528-125.111c-.437-7.954,5.181-14.784,12.548-15.258l.046,0,35.34-2.134a3.444,3.444,0,0,0,3.011-3.773,3.644,3.644,0,0,0-.956-2.238,23.789,23.789,0,0,1-6.743-15.541c-.717-13.745,10.462-25.59,25.012-26.468h1.7m0-1.76h-1.8a28.712,28.712,0,0,0-19.23,8.907,25.873,25.873,0,0,0-1.292,34.6q.655.766,1.369,1.472a1.775,1.775,0,0,1,.391,1.831,1.61,1.61,0,0,1-1.424,1.175l-35.331,2.132c-8.266.5-14.592,8.139-14.137,17.064l6.524,125.1c.461,8.559,7.019,15.25,14.963,15.26h.859l115.9-7.042c8.272-.5,14.6-8.151,14.137-17.079l-1.946-37.444a1.755,1.755,0,0,1,.424-1.279,1.64,1.64,0,0,1,1.2-.564,1.41,1.41,0,0,1,.947.364,21.9,21.9,0,0,0,14.211,5.447h1.24A22.865,22.865,0,0,0,497.428,711.3a33.83,33.83,0,0,0,6.107-21.609c-.837-16.057-11.819-28.641-25.011-28.641h-1.249a22.02,22.02,0,0,0-14.79,7.231,1.44,1.44,0,0,1-1.087.493,1.667,1.667,0,0,1-1.631-1.655l-1.946-37.444c-.457-8.561-7.019-15.254-14.963-15.26h-.848l-35.342,2.132h-.1a1.566,1.566,0,0,1-1.445-1.008,1.77,1.77,0,0,1,.218-1.831,26.238,26.238,0,0,0,5.577-17.431c-.728-14.087-12.8-25.014-27.489-25.014Z" transform="translate(0 0)" fill="#fff"/>
      <g id="Group_476" data-name="Group 476" transform="translate(313.874 573.285)">
        <g id="Group_475" data-name="Group 475" clip-path="url(#clip-path)">
          <g id="Group_341" data-name="Group 341" transform="translate(-65.377 100.254)">
            <g id="Group_340" data-name="Group 340" opacity="0.35">
              <path id="Path_233" data-name="Path 233" d="M280.687,653.489a3.111,3.111,0,0,1-3.79-2.445,3.4,3.4,0,0,1,2.262-4.1,3.113,3.113,0,0,1,3.792,2.446l0,.01A3.4,3.4,0,0,1,280.687,653.489Z" transform="translate(-276.803 -600.684)" fill="#fff"/>
              <path id="Path_234" data-name="Path 234" d="M296.408,649.565a3.114,3.114,0,0,1-3.784-2.457,3.4,3.4,0,0,1,2.273-4.089,3.111,3.111,0,0,1,3.783,2.457l0,.014A3.4,3.4,0,0,1,296.408,649.565Z" transform="translate(-263.998 -604.457)" fill="#fff"/>
              <path id="Path_235" data-name="Path 235" d="M312.12,645.637a3.1,3.1,0,0,1-3.763-2.465,3.387,3.387,0,0,1,2.282-4.066,3.1,3.1,0,0,1,3.761,2.465,3.6,3.6,0,0,1-.356,2.534A3.15,3.15,0,0,1,312.12,645.637Z" transform="translate(-251.186 -608.215)" fill="#fff"/>
              <path id="Path_236" data-name="Path 236" d="M327.831,641.7a3.1,3.1,0,0,1-3.741-2.469,3.375,3.375,0,0,1,2.284-4.044,3.1,3.1,0,0,1,3.741,2.469,3.578,3.578,0,0,1-.359,2.518A3.152,3.152,0,0,1,327.831,641.7Z" transform="translate(-238.376 -611.976)" fill="#fff"/>
              <path id="Path_237" data-name="Path 237" d="M343.575,637.8a3.113,3.113,0,0,1-3.781-2.461,3.4,3.4,0,0,1,2.275-4.089,3.115,3.115,0,0,1,3.782,2.461h0A3.4,3.4,0,0,1,343.575,637.8Z" transform="translate(-225.596 -615.764)" fill="#fff"/>
              <path id="Path_238" data-name="Path 238" d="M359.3,633.868a3.1,3.1,0,0,1-3.768-2.453,3.387,3.387,0,0,1,2.268-4.073,3.1,3.1,0,0,1,3.77,2.451,3.6,3.6,0,0,1-.35,2.54A3.155,3.155,0,0,1,359.3,633.868Z" transform="translate(-212.786 -619.525)" fill="#fff"/>
              <path id="Path_239" data-name="Path 239" d="M375.032,629.952a3.109,3.109,0,0,1-3.792-2.442,3.4,3.4,0,0,1,2.26-4.1,3.11,3.11,0,0,1,3.792,2.442l.005.024A3.4,3.4,0,0,1,375.032,629.952Z" transform="translate(-199.997 -623.307)" fill="#fff"/>
              <path id="Path_240" data-name="Path 240" d="M283.921,666.394a3.108,3.108,0,0,1-3.811-2.408,3.407,3.407,0,0,1,2.228-4.119,3.107,3.107,0,0,1,3.811,2.406l0,.022A3.4,3.4,0,0,1,283.921,666.394Z" transform="translate(-274.194 -588.272)" fill="#fff"/>
              <path id="Path_241" data-name="Path 241" d="M299.627,662.476a3.115,3.115,0,0,1-3.784-2.457,3.4,3.4,0,0,1,2.273-4.091,3.114,3.114,0,0,1,3.784,2.457l0,.014A3.4,3.4,0,0,1,299.627,662.476Z" transform="translate(-261.377 -592.049)" fill="#fff"/>
              <path id="Path_242" data-name="Path 242" d="M315.338,658.545a3.1,3.1,0,0,1-3.761-2.465,3.387,3.387,0,0,1,2.282-4.065,3.1,3.1,0,0,1,3.761,2.467,3.594,3.594,0,0,1-.357,2.532A3.15,3.15,0,0,1,315.338,658.545Z" transform="translate(-248.565 -595.806)" fill="#fff"/>
              <path id="Path_243" data-name="Path 243" d="M331.052,654.614a3.1,3.1,0,0,1-3.743-2.467,3.374,3.374,0,0,1,2.284-4.046,3.094,3.094,0,0,1,3.741,2.467,3.591,3.591,0,0,1-.357,2.52A3.152,3.152,0,0,1,331.052,654.614Z" transform="translate(-235.755 -599.567)" fill="#fff"/>
              <path id="Path_244" data-name="Path 244" d="M346.806,650.711a3.111,3.111,0,0,1-3.792-2.446,3.4,3.4,0,0,1,2.264-4.1,3.113,3.113,0,0,1,3.79,2.446l0,.01A3.4,3.4,0,0,1,346.806,650.711Z" transform="translate(-222.975 -603.354)" fill="#fff"/>
              <path id="Path_245" data-name="Path 245" d="M362.528,646.786a3.111,3.111,0,0,1-3.79-2.445,3.4,3.4,0,0,1,2.262-4.1,3.11,3.11,0,0,1,3.79,2.446l0,.008A3.4,3.4,0,0,1,362.528,646.786Z" transform="translate(-210.175 -607.127)" fill="#fff"/>
              <path id="Path_246" data-name="Path 246" d="M378.252,642.865a3.111,3.111,0,0,1-3.792-2.442,3.4,3.4,0,0,1,2.259-4.1,3.114,3.114,0,0,1,3.793,2.444l.005.022A3.4,3.4,0,0,1,378.252,642.865Z" transform="translate(-197.376 -610.897)" fill="#fff"/>
              <path id="Path_247" data-name="Path 247" d="M287.122,679.309a3.112,3.112,0,0,1-3.781-2.461,3.4,3.4,0,0,1,2.277-4.087,3.113,3.113,0,0,1,3.781,2.459,3.4,3.4,0,0,1-2.275,4.089Z" transform="translate(-271.554 -575.869)" fill="#fff"/>
              <path id="Path_248" data-name="Path 248" d="M302.768,675.4a3.144,3.144,0,0,1-3.646-2.689,3.371,3.371,0,0,1,2.487-3.942,3.145,3.145,0,0,1,3.646,2.689,3.645,3.645,0,0,1-.083,1.62A3.217,3.217,0,0,1,302.768,675.4Z" transform="translate(-258.677 -579.662)" fill="#fff"/>
              <path id="Path_249" data-name="Path 249" d="M318.587,671.481a3.115,3.115,0,0,1-3.782-2.461,3.4,3.4,0,0,1,2.277-4.089,3.113,3.113,0,0,1,3.781,2.461h0a3.4,3.4,0,0,1-2.273,4.087Z" transform="translate(-245.94 -583.395)" fill="#fff"/>
              <path id="Path_250" data-name="Path 250" d="M334.291,667.53a3.1,3.1,0,0,1-3.768-2.453A3.386,3.386,0,0,1,332.79,661a3.1,3.1,0,0,1,3.77,2.451,3.606,3.606,0,0,1-.35,2.54A3.154,3.154,0,0,1,334.291,667.53Z" transform="translate(-233.143 -587.17)" fill="#fff"/>
              <path id="Path_251" data-name="Path 251" d="M350.026,663.622a3.114,3.114,0,0,1-3.792-2.446,3.405,3.405,0,0,1,2.262-4.1,3.114,3.114,0,0,1,3.792,2.448l0,.008A3.4,3.4,0,0,1,350.026,663.622Z" transform="translate(-220.354 -590.946)" fill="#fff"/>
              <path id="Path_252" data-name="Path 252" d="M365.751,659.7a3.114,3.114,0,0,1-3.792-2.448,3.4,3.4,0,0,1,2.264-4.1,3.113,3.113,0,0,1,3.79,2.448l0,.008A3.4,3.4,0,0,1,365.751,659.7Z" transform="translate(-207.552 -594.719)" fill="#fff"/>
              <ellipse id="Ellipse_23" data-name="Ellipse 23" cx="3.121" cy="3.374" rx="3.121" ry="3.374" transform="translate(182.832 50.616)" fill="#fff"/>
              <path id="Path_253" data-name="Path 253" d="M290.333,692.208a3.1,3.1,0,0,1-3.763-2.465,3.386,3.386,0,0,1,2.282-4.065,3.1,3.1,0,0,1,3.761,2.465,3.6,3.6,0,0,1-.355,2.534A3.151,3.151,0,0,1,290.333,692.208Z" transform="translate(-268.923 -563.451)" fill="#fff"/>
              <path id="Path_254" data-name="Path 254" d="M305.964,688.315a3.146,3.146,0,0,1-3.646-2.691,3.368,3.368,0,0,1,2.489-3.942,3.145,3.145,0,0,1,3.646,2.691,3.612,3.612,0,0,1-.085,1.618A3.223,3.223,0,0,1,305.964,688.315Z" transform="translate(-256.075 -567.254)" fill="#fff"/>
              <path id="Path_255" data-name="Path 255" d="M321.788,684.375a3.115,3.115,0,0,1-3.782-2.459,3.4,3.4,0,0,1,2.277-4.089,3.113,3.113,0,0,1,3.782,2.459,3.4,3.4,0,0,1-2.275,4.089Z" transform="translate(-243.334 -571)" fill="#fff"/>
              <path id="Path_256" data-name="Path 256" d="M337.511,680.43a3.1,3.1,0,0,1-3.768-2.453,3.386,3.386,0,0,1,2.268-4.073,3.1,3.1,0,0,1,3.77,2.452,3.6,3.6,0,0,1-.35,2.54A3.162,3.162,0,0,1,337.511,680.43Z" transform="translate(-230.522 -574.771)" fill="#fff"/>
              <path id="Path_257" data-name="Path 257" d="M353.237,676.531a3.113,3.113,0,0,1-3.788-2.45,3.4,3.4,0,0,1,2.266-4.095,3.113,3.113,0,0,1,3.79,2.449l.009.041A3.4,3.4,0,0,1,353.237,676.531Z" transform="translate(-217.736 -578.538)" fill="#fff"/>
              <path id="Path_258" data-name="Path 258" d="M368.968,672.605a3.112,3.112,0,0,1-3.79-2.446,3.4,3.4,0,0,1,2.262-4.1,3.109,3.109,0,0,1,3.79,2.445l0,.008A3.4,3.4,0,0,1,368.968,672.605Z" transform="translate(-204.932 -582.31)" fill="#fff"/>
              <ellipse id="Ellipse_24" data-name="Ellipse 24" cx="3.121" cy="3.374" rx="3.121" ry="3.374" transform="translate(188.679 75.926)" fill="#fff"/>
              <path id="Path_259" data-name="Path 259" d="M293.552,705.119a3.1,3.1,0,0,1-3.761-2.467,3.385,3.385,0,0,1,2.28-4.066,3.1,3.1,0,0,1,3.761,2.467,3.6,3.6,0,0,1-.356,2.534A3.15,3.15,0,0,1,293.552,705.119Z" transform="translate(-266.301 -551.043)" fill="#fff"/>
              <path id="Path_260" data-name="Path 260" d="M309.207,701.224a3.144,3.144,0,0,1-3.645-2.691,3.367,3.367,0,0,1,2.487-3.942,3.145,3.145,0,0,1,3.646,2.691,3.621,3.621,0,0,1-.085,1.62A3.217,3.217,0,0,1,309.207,701.224Z" transform="translate(-253.433 -554.846)" fill="#fff"/>
              <path id="Path_261" data-name="Path 261" d="M325.019,697.284a3.112,3.112,0,0,1-3.79-2.445,3.4,3.4,0,0,1,2.262-4.1,3.11,3.11,0,0,1,3.79,2.445l0,.008A3.4,3.4,0,0,1,325.019,697.284Z" transform="translate(-240.712 -558.589)" fill="#fff"/>
              <path id="Path_262" data-name="Path 262" d="M340.732,693.349a3.106,3.106,0,0,1-3.77-2.453,3.388,3.388,0,0,1,2.27-4.073A3.1,3.1,0,0,1,343,689.274a3.6,3.6,0,0,1-.35,2.54A3.163,3.163,0,0,1,340.732,693.349Z" transform="translate(-227.9 -562.353)" fill="#fff"/>
              <path id="Path_263" data-name="Path 263" d="M356.465,689.44a3.113,3.113,0,0,1-3.79-2.446,3.405,3.405,0,0,1,2.262-4.1,3.112,3.112,0,0,1,3.79,2.446l0,.01A3.4,3.4,0,0,1,356.465,689.44Z" transform="translate(-215.111 -566.13)" fill="#fff"/>
              <ellipse id="Ellipse_25" data-name="Ellipse 25" cx="3.121" cy="3.374" rx="3.121" ry="3.374" transform="translate(166.003 108.988)" fill="#fff"/>
              <path id="Path_264" data-name="Path 264" d="M387.883,681.59a3.114,3.114,0,0,1-3.784-2.457,3.4,3.4,0,0,1,2.273-4.089,3.114,3.114,0,0,1,3.784,2.457l0,.012A3.4,3.4,0,0,1,387.883,681.59Z" transform="translate(-189.526 -573.675)" fill="#fff"/>
              <path id="Path_265" data-name="Path 265" d="M296.771,718.027a3.107,3.107,0,0,1-3.761-2.465,3.39,3.39,0,0,1,2.282-4.068,3.106,3.106,0,0,1,3.761,2.467,3.593,3.593,0,0,1-.356,2.532A3.152,3.152,0,0,1,296.771,718.027Z" transform="translate(-263.681 -538.635)" fill="#fff"/>
              <path id="Path_266" data-name="Path 266" d="M312.517,714.111a3.112,3.112,0,0,1-3.792-2.442,3.405,3.405,0,0,1,2.26-4.1,3.112,3.112,0,0,1,3.792,2.443l.005.021A3.4,3.4,0,0,1,312.517,714.111Z" transform="translate(-250.892 -542.416)" fill="#fff"/>
              <path id="Path_267" data-name="Path 267" d="M328.239,710.191a3.111,3.111,0,0,1-3.79-2.446,3.4,3.4,0,0,1,2.262-4.1,3.111,3.111,0,0,1,3.79,2.445l0,.008A3.4,3.4,0,0,1,328.239,710.191Z" transform="translate(-238.09 -546.183)" fill="#fff"/>
              <path id="Path_268" data-name="Path 268" d="M343.963,706.266a3.111,3.111,0,0,1-3.792-2.446,3.4,3.4,0,0,1,2.264-4.1,3.113,3.113,0,0,1,3.79,2.446l0,.01A3.4,3.4,0,0,1,343.963,706.266Z" transform="translate(-225.29 -549.955)" fill="#fff"/>
              <path id="Path_269" data-name="Path 269" d="M359.685,702.347a3.109,3.109,0,0,1-3.79-2.446,3.4,3.4,0,0,1,2.262-4.1,3.113,3.113,0,0,1,3.79,2.445l0,.01A3.4,3.4,0,0,1,359.685,702.347Z" transform="translate(-212.49 -553.722)" fill="#fff"/>
              <path id="Path_270" data-name="Path 270" d="M375.407,698.423a3.111,3.111,0,0,1-3.79-2.446,3.4,3.4,0,0,1,2.262-4.1,3.112,3.112,0,0,1,3.79,2.446l0,.01A3.4,3.4,0,0,1,375.407,698.423Z" transform="translate(-199.69 -557.494)" fill="#fff"/>
              <path id="Path_271" data-name="Path 271" d="M391.127,694.5a3.114,3.114,0,0,1-3.784-2.458,3.4,3.4,0,0,1,2.273-4.089,3.114,3.114,0,0,1,3.784,2.457l0,.014A3.4,3.4,0,0,1,391.127,694.5Z" transform="translate(-186.885 -561.267)" fill="#fff"/>
              <path id="Path_272" data-name="Path 272" d="M300,730.935a3.1,3.1,0,0,1-3.768-2.451,3.389,3.389,0,0,1,2.268-4.075,3.105,3.105,0,0,1,3.77,2.453,3.6,3.6,0,0,1-.35,2.538A3.148,3.148,0,0,1,300,730.935Z" transform="translate(-261.059 -526.226)" fill="#fff"/>
              <path id="Path_273" data-name="Path 273" d="M315.737,727.035a3.112,3.112,0,0,1-3.792-2.444,3.4,3.4,0,0,1,2.26-4.1A3.111,3.111,0,0,1,318,722.934l.005.023A3.4,3.4,0,0,1,315.737,727.035Z" transform="translate(-248.27 -529.994)" fill="#fff"/>
              <path id="Path_274" data-name="Path 274" d="M331.461,723.1a3.113,3.113,0,0,1-3.79-2.445,3.405,3.405,0,0,1,2.262-4.1A3.114,3.114,0,0,1,333.725,719l0,.01A3.4,3.4,0,0,1,331.461,723.1Z" transform="translate(-235.467 -533.775)" fill="#fff"/>
              <path id="Path_275" data-name="Path 275" d="M347.182,719.177a3.112,3.112,0,0,1-3.79-2.448,3.4,3.4,0,0,1,2.262-4.1,3.111,3.111,0,0,1,3.79,2.448l0,.008A3.4,3.4,0,0,1,347.182,719.177Z" transform="translate(-222.669 -537.547)" fill="#fff"/>
              <path id="Path_276" data-name="Path 276" d="M362.906,715.252a3.112,3.112,0,0,1-3.792-2.444,3.4,3.4,0,0,1,2.26-4.1,3.112,3.112,0,0,1,3.792,2.444l.005.021A3.4,3.4,0,0,1,362.906,715.252Z" transform="translate(-209.869 -541.319)" fill="#fff"/>
              <ellipse id="Ellipse_26" data-name="Ellipse 26" cx="3.121" cy="3.374" rx="3.121" ry="3.374" transform="translate(177.686 159.574)" fill="#fff"/>
              <path id="Path_277" data-name="Path 277" d="M394.324,707.391a3.1,3.1,0,0,1-3.741-2.469,3.374,3.374,0,0,1,2.282-4.046,3.1,3.1,0,0,1,3.742,2.469,3.581,3.581,0,0,1-.359,2.52A3.152,3.152,0,0,1,394.324,707.391Z" transform="translate(-184.243 -548.84)" fill="#fff"/>
              <path id="Path_278" data-name="Path 278" d="M303.222,743.843a3.1,3.1,0,0,1-3.768-2.452,3.386,3.386,0,0,1,2.268-4.073,3.1,3.1,0,0,1,3.77,2.452,3.6,3.6,0,0,1-.35,2.538A3.153,3.153,0,0,1,303.222,743.843Z" transform="translate(-258.437 -513.817)" fill="#fff"/>
              <path id="Path_279" data-name="Path 279" d="M318.957,739.928a3.11,3.11,0,0,1-3.792-2.442,3.4,3.4,0,0,1,2.259-4.1,3.113,3.113,0,0,1,3.793,2.442l.005.024A3.4,3.4,0,0,1,318.957,739.928Z" transform="translate(-245.649 -517.599)" fill="#fff"/>
              <ellipse id="Ellipse_27" data-name="Ellipse 27" cx="3.121" cy="3.374" rx="3.121" ry="3.374" transform="translate(97.952 208.001)" fill="#fff"/>
              <path id="Path_280" data-name="Path 280" d="M350.4,732.085a3.112,3.112,0,0,1-3.79-2.446,3.4,3.4,0,0,1,2.262-4.1,3.111,3.111,0,0,1,3.79,2.446l0,.008A3.4,3.4,0,0,1,350.4,732.085Z" transform="translate(-220.047 -525.139)" fill="#fff"/>
              <ellipse id="Ellipse_28" data-name="Ellipse 28" cx="3.121" cy="3.374" rx="3.121" ry="3.374" transform="translate(155.002 192.583)" fill="#fff"/>
              <path id="Path_281" data-name="Path 281" d="M381.843,724.243a3.112,3.112,0,0,1-3.782-2.459,3.4,3.4,0,0,1,2.277-4.089,3.112,3.112,0,0,1,3.781,2.459,3.4,3.4,0,0,1-2.275,4.089Z" transform="translate(-194.442 -532.68)" fill="#fff"/>
              <path id="Path_282" data-name="Path 282" d="M397.544,720.3a3.1,3.1,0,0,1-3.741-2.469,3.372,3.372,0,0,1,2.282-4.044,3.1,3.1,0,0,1,3.742,2.467,3.581,3.581,0,0,1-.359,2.52A3.152,3.152,0,0,1,397.544,720.3Z" transform="translate(-181.621 -536.431)" fill="#fff"/>
            </g>
          </g>
        </g>
      </g>
    </g>
    <g id="Group_478" data-name="Group 478" transform="translate(137.128 1255.293)">
      <path id="Path_112" data-name="Path 112" d="M200.425,807.344c6.919-17.883,18.177-35.564,11.247-55.3-3.819-10.907-15.5-15.507-24.427-21.393-15.294-10.078-22.12-25.431-20.994-43.557.455-7.248-.806-15.3-6.329-20.041-8.2-7.031-21.641-3.511-30.526-9.656-4.785-3.307-7.442-8.794-10.747-13.566-8-11.531-22.472-17.12-22.472-17.12a47.824,47.824,0,0,1-5.818,23.858c-4.222,7.588-7.725,16.064-8.408,24.866-.533,6.884,1.6,12.6,5.568,18.075,4.669,6.453,8.088,11.77,8.8,19.767,1.137,12.362-14.507,38.991.34,45.523,4.036,1.782,8.862,1.716,12.339,4.658,6.318,5.34.59,13.634,1,20.269.624,10.167,4.692,22.017,12.166,27.947,17.837,14.144,45.605,19.71,68.666,18.972" transform="translate(0 0)" fill="#e1ecf8"/>
      <path id="Path_113" data-name="Path 113" d="M89.394,627.346c24.482,38.025,25.56,87.751,50.976,125.174,7.622,11.224,17.211,20.971,25.414,31.81s15.167,23.177,16.279,36.7" transform="translate(6.784 0.576)" fill="none" stroke="#fff" stroke-linejoin="round" stroke-width="1.5"/>
      <path id="Path_114" data-name="Path 114" d="M127.372,689.24s-28.276-12.5-38.456-19.994" transform="translate(6.353 38.362)" fill="none" stroke="#fff" stroke-linejoin="round" stroke-width="1.5"/>
      <path id="Path_115" data-name="Path 115" d="M119.477,644.807c-2.876,18.177-7.307,32.947-12.885,53.669" transform="translate(22.293 16.323)" fill="none" stroke="#fff" stroke-linejoin="round" stroke-width="1.5"/>
      <path id="Path_116" data-name="Path 116" d="M109.5,641.719a222.23,222.23,0,0,1-7.951,28.767" transform="translate(17.747 13.538)" fill="none" stroke="#fff" stroke-linejoin="round" stroke-width="1.5"/>
      <path id="Path_117" data-name="Path 117" d="M98.914,631.647c.183.148-.375,5.046-3.045,15.964" transform="translate(12.623 4.455)" fill="none" stroke="#fff" stroke-linejoin="round" stroke-width="1.5"/>
      <path id="Path_118" data-name="Path 118" d="M114.709,662.689c0,.126-19.313-11.7-30.048-19.986" transform="translate(2.515 14.425)" fill="none" stroke="#fff" stroke-linejoin="round" stroke-width="1.5"/>
      <path id="Path_119" data-name="Path 119" d="M126.63,682.109c0-.124-31.709-14.461-44.046-24.47" transform="translate(0.642 27.894)" fill="none" stroke="#fff" stroke-linejoin="round" stroke-width="1.5"/>
      <path id="Path_120" data-name="Path 120" d="M137.168,653.212c-2.75,10.5-8.045,37.684-23.8,64.758" transform="translate(28.402 23.902)" fill="none" stroke="#fff" stroke-linejoin="round" stroke-width="1.5"/>
      <path id="Path_121" data-name="Path 121" d="M139.889,701.088S105,690.208,87.936,681.33" transform="translate(5.469 49.259)" fill="none" stroke="#fff" stroke-linejoin="round" stroke-width="1.5"/>
      <path id="Path_122" data-name="Path 122" d="M171.665,729.855s-49.624-9.34-74.72-18.065" transform="translate(13.593 76.728)" fill="none" stroke="#fff" stroke-linejoin="round" stroke-width="1.5"/>
      <path id="Path_123" data-name="Path 123" d="M150.555,684.007s-3.068,32.741-17.881,57.689" transform="translate(45.814 51.673)" fill="none" stroke="#fff" stroke-linejoin="round" stroke-width="1.5"/>
    </g>
    <text id="_1" data-name="1" transform="translate(378.5 1874.027)" fill="#fff" font-size="210" font-family="TaipeiSansTCBeta-Bold, Taipei Sans TC Beta" font-weight="700" letter-spacing="0.08em"><tspan x="0" y="0">1</tspan></text>
    <g id="Group_479" data-name="Group 479" transform="matrix(-0.643, -0.766, 0.766, -0.643, 109.31, 2830.403)">
      <path id="Path_90" data-name="Path 90" d="M419.2,658.727c27.073,5.138,55.5,1.216,81.041-9.261s65.681-42.451,82.727-79.025c-76.329-17.829-137.336,27.708-162.233,62.195" transform="translate(1.131 0)" fill="#c2d2ec"/>
      <path id="Path_91" data-name="Path 91" d="M581.758,568.975s-58.66,78-160.583,81.465" transform="translate(2.273 1.464)" fill="none" stroke="#fff" stroke-linejoin="round" stroke-width="1.5"/>
      <path id="Path_92" data-name="Path 92" d="M582.472,568.975s-80.3,53.648-162.533,68.792" transform="translate(1.559 1.464)" fill="none" stroke="#fff" stroke-linejoin="round" stroke-width="1.5"/>
      <path id="Path_93" data-name="Path 93" d="M584.033,568.975s-95.487,14.757-166.794,68.792" transform="translate(0 1.464)" fill="none" stroke="#fff" stroke-linejoin="round" stroke-width="1.5"/>
    </g>
    <g id="Group_474" data-name="Group 474" transform="translate(44.619 1283.437)">
      <path id="Path_331" data-name="Path 331" d="M244.253,683.393l-32.9-2.45L200.56,682.1l.21,40.907a1.869,1.869,0,0,0,1.881,1.766h0a1.86,1.86,0,0,0,1.748-1.163l8.388-18.25,34.294,4.125" transform="translate(2.059 126.959)" fill="#e7b6df"/>
      <path id="Path_332" data-name="Path 332" d="M203.28,727.25c1.359-.43,2.878-1.231,3.23-2.032l8.326-19.343c-4.317-10.677-1.009-24.479-1.009-24.479l-14.582-1.056a.864.864,0,0,0-.863.863v.008l.239,45.714C198.634,727.867,203.245,727.262,203.28,727.25Z" transform="translate(0 126.39)" fill="#175fab"/>
      <path id="Path_333" data-name="Path 333" d="M208.638,696.947a22.993,22.993,0,0,0-4.578-2.731" transform="translate(5.365 139.5)" fill="none" stroke="#002b6e" stroke-linejoin="round" stroke-width="0.75"/>
      <path id="Path_334" data-name="Path 334" d="M207.558,697.97a20.053,20.053,0,0,0-3.892-2.254" transform="translate(4.993 140.917)" fill="none" stroke="#002b6e" stroke-linejoin="round" stroke-width="0.75"/>
      <path id="Path_335" data-name="Path 335" d="M206.862,698.953a29.3,29.3,0,0,0-3.578-2.1" transform="translate(4.632 141.989)" fill="none" stroke="#002b6e" stroke-linejoin="round" stroke-width="0.75"/>
      <line id="Line_9" data-name="Line 9" x2="0.255" y2="46.865" transform="translate(201.526 806.972)" fill="none" stroke="#002b6e" stroke-linejoin="round" stroke-width="0.75"/>
      <path id="Path_336" data-name="Path 336" d="M206.992,680.686s-.115,10.85-6.97,11.8" transform="translate(1.55 126.717)" fill="none" stroke="#002b6e" stroke-linejoin="round" stroke-width="0.75"/>
      <path id="Path_337" data-name="Path 337" d="M206.595,703.2s-4.45-3.125-6.494-3.742" transform="translate(1.625 144.449)" fill="none" stroke="#002b6e" stroke-linejoin="round" stroke-width="0.75"/>
      <path id="Path_338" data-name="Path 338" d="M290.909,648.879c.488,1.011,6.61,44.427,10.99,74.713,2.754,18.948,3.09,30.914-24.5,28.649-38-3.114-64.481-4.833-64.481-4.833l-.883-34.074,52.151,2.485-6.809-33.689s-12.629-16.846-3.322-36.12" transform="translate(12.899 93.954)" fill="#88adc2"/>
      <line id="Line_10" data-name="Line 10" x2="1.383" y2="33.807" transform="translate(230.535 807.554)" fill="none" stroke="#2e2e70" stroke-miterlimit="10" stroke-width="0.75"/>
      <path id="Path_339" data-name="Path 339" d="M281.621,659.055l9.177,53.338a2.322,2.322,0,0,1-1.984,2.62,2.452,2.452,0,0,1-.478.017l-76.189-4.648" transform="translate(13.007 106.28)" fill="none" stroke="#2e2e70" stroke-miterlimit="10" stroke-width="0.75"/>
      <path id="Path_340" data-name="Path 340" d="M276.357,681.292l-6.97,32.9L269.1,725l42.324-.222a1.882,1.882,0,0,0,1.857-1.881h0a1.867,1.867,0,0,0-1.161-1.742l-18.252-8.39,8.621-34.294" transform="translate(66.813 124.623)" fill="#e7b6df"/>
      <path id="Path_341" data-name="Path 341" d="M316.248,707.665c-.43-1.36-1.219-2.878-2.023-3.228L294.871,696.1c-10.663,4.319-24.477,1.023-24.477,1.023L267.932,711.7a.882.882,0,0,0,.881.871l47.114-.245C316.876,712.309,316.26,707.7,316.248,707.665Z" transform="translate(65.711 141.284)" fill="#175fab"/>
      <path id="Path_342" data-name="Path 342" d="M285.267,696.534a21.978,21.978,0,0,0-2.73,4.578" transform="translate(79.509 141.69)" fill="none" stroke="#002b6e" stroke-linejoin="round" stroke-width="0.75"/>
      <path id="Path_343" data-name="Path 343" d="M286.28,697.281a20.7,20.7,0,0,0-2.244,3.892" transform="translate(80.925 142.395)" fill="none" stroke="#002b6e" stroke-linejoin="round" stroke-width="0.75"/>
      <path id="Path_344" data-name="Path 344" d="M287.274,697.83a26.822,26.822,0,0,0-2.1,3.567" transform="translate(81.999 142.914)" fill="none" stroke="#002b6e" stroke-linejoin="round" stroke-width="0.75"/>
      <line id="Line_11" data-name="Line 11" y1="0.244" x2="48.26" transform="translate(333.897 850.457)" fill="none" stroke="#002b6e" stroke-linejoin="round" stroke-width="0.75"/>
      <path id="Path_345" data-name="Path 345" d="M268.75,699.3s11.34.233,12.314,7.063" transform="translate(66.483 144.303)" fill="none" stroke="#002b6e" stroke-linejoin="round" stroke-width="0.75"/>
      <path id="Path_346" data-name="Path 346" d="M291.512,699.509s-3.125,4.45-3.742,6.5" transform="translate(84.453 144.5)" fill="none" stroke="#002b6e" stroke-linejoin="round" stroke-width="0.75"/>
      <path id="Path_347" data-name="Path 347" d="M280.488,642.382l2.415,9.481a3.073,3.073,0,0,0,2.962,2.324h32.808c8.016,0,16.474.2,21.05,7.157,3.753,5.692,2.429,15.171-.7,26.082-2.686,9.294-12.174,51.976-12.174,51.976H293.115l9.516-50.885h-38.9s-25.222.2-21.737-25.035" transform="translate(40.897 90.528)" fill="#88adc2"/>
      <path id="Path_348" data-name="Path 348" d="M269.5,678.255h-4.646s-24.108,0-24.4-25.024" transform="translate(39.748 100.778)" fill="none" stroke="#2e2e70" stroke-miterlimit="10" stroke-width="0.75"/>
      <path id="Path_349" data-name="Path 349" d="M254.013,646.558s.616,28.23,24.4,28.23h17.88a3.485,3.485,0,0,1,3.559,3.409,3.53,3.53,0,0,1-.074.8l-11.791,56.368" transform="translate(52.56 94.473)" fill="none" stroke="#2e2e70" stroke-miterlimit="10" stroke-width="0.75"/>
      <path id="Path_350" data-name="Path 350" d="M255.207,658.266c.187.5,9.981-2.242,9.794-11.706" transform="translate(53.688 94.475)" fill="none" stroke="#2e2e70" stroke-miterlimit="10" stroke-width="0.75"/>
      <path id="Path_351" data-name="Path 351" d="M244.628,655.288a40.612,40.612,0,0,0,9.806-1.344" transform="translate(43.693 101.451)" fill="none" stroke="#2e2e70" stroke-miterlimit="10" stroke-width="0.75"/>
      <path id="Path_352" data-name="Path 352" d="M231.94,654.634s4.739.14,8.33,0" transform="translate(31.706 102.103)" fill="none" stroke="#2e2e70" stroke-miterlimit="10" stroke-width="0.75"/>
      <path id="Path_353" data-name="Path 353" d="M256.661,630.11s11.61-36.189,33.374-65.314l-14.846-9.063c-23.491,25.488-38.966,68.114-38.966,68.114" transform="translate(35.752 8.664)" fill="#e7b6df"/>
      <path id="Path_354" data-name="Path 354" d="M231.827,665.446s-4.856-44.635,13.53-82.078l21.713,7.087-5.716,28.625" transform="translate(31.051 34.772)" fill="#fdd499"/>
      <line id="Line_13" data-name="Line 13" x2="21.388" y2="7.4" transform="translate(274.787 622.346)" fill="none" stroke="#c38437" stroke-miterlimit="10" stroke-width="0.75"/>
      <path id="Path_355" data-name="Path 355" d="M271.181,577.635c3.485-5.356,16.2-19.191,15.58-20.354s-5.148,3.66-5.471,2.614,6.142-8.923,5.218-9.909c-1.249-1.344-7.449,7.073-7.449,7.073s6.334-9.561,4.9-10.459c-1-.6-6.169,6.472-8.481,8.925,2.172-2.985,5.113-8.224,4.055-8.827s-4.648,4.135-7.633,7.62c1.638-2.322,4.415-6.774,3.485-7.376s-13,12.186-22.5,25.175" transform="translate(51.493 0)" fill="#e7b6df"/>
      <path id="Path_356" data-name="Path 356" d="M254.114,630.872s22.213,8.5,38.513,9.572c21.354,1.383,46.192-6.575,46.192-6.575s3.287-17.555-5.263-16.717c-10.537,1.917-28.754,3.261-42.462,1.6-8.54-1.035-26.721-10.78-26.721-10.78" transform="translate(52.656 58.02)" fill="#e7b6df"/>
      <path id="Path_357" data-name="Path 357" d="M292.472,615.792c6.342-.848,24.316-6.3,25.094-5.251s-5.519,3.071-4.718,3.81,10.689-1.672,11.188-.418c.671,1.708-9.6,3.647-9.6,3.647s11.35-1.556,11.5.1c.105,1.163-8.5,2.754-11.708,3.777,3.625-.663,9.621-1.046,9.7.175s-5.751,2.416-10.177,3.576c2.834-.463,8.026-1.044,8.131.082s-13.859,5.043-27.172,8.227" transform="translate(88.895 60.32)" fill="#e7b6df"/>
      <path id="Path_358" data-name="Path 358" d="M243.771,598.189l-3.032,15.265s8.551,8.656,17.507.593l-.1-10.224Z" transform="translate(40.019 48.775)" fill="#e7b6df"/>
      <path id="Path_359" data-name="Path 359" d="M258.447,590.829s7.293,14.592,2.777,19.413c-2.324,2.509-5.809,3.485-8.888,1.161-2.324-1.727-11.118-12.2-9.883-14.185C247.177,589.608,258.447,590.829,258.447,590.829Z" transform="translate(41.527 41.753)" fill="#e7b6df"/>
      <path id="Path_360" data-name="Path 360" d="M252.113,595.023s2.7,2.672,2.7,4.45c0,.789-2.7.906-2.7.906" transform="translate(50.765 45.784)" fill="#e7b6df"/>
      <path id="Path_361" data-name="Path 361" d="M254.357,598.885l-4.741-.7C249.384,599.99,252.916,604.475,254.357,598.885Z" transform="translate(48.395 48.775)" fill="#fff"/>
      <path id="Path_362" data-name="Path 362" d="M250.273,595.019a1.238,1.238,0,0,0,0,.36.78.78,0,0,0,.058.36,2.179,2.179,0,0,0,.082.278.94.94,0,0,0,.07.14,1,1,0,0,0,.1.128.437.437,0,0,0,.233.161.386.386,0,0,0,.453-.255.577.577,0,0,0,0-.245v-.1a2.784,2.784,0,0,0-.117-.255v.105a1.784,1.784,0,0,1-.128-.49v-.1a.316.316,0,0,1,0-.105.347.347,0,0,0-.661,0Z" transform="translate(49.015 45.543)" fill="#0a244b"/>
      <path id="Path_363" data-name="Path 363" d="M249.1,595.1a3.074,3.074,0,0,1,2.254-1.334,1.62,1.62,0,0,1,1.163.266" transform="translate(47.915 44.579)" fill="none" stroke="#0a244b" stroke-linecap="round" stroke-linejoin="round" stroke-width="0.5"/>
      <path id="Path_364" data-name="Path 364" d="M243.356,593.974c.79-5.181,6.052-6.251,15.858-4.8,1.313.2,3.742-.486,4.251.733.663,1.614.535,4.751-1.161,6.017-1.464,1.163-3.485.523-5.16,1.163-2.637.953-1.336,3.485-2.73,5.354-2.322,3.1-.79,7.657-4.646,10.027-2.184,1.344-4.984.959-7.5.488a1.884,1.884,0,0,1-.871-.315c-.871-.671-.523-3.044-.778-4.067a31.372,31.372,0,0,1-.976-10.13C239.916,595.451,242.275,593.626,243.356,593.974Z" transform="translate(38.913 39.699)" fill="#091429"/>
      <path id="Path_366" data-name="Path 366" d="M252.217,603.448a17.831,17.831,0,0,1-5.379-2.672" transform="translate(45.781 51.219)" fill="none" stroke="#aa1f6f" stroke-linejoin="round" stroke-width="0.75"/>
      <path id="Path_367" data-name="Path 367" d="M249.387,603.637s-13.267,5.622-17.355,26.558c-1.813,9.294,1.684,59.423,1.684,59.376,28.7,5.6,59.588-2.672,59.588-2.672s-3.485-32.657-5.146-44.96c-3.72-28.38-23.238-37.4-23.238-37.4Z" transform="translate(31.301 53.922)" fill="#fdd499"/>
      <path id="Path_368" data-name="Path 368" d="M248.666,604.1s11.035,1.7,18.123,5.078,23.05,11.142,23.05,11.142L281.636,643l-28.95-9.145" transform="translate(47.508 54.363)" fill="#fdd499"/>
      <line id="Line_14" data-name="Line 14" x1="16.264" y1="4.763" transform="translate(302.89 689.066)" fill="none" stroke="#c38437" stroke-miterlimit="10" stroke-width="0.75"/>
      <line id="Line_15" data-name="Line 15" x1="7.772" y2="23.316" transform="translate(324.603 672.267)" fill="none" stroke="#c38437" stroke-miterlimit="10" stroke-width="0.75"/>
      <path id="Path_369" data-name="Path 369" d="M232.5,647.057a189.421,189.421,0,0,0,59.32-2.172" transform="translate(32.236 92.893)" fill="none" stroke="#c38437" stroke-miterlimit="10" stroke-width="0.75"/>
    </g>
    <g transform="matrix(1, 0, 0, 1, 167.78, 1689.03)" filter="url(#發起活動)">
      <text id="發起活動-2" data-name="發起活動" transform="translate(176.22 251.97)" fill="#fff" font-size="48" font-family="TaipeiSansTCBeta-Bold, Taipei Sans TC Beta" font-weight="700" letter-spacing="0.075em"><tspan x="0" y="0">發起活動</tspan></text>
    </g>
  </g>
</svg>
