<svg xmlns="http://www.w3.org/2000/svg" xmlns:xlink="http://www.w3.org/1999/xlink" width="1440" height="763" viewBox="0 0 1440 763">
  <defs>
    <clipPath id="clip-path">
      <rect id="Rectangle_2224" data-name="Rectangle 2224" width="1440" height="763" transform="translate(19200 -150)" fill="#fff" stroke="#707070" stroke-width="1"/>
    </clipPath>
  </defs>
  <g id="Mask_Group_22" data-name="Mask Group 22" transform="translate(-19200 150)" clip-path="url(#clip-path)">
    <path id="Path_765" data-name="Path 765" d="M260.08,54.639H1840.333V627.7h0c-32.906,6-46.393,17.536-59.269,28.675-13.053,11.29-26.548,22.964-60.013,29.07s-53.938.629-73.735-4.668c-19.532-5.225-39.729-10.631-72.639-4.627s-46.22,17.522-59.1,28.661c-13.051,11.29-26.547,22.965-60.009,29.069s-53.933.628-73.728-4.668c-19.533-5.226-39.727-10.627-72.635-4.627s-46.22,17.521-59.1,28.66c-13.051,11.291-26.546,22.964-60.009,29.069s-53.933.628-73.728-4.668c-19.532-5.226-39.729-10.63-72.635-4.627s-46.22,17.521-59.1,28.66c-13.051,11.29-26.546,22.964-60.009,29.069s-53.933.629-73.728-4.668c-19.532-5.226-39.729-10.63-72.632-4.628s-46.22,17.521-59.095,28.661c-13.051,11.29-26.545,22.964-60.008,29.069s-53.932.628-73.729-4.669c-19.532-5.226-39.729-10.629-72.632-4.627s-46.216,17.521-59.091,28.66c-13.051,11.29-26.545,22.963-60,29.068s-53.931.626-73.724-4.671c-19.528-5.225-39.725-10.631-72.626-4.628" transform="translate(18876.5 -334.307)" fill="#adcbdd"/>
  </g>
</svg>
