<svg id="location_on-24px" xmlns="http://www.w3.org/2000/svg" width="13.016" height="14.456" viewBox="0 0 13.016 14.456">
  <path id="Path_13" data-name="Path 13" d="M0,0H13.016V14.456H0Z" transform="translate(0 0)" fill="none"/>
  <path id="Path_14" data-name="Path 14" d="M10.256,2A5,5,0,0,0,5,6.709c0,3.532,5.256,8.746,5.256,8.746s5.256-5.214,5.256-8.746A5,5,0,0,0,10.256,2Zm0,6.391A1.788,1.788,0,0,1,8.379,6.709a1.788,1.788,0,0,1,1.877-1.682,1.788,1.788,0,0,1,1.877,1.682A1.788,1.788,0,0,1,10.256,8.391Z" transform="translate(-3.748 -1.499)" fill="#fff"/>
</svg>
