<svg xmlns="http://www.w3.org/2000/svg" xmlns:xlink="http://www.w3.org/1999/xlink" width="211.4" height="214.726" viewBox="0 0 211.4 214.726">
  <defs>
    <clipPath id="clip-path">
      <path id="Path_598" data-name="Path 598" d="M438.314,641.065a15.726,15.726,0,0,0-10.528,5.162,2.371,2.371,0,0,1-3.53-.2,2.813,2.813,0,0,1-.636-1.6l-1.482-28.73c-.318-6.109-5.156-10.783-10.805-10.441l-.027,0-27.058,1.666a2.586,2.586,0,0,1-2.593-2.6,2.858,2.858,0,0,1,.551-1.8,18.583,18.583,0,0,0,3.975-12.422c-.551-10.548-10-18.554-21.112-17.878s-19.68,9.762-19.161,20.308a18.231,18.231,0,0,0,5.248,11.852,2.858,2.858,0,0,1,.014,3.82,2.417,2.417,0,0,1-1.589.792l-27.075,1.693c-5.647.342-9.966,5.568-9.649,11.672v.036l5,95.989c.317,6.1,5.15,10.774,10.8,10.432h.034l88.793-5.4c5.647-.338,9.97-5.56,9.658-11.663v-.045l-1.492-28.73a2.626,2.626,0,0,1,2.393-2.812,2.359,2.359,0,0,1,1.6.534,15.483,15.483,0,0,0,10.991,3.866c9.748-.594,17.154-10.807,16.529-22.822S448.069,640.471,438.314,641.065Z" transform="translate(-312.84 -572.188)" fill="none"/>
    </clipPath>
  </defs>
  <g id="Group_693" data-name="Group 693" transform="translate(150.082 -648.048) rotate(34)">
    <path id="Path_231" data-name="Path 231" d="M328.252,729.812c-5.772.009-10.54-4.867-10.849-11.095l-5.007-96.08c-.327-6.48,4.26-12.027,10.257-12.4l27.123-1.637a1.866,1.866,0,0,0,1.669-1.317,2.042,2.042,0,0,0-.46-2.126,19.064,19.064,0,0,1-5.441-12.332c-.567-10.918,8.3-20.356,19.754-21.05h1.336c10.94,0,19.928,8.116,20.472,18.571a19.432,19.432,0,0,1-4.131,12.918,2.039,2.039,0,0,0-.258,2.119,1.834,1.834,0,0,0,1.668,1.171h.117l27.115-1.637h.62c5.764.014,10.52,4.877,10.848,11.095l1.486,28.757a1.946,1.946,0,0,0,1.872,1.908,1.725,1.725,0,0,0,1.268-.569,16.258,16.258,0,0,1,10.965-5.408h.918c9.789,0,17.943,9.382,18.561,21.365a25.326,25.326,0,0,1-4.515,16.162,16.9,16.9,0,0,1-12.635,7.393h-.915a16.176,16.176,0,0,1-10.515-4.038,1.721,1.721,0,0,0-1.118-.424,1.86,1.86,0,0,0-1.379.64,2.114,2.114,0,0,0-.492,1.489l1.493,28.766c.353,6.46-4.208,12.009-10.19,12.391l-.067,0-88.945,5.409A3.953,3.953,0,0,0,328.252,729.812Z" transform="translate(0.279 0.345)" fill="#87aad9"/>
    <path id="Path_232" data-name="Path 232" d="M366.88,572.656c10.575,0,19.352,7.807,19.88,17.958a18.6,18.6,0,0,1-3.988,12.447,2.857,2.857,0,0,0,.368,3.808,2.4,2.4,0,0,0,1.53.6h.168l27.143-1.64h.585c5.452.006,9.953,4.6,10.258,10.477l1.489,28.785a2.6,2.6,0,0,0,2.508,2.544,2.3,2.3,0,0,0,1.672-.766,15.794,15.794,0,0,1,10.564-5.171h.886c9.4,0,17.362,9.077,17.964,20.754.627,12.038-6.8,22.27-16.586,22.867h-.88a15.659,15.659,0,0,1-10.15-3.9,2.289,2.289,0,0,0-1.5-.568,2.611,2.611,0,0,0-2.511,2.7c0,.05,0,.1,0,.148l1.5,28.786c.337,6.115-3.983,11.366-9.646,11.728l-.042,0-89.1,5.414H328.4c-5.446,0-9.944-4.6-10.249-10.467l-5.018-96.18c-.336-6.115,3.983-11.366,9.646-11.73h.035l27.168-1.641a2.648,2.648,0,0,0,2.315-2.9,2.8,2.8,0,0,0-.735-1.721,18.288,18.288,0,0,1-5.183-11.947c-.551-10.567,8.042-19.672,19.228-20.348h1.3m0-1.353h-1.381A22.073,22.073,0,0,0,350.75,578.2a19.89,19.89,0,0,0-.994,26.6q.5.589,1.052,1.131a1.365,1.365,0,0,1,.3,1.408,1.237,1.237,0,0,1-1.094.9l-27.161,1.639c-6.355.388-11.218,6.257-10.868,13.118L317,719.172c.354,6.58,5.4,11.724,11.5,11.731h.66l89.1-5.414c6.359-.388,11.225-6.266,10.868-13.13l-1.5-28.786a1.349,1.349,0,0,1,.326-.983,1.261,1.261,0,0,1,.919-.433,1.084,1.084,0,0,1,.728.279,16.834,16.834,0,0,0,10.925,4.187h.953a17.578,17.578,0,0,0,13.058-7.707,26.008,26.008,0,0,0,4.695-16.612c-.644-12.344-9.086-22.018-19.228-22.018h-.96a16.928,16.928,0,0,0-11.37,5.559,1.107,1.107,0,0,1-.835.379,1.282,1.282,0,0,1-1.254-1.272l-1.5-28.785c-.351-6.582-5.4-11.727-11.5-11.731h-.652l-27.169,1.639h-.076a1.2,1.2,0,0,1-1.111-.775,1.361,1.361,0,0,1,.168-1.408,20.171,20.171,0,0,0,4.288-13.4c-.56-10.829-9.839-19.23-21.132-19.23Z" transform="translate(0 0)" fill="#fff"/>
    <g id="Group_476" data-name="Group 476" transform="translate(313.433 572.817)">
      <g id="Group_475" data-name="Group 475" clip-path="url(#clip-path)">
        <g id="Group_341" data-name="Group 341" transform="translate(-50.259 77.071)">
          <g id="Group_340" data-name="Group 340" opacity="0.35">
            <path id="Path_233" data-name="Path 233" d="M279.789,651.953a2.392,2.392,0,0,1-2.913-1.88,2.616,2.616,0,0,1,1.739-3.15,2.393,2.393,0,0,1,2.915,1.88v.008A2.615,2.615,0,0,1,279.789,651.953Z" transform="translate(-276.803 -611.358)" fill="#fff"/>
            <path id="Path_234" data-name="Path 234" d="M295.512,648.028a2.394,2.394,0,0,1-2.909-1.889A2.613,2.613,0,0,1,294.35,643a2.392,2.392,0,0,1,2.908,1.889l0,.01A2.611,2.611,0,0,1,295.512,648.028Z" transform="translate(-270.596 -613.351)" fill="#fff"/>
            <path id="Path_235" data-name="Path 235" d="M311.229,644.1a2.387,2.387,0,0,1-2.892-1.9,2.6,2.6,0,0,1,1.754-3.125,2.386,2.386,0,0,1,2.891,1.9,2.767,2.767,0,0,1-.273,1.948A2.422,2.422,0,0,1,311.229,644.1Z" transform="translate(-264.386 -615.336)" fill="#fff"/>
            <path id="Path_236" data-name="Path 236" d="M326.946,640.175a2.379,2.379,0,0,1-2.876-1.9,2.594,2.594,0,0,1,1.756-3.109,2.38,2.38,0,0,1,2.876,1.9,2.75,2.75,0,0,1-.276,1.936A2.424,2.424,0,0,1,326.946,640.175Z" transform="translate(-258.176 -617.322)" fill="#fff"/>
            <path id="Path_237" data-name="Path 237" d="M342.679,636.267a2.393,2.393,0,0,1-2.906-1.892,2.614,2.614,0,0,1,1.749-3.143,2.4,2.4,0,0,1,2.908,1.892h0A2.615,2.615,0,0,1,342.679,636.267Z" transform="translate(-251.982 -619.323)" fill="#fff"/>
            <path id="Path_238" data-name="Path 238" d="M358.4,632.336a2.386,2.386,0,0,1-2.9-1.886,2.6,2.6,0,0,1,1.743-3.131,2.386,2.386,0,0,1,2.9,1.885,2.771,2.771,0,0,1-.269,1.952A2.426,2.426,0,0,1,358.4,632.336Z" transform="translate(-245.772 -621.309)" fill="#fff"/>
            <path id="Path_239" data-name="Path 239" d="M374.133,628.415a2.39,2.39,0,0,1-2.915-1.877,2.615,2.615,0,0,1,1.738-3.151,2.391,2.391,0,0,1,2.915,1.877l0,.018A2.615,2.615,0,0,1,374.133,628.415Z" transform="translate(-239.574 -623.307)" fill="#fff"/>
            <path id="Path_240" data-name="Path 240" d="M283.016,664.859a2.389,2.389,0,0,1-2.93-1.851,2.619,2.619,0,0,1,1.713-3.166,2.389,2.389,0,0,1,2.93,1.85l0,.017A2.617,2.617,0,0,1,283.016,664.859Z" transform="translate(-275.538 -604.802)" fill="#fff"/>
            <path id="Path_241" data-name="Path 241" d="M298.731,660.938a2.4,2.4,0,0,1-2.909-1.889,2.615,2.615,0,0,1,1.747-3.145,2.394,2.394,0,0,1,2.909,1.889l0,.011A2.616,2.616,0,0,1,298.731,660.938Z" transform="translate(-269.326 -606.797)" fill="#fff"/>
            <path id="Path_242" data-name="Path 242" d="M314.448,657.013a2.386,2.386,0,0,1-2.891-1.9,2.6,2.6,0,0,1,1.755-3.125,2.387,2.387,0,0,1,2.891,1.9,2.763,2.763,0,0,1-.275,1.946A2.422,2.422,0,0,1,314.448,657.013Z" transform="translate(-263.115 -608.782)" fill="#fff"/>
            <path id="Path_243" data-name="Path 243" d="M330.166,653.086a2.38,2.38,0,0,1-2.877-1.9,2.594,2.594,0,0,1,1.756-3.11,2.378,2.378,0,0,1,2.876,1.9,2.761,2.761,0,0,1-.275,1.937A2.423,2.423,0,0,1,330.166,653.086Z" transform="translate(-256.906 -610.768)" fill="#fff"/>
            <path id="Path_244" data-name="Path 244" d="M345.908,649.174a2.392,2.392,0,0,1-2.915-1.88,2.617,2.617,0,0,1,1.74-3.15,2.393,2.393,0,0,1,2.913,1.88v.008A2.615,2.615,0,0,1,345.908,649.174Z" transform="translate(-250.711 -612.768)" fill="#fff"/>
            <path id="Path_245" data-name="Path 245" d="M361.629,645.25a2.392,2.392,0,0,1-2.913-1.88,2.615,2.615,0,0,1,1.739-3.15,2.391,2.391,0,0,1,2.913,1.88v.006A2.614,2.614,0,0,1,361.629,645.25Z" transform="translate(-244.507 -614.761)" fill="#fff"/>
            <path id="Path_246" data-name="Path 246" d="M377.353,641.328a2.391,2.391,0,0,1-2.915-1.877,2.617,2.617,0,0,1,1.736-3.153,2.394,2.394,0,0,1,2.916,1.879l0,.017A2.616,2.616,0,0,1,377.353,641.328Z" transform="translate(-238.303 -616.752)" fill="#fff"/>
            <path id="Path_247" data-name="Path 247" d="M286.227,677.771a2.392,2.392,0,0,1-2.906-1.892,2.613,2.613,0,0,1,1.75-3.142,2.393,2.393,0,0,1,2.906,1.891,2.614,2.614,0,0,1-1.749,3.143Z" transform="translate(-274.259 -598.251)" fill="#fff"/>
            <path id="Path_248" data-name="Path 248" d="M301.912,673.857a2.417,2.417,0,0,1-2.8-2.067,2.591,2.591,0,0,1,1.912-3.03,2.418,2.418,0,0,1,2.8,2.067,2.8,2.8,0,0,1-.064,1.245A2.474,2.474,0,0,1,301.912,673.857Z" transform="translate(-268.017 -600.255)" fill="#fff"/>
            <path id="Path_249" data-name="Path 249" d="M317.691,669.943a2.4,2.4,0,0,1-2.908-1.892,2.615,2.615,0,0,1,1.75-3.143,2.393,2.393,0,0,1,2.906,1.892h0a2.612,2.612,0,0,1-1.747,3.142Z" transform="translate(-261.843 -602.227)" fill="#fff"/>
            <path id="Path_250" data-name="Path 250" d="M333.4,666a2.385,2.385,0,0,1-2.9-1.886,2.6,2.6,0,0,1,1.743-3.131,2.386,2.386,0,0,1,2.9,1.885,2.772,2.772,0,0,1-.269,1.952A2.424,2.424,0,0,1,333.4,666Z" transform="translate(-255.64 -604.22)" fill="#fff"/>
            <path id="Path_251" data-name="Path 251" d="M349.128,662.085a2.394,2.394,0,0,1-2.915-1.88,2.618,2.618,0,0,1,1.739-3.151,2.394,2.394,0,0,1,2.915,1.882v.006A2.617,2.617,0,0,1,349.128,662.085Z" transform="translate(-249.441 -606.215)" fill="#fff"/>
            <path id="Path_252" data-name="Path 252" d="M364.852,658.16a2.394,2.394,0,0,1-2.915-1.882,2.616,2.616,0,0,1,1.741-3.149,2.393,2.393,0,0,1,2.913,1.882v.006A2.616,2.616,0,0,1,364.852,658.16Z" transform="translate(-243.235 -608.207)" fill="#fff"/>
            <ellipse id="Ellipse_23" data-name="Ellipse 23" cx="2.399" cy="2.594" rx="2.399" ry="2.594" transform="translate(140.554 38.912)" fill="#fff"/>
            <path id="Path_253" data-name="Path 253" d="M289.442,690.675a2.387,2.387,0,0,1-2.892-1.9,2.6,2.6,0,0,1,1.754-3.125,2.387,2.387,0,0,1,2.891,1.9,2.767,2.767,0,0,1-.273,1.948A2.422,2.422,0,0,1,289.442,690.675Z" transform="translate(-272.983 -591.693)" fill="#fff"/>
            <path id="Path_254" data-name="Path 254" d="M305.108,686.767a2.419,2.419,0,0,1-2.8-2.068,2.589,2.589,0,0,1,1.913-3.03,2.418,2.418,0,0,1,2.8,2.069,2.776,2.776,0,0,1-.066,1.244A2.478,2.478,0,0,1,305.108,686.767Z" transform="translate(-266.755 -593.701)" fill="#fff"/>
            <path id="Path_255" data-name="Path 255" d="M320.892,682.837a2.394,2.394,0,0,1-2.908-1.891,2.615,2.615,0,0,1,1.75-3.144,2.394,2.394,0,0,1,2.908,1.891,2.615,2.615,0,0,1-1.749,3.143Z" transform="translate(-260.58 -595.68)" fill="#fff"/>
            <path id="Path_256" data-name="Path 256" d="M336.618,678.9a2.386,2.386,0,0,1-2.9-1.886,2.6,2.6,0,0,1,1.743-3.131,2.386,2.386,0,0,1,2.9,1.885,2.771,2.771,0,0,1-.269,1.952A2.431,2.431,0,0,1,336.618,678.9Z" transform="translate(-254.369 -597.671)" fill="#fff"/>
            <path id="Path_257" data-name="Path 257" d="M352.34,674.994a2.393,2.393,0,0,1-2.912-1.883,2.616,2.616,0,0,1,1.742-3.148,2.393,2.393,0,0,1,2.913,1.883l.007.032A2.613,2.613,0,0,1,352.34,674.994Z" transform="translate(-248.172 -599.661)" fill="#fff"/>
            <path id="Path_258" data-name="Path 258" d="M368.069,671.069a2.393,2.393,0,0,1-2.913-1.88,2.615,2.615,0,0,1,1.739-3.149,2.39,2.39,0,0,1,2.913,1.88v.006A2.614,2.614,0,0,1,368.069,671.069Z" transform="translate(-241.966 -601.653)" fill="#fff"/>
            <ellipse id="Ellipse_24" data-name="Ellipse 24" cx="2.399" cy="2.594" rx="2.399" ry="2.594" transform="translate(145.048 58.369)" fill="#fff"/>
            <path id="Path_259" data-name="Path 259" d="M292.662,703.585a2.387,2.387,0,0,1-2.891-1.9,2.6,2.6,0,0,1,1.753-3.125,2.387,2.387,0,0,1,2.891,1.9,2.769,2.769,0,0,1-.273,1.948A2.422,2.422,0,0,1,292.662,703.585Z" transform="translate(-271.712 -585.139)" fill="#fff"/>
            <path id="Path_260" data-name="Path 260" d="M308.352,699.676a2.417,2.417,0,0,1-2.8-2.068,2.588,2.588,0,0,1,1.912-3.031,2.418,2.418,0,0,1,2.8,2.069,2.784,2.784,0,0,1-.066,1.245A2.474,2.474,0,0,1,308.352,699.676Z" transform="translate(-265.475 -587.148)" fill="#fff"/>
            <path id="Path_261" data-name="Path 261" d="M324.12,695.748a2.392,2.392,0,0,1-2.913-1.88,2.616,2.616,0,0,1,1.739-3.15,2.391,2.391,0,0,1,2.913,1.88v.006A2.615,2.615,0,0,1,324.12,695.748Z" transform="translate(-259.309 -589.124)" fill="#fff"/>
            <path id="Path_262" data-name="Path 262" d="M339.839,691.817a2.388,2.388,0,0,1-2.9-1.886,2.6,2.6,0,0,1,1.745-3.131,2.384,2.384,0,0,1,2.9,1.885,2.771,2.771,0,0,1-.269,1.953A2.431,2.431,0,0,1,339.839,691.817Z" transform="translate(-253.099 -591.113)" fill="#fff"/>
            <path id="Path_263" data-name="Path 263" d="M355.566,687.9a2.393,2.393,0,0,1-2.913-1.88,2.618,2.618,0,0,1,1.739-3.151,2.392,2.392,0,0,1,2.913,1.88l0,.008A2.617,2.617,0,0,1,355.566,687.9Z" transform="translate(-246.899 -593.107)" fill="#fff"/>
            <ellipse id="Ellipse_25" data-name="Ellipse 25" cx="2.4" cy="2.594" rx="2.4" ry="2.594" transform="translate(127.616 83.785)" fill="#fff"/>
            <path id="Path_264" data-name="Path 264" d="M386.987,680.053a2.394,2.394,0,0,1-2.909-1.889,2.612,2.612,0,0,1,1.747-3.143,2.394,2.394,0,0,1,2.909,1.889l0,.009A2.615,2.615,0,0,1,386.987,680.053Z" transform="translate(-234.498 -597.093)" fill="#fff"/>
            <path id="Path_265" data-name="Path 265" d="M295.881,716.494a2.388,2.388,0,0,1-2.891-1.9,2.606,2.606,0,0,1,1.754-3.127,2.387,2.387,0,0,1,2.891,1.9,2.762,2.762,0,0,1-.273,1.946A2.423,2.423,0,0,1,295.881,716.494Z" transform="translate(-270.442 -578.585)" fill="#fff"/>
            <path id="Path_266" data-name="Path 266" d="M311.618,712.574A2.392,2.392,0,0,1,308.7,710.7a2.618,2.618,0,0,1,1.738-3.152,2.392,2.392,0,0,1,2.915,1.878l0,.017A2.615,2.615,0,0,1,311.618,712.574Z" transform="translate(-264.243 -580.582)" fill="#fff"/>
            <path id="Path_267" data-name="Path 267" d="M327.34,708.654a2.392,2.392,0,0,1-2.913-1.88,2.617,2.617,0,0,1,1.739-3.149,2.392,2.392,0,0,1,2.913,1.88v.006A2.614,2.614,0,0,1,327.34,708.654Z" transform="translate(-258.038 -582.572)" fill="#fff"/>
            <path id="Path_268" data-name="Path 268" d="M343.065,704.729a2.392,2.392,0,0,1-2.915-1.88,2.617,2.617,0,0,1,1.741-3.15,2.393,2.393,0,0,1,2.913,1.88v.008A2.615,2.615,0,0,1,343.065,704.729Z" transform="translate(-251.833 -584.564)" fill="#fff"/>
            <path id="Path_269" data-name="Path 269" d="M358.786,700.81a2.39,2.39,0,0,1-2.913-1.88,2.614,2.614,0,0,1,1.739-3.149,2.393,2.393,0,0,1,2.913,1.88v.008A2.614,2.614,0,0,1,358.786,700.81Z" transform="translate(-245.629 -586.554)" fill="#fff"/>
            <path id="Path_270" data-name="Path 270" d="M374.508,696.886a2.391,2.391,0,0,1-2.913-1.88,2.617,2.617,0,0,1,1.739-3.15,2.392,2.392,0,0,1,2.913,1.88l0,.007A2.615,2.615,0,0,1,374.508,696.886Z" transform="translate(-239.425 -588.546)" fill="#fff"/>
            <path id="Path_271" data-name="Path 271" d="M390.231,692.962a2.394,2.394,0,0,1-2.909-1.889,2.614,2.614,0,0,1,1.747-3.143,2.394,2.394,0,0,1,2.909,1.889l0,.011A2.614,2.614,0,0,1,390.231,692.962Z" transform="translate(-233.218 -590.539)" fill="#fff"/>
            <path id="Path_272" data-name="Path 272" d="M299.109,729.4a2.384,2.384,0,0,1-2.9-1.885,2.605,2.605,0,0,1,1.743-3.133,2.387,2.387,0,0,1,2.9,1.886,2.767,2.767,0,0,1-.269,1.951A2.42,2.42,0,0,1,299.109,729.4Z" transform="translate(-269.171 -572.031)" fill="#fff"/>
            <path id="Path_273" data-name="Path 273" d="M314.838,725.5a2.393,2.393,0,0,1-2.915-1.879,2.615,2.615,0,0,1,1.738-3.151,2.392,2.392,0,0,1,2.915,1.877l0,.018A2.617,2.617,0,0,1,314.838,725.5Z" transform="translate(-262.972 -574.021)" fill="#fff"/>
            <path id="Path_274" data-name="Path 274" d="M330.562,721.565a2.393,2.393,0,0,1-2.913-1.88,2.618,2.618,0,0,1,1.739-3.151,2.394,2.394,0,0,1,2.915,1.88v.007A2.616,2.616,0,0,1,330.562,721.565Z" transform="translate(-256.767 -576.018)" fill="#fff"/>
            <path id="Path_275" data-name="Path 275" d="M346.283,717.64a2.393,2.393,0,0,1-2.913-1.882,2.616,2.616,0,0,1,1.739-3.15,2.392,2.392,0,0,1,2.913,1.882v.006A2.615,2.615,0,0,1,346.283,717.64Z" transform="translate(-250.563 -578.011)" fill="#fff"/>
            <path id="Path_276" data-name="Path 276" d="M362.007,713.715a2.393,2.393,0,0,1-2.915-1.879,2.617,2.617,0,0,1,1.738-3.151,2.392,2.392,0,0,1,2.915,1.879l0,.016A2.615,2.615,0,0,1,362.007,713.715Z" transform="translate(-244.359 -580.003)" fill="#fff"/>
            <ellipse id="Ellipse_26" data-name="Ellipse 26" cx="2.399" cy="2.594" rx="2.399" ry="2.594" transform="translate(136.598 122.673)" fill="#fff"/>
            <path id="Path_277" data-name="Path 277" d="M393.439,705.862a2.379,2.379,0,0,1-2.876-1.9,2.594,2.594,0,0,1,1.754-3.11,2.38,2.38,0,0,1,2.877,1.9,2.753,2.753,0,0,1-.276,1.937A2.423,2.423,0,0,1,393.439,705.862Z" transform="translate(-231.937 -583.975)" fill="#fff"/>
            <path id="Path_278" data-name="Path 278" d="M302.329,742.311a2.384,2.384,0,0,1-2.9-1.885,2.6,2.6,0,0,1,1.743-3.131,2.385,2.385,0,0,1,2.9,1.885,2.767,2.767,0,0,1-.269,1.951A2.424,2.424,0,0,1,302.329,742.311Z" transform="translate(-267.901 -565.477)" fill="#fff"/>
            <path id="Path_279" data-name="Path 279" d="M318.058,738.391a2.391,2.391,0,0,1-2.915-1.877,2.616,2.616,0,0,1,1.736-3.151,2.393,2.393,0,0,1,2.916,1.877l0,.018A2.615,2.615,0,0,1,318.058,738.391Z" transform="translate(-261.702 -567.474)" fill="#fff"/>
            <ellipse id="Ellipse_27" data-name="Ellipse 27" cx="2.399" cy="2.594" rx="2.399" ry="2.594" transform="translate(75.301 159.903)" fill="#fff"/>
            <path id="Path_280" data-name="Path 280" d="M349.5,730.549a2.393,2.393,0,0,1-2.913-1.88,2.614,2.614,0,0,1,1.739-3.149,2.391,2.391,0,0,1,2.913,1.88v.006A2.615,2.615,0,0,1,349.5,730.549Z" transform="translate(-249.292 -571.457)" fill="#fff"/>
            <ellipse id="Ellipse_28" data-name="Ellipse 28" cx="2.399" cy="2.594" rx="2.399" ry="2.594" transform="translate(119.159 148.049)" fill="#fff"/>
            <path id="Path_281" data-name="Path 281" d="M380.947,722.705a2.392,2.392,0,0,1-2.908-1.891,2.614,2.614,0,0,1,1.75-3.143,2.392,2.392,0,0,1,2.906,1.891,2.613,2.613,0,0,1-1.749,3.144Z" transform="translate(-236.881 -575.44)" fill="#fff"/>
            <path id="Path_282" data-name="Path 282" d="M396.659,718.771a2.38,2.38,0,0,1-2.876-1.9,2.592,2.592,0,0,1,1.754-3.109,2.379,2.379,0,0,1,2.877,1.9,2.753,2.753,0,0,1-.276,1.937A2.423,2.423,0,0,1,396.659,718.771Z" transform="translate(-230.666 -577.421)" fill="#fff"/>
          </g>
        </g>
      </g>
    </g>
  </g>
</svg>
