<svg xmlns="http://www.w3.org/2000/svg" width="214.339" height="214.329" viewBox="0 0 214.339 214.329">
  <path id="Path_167" data-name="Path 167" d="M403.752,619.878h-1.018L286.092,611.63a14.3,14.3,0,0,1-13.245-15.26L275.29,562a4.066,4.066,0,0,1,4.087-3.79,4.126,4.126,0,0,1,2.815,1.095,20.356,20.356,0,0,0,12.631,5.675c.471,0,.943.055,1.4.055,11.83,0,21.842-10.586,22.8-24.1,1-14.12-8.234-26.291-20.571-27.2h-1.4a20.63,20.63,0,0,0-11.9,3.9,4.094,4.094,0,0,1-2.378.766,4.149,4.149,0,0,1-3.011-1.315,4.029,4.029,0,0,1-1.1-3.055l2.433-34.343a14.328,14.328,0,0,1,14.241-13.276h1.029l35.467,2.509a4.086,4.086,0,0,1,2.5,7.087,20.811,20.811,0,0,0-6.759,13.7c-.864,12.345,9.862,23.2,24.033,24.2.7,0,1.4.077,2.105.077,13.254,0,24.273-9.072,25.095-20.65a20.8,20.8,0,0,0-4.764-14.525,4.085,4.085,0,0,1,3.121-6.638h.308l35.48,2.509A14.308,14.308,0,0,1,426.2,489.94l-8.252,116.651a14.328,14.328,0,0,1-14.241,13.276Z" transform="matrix(0.588, 0.809, -0.809, 0.588, 341.137, -494.858)" fill="#658bc7"/>
</svg>
