<svg xmlns="http://www.w3.org/2000/svg" width="286.859" height="209.166" viewBox="0 0 286.859 209.166">
  <g id="Group_781" data-name="Group 781" transform="translate(-1164.677 -2361.631)">
    <g id="Group_501" data-name="Group 501" transform="translate(523.223 2844.517) rotate(-78)">
      <path id="Path_90" data-name="Path 90" d="M419.2,658.727c27.073,5.138,55.5,1.216,81.041-9.261s65.681-42.451,82.727-79.025c-76.329-17.829-137.336,27.708-162.233,62.195" transform="translate(1.131 0)" fill="#e1ecf8"/>
      <path id="Path_91" data-name="Path 91" d="M581.758,568.975s-58.66,78-160.583,81.465" transform="translate(2.273 1.464)" fill="none" stroke="#fff" stroke-linejoin="round" stroke-width="1.5"/>
      <path id="Path_92" data-name="Path 92" d="M582.472,568.975s-80.3,53.648-162.533,68.792" transform="translate(1.559 1.464)" fill="none" stroke="#fff" stroke-linejoin="round" stroke-width="1.5"/>
      <path id="Path_93" data-name="Path 93" d="M584.033,568.975s-95.487,14.757-166.794,68.792" transform="translate(0 1.464)" fill="none" stroke="#fff" stroke-linejoin="round" stroke-width="1.5"/>
    </g>
    <g id="Group_500" data-name="Group 500" transform="translate(1739.372 1860.59) rotate(45)">
      <path id="Path_112" data-name="Path 112" d="M169.6,760.378c5.12-13.233,13.451-26.317,8.323-40.925-2.826-8.071-11.468-11.475-18.076-15.831-11.318-7.457-16.369-18.819-15.536-32.232.336-5.363-.6-11.325-4.684-14.83-6.07-5.2-16.014-2.6-22.589-7.145-3.541-2.447-5.507-6.508-7.953-10.039-5.918-8.533-16.629-12.669-16.629-12.669a35.389,35.389,0,0,1-4.305,17.655c-3.124,5.615-5.717,11.888-6.222,18.4-.394,5.095,1.186,9.322,4.121,13.375,3.455,4.775,5.985,8.71,6.515,14.628.842,9.148-10.735,28.853.252,33.687,2.986,1.319,6.558,1.27,9.131,3.447,4.675,3.952.436,10.089.74,15,.462,7.524,3.472,16.293,9,20.681,13.2,10.466,33.748,14.586,50.813,14.04" fill="#e1ecf8"/>
      <path id="Path_113" data-name="Path 113" d="M89.394,627.346c18.117,28.138,18.915,64.936,37.722,92.629,5.641,8.306,12.736,15.519,18.806,23.539s11.223,17.151,12.047,27.154" transform="translate(3.064 0.26)" fill="none" stroke="#fff" stroke-linejoin="round" stroke-width="1.5"/>
      <path id="Path_114" data-name="Path 114" d="M117.374,684.041s-20.924-9.247-28.458-14.8" transform="translate(2.869 17.327)" fill="none" stroke="#fff" stroke-linejoin="round" stroke-width="1.5"/>
      <path id="Path_115" data-name="Path 115" d="M116.127,644.807c-2.128,13.451-5.407,24.381-9.535,39.715" transform="translate(10.069 7.373)" fill="none" stroke="#fff" stroke-linejoin="round" stroke-width="1.5"/>
      <path id="Path_116" data-name="Path 116" d="M107.435,641.719a164.454,164.454,0,0,1-5.884,21.287" transform="translate(8.016 6.115)" fill="none" stroke="#fff" stroke-linejoin="round" stroke-width="1.5"/>
      <path id="Path_117" data-name="Path 117" d="M98.122,631.647c.135.11-.277,3.734-2.253,11.813" transform="translate(5.702 2.012)" fill="none" stroke="#fff" stroke-linejoin="round" stroke-width="1.5"/>
      <path id="Path_118" data-name="Path 118" d="M106.9,657.493c0,.093-14.291-8.659-22.236-14.79" transform="translate(1.136 6.516)" fill="none" stroke="#fff" stroke-linejoin="round" stroke-width="1.5"/>
      <path id="Path_119" data-name="Path 119" d="M115.178,675.747c0-.092-23.464-10.7-32.594-18.108" transform="translate(0.29 12.599)" fill="none" stroke="#fff" stroke-linejoin="round" stroke-width="1.5"/>
      <path id="Path_120" data-name="Path 120" d="M130.98,653.212c-2.035,7.768-5.953,27.886-17.613,47.921" transform="translate(12.829 10.796)" fill="none" stroke="#fff" stroke-linejoin="round" stroke-width="1.5"/>
      <path id="Path_121" data-name="Path 121" d="M126.381,695.951S100.564,687.9,87.936,681.33" transform="translate(2.47 22.25)" fill="none" stroke="#fff" stroke-linejoin="round" stroke-width="1.5"/>
      <path id="Path_122" data-name="Path 122" d="M152.238,725.158s-36.721-6.911-55.293-13.368" transform="translate(6.14 34.657)" fill="none" stroke="#fff" stroke-linejoin="round" stroke-width="1.5"/>
      <path id="Path_123" data-name="Path 123" d="M145.906,684.007s-2.27,24.229-13.232,42.69" transform="translate(20.693 23.34)" fill="none" stroke="#fff" stroke-linejoin="round" stroke-width="1.5"/>
    </g>
    <g id="Group_499" data-name="Group 499" transform="translate(724.068 2060.652) rotate(-18)">
      <path id="Path_90-2" data-name="Path 90" d="M419.2,642.866c22.42,4.255,45.964,1.007,67.113-7.669s54.393-35.156,68.509-65.444C491.61,554.988,441.087,592.7,420.469,621.259" transform="translate(0.6 0)" fill="#c2d2ec"/>
      <path id="Path_91-2" data-name="Path 91" d="M554.16,568.975s-48.578,64.593-132.985,67.464" transform="translate(1.206 0.777)" fill="none" stroke="#fff" stroke-linejoin="round" stroke-width="1.5"/>
      <path id="Path_92-2" data-name="Path 92" d="M554.539,568.975s-66.5,44.428-134.6,56.969" transform="translate(0.827 0.777)" fill="none" stroke="#fff" stroke-linejoin="round" stroke-width="1.5"/>
      <path id="Path_93-2" data-name="Path 93" d="M555.367,568.975S476.29,581.2,417.239,625.944" transform="translate(0 0.777)" fill="none" stroke="#fff" stroke-linejoin="round" stroke-width="1.5"/>
    </g>
  </g>
</svg>
