<svg xmlns="http://www.w3.org/2000/svg" width="216.457" height="307.289" viewBox="0 0 216.457 307.289">
  <g id="Group_695" data-name="Group 695" transform="translate(-198.381 -546.563)">
    <path id="Path_331" data-name="Path 331" d="M244.253,683.393l-32.9-2.45L200.56,682.1l.21,40.907a1.869,1.869,0,0,0,1.881,1.766h0a1.86,1.86,0,0,0,1.748-1.163l8.388-18.25,34.294,4.125" transform="translate(2.059 126.959)" fill="#e7b6df"/>
    <path id="Path_332" data-name="Path 332" d="M203.28,727.25c1.359-.43,2.878-1.231,3.23-2.032l8.326-19.343c-4.317-10.677-1.009-24.479-1.009-24.479l-14.582-1.056a.864.864,0,0,0-.863.863v.008l.239,45.714C198.634,727.867,203.245,727.262,203.28,727.25Z" transform="translate(0 126.39)" fill="#175fab"/>
    <path id="Path_333" data-name="Path 333" d="M208.638,696.947a22.993,22.993,0,0,0-4.578-2.731" transform="translate(5.365 139.5)" fill="none" stroke="#002b6e" stroke-linejoin="round" stroke-width="0.75"/>
    <path id="Path_334" data-name="Path 334" d="M207.558,697.97a20.053,20.053,0,0,0-3.892-2.254" transform="translate(4.993 140.917)" fill="none" stroke="#002b6e" stroke-linejoin="round" stroke-width="0.75"/>
    <path id="Path_335" data-name="Path 335" d="M206.862,698.953a29.3,29.3,0,0,0-3.578-2.1" transform="translate(4.632 141.989)" fill="none" stroke="#002b6e" stroke-linejoin="round" stroke-width="0.75"/>
    <line id="Line_9" data-name="Line 9" x2="0.255" y2="46.865" transform="translate(201.526 806.972)" fill="none" stroke="#002b6e" stroke-linejoin="round" stroke-width="0.75"/>
    <path id="Path_336" data-name="Path 336" d="M206.992,680.686s-.115,10.85-6.97,11.8" transform="translate(1.55 126.717)" fill="none" stroke="#002b6e" stroke-linejoin="round" stroke-width="0.75"/>
    <path id="Path_337" data-name="Path 337" d="M206.595,703.2s-4.45-3.125-6.494-3.742" transform="translate(1.625 144.449)" fill="none" stroke="#002b6e" stroke-linejoin="round" stroke-width="0.75"/>
    <path id="Path_338" data-name="Path 338" d="M290.909,648.879c.488,1.011,6.61,44.427,10.99,74.713,2.754,18.948,3.09,30.914-24.5,28.649-38-3.114-64.481-4.833-64.481-4.833l-.883-34.074,52.151,2.485-6.809-33.689s-12.629-16.846-3.322-36.12" transform="translate(12.899 93.954)" fill="#88adc2"/>
    <line id="Line_10" data-name="Line 10" x2="1.383" y2="33.807" transform="translate(230.535 807.554)" fill="none" stroke="#2e2e70" stroke-miterlimit="10" stroke-width="0.75"/>
    <path id="Path_339" data-name="Path 339" d="M281.621,659.055l9.177,53.338a2.322,2.322,0,0,1-1.984,2.62,2.452,2.452,0,0,1-.478.017l-76.189-4.648" transform="translate(13.007 106.28)" fill="none" stroke="#2e2e70" stroke-miterlimit="10" stroke-width="0.75"/>
    <path id="Path_340" data-name="Path 340" d="M276.357,681.292l-6.97,32.9L269.1,725l42.324-.222a1.882,1.882,0,0,0,1.857-1.881h0a1.867,1.867,0,0,0-1.161-1.742l-18.252-8.39,8.621-34.294" transform="translate(66.813 124.623)" fill="#e7b6df"/>
    <path id="Path_341" data-name="Path 341" d="M316.248,707.665c-.43-1.36-1.219-2.878-2.023-3.228L294.871,696.1c-10.663,4.319-24.477,1.023-24.477,1.023L267.932,711.7a.882.882,0,0,0,.881.871l47.114-.245C316.876,712.309,316.26,707.7,316.248,707.665Z" transform="translate(65.711 141.284)" fill="#175fab"/>
    <path id="Path_342" data-name="Path 342" d="M285.267,696.534a21.978,21.978,0,0,0-2.73,4.578" transform="translate(79.509 141.69)" fill="none" stroke="#002b6e" stroke-linejoin="round" stroke-width="0.75"/>
    <path id="Path_343" data-name="Path 343" d="M286.28,697.281a20.7,20.7,0,0,0-2.244,3.892" transform="translate(80.925 142.395)" fill="none" stroke="#002b6e" stroke-linejoin="round" stroke-width="0.75"/>
    <path id="Path_344" data-name="Path 344" d="M287.274,697.83a26.822,26.822,0,0,0-2.1,3.567" transform="translate(81.999 142.914)" fill="none" stroke="#002b6e" stroke-linejoin="round" stroke-width="0.75"/>
    <line id="Line_11" data-name="Line 11" y1="0.244" x2="48.26" transform="translate(333.897 850.457)" fill="none" stroke="#002b6e" stroke-linejoin="round" stroke-width="0.75"/>
    <path id="Path_345" data-name="Path 345" d="M268.75,699.3s11.34.233,12.314,7.063" transform="translate(66.483 144.303)" fill="none" stroke="#002b6e" stroke-linejoin="round" stroke-width="0.75"/>
    <path id="Path_346" data-name="Path 346" d="M291.512,699.509s-3.125,4.45-3.742,6.5" transform="translate(84.453 144.5)" fill="none" stroke="#002b6e" stroke-linejoin="round" stroke-width="0.75"/>
    <path id="Path_347" data-name="Path 347" d="M280.488,642.382l2.415,9.481a3.073,3.073,0,0,0,2.962,2.324h32.808c8.016,0,16.474.2,21.05,7.157,3.753,5.692,2.429,15.171-.7,26.082-2.686,9.294-12.174,51.976-12.174,51.976H293.115l9.516-50.885h-38.9s-25.222.2-21.737-25.035" transform="translate(40.897 90.528)" fill="#88adc2"/>
    <path id="Path_348" data-name="Path 348" d="M269.5,678.255h-4.646s-24.108,0-24.4-25.024" transform="translate(39.748 100.778)" fill="none" stroke="#2e2e70" stroke-miterlimit="10" stroke-width="0.75"/>
    <path id="Path_349" data-name="Path 349" d="M254.013,646.558s.616,28.23,24.4,28.23h17.88a3.485,3.485,0,0,1,3.559,3.409,3.53,3.53,0,0,1-.074.8l-11.791,56.368" transform="translate(52.56 94.473)" fill="none" stroke="#2e2e70" stroke-miterlimit="10" stroke-width="0.75"/>
    <path id="Path_350" data-name="Path 350" d="M255.207,658.266c.187.5,9.981-2.242,9.794-11.706" transform="translate(53.688 94.475)" fill="none" stroke="#2e2e70" stroke-miterlimit="10" stroke-width="0.75"/>
    <path id="Path_351" data-name="Path 351" d="M244.628,655.288a40.612,40.612,0,0,0,9.806-1.344" transform="translate(43.693 101.451)" fill="none" stroke="#2e2e70" stroke-miterlimit="10" stroke-width="0.75"/>
    <path id="Path_352" data-name="Path 352" d="M231.94,654.634s4.739.14,8.33,0" transform="translate(31.706 102.103)" fill="none" stroke="#2e2e70" stroke-miterlimit="10" stroke-width="0.75"/>
    <path id="Path_353" data-name="Path 353" d="M256.661,630.11s11.61-36.189,33.374-65.314l-14.846-9.063c-23.491,25.488-38.966,68.114-38.966,68.114" transform="translate(35.752 8.664)" fill="#e7b6df"/>
    <path id="Path_354" data-name="Path 354" d="M231.827,665.446s-4.856-44.635,13.53-82.078l21.713,7.087-5.716,28.625" transform="translate(31.051 34.772)" fill="#fdd499"/>
    <line id="Line_13" data-name="Line 13" x2="21.388" y2="7.4" transform="translate(274.787 622.346)" fill="none" stroke="#c38437" stroke-miterlimit="10" stroke-width="0.75"/>
    <path id="Path_355" data-name="Path 355" d="M271.181,577.635c3.485-5.356,16.2-19.191,15.58-20.354s-5.148,3.66-5.471,2.614,6.142-8.923,5.218-9.909c-1.249-1.344-7.449,7.073-7.449,7.073s6.334-9.561,4.9-10.459c-1-.6-6.169,6.472-8.481,8.925,2.172-2.985,5.113-8.224,4.055-8.827s-4.648,4.135-7.633,7.62c1.638-2.322,4.415-6.774,3.485-7.376s-13,12.186-22.5,25.175" transform="translate(51.493 0)" fill="#e7b6df"/>
    <path id="Path_356" data-name="Path 356" d="M254.114,630.872s22.213,8.5,38.513,9.572c21.354,1.383,46.192-6.575,46.192-6.575s3.287-17.555-5.263-16.717c-10.537,1.917-28.754,3.261-42.462,1.6-8.54-1.035-26.721-10.78-26.721-10.78" transform="translate(52.656 58.02)" fill="#e7b6df"/>
    <path id="Path_357" data-name="Path 357" d="M292.472,615.792c6.342-.848,24.316-6.3,25.094-5.251s-5.519,3.071-4.718,3.81,10.689-1.672,11.188-.418c.671,1.708-9.6,3.647-9.6,3.647s11.35-1.556,11.5.1c.105,1.163-8.5,2.754-11.708,3.777,3.625-.663,9.621-1.046,9.7.175s-5.751,2.416-10.177,3.576c2.834-.463,8.026-1.044,8.131.082s-13.859,5.043-27.172,8.227" transform="translate(88.895 60.32)" fill="#e7b6df"/>
    <path id="Path_358" data-name="Path 358" d="M243.771,598.189l-3.032,15.265s8.551,8.656,17.507.593l-.1-10.224Z" transform="translate(40.019 48.775)" fill="#e7b6df"/>
    <path id="Path_359" data-name="Path 359" d="M258.447,590.829s7.293,14.592,2.777,19.413c-2.324,2.509-5.809,3.485-8.888,1.161-2.324-1.727-11.118-12.2-9.883-14.185C247.177,589.608,258.447,590.829,258.447,590.829Z" transform="translate(41.527 41.753)" fill="#e7b6df"/>
    <path id="Path_360" data-name="Path 360" d="M252.113,595.023s2.7,2.672,2.7,4.45c0,.789-2.7.906-2.7.906" transform="translate(50.765 45.784)" fill="#e7b6df"/>
    <path id="Path_361" data-name="Path 361" d="M254.357,598.885l-4.741-.7C249.384,599.99,252.916,604.475,254.357,598.885Z" transform="translate(48.395 48.775)" fill="#fff"/>
    <path id="Path_362" data-name="Path 362" d="M250.273,595.019a1.238,1.238,0,0,0,0,.36.78.78,0,0,0,.058.36,2.179,2.179,0,0,0,.082.278.94.94,0,0,0,.07.14,1,1,0,0,0,.1.128.437.437,0,0,0,.233.161.386.386,0,0,0,.453-.255.577.577,0,0,0,0-.245v-.1a2.784,2.784,0,0,0-.117-.255v.105a1.784,1.784,0,0,1-.128-.49v-.1a.316.316,0,0,1,0-.105.347.347,0,0,0-.661,0Z" transform="translate(49.015 45.543)" fill="#0a244b"/>
    <path id="Path_363" data-name="Path 363" d="M249.1,595.1a3.074,3.074,0,0,1,2.254-1.334,1.62,1.62,0,0,1,1.163.266" transform="translate(47.915 44.579)" fill="none" stroke="#0a244b" stroke-linecap="round" stroke-linejoin="round" stroke-width="0.5"/>
    <path id="Path_364" data-name="Path 364" d="M243.356,593.974c.79-5.181,6.052-6.251,15.858-4.8,1.313.2,3.742-.486,4.251.733.663,1.614.535,4.751-1.161,6.017-1.464,1.163-3.485.523-5.16,1.163-2.637.953-1.336,3.485-2.73,5.354-2.322,3.1-.79,7.657-4.646,10.027-2.184,1.344-4.984.959-7.5.488a1.884,1.884,0,0,1-.871-.315c-.871-.671-.523-3.044-.778-4.067a31.372,31.372,0,0,1-.976-10.13C239.916,595.451,242.275,593.626,243.356,593.974Z" transform="translate(38.913 39.699)" fill="#091429"/>
    <path id="Path_366" data-name="Path 366" d="M252.217,603.448a17.831,17.831,0,0,1-5.379-2.672" transform="translate(45.781 51.219)" fill="none" stroke="#aa1f6f" stroke-linejoin="round" stroke-width="0.75"/>
    <path id="Path_367" data-name="Path 367" d="M249.387,603.637s-13.267,5.622-17.355,26.558c-1.813,9.294,1.684,59.423,1.684,59.376,28.7,5.6,59.588-2.672,59.588-2.672s-3.485-32.657-5.146-44.96c-3.72-28.38-23.238-37.4-23.238-37.4Z" transform="translate(31.301 53.922)" fill="#fdd499"/>
    <path id="Path_368" data-name="Path 368" d="M248.666,604.1s11.035,1.7,18.123,5.078,23.05,11.142,23.05,11.142L281.636,643l-28.95-9.145" transform="translate(47.508 54.363)" fill="#fdd499"/>
    <line id="Line_14" data-name="Line 14" x1="16.264" y1="4.763" transform="translate(302.89 689.066)" fill="none" stroke="#c38437" stroke-miterlimit="10" stroke-width="0.75"/>
    <line id="Line_15" data-name="Line 15" x1="7.772" y2="23.316" transform="translate(324.603 672.267)" fill="none" stroke="#c38437" stroke-miterlimit="10" stroke-width="0.75"/>
    <path id="Path_369" data-name="Path 369" d="M232.5,647.057a189.421,189.421,0,0,0,59.32-2.172" transform="translate(32.236 92.893)" fill="none" stroke="#c38437" stroke-miterlimit="10" stroke-width="0.75"/>
  </g>
</svg>
