<svg xmlns="http://www.w3.org/2000/svg" xmlns:xlink="http://www.w3.org/1999/xlink" width="655.5" height="539.754" viewBox="0 0 655.5 539.754">
  <defs>
    <filter id="尋找夥伴" x="79" y="417.471" width="221" height="66" filterUnits="userSpaceOnUse">
      <feOffset dy="3" input="SourceAlpha"/>
      <feGaussianBlur stdDeviation="3" result="blur"/>
      <feFlood flood-opacity="0.161"/>
      <feComposite operator="in" in2="blur"/>
      <feComposite in="SourceGraphic"/>
    </filter>
    <clipPath id="clip-path">
      <path id="Path_599" data-name="Path 599" d="M478.9,213.224l-103.672-1.058a11.946,11.946,0,0,0-12.062,11.82l-.32,30.682a2.914,2.914,0,0,1-4.751,2.175,18.886,18.886,0,0,0-12.14-4.71c-11.391-.115-20.736,10.3-20.873,23.31s8.994,23.585,20.4,23.708a18.947,18.947,0,0,0,12.218-4.429A2.913,2.913,0,0,1,362.4,297l-.32,30.682a11.937,11.937,0,0,0,11.809,12.062h0l31.722.33a2.913,2.913,0,0,1,2.049,4.856,19.115,19.115,0,0,0-5.616,13.181c-.115,11.383,10.306,20.726,23.312,20.863s23.591-8.986,23.707-20.4a19.1,19.1,0,0,0-5.331-13.287,2.914,2.914,0,0,1,2.148-4.86l31.721.332a11.947,11.947,0,0,0,12.062-11.822l1-103.66A11.927,11.927,0,0,0,478.9,213.224Z" transform="translate(-325.077 -212.165)" fill="none"/>
    </clipPath>
  </defs>
  <g id="Group_780" data-name="Group 780" transform="translate(-732 -1710.529)">
    <g id="Group_495" data-name="Group 495" transform="translate(620.761 1253.294)">
      <path id="Path_90" data-name="Path 90" d="M419.2,637.893c20.961,3.978,42.974.942,62.746-7.171S532.8,597.855,546,569.537c-59.1-13.8-106.333,21.453-125.61,48.155" transform="translate(0.434 0)" fill="#c2d2ec"/>
      <path id="Path_91" data-name="Path 91" d="M545.507,568.975s-45.418,60.39-124.332,63.075" transform="translate(0.871 0.561)" fill="none" stroke="#fff" stroke-linejoin="round" stroke-width="1.5"/>
      <path id="Path_92" data-name="Path 92" d="M545.781,568.975s-62.17,41.537-125.842,53.263" transform="translate(0.598 0.561)" fill="none" stroke="#fff" stroke-linejoin="round" stroke-width="1.5"/>
      <path id="Path_93" data-name="Path 93" d="M546.38,568.975S472.448,580.4,417.239,622.237" transform="translate(0 0.561)" fill="none" stroke="#fff" stroke-linejoin="round" stroke-width="1.5"/>
    </g>
    <g transform="matrix(1, 0, 0, 1, 732, 1710.53)" filter="url(#尋找夥伴)">
      <text id="尋找夥伴-2" data-name="尋找夥伴" transform="translate(88 465.47)" fill="#fff" font-size="48" font-family="TaipeiSansTCBeta-Bold, Taipei Sans TC Beta" font-weight="700" letter-spacing="0.075em"><tspan x="0" y="0">尋找夥伴</tspan></text>
    </g>
    <g id="Group_496" data-name="Group 496" transform="translate(1660.139 1499.405) rotate(70)">
      <path id="Path_112" data-name="Path 112" d="M144.209,721.689c3.638-9.4,9.558-18.7,5.914-29.08-2.008-5.735-8.149-8.154-12.844-11.249-8.042-5.3-11.631-13.372-11.039-22.9.239-3.811-.424-8.047-3.328-10.538-4.313-3.7-11.379-1.846-16.051-5.077-2.516-1.739-3.913-4.624-5.651-7.133-4.205-6.063-11.816-9-11.816-9a25.146,25.146,0,0,1-3.059,12.545,32.646,32.646,0,0,0-4.421,13.075,13.768,13.768,0,0,0,2.928,9.5c2.455,3.393,4.253,6.189,4.629,10.394.6,6.5-7.628,20.5.179,23.937,2.122.937,4.66.9,6.488,2.449,3.322,2.808.31,7.169.526,10.658.328,5.346,2.467,11.577,6.4,14.7,9.379,7.437,23.98,10.364,36.106,9.976" fill="#e1ecf8"/>
      <path id="Path_113" data-name="Path 113" d="M89.394,627.346c12.873,19.994,13.44,46.141,26.8,65.819,4.008,5.9,9.05,11.027,13.363,16.726s7.975,12.187,8.56,19.295" fill="none" stroke="#fff" stroke-linejoin="round" stroke-width="1.5"/>
      <path id="Path_114" data-name="Path 114" d="M109.137,679.759s-14.868-6.571-20.221-10.513" fill="none" stroke="#fff" stroke-linejoin="round" stroke-width="1.5"/>
      <path id="Path_115" data-name="Path 115" d="M113.367,644.807c-1.512,9.558-3.842,17.324-6.775,28.22" fill="none" stroke="#fff" stroke-linejoin="round" stroke-width="1.5"/>
      <path id="Path_116" data-name="Path 116" d="M105.732,641.719a116.854,116.854,0,0,1-4.181,15.126" fill="none" stroke="#fff" stroke-linejoin="round" stroke-width="1.5"/>
      <path id="Path_117" data-name="Path 117" d="M97.47,631.647c.1.078-.2,2.653-1.6,8.394" fill="none" stroke="#fff" stroke-linejoin="round" stroke-width="1.5"/>
      <path id="Path_118" data-name="Path 118" d="M100.461,653.212c0,.066-10.155-6.153-15.8-10.509" fill="none" stroke="#fff" stroke-linejoin="round" stroke-width="1.5"/>
      <path id="Path_119" data-name="Path 119" d="M105.744,670.506c0-.065-16.673-7.6-23.16-12.867" fill="none" stroke="#fff" stroke-linejoin="round" stroke-width="1.5"/>
      <path id="Path_120" data-name="Path 120" d="M125.882,653.212c-1.446,5.52-4.23,19.815-12.515,34.051" fill="none" stroke="#fff" stroke-linejoin="round" stroke-width="1.5"/>
      <path id="Path_121" data-name="Path 121" d="M115.254,691.719S96.909,686,87.936,681.33" fill="none" stroke="#fff" stroke-linejoin="round" stroke-width="1.5"/>
      <path id="Path_122" data-name="Path 122" d="M136.234,721.289s-26.093-4.911-39.289-9.5" fill="none" stroke="#fff" stroke-linejoin="round" stroke-width="1.5"/>
      <path id="Path_123" data-name="Path 123" d="M142.076,684.007s-1.613,17.216-9.4,30.334" fill="none" stroke="#fff" stroke-linejoin="round" stroke-width="1.5"/>
    </g>
    <g id="Group_492" data-name="Group 492" transform="translate(375.417 1709.391)">
      <g id="Group_333" data-name="Group 333" transform="translate(356.583 320.609)">
        <path id="Path_72" data-name="Path 72" d="M468.23,360.825c-1.959-7.977-20.48-19.6-30.379-12.6-3.037-15.174-5.88-24.64-15.8-32.116s-26.487,2.325-29.079,22.779c-2.646-8.4-16.187-19.751-27.047-10.19-10.052,8.847-11.059,23.672-10.009,32.2Z" transform="translate(-355.583 -313.609)" fill="#c2d2ec"/>
      </g>
      <g id="Group_334" data-name="Group 334" transform="translate(885.946 495.137)">
        <path id="Path_73" data-name="Path 73" d="M530.946,405.185c-3.065-7.546-8.847-11.591-15.692-12.348-8.624-.965-17.373,3.991-17.373,3.991s3.248-12.458-1.165-22.259c-2.995-6.691-7.783-12.979-14.417-14.628-6.876-1.708-14.169,1.638-19.292,7s-8.4,12.334-11.369,19.346c-1.526-4.982-3.541-10.555-8.034-12.4s-10.026,1.4-12.461,6.119-2.564,10.443-2.226,15.861c-5.39-3.236-12.264-4.2-17.668-.952a14.371,14.371,0,0,0-6.44,10.333Z" transform="translate(-404.809 -359.491)" fill="#c2d2ec"/>
      </g>
    </g>
    <g id="Group_484" data-name="Group 484" transform="translate(429.352 1464.55)">
      <path id="Path_146" data-name="Path 146" d="M491.109,284.213l1.523,10.523s7.674,4.972,14.1,2.339c6.781-2.752,6.414-6.448,6.414-6.448l-8.132-19.307" transform="translate(73.568 13.966)" fill="#e7b6df"/>
      <path id="Path_147" data-name="Path 147" d="M487.235,272.541c-.117,13.572,2.3,24.212,11.27,23.516,9.444-.713,16.458-8.487,13.076-19.077C508.015,265.86,488.028,264.634,487.235,272.541Z" transform="translate(66.686 7.128)" fill="#e7b6df"/>
      <path id="Path_151" data-name="Path 151" d="M503.968,278.673c-7.674,2.022-13.109,1.659-18.23-.136.813-4.592,3.612-11.136,12.166-11.336a14.81,14.81,0,0,1,14.8-2.9,19.1,19.1,0,0,1,11.023,9.114c4.342,7.308,5.252,18.38,5.169,24.512a83.246,83.246,0,0,1-16.571,3.038C512.5,301.032,509.686,282.668,503.968,278.673Z" transform="translate(64.038)" fill="#161a29"/>
      <path id="Path_152" data-name="Path 152" d="M493.929,273.777a2.366,2.366,0,0,1,1.21-2.156c1.889-1.126,3.7,1.11,3.879,3.149a5.474,5.474,0,0,1-.763,3.512c-.863,1.543-2.3,2.139-3.462.746" transform="translate(78.569 13.963)" fill="#e7b6df"/>
      <path id="Path_153" data-name="Path 153" d="M490.48,271.906s-1.573,5.171-.957,6.315,3.546.447,3.546.447" transform="translate(70.499 15.004)" fill="none" stroke="#aa1f6f" stroke-linejoin="round" stroke-width="0.5"/>
      <path id="Path_154" data-name="Path 154" d="M489.7,275.919l8.29-1.11a5.27,5.27,0,0,1-4.875,4.839C489.848,279.781,489.7,275.919,489.7,275.919Z" transform="translate(71.064 20.155)" fill="#fff"/>
      <path id="Path_155" data-name="Path 155" d="M488.458,271.968v.7a3.19,3.19,0,0,0,0,.563.715.715,0,0,0,.183.463.609.609,0,0,0,.463.183.6.6,0,0,0,.463-.183.779.779,0,0,0,.2-.463v-.563a2.2,2.2,0,0,0-.083-.7v-.136a.508.508,0,0,0-.15-.166.5.5,0,0,0-.33-.117.776.776,0,0,0-.3,0,.609.609,0,0,0-.266.333Z" transform="translate(68.842 14.345)" fill="#0a244b"/>
      <path id="Path_156" data-name="Path 156" d="M491.143,271.093a2.122,2.122,0,0,0-2.974.394c-.028.033-.053.067-.078.1" transform="translate(68.213 12.785)" fill="none" stroke="#0a244b" stroke-linecap="round" stroke-linejoin="round" stroke-width="0.5"/>
      <path id="Path_157" data-name="Path 157" d="M491.9,271.9v.547a3.19,3.19,0,0,0,0,.563.632.632,0,0,0,0,.25.609.609,0,0,0,.136.216.687.687,0,0,0,.929,0,.73.73,0,0,0,.2-.466,1.994,1.994,0,0,0-.08-.713v-.547a.618.618,0,0,0-.266-.347.674.674,0,0,0-.363,0,.517.517,0,0,0-.33.164v.117a.569.569,0,0,0-.083.283Z" transform="translate(74.958 14.067)" fill="#0a244b"/>
      <path id="Path_158" data-name="Path 158" d="M491.491,270.8a3.962,3.962,0,0,1,4.392.48" transform="translate(74.246 12.236)" fill="none" stroke="#0a244b" stroke-linecap="round" stroke-linejoin="round" stroke-width="0.5"/>
      <path id="Path_159" data-name="Path 159" d="M546.246,307.174c-26.054,36.195-79.236,68.719-79.236,68.719l-10.973-13.905s39.776-33.4,63.788-71.748" transform="translate(11.337 47.534)" fill="#e7b6df"/>
      <path id="Path_160" data-name="Path 160" d="M472.046,314.773c-4.872,4.245-21.229,14.321-20.88,15.581s6.159-2.192,6.248-1.11-8.437,7.008-7.724,8.287c.96,1.656,9.347-4.972,9.347-4.972s-8.784,7.588-7.527,8.759c.893.846,7.887-4.639,10.837-6.412-2.932,2.319-7.208,6.628-6.265,7.457s5.785-2.785,9.68-5.388c-2.253,1.839-6.162,5.4-5.321,6.231s13.259-7.224,24.711-15.248" transform="translate(0 91.066)" fill="#e7b6df"/>
      <path id="Path_161" data-name="Path 161" d="M453.205,320.684s6.331.167,9-1.16" transform="translate(6.312 99.496)" fill="none" stroke="#aa1f6f" stroke-linejoin="round" stroke-width="0.75"/>
      <path id="Path_162" data-name="Path 162" d="M516.012,280.01c-11.37-2.053-21.546,6.081-25.954,13.159a213.482,213.482,0,0,0-13.825,25.46l26.781,16.125,15.248-47.911" transform="translate(47.172 28.81)" fill="#f28d61"/>
      <path id="Path_163" data-name="Path 163" d="M504.436,282.3c5.3.979,6.628,2.869,10.357,1.659a52.18,52.18,0,0,0,11.916-5.568c-4.425.3,14.471,3.745,28.92,18.993,4.855,16.721,5.421,33.345,6.828,77.477a121.531,121.531,0,0,1-67.287,1.856s-4.076-19.243-8.761-33.5c-6.511-13.142-3.7-27.86,3.582-39.876C490.231,296.045,504.436,282.3,504.436,282.3Z" transform="translate(58.748 26.516)" fill="#f28d61"/>
      <path id="Path_164" data-name="Path 164" d="M506.267,276.757l-12.279,10.4,7.854,8.351,8.137-12.363Z" transform="translate(78.676 23.612)" fill="#fff"/>
      <path id="Path_165" data-name="Path 165" d="M500.051,283.995l-6.944-5.452-2.536,3.49,3.332,10.06Z" transform="translate(72.613 26.781)" fill="#fff"/>
      <path id="Path_414" data-name="Path 414" d="M509.143,326.291c-1.026,8.8-7.557,29.2-6.281,30.03s4.359-7.011,5.271-6.148-2.536,12.729-1.013,13.259c2.053.7,4.758-11.039,4.758-11.039s-2.222,12.929-.25,13.042c1.393.086,3.762-9.247,4.858-12.868-.663,4.045-1.659,10.443-.216,10.509s3.082-5.477,4.325-10.426c-.463,3.166-1.939,9.447-.6,9.547s6.2-14.155,9.3-31.936" transform="translate(94.13 111.503)" fill="#e7b6df"/>
      <path id="Path_415" data-name="Path 415" d="M532,294.057c6.348,46.5-7.541,102.391-7.541,102.391l-19.257-4.162s7.208-50.433-.9-94.748" transform="translate(96.991 54.308)" fill="#e7b6df"/>
      <path id="Path_416" data-name="Path 416" d="M499.7,279.122a43.4,43.4,0,0,1,26.947,9.583c12.779,9.943,15.994,33.148,15.994,33.148l-30.3,6.048s-1.659-19.557-1.825-26.251" transform="translate(88.81 27.808)" fill="#f28d61"/>
      <path id="Path_417" data-name="Path 417" d="M506.236,307.611a87.277,87.277,0,0,0-3.712-17.037" transform="translate(93.822 48.128)" fill="none" stroke="#8b1e20" stroke-miterlimit="10" stroke-width="0.75"/>
    </g>
    <g id="Group_487" data-name="Group 487" transform="translate(633.859 1484.687) rotate(17)">
      <path id="Path_173" data-name="Path 173" d="M425.609,379.99c-13.355-.137-24.116-9.83-24-21.6a19.927,19.927,0,0,1,5.827-13.675,2.157,2.157,0,0,0-1.535-3.661l-31.711-.33a12.624,12.624,0,0,1-12.539-12.713v-.088l.322-30.682a2.138,2.138,0,0,0-.623-1.545,2.207,2.207,0,0,0-1.562-.66,2.068,2.068,0,0,0-1.332.5,19.627,19.627,0,0,1-12.539,4.614h-.2c-11.781-.127-21.24-11.092-21.1-24.446s9.711-24,21.367-24h.193a19.553,19.553,0,0,1,12.626,4.856,2.09,2.09,0,0,0,1.369.515,2.193,2.193,0,0,0,2.185-2.156l.322-30.682a12.7,12.7,0,0,1,12.626-12.54l103.8,1.08A12.626,12.626,0,0,1,491.644,225.5l0,.078-1.068,103.67a12.713,12.713,0,0,1-12.626,12.539l-31.857-.33a2.147,2.147,0,0,0-2.01,1.3,2.107,2.107,0,0,0,.4,2.332,19.9,19.9,0,0,1,5.536,13.791c-.117,11.656-10.955,21.1-24.155,21.1Z" transform="translate(0)" fill="#9fb7df"/>
      <g id="Group_486" data-name="Group 486" transform="translate(325.364 212.459)">
        <g id="Group_485" data-name="Group 485" clip-path="url(#clip-path)">
          <g id="Group_339" data-name="Group 339" transform="translate(-0.097 -12.748)">
            <path id="Path_175" data-name="Path 175" d="M328.283,226.048a2.8,2.8,0,1,1,2.291-3.226l0,.01A2.8,2.8,0,0,1,328.283,226.048Z" transform="translate(-325.018 -194.205)" fill="#fff"/>
            <path id="Path_176" data-name="Path 176" d="M344.264,223.353a2.8,2.8,0,1,1,2.289-3.226l0,.01A2.8,2.8,0,0,1,344.264,223.353Z" transform="translate(-315.016 -195.89)" fill="#fff"/>
            <path id="Path_177" data-name="Path 177" d="M360.242,220.66a2.8,2.8,0,1,1,2.292-3.226,2.8,2.8,0,0,1-2.292,3.226Z" transform="translate(-305.014 -197.577)" fill="#fff"/>
            <path id="Path_178" data-name="Path 178" d="M376.21,217.966a2.8,2.8,0,1,1,2.292-3.226,2.8,2.8,0,0,1-2.292,3.226Z" transform="translate(-295.021 -199.263)" fill="#fff"/>
            <path id="Path_179" data-name="Path 179" d="M392.2,215.266a2.8,2.8,0,1,1,2.291-3.226l0,.01A2.8,2.8,0,0,1,392.2,215.266Z" transform="translate(-285.013 -200.953)" fill="#fff"/>
            <path id="Path_180" data-name="Path 180" d="M408.182,212.57a2.8,2.8,0,1,1,2.291-3.226l0,.011A2.8,2.8,0,0,1,408.182,212.57Z" transform="translate(-275.012 -202.639)" fill="#fff"/>
            <path id="Path_181" data-name="Path 181" d="M424.161,209.88a2.8,2.8,0,1,1,2.291-3.226,2.8,2.8,0,0,1-2.291,3.226Z" transform="translate(-265.01 -204.324)" fill="#fff"/>
            <path id="Path_182" data-name="Path 182" d="M330.486,239.16a2.79,2.79,0,1,1,1.813-1.132A2.787,2.787,0,0,1,330.486,239.16Z" transform="translate(-323.626 -185.987)" fill="#fff"/>
            <circle id="Ellipse_22" data-name="Ellipse 22" cx="2.797" cy="2.797" r="2.797" transform="translate(29.599 43.221)" fill="#fff"/>
            <path id="Path_183" data-name="Path 183" d="M362.461,233.771a2.788,2.788,0,1,1,1.814-1.133A2.789,2.789,0,0,1,362.461,233.771Z" transform="translate(-303.614 -189.36)" fill="#fff"/>
            <path id="Path_184" data-name="Path 184" d="M378.424,231.078a2.792,2.792,0,1,1,1.818-1.136A2.789,2.789,0,0,1,378.424,231.078Z" transform="translate(-293.622 -191.046)" fill="#fff"/>
            <path id="Path_185" data-name="Path 185" d="M394.412,228.39a2.8,2.8,0,1,1,2.292-3.226,2.8,2.8,0,0,1-2.292,3.226Z" transform="translate(-283.629 -192.739)" fill="#fff"/>
            <path id="Path_186" data-name="Path 186" d="M410.385,225.683a2.786,2.786,0,1,1,1.813-1.132A2.785,2.785,0,0,1,410.385,225.683Z" transform="translate(-273.62 -194.422)" fill="#fff"/>
            <path id="Path_187" data-name="Path 187" d="M426.38,222.989a2.787,2.787,0,1,1,1.813-1.132A2.789,2.789,0,0,1,426.38,222.989Z" transform="translate(-263.61 -196.108)" fill="#fff"/>
            <path id="Path_188" data-name="Path 188" d="M332.709,252.293A2.8,2.8,0,1,1,335,249.069a2.8,2.8,0,0,1-2.293,3.224Z" transform="translate(-322.246 -177.779)" fill="#fff"/>
            <path id="Path_189" data-name="Path 189" d="M348.69,249.589a2.8,2.8,0,1,1,2.289-3.226l0,.011A2.8,2.8,0,0,1,348.69,249.589Z" transform="translate(-312.246 -179.47)" fill="#fff"/>
            <path id="Path_190" data-name="Path 190" d="M364.669,246.9a2.8,2.8,0,1,1,2.291-3.224l0,.01A2.8,2.8,0,0,1,364.669,246.9Z" transform="translate(-302.245 -181.156)" fill="#fff"/>
            <path id="Path_191" data-name="Path 191" d="M380.648,244.2a2.8,2.8,0,1,1,2.294-3.222l0,.008A2.8,2.8,0,0,1,380.648,244.2Z" transform="translate(-292.242 -182.843)" fill="#fff"/>
            <path id="Path_192" data-name="Path 192" d="M396.628,241.509a2.8,2.8,0,1,1,2.291-3.226,2.8,2.8,0,0,1-2.291,3.226Z" transform="translate(-282.242 -184.528)" fill="#fff"/>
            <path id="Path_193" data-name="Path 193" d="M412.608,238.8a2.8,2.8,0,1,1,2.291-3.226,2.8,2.8,0,0,1-2.291,3.226Z" transform="translate(-272.241 -186.226)" fill="#fff"/>
            <path id="Path_194" data-name="Path 194" d="M428.6,236.111a2.8,2.8,0,1,1,2.245-3.257l.008.042A2.8,2.8,0,0,1,428.6,236.111Z" transform="translate(-262.254 -187.902)" fill="#fff"/>
            <path id="Path_195" data-name="Path 195" d="M334.913,265.4a2.787,2.787,0,1,1,1.816-1.135A2.787,2.787,0,0,1,334.913,265.4Z" transform="translate(-320.855 -169.563)" fill="#fff"/>
            <path id="Path_196" data-name="Path 196" d="M350.9,262.691a2.8,2.8,0,1,1,2.292-3.224,2.8,2.8,0,0,1-2.292,3.224Z" transform="translate(-310.862 -171.271)" fill="#fff"/>
            <path id="Path_197" data-name="Path 197" d="M366.872,260.008a2.787,2.787,0,1,1,1.813-1.132A2.789,2.789,0,0,1,366.872,260.008Z" transform="translate(-300.854 -172.939)" fill="#fff"/>
            <path id="Path_198" data-name="Path 198" d="M382.851,257.307a2.786,2.786,0,1,1,1.815-1.132A2.787,2.787,0,0,1,382.851,257.307Z" transform="translate(-290.853 -174.63)" fill="#fff"/>
            <path id="Path_199" data-name="Path 199" d="M398.832,254.619a2.79,2.79,0,1,1,1.816-1.137A2.79,2.79,0,0,1,398.832,254.619Z" transform="translate(-280.85 -176.313)" fill="#fff"/>
            <path id="Path_200" data-name="Path 200" d="M414.81,251.931a2.786,2.786,0,1,1,1.818-1.135A2.788,2.788,0,0,1,414.81,251.931Z" transform="translate(-270.849 -177.994)" fill="#fff"/>
            <path id="Path_201" data-name="Path 201" d="M430.8,249.238a2.8,2.8,0,1,1,2.293-3.224,2.8,2.8,0,0,1-2.293,3.224Z" transform="translate(-260.857 -179.691)" fill="#fff"/>
            <path id="Path_202" data-name="Path 202" d="M337.117,278.53a2.794,2.794,0,1,1,1.845-1.119A2.8,2.8,0,0,1,337.117,278.53Z" transform="translate(-319.457 -161.363)" fill="#fff"/>
            <path id="Path_203" data-name="Path 203" d="M353.117,275.833a2.8,2.8,0,1,1,2.291-3.224,2.8,2.8,0,0,1-2.291,3.224Z" transform="translate(-309.475 -163.046)" fill="#fff"/>
            <path id="Path_204" data-name="Path 204" d="M369.1,273.141a2.8,2.8,0,1,1,2.293-3.224,2.8,2.8,0,0,1-2.293,3.224Z" transform="translate(-299.473 -164.731)" fill="#fff"/>
            <path id="Path_205" data-name="Path 205" d="M385.076,270.457a2.8,2.8,0,1,1,2.289-3.226l0,.01A2.8,2.8,0,0,1,385.076,270.457Z" transform="translate(-289.473 -166.411)" fill="#fff"/>
            <path id="Path_206" data-name="Path 206" d="M401.055,267.743a2.8,2.8,0,1,1,2.291-3.226l0,.011A2.8,2.8,0,0,1,401.055,267.743Z" transform="translate(-279.471 -168.108)" fill="#fff"/>
            <path id="Path_207" data-name="Path 207" d="M417.034,265.08a2.8,2.8,0,1,1,2.292-3.224,2.8,2.8,0,0,1-2.292,3.224Z" transform="translate(-269.47 -169.776)" fill="#fff"/>
            <path id="Path_208" data-name="Path 208" d="M433.015,262.357a2.8,2.8,0,1,1,2.291-3.226,2.8,2.8,0,0,1-2.291,3.226Z" transform="translate(-259.469 -171.481)" fill="#fff"/>
            <path id="Path_209" data-name="Path 209" d="M339.339,291.639a2.786,2.786,0,1,1,1.814-1.132A2.788,2.788,0,0,1,339.339,291.639Z" transform="translate(-318.085 -153.143)" fill="#fff"/>
            <path id="Path_210" data-name="Path 210" d="M355.293,288.968a2.789,2.789,0,1,1,1.813-1.132A2.788,2.788,0,0,1,355.293,288.968Z" transform="translate(-308.1 -154.814)" fill="#fff"/>
            <path id="Path_211" data-name="Path 211" d="M371.3,286.249a2.786,2.786,0,1,1,1.818-1.135A2.788,2.788,0,0,1,371.3,286.249Z" transform="translate(-298.081 -156.515)" fill="#fff"/>
            <path id="Path_212" data-name="Path 212" d="M387.285,283.563a2.8,2.8,0,1,1,2.292-3.226,2.8,2.8,0,0,1-2.292,3.226Z" transform="translate(-288.089 -158.208)" fill="#fff"/>
            <path id="Path_213" data-name="Path 213" d="M403.258,280.856a2.787,2.787,0,1,1,1.813-1.132A2.789,2.789,0,0,1,403.258,280.856Z" transform="translate(-278.081 -159.891)" fill="#fff"/>
            <path id="Path_214" data-name="Path 214" d="M419.212,278.162a2.787,2.787,0,1,1,1.813-1.132A2.789,2.789,0,0,1,419.212,278.162Z" transform="translate(-268.096 -161.577)" fill="#fff"/>
            <path id="Path_215" data-name="Path 215" d="M435.216,275.467a2.787,2.787,0,1,1,1.818-1.135A2.786,2.786,0,0,1,435.216,275.467Z" transform="translate(-258.078 -163.264)" fill="#fff"/>
            <path id="Path_216" data-name="Path 216" d="M341.567,304.763a2.8,2.8,0,1,1,2.28-3.234l0,.02A2.8,2.8,0,0,1,341.567,304.763Z" transform="translate(-316.71 -144.938)" fill="#fff"/>
            <path id="Path_217" data-name="Path 217" d="M357.547,302.069a2.8,2.8,0,1,1,2.279-3.234l0,.018A2.8,2.8,0,0,1,357.547,302.069Z" transform="translate(-306.709 -146.625)" fill="#fff"/>
            <path id="Path_218" data-name="Path 218" d="M373.525,299.375a2.8,2.8,0,1,1,2.281-3.232l0,.006A2.8,2.8,0,0,1,373.525,299.375Z" transform="translate(-296.707 -148.311)" fill="#fff"/>
            <path id="Path_219" data-name="Path 219" d="M389.5,296.68a2.8,2.8,0,1,1,2.281-3.232l0,.008A2.8,2.8,0,0,1,389.5,296.68Z" transform="translate(-286.706 -149.998)" fill="#fff"/>
            <path id="Path_220" data-name="Path 220" d="M405.485,293.989a2.8,2.8,0,1,1,2.281-3.232v.007A2.8,2.8,0,0,1,405.485,293.989Z" transform="translate(-276.705 -151.682)" fill="#fff"/>
            <path id="Path_221" data-name="Path 221" d="M421.464,291.286a2.8,2.8,0,1,1,2.279-3.232l0,.018A2.8,2.8,0,0,1,421.464,291.286Z" transform="translate(-266.704 -153.373)" fill="#fff"/>
            <path id="Path_222" data-name="Path 222" d="M437.445,288.592a2.8,2.8,0,1,1,2.28-3.234l0,.018A2.8,2.8,0,0,1,437.445,288.592Z" transform="translate(-256.704 -155.06)" fill="#fff"/>
            <path id="Path_223" data-name="Path 223" d="M343.774,317.888a2.8,2.8,0,1,1,2.291-3.226,2.8,2.8,0,0,1-2.291,3.226Z" transform="translate(-315.322 -136.726)" fill="#fff"/>
            <path id="Path_224" data-name="Path 224" d="M359.737,315.174a2.778,2.778,0,1,1,1.818-1.13A2.778,2.778,0,0,1,359.737,315.174Z" transform="translate(-305.306 -138.402)" fill="#fff"/>
            <path id="Path_225" data-name="Path 225" d="M375.717,312.481a2.781,2.781,0,1,1,1.816-1.13A2.778,2.778,0,0,1,375.717,312.481Z" transform="translate(-295.304 -140.088)" fill="#fff"/>
            <path id="Path_226" data-name="Path 226" d="M391.734,309.793a2.789,2.789,0,1,1,1.818-1.136A2.787,2.787,0,0,1,391.734,309.793Z" transform="translate(-285.292 -141.781)" fill="#fff"/>
            <path id="Path_227" data-name="Path 227" d="M407.683,307.1a2.787,2.787,0,1,1,1.818-1.135A2.788,2.788,0,0,1,407.683,307.1Z" transform="translate(-275.31 -143.467)" fill="#fff"/>
            <path id="Path_228" data-name="Path 228" d="M423.656,304.391a2.778,2.778,0,1,1,1.816-1.128A2.777,2.777,0,0,1,423.656,304.391Z" transform="translate(-265.301 -145.15)" fill="#fff"/>
            <path id="Path_229" data-name="Path 229" d="M439.635,301.7a2.775,2.775,0,1,1,1.818-1.128A2.776,2.776,0,0,1,439.635,301.7Z" transform="translate(-255.3 -146.836)" fill="#fff"/>
          </g>
        </g>
      </g>
    </g>
    <text id="_2" data-name="2" transform="translate(859.12 2108.91)" fill="#fff" font-size="210" font-family="TaipeiSansTCBeta-Bold, Taipei Sans TC Beta" font-weight="700" letter-spacing="0.08em"><tspan x="0" y="0">2</tspan></text>
    <g id="Group_334-2" data-name="Group 334" transform="translate(1214.363 1710.529)">
      <path id="Path_73-2" data-name="Path 73" d="M530.946,405.185c-3.065-7.546-8.847-11.591-15.692-12.348-8.624-.965-17.373,3.991-17.373,3.991s3.248-12.458-1.165-22.259c-2.995-6.691-7.783-12.979-14.417-14.628-6.876-1.708-14.169,1.638-19.292,7s-8.4,12.334-11.369,19.346c-1.526-4.982-3.541-10.555-8.034-12.4s-10.026,1.4-12.461,6.119-2.564,10.443-2.226,15.861c-5.39-3.236-12.264-4.2-17.668-.952a14.371,14.371,0,0,0-6.44,10.333Z" transform="translate(-404.809 -359.491)" fill="#daf0fd"/>
    </g>
  </g>
</svg>
