<svg id="Group_694" data-name="Group 694" xmlns="http://www.w3.org/2000/svg" width="155.234" height="292.054" viewBox="0 0 155.234 292.054">
  <path id="Path_284" data-name="Path 284" d="M69.67,229.3s.988,43.523,3.648,58.477c2.99,16.748,27.912,50.522,27.912,50.522l-5.772,5.712-8.552,4.077s-21.819-20.831-34.083-46.912C42.166,278.559,41.7,231.6,41.7,231.6" transform="translate(46.985 -77.641)" fill="#e7b6df"/>
  <path id="Path_285" data-name="Path 285" d="M37.737,318.941a4.291,4.291,0,0,1,0-2.86L46.629,303c8.5-1.564,15.95-9.23,15.95-9.23L70.015,302a.657.657,0,0,1-.209.9L39.9,321.764C39.212,322.142,37.747,318.971,37.737,318.941Z" transform="translate(85.119 -34.526)" fill="#0a244b"/>
  <path id="Path_286" data-name="Path 286" d="M50.812,300.628a17.024,17.024,0,0,1,3.59,1.8" transform="translate(78.603 -29.941)" fill="none" stroke="#002b6e" stroke-linejoin="round" stroke-width="0.75"/>
  <path id="Path_287" data-name="Path 287" d="M51.744,301.77a15.74,15.74,0,0,1,2.99,1.564" transform="translate(76.715 -29.177)" fill="none" stroke="#002b6e" stroke-linejoin="round" stroke-width="0.75"/>
  <path id="Path_288" data-name="Path 288" d="M52.4,302.672a20.5,20.5,0,0,1,2.77,1.415" transform="translate(75.179 -28.574)" fill="none" stroke="#002b6e" stroke-linejoin="round" stroke-width="0.75"/>
  <line id="Line_4" data-name="Line 4" x1="30.664" y2="19.309" transform="translate(123.334 266.142)" fill="none" stroke="#002b6e" stroke-linejoin="round" stroke-width="0.75"/>
  <path id="Path_289" data-name="Path 289" d="M45.839,295.521s-7.081,4.724-4.985,9.44" transform="translate(104.431 -33.356)" fill="none" stroke="#002b6e" stroke-linejoin="round" stroke-width="0.75"/>
  <path id="Path_290" data-name="Path 290" d="M52.825,305.563a27.763,27.763,0,0,1,4.985,2.6" transform="translate(71.836 -26.64)" fill="none" stroke="#002b6e" stroke-linejoin="round" stroke-width="0.75"/>
  <path id="Path_291" data-name="Path 291" d="M106.252,247.378s-1.674,25.46-2.83,44.93-3.439,63.918-3.439,63.918l-8.424,1.994-9.35-1.555s-2.423-38.38-2.423-63.8c0-26.3,1-63.565,1-63.565" transform="translate(-21.596 -77.642)" fill="#e7b6df"/>
  <path id="Path_298" data-name="Path 298" d="M84.414,153.909c4.566-1,8.9,1.992,10.965,5.193.639,1,1.136,2.1,1.856,3.061,4.556,5.981,22.927,4.157,19.279,16.018-.419,1.367-1.217,2.635-1.335,4.048-.15,1.784.786,3.449,1.275,5.163a11.054,11.054,0,0,1-7.975,13.3c-2.542.539-5.363.18-7.564,1.565-1.994,1.295-2.99,3.748-4.427,5.68-3.987,5.3-11.842,6.35-18.063,4.087-2.353-.856-4.706-2.261-5.712-4.556-.576-1.3-.668-2.81-1.415-3.987-1.435-2.353-4.626-2.742-6.977-4.107-3.439-1.994-5.454-6.55-3.888-10.258s4.985-7.286,5.762-11.363c.431-2.263-.189-4.636.27-6.9a7.365,7.365,0,0,1,2.642-4.3c.916-.741,1.992-1.235,2.92-1.992,1.924-1.565,2.173-4.387,4.147-5.983s4.606-2.139,6.728-3.518" transform="translate(0.859 -128.191)" fill="#fdd499"/>
  <path id="Path_299" data-name="Path 299" d="M156.429,186.471c-11.583-3.241-28.581-2.563-42.148-15.95s-19.409-23.656-19.409-23.656l-10.456,8.244s13.727,26.326,25.919,35.179c16.089,11.635,27.016,13.439,36.256,15.1" transform="translate(-79.5 -132.771)" fill="#e7b6df"/>
  <path id="Path_300" data-name="Path 300" d="M137.834,156.89c-2.86-4.377-9.769-16.946-10.737-16.778s1.247,4.527.439,4.486-4.684-6.56-5.612-6.161c-1.257.529,3.061,6.979,3.061,6.979s-1.126-1.153-2.083-.379c-.677.557.139,2.512.139,2.512s-1.3-1.3-1.994-.708.24,2.91.24,2.91a1.686,1.686,0,0,0-1.635,0c-.659.519,2.732,8.324,9.051,18.451" transform="translate(-119.57 -138.419)" fill="#e7b6df"/>
  <path id="Path_301" data-name="Path 301" d="M125.019,143.144a24.95,24.95,0,0,1,0,3.836,6.428,6.428,0,0,0,.459,3.778" transform="translate(-116.136 -135.26)" fill="none" stroke="#aa1f6f" stroke-linejoin="round" stroke-width="0.75"/>
  <path id="Path_302" data-name="Path 302" d="M131.128,142.941c.269.728.529,1.475.748,2.223a10.843,10.843,0,0,1,.269,1.126,2.632,2.632,0,0,1,.07,1.07c-.06.17-.06.18-.189.18a.773.773,0,0,1-.412-.14,4.656,4.656,0,0,1-.848-.708,19.11,19.11,0,0,1-1.465-1.756.33.33,0,0,0-.569.334l.01.015h0c.36.669.7,1.367,1,2.064a11.138,11.138,0,0,1,.369,1.056,2.386,2.386,0,0,1,.14,1c-.05.11,0,.06-.082.083a.582.582,0,0,1-.36-.083,2.771,2.771,0,0,1-.808-.637,10.863,10.863,0,0,1-1.335-1.794h0a.324.324,0,0,0-.567.309c.3.627.607,1.267.866,1.914a7.941,7.941,0,0,1,.607,1.994.815.815,0,0,1,0,.411c0,.083-.1.11-.247.09a2.228,2.228,0,0,1-.823-.529,12.37,12.37,0,0,1-1.385-1.584,10.054,10.054,0,0,0,1.215,1.754,2.371,2.371,0,0,0,.906.688.726.726,0,0,0,.359,0,.478.478,0,0,0,.319-.247,1.235,1.235,0,0,0,.11-.629,8.318,8.318,0,0,0-.509-2.133,19.985,19.985,0,0,0-.808-1.992l-.567.3a10.616,10.616,0,0,0,1.4,1.994,3.535,3.535,0,0,0,1,.808,1.316,1.316,0,0,0,.758.159.758.758,0,0,0,.469-.2.844.844,0,0,0,.239-.439,2.715,2.715,0,0,0-.149-1.335,10.141,10.141,0,0,0-.431-1.116,22.7,22.7,0,0,0-1.056-2.114l-.557.359a13.461,13.461,0,0,0,1.6,1.794,5.083,5.083,0,0,0,1,.741,1.294,1.294,0,0,0,.7.16.577.577,0,0,0,.419-.189.727.727,0,0,0,.169-.369,5.328,5.328,0,0,0-.527-2.383A23.1,23.1,0,0,0,131.128,142.941Z" transform="translate(-125.344 -135.396)" fill="#aa1f6f"/>
  <path id="Path_303" data-name="Path 303" d="M80.427,156.56c.549-.3,1.277-.209,1.746-.619a2.565,2.565,0,0,0,.459-2.777c-.529-1.457-2.4-2.094-3.828-1.884-3.409.507-2.882,3.786-.8,4.985" transform="translate(7.548 -129.845)" fill="#fdd499"/>
  <path id="Path_304" data-name="Path 304" d="M106.725,204.087s12.232,13.05,14.563,30.824,2.363,46.7,2.363,46.7-35.241,6.46-67.289-.688c1.227-14.784,0-56.144,11.186-76.838" transform="translate(0.092 -94.504)" fill="#0c3d59"/>
  <path id="Path_305" data-name="Path 305" d="M77.2,284.372s1.106-44.639-4.077-59.713c-4.058-11.832-12.96-23.266-12.96-23.266" transform="translate(40.105 -96.305)" fill="none" stroke="#354e90" stroke-miterlimit="10" stroke-width="0.75"/>
  <path id="Path_306" data-name="Path 306" d="M88.066,168.633l-4.177,19.938a59.659,59.659,0,0,0,16.618,3.788c4.556-.083,11.453-17.814,8.851-21.223C101.751,168.853,88.066,168.633,88.066,168.633Z" transform="translate(-32.119 -118.214)" fill="#175fab"/>
  <path id="Path_307" data-name="Path 307" d="M112.022,190.264s.547,23.328-.848,36.815c-19.678,4.357-39.178,0-39.178,0l-1.355-21.193c-9.831-10.089-1.217-23.157-1.217-23.157L81.6,170.385l12.172-.678Z" transform="translate(-4.358 -117.496)" fill="#175fab"/>
  <path id="Path_308" data-name="Path 308" d="M59.558,169.765s10.815-1.716,21.273,6.887c2.361,1.934,5.293,5.981,7.725,10.877l-16.868,11.1-9.968-11.1" transform="translate(29.854 -117.55)" fill="#175fab"/>
  <path id="Path_309" data-name="Path 309" d="M91.518,186.746c.823-3.121,3.129-8.033,3.129-11.032" transform="translate(-29.571 -113.478)" fill="none" stroke="#002b6e" stroke-linejoin="round" stroke-width="0.75"/>
  <line id="Line_6" data-name="Line 6" x1="4.765" y2="20.725" transform="translate(54.361 50.529)" fill="none" stroke="#002b6e" stroke-linejoin="round" stroke-width="0.75"/>
  <line id="Line_7" data-name="Line 7" x1="12.222" y2="7.596" transform="translate(104.712 67.227)" fill="none" stroke="#002b6e" stroke-linejoin="round" stroke-width="0.75"/>
  <path id="Path_310" data-name="Path 310" d="M79.856,156.844s-4.476,11.623-1.116,15.162c1.736,1.844,7.786.818,10.058-.918,1.7-1.3,3.928-8.975,2.99-10.486C88.33,155,79.856,156.844,79.856,156.844Z" transform="translate(-3.525 -126.292)" fill="#e7b6df"/>
  <path id="Path_311" data-name="Path 311" d="M88.648,162.857l.459,11.436c-.906,2.882-10.627,5.622-12.172.678l1-8.582Z" transform="translate(0.305 -122.077)" fill="#e7b6df"/>
  <path id="Path_312" data-name="Path 312" d="M95.529,167.8a9.327,9.327,0,0,0,.479-3.4,13.159,13.159,0,0,0-.659-4.307,9.525,9.525,0,0,0-4.876-5.372c-2.243-1.071-6.538-2.074-10.028,0a6.487,6.487,0,0,0-4.985,1.524,4.986,4.986,0,0,0-1.505,4.874l9.964-1.135a9.526,9.526,0,0,0,3.489,4.446c1.535,1,3.221,2.353,2.582,4.5-.259.888.7,1.056.7,2.782,1.784-.19,4.426-2.742,4.834-3.778A.342.342,0,0,0,95.529,167.8Z" transform="translate(-1.4 -128.325)" fill="#fdd499"/>
  <path id="Path_313" data-name="Path 313" d="M77.261,162.26c1.056-1.635,1.993-1.484,2.652-.7.818,1.046-.379,3.489-1,3.988-1.257.926-2.351.936-2.552-.14" transform="translate(10.176 -123.324)" fill="#e7b6df"/>
  <path id="Path_314" data-name="Path 314" d="M79.415,167.478a12.021,12.021,0,0,0,7.336-2.214" transform="translate(-1.478 -120.467)" fill="none" stroke="#aa1f6f" stroke-linejoin="round" stroke-width="0.75"/>
  <path id="Path_315" data-name="Path 315" d="M86.085,160.253s-2.85,2.47-2.78,3.249,1.844,1.106,1.844,1.106" transform="translate(-7.302 -123.818)" fill="none" stroke="#aa1f6f" stroke-linejoin="round" stroke-width="0.5"/>
  <path id="Path_316" data-name="Path 316" d="M82.453,163.263l4.8,1.327a3.181,3.181,0,0,1-3.858,1.5C81.555,165.467,82.453,163.263,82.453,163.263Z" transform="translate(-6.688 -121.805)" fill="#fff"/>
  <path id="Path_317" data-name="Path 317" d="M85.441,159.865a1.255,1.255,0,0,1,0,.159.646.646,0,0,0,0,.16,1.152,1.152,0,0,1-.16.4.351.351,0,0,1-.1.11.346.346,0,0,1-.128.07h-.2a.454.454,0,0,1-.15,0h-.088a.524.524,0,0,1-.1-.11.382.382,0,0,1,0-.309,2.141,2.141,0,0,1,.1-.24l.082-.149.082-.15.09-.14a.349.349,0,0,1,.2-.16.442.442,0,0,1,.229,0,.291.291,0,0,1,.177.372l-.018.04Z" transform="translate(-8.671 -124.328)" fill="#0a244b"/>
  <path id="Path_318" data-name="Path 318" d="M85.639,159.278a1.286,1.286,0,0,0-1.752-.489l-.052.03" transform="translate(-7.742 -124.908)" fill="none" stroke="#0a244b" stroke-linecap="round" stroke-linejoin="round" stroke-width="0.5"/>
  <path id="Path_319" data-name="Path 319" d="M82.068,161.126a.964.964,0,0,1,0,.17.75.75,0,0,1,0,.15,3.068,3.068,0,0,1-.1.319.262.262,0,0,1-.07.139.365.365,0,0,1-.108.1.472.472,0,0,1-.539-.18.412.412,0,0,1,0-.309c0-.128.108-.259.16-.389a1.1,1.1,0,0,0,.07-.149.93.93,0,0,1,.082-.15.372.372,0,0,1,.209-.16.276.276,0,0,1,.219,0,.245.245,0,0,1,.16.14v.082a.278.278,0,0,1,0,.18Z" transform="translate(0.096 -123.556)" fill="#0a244b"/>
  <path id="Path_320" data-name="Path 320" d="M80.244,159.657a2.4,2.4,0,0,1,2.3,1.325" transform="translate(1.341 -124.22)" fill="none" stroke="#0a244b" stroke-linecap="round" stroke-linejoin="round" stroke-width="0.5"/>
  <path id="Path_321" data-name="Path 321" d="M101.1,184.15c5.253,10.607,8.514,26.058-2.572,30.764-11.565,4.914-41.869-32.189-41.869-32.189l9.352-8.052,25.03,16.055" transform="translate(17.314 -114.174)" fill="#e7b6df"/>
  <line id="Line_8" data-name="Line 8" x2="7.487" y2="5.832" transform="translate(108.351 76.598)" fill="none" stroke="#aa1f6f" stroke-linejoin="round" stroke-width="0.75"/>
  <path id="Path_322" data-name="Path 322" d="M90.109,182.141h0a2.8,2.8,0,0,0,2.223-3.251l-1.993-10.747-5.474,1,1.994,10.747a2.791,2.791,0,0,0,3.239,2.254l.01,0Z" transform="translate(-16.2 -118.541)" fill="#132051"/>
  <path id="Path_323" data-name="Path 323" d="M87.73,175.186l4.377-1.076a5.822,5.822,0,0,0,4.285-7.029h0a5.822,5.822,0,0,0-7.036-4.277h0l-4.4,1.071a.478.478,0,0,0-.364.571l0,.017,2.523,10.4a.487.487,0,0,0,.606.329h0Z" transform="translate(-19.912 -122.224)" fill="#205ea9"/>
  <path id="Path_324" data-name="Path 324" d="M89.732,169.512c.758,3.121,2.233,5.442,3.294,5.187s1.307-2.99.549-6.121-2.243-5.443-3.3-5.187S88.975,166.391,89.732,169.512Z" transform="translate(-25.224 -121.733)" fill="#86bee8"/>
  <path id="Path_325" data-name="Path 325" d="M95.5,185.095s8.065-6.915,12.839-9.779c1.5-1.217,1-4.087.576-5.662-1.07-4.048-2.47-4.576-2.47-4.576-6.48.459-16.658-2.635-16.658-2.635" transform="translate(-41.375 -122.353)" fill="#132051"/>
  <path id="Path_326" data-name="Path 326" d="M106.181,173.387c1.784,7.047,1.585,13.178-.429,13.686s-5.095-4.794-6.869-11.857-1.585-13.178.429-13.686S104.407,166.328,106.181,173.387Z" transform="translate(-52.588 -122.986)" fill="#86bee8"/>
  <path id="Path_327" data-name="Path 327" d="M105.03,172.869c1.5,5.981,1.484,11.114,0,11.493s-3.987-4.135-5.472-10.1-1.5-11.116,0-11.494S103.527,166.907,105.03,172.869Z" transform="translate(-52.623 -122.15)" fill="#205ea9"/>
  <path id="Path_328" data-name="Path 328" d="M100.009,173.529a7.58,7.58,0,0,1,3.369-.07q-.268-1.607-.7-3.339a30.492,30.492,0,0,0-1-3.261,7.582,7.582,0,0,1-2.99,1.535Z" transform="translate(-50.274 -119.4)" fill="#132051"/>
  <path id="Path_330" data-name="Path 330" d="M98.9,179.391A124.517,124.517,0,0,0,87.514,172.6a9.489,9.489,0,0,0-7.176.15,4.107,4.107,0,0,0-1.746,1.207,3.7,3.7,0,0,0-.718,2.451.529.529,0,0,0,.169.439c.309.209.6-.269.8-.6a2.468,2.468,0,0,1,2.251-1.145c-.477,0-.7.477-.9.916a.8.8,0,0,0,.359,1.07.664.664,0,0,0,.149.057,1.057,1.057,0,0,0-.247,1.994.717.717,0,0,0-.4.786,1.888,1.888,0,0,0,.419.848,20.184,20.184,0,0,0,2.99,2.99c3.359,2.882,10.308,10.767,10.308,10.767" transform="translate(-11.044 -115.982)" fill="#e7b6df"/>
  <path id="Path_285-2" data-name="Path 285" d="M81.567,315.484a4.284,4.284,0,0,1,1.357-2.518l14.033-7.3c8.229,2.657,18.42-.559,18.42-.559l2.642,10.775a.658.658,0,0,1-.614.7L82.132,319C81.348,319,81.562,315.516,81.567,315.484Z" transform="translate(-36.285 -26.943)" fill="#0a244b"/>
  <path id="Path_286-2" data-name="Path 286" d="M94.637,305.951a16.99,16.99,0,0,1,2.3,3.289" transform="translate(-37.07 -26.381)" fill="none" stroke="#002b6e" stroke-linejoin="round" stroke-width="0.75"/>
  <path id="Path_287-2" data-name="Path 287" d="M95.931,306.683a15.767,15.767,0,0,1,1.891,2.8" transform="translate(-40.11 -25.891)" fill="none" stroke="#002b6e" stroke-linejoin="round" stroke-width="0.75"/>
  <path id="Path_288-2" data-name="Path 288" d="M96.895,307.228a20.538,20.538,0,0,1,1.769,2.56" transform="translate(-42.561 -25.527)" fill="none" stroke="#002b6e" stroke-linejoin="round" stroke-width="0.75"/>
  <line id="Line_4-2" data-name="Line 4" x1="36.154" y2="2.453" transform="translate(45.211 287.229)" fill="none" stroke="#002b6e" stroke-linejoin="round" stroke-width="0.75"/>
  <path id="Path_289-2" data-name="Path 289" d="M91.459,307.382s-8.476.8-8.866,5.947" transform="translate(-11.489 -25.424)" fill="none" stroke="#002b6e" stroke-linejoin="round" stroke-width="0.75"/>
  <path id="Path_290-2" data-name="Path 290" d="M98.977,308.943a27.735,27.735,0,0,1,3.154,4.654" transform="translate(-49.502 -24.38)" fill="none" stroke="#002b6e" stroke-linejoin="round" stroke-width="0.75"/>
</svg>
