<svg xmlns="http://www.w3.org/2000/svg" xmlns:xlink="http://www.w3.org/1999/xlink" width="1440" height="390" viewBox="0 0 1440 390">
  <defs>
    <clipPath id="clip-path">
      <rect id="Rectangle_2228" data-name="Rectangle 2228" width="1440" height="390" transform="translate(19469 4741)" fill="#fff" stroke="#707070" stroke-width="1"/>
    </clipPath>
    <clipPath id="clip-path-2">
      <rect id="Rectangle_2227" data-name="Rectangle 2227" width="1456" height="520" transform="translate(19459 4650)" fill="#fff" stroke="#707070" stroke-width="1"/>
    </clipPath>
    <clipPath id="clip-path-3">
      <rect id="Rectangle_2225" data-name="Rectangle 2225" width="1580" height="431" transform="translate(19459 4704)" fill="#fff" stroke="#707070" stroke-width="1"/>
    </clipPath>
    <clipPath id="clip-path-4">
      <rect id="Rectangle_2226" data-name="Rectangle 2226" width="1580" height="431" transform="translate(0 3)" fill="#fff" stroke="#707070" stroke-width="1"/>
    </clipPath>
  </defs>
  <g id="Mask_Group_26" data-name="Mask Group 26" transform="translate(-19469 -4741)" clip-path="url(#clip-path)">
    <g id="Mask_Group_25" data-name="Mask Group 25" clip-path="url(#clip-path-2)">
      <g id="Mask_Group_23" data-name="Mask Group 23" clip-path="url(#clip-path-3)">
        <g id="Group_791" data-name="Group 791" transform="translate(19441.783 4809)">
          <path id="Path_766" data-name="Path 766" d="M260.243,930.307H1860.754V357.241h0c-33.328-6-46.988-17.536-60.029-28.675-13.22-11.29-26.889-22.964-60.782-29.07s-54.63-.629-74.68,4.668c-19.782,5.225-40.238,10.631-73.57,4.627s-46.812-17.522-59.856-28.661c-13.219-11.29-26.887-22.965-60.778-29.069s-54.625-.628-74.673,4.668c-19.784,5.226-40.236,10.627-73.566,4.627s-46.813-17.521-59.854-28.66c-13.218-11.291-26.887-22.964-60.778-29.069s-54.625-.628-74.673,4.668c-19.782,5.226-40.238,10.63-73.566,4.627s-46.812-17.521-59.854-28.66c-13.218-11.29-26.887-22.964-60.778-29.069s-54.625-.629-74.673,4.668c-19.782,5.226-40.238,10.63-73.563,4.628s-46.813-17.521-59.852-28.661c-13.218-11.29-26.885-22.964-60.777-29.069s-54.623-.628-74.675,4.669c-19.782,5.226-40.238,10.629-73.563,4.627S469.4,97.534,456.364,86.395c-13.219-11.29-26.885-22.963-60.773-29.068S340.968,56.7,320.922,62c-19.779,5.225-40.235,10.631-73.557,4.628" transform="translate(-247.364 -54.639)" fill="#adcbdd"/>
        </g>
      </g>
      <g id="Mask_Group_24" data-name="Mask Group 24" transform="translate(19335 4736)" clip-path="url(#clip-path-4)">
        <g id="Group_792" data-name="Group 792" transform="translate(-13.173 -545.668)">
          <path id="Path_767" data-name="Path 767" d="M1847.875,54.639H247.364V627.7h0c33.328,6,46.988,17.536,60.029,28.675,13.22,11.29,26.889,22.964,60.782,29.07s54.63.629,74.68-4.668c19.782-5.225,40.238-10.631,73.57-4.627s46.813,17.522,59.856,28.661c13.218,11.29,26.887,22.965,60.779,29.069s54.625.628,74.673-4.668c19.784-5.226,40.237-10.627,73.566-4.627s46.813,17.521,59.854,28.66c13.218,11.291,26.887,22.964,60.779,29.069s54.625.628,74.673-4.668c19.782-5.226,40.238-10.63,73.566-4.627s46.813,17.521,59.854,28.66c13.218,11.29,26.887,22.964,60.778,29.069s54.625.629,74.673-4.668c19.782-5.226,40.238-10.63,73.563-4.628s46.813,17.521,59.852,28.661c13.219,11.29,26.885,22.964,60.777,29.069s54.623.628,74.675-4.669c19.782-5.226,40.238-10.629,73.563-4.627s46.809,17.521,59.849,28.66c13.219,11.29,26.885,22.963,60.773,29.068s54.623.626,74.669-4.671c19.779-5.225,40.235-10.631,73.557-4.628" transform="translate(-247.364 -54.639)" fill="#fff"/>
        </g>
      </g>
    </g>
  </g>
</svg>
