<svg xmlns="http://www.w3.org/2000/svg" xmlns:xlink="http://www.w3.org/1999/xlink" width="1920" height="1500" viewBox="0 0 1920 1500">
  <defs>
    <clipPath id="clip-path">
      <rect id="Rectangle_2217" data-name="Rectangle 2217" width="1920" height="686" fill="#fff"/>
    </clipPath>
  </defs>
  <g id="Group_781" data-name="Group 781" transform="translate(2904 -1242.273)">
    <g id="Group_780" data-name="Group 780" transform="translate(-2904 1242.273)">
      <g id="Mask_Group_21" data-name="Mask Group 21" transform="translate(0 0)" clip-path="url(#clip-path)">
        <path id="Path_726" data-name="Path 726" d="M2237.779,913.241H247.364v-561.9h0c41.447-5.887,58.434-17.194,74.653-28.116,16.441-11.07,33.439-22.516,75.589-28.5s67.938-.616,92.873,4.577c24.6,5.123,50.041,10.424,91.492,4.536s58.217-17.181,74.438-28.1c16.439-11.07,33.437-22.517,75.585-28.5s67.932-.615,92.864,4.577c24.6,5.124,50.039,10.42,91.488,4.536s58.217-17.179,74.435-28.1c16.439-11.071,33.437-22.516,75.585-28.5s67.932-.615,92.864,4.577c24.6,5.124,50.041,10.423,91.488,4.536s58.217-17.179,74.435-28.1c16.438-11.07,33.437-22.516,75.585-28.5s67.932-.616,92.864,4.577c24.6,5.124,50.041,10.423,91.484,4.538s58.216-17.179,74.433-28.1c16.439-11.07,33.435-22.516,75.583-28.5s67.93-.615,92.866,4.578c24.6,5.124,50.041,10.421,91.484,4.536s58.212-17.179,74.429-28.1c16.439-11.07,33.435-22.515,75.579-28.5s67.929-.614,92.86,4.579c24.6,5.123,50.037,10.424,91.477,4.538" transform="translate(-284.062 -55.239)" fill="#88adc2"/>
      </g>
      <g id="Mask_Group_22" data-name="Mask Group 22" transform="translate(0 814)" clip-path="url(#clip-path)">
        <path id="Path_727" data-name="Path 727" d="M263.38,54.639H2253.795v561.9h0c-41.447,5.887-58.435,17.194-74.653,28.116-16.441,11.07-33.439,22.516-75.589,28.5s-67.938.616-92.873-4.577c-24.6-5.123-50.041-10.424-91.492-4.536s-58.217,17.181-74.438,28.1c-16.439,11.07-33.437,22.517-75.585,28.5s-67.932.615-92.864-4.577c-24.6-5.125-50.039-10.42-91.488-4.536s-58.217,17.179-74.435,28.1c-16.438,11.071-33.437,22.516-75.585,28.5s-67.932.615-92.864-4.577c-24.6-5.124-50.041-10.423-91.488-4.536s-58.217,17.179-74.435,28.1c-16.439,11.07-33.437,22.516-75.585,28.5s-67.932.616-92.864-4.577c-24.6-5.124-50.041-10.423-91.483-4.538s-58.217,17.179-74.433,28.1c-16.439,11.07-33.435,22.516-75.583,28.5s-67.93.615-92.866-4.578c-24.6-5.124-50.041-10.421-91.484-4.536s-58.212,17.179-74.429,28.1c-16.439,11.07-33.435,22.515-75.579,28.5s-67.929.614-92.86-4.58c-24.6-5.123-50.036-10.424-91.477-4.537" transform="translate(-297.534 -226.914)" fill="#88adc2"/>
      </g>
      <rect id="Rectangle_2219" data-name="Rectangle 2219" width="1920" height="147" transform="translate(0 676.994)" fill="#88adc2"/>
    </g>
  </g>
</svg>
