<svg xmlns="http://www.w3.org/2000/svg" xmlns:xlink="http://www.w3.org/1999/xlink" width="1440" height="240" viewBox="0 0 1440 240">
  <defs>
    <clipPath id="clip-path">
      <rect id="Rectangle_2217" data-name="Rectangle 2217" width="1440" height="240" fill="#fff"/>
    </clipPath>
    <filter id="Path_726" x="-15" y="-5.424" width="1470" height="1599.951" filterUnits="userSpaceOnUse">
      <feOffset dy="5" input="SourceAlpha"/>
      <feGaussianBlur stdDeviation="5" result="blur"/>
      <feFlood flood-opacity="0.349"/>
      <feComposite operator="in" in2="blur"/>
      <feComposite in="SourceGraphic"/>
    </filter>
  </defs>
  <g id="Mask_Group_21" data-name="Mask Group 21" clip-path="url(#clip-path)">
    <g transform="matrix(1, 0, 0, 1, 0, 0)" filter="url(#Path_726)">
      <path id="Path_726-2" data-name="Path 726" d="M247.364,800.762l1440-2.555V-550.378h0c-29.746-4.342-41.938-12.68-53.578-20.735-11.8-8.164-24-16.6-54.25-21.02s-48.759-.455-66.654,3.376c-17.656,3.778-35.914,7.687-65.663,3.345s-41.782-12.67-53.423-20.725c-11.8-8.163-24-16.606-54.247-21.019s-48.754-.454-66.648,3.375c-17.658,3.779-35.912,7.685-65.66,3.345s-41.782-12.669-53.422-20.724c-11.8-8.164-24-16.6-54.247-21.019s-48.754-.454-66.648,3.376c-17.656,3.779-35.914,7.686-65.66,3.345s-41.782-12.669-53.422-20.724c-11.8-8.164-24-16.6-54.247-21.02s-48.754-.455-66.648,3.376c-17.656,3.779-35.914,7.686-65.657,3.346s-41.782-12.669-53.42-20.725c-11.8-8.164-24-16.6-54.245-21.02s-48.753-.454-66.649,3.376c-17.656,3.779-35.914,7.685-65.657,3.345s-41.778-12.669-53.417-20.724c-11.8-8.164-24-16.6-54.242-21.019s-48.752-.453-66.645,3.377c-17.653,3.778-35.911,7.687-65.652,3.346" transform="translate(-247.36 773.76)" fill="#fff"/>
    </g>
  </g>
</svg>
